<svg xmlns="http://www.w3.org/2000/svg" viewBox="-5637575 2397900 295400 291450"><g transform="translate(-5575350 2547550) scale(25 25)"><path d="M1088 1 C1001 1 915 32 852 95 L379 568 C1 978 1 1639 379 2017 C584 2222 852 2324 1115 2324 C1379 2324 1639 2222 1828 2017 C1891 1970 1986 1946 2076 1946 C2167 1946 2253 1970 2301 2017 C2427 2143 2427 2395 2301 2490 L1828 2962 C1734 3088 1734 3340 1828 3435 C1891 3498 1986 3529 2076 3529 C2167 3529 2253 3498 2301 3435 L2773 2962 C3183 2584 3183 1923 2773 1513 C2569 1293 2309 1182 2049 1182 C1789 1182 1529 1293 1324 1513 C1261 1576 1174 1608 1088 1608 C1001 1608 915 1576 852 1513 C726 1387 726 1167 852 1041 L1324 568 C1450 442 1450 221 1324 95 C1261 32 1174 1 1088 1 Z" fill="#F6620B"></path></g><g transform="translate(-5526500 2499525) scale(25 25)"><path d="M1107 0 C1016 0 930 32 882 95 L410 567 C0 945 0 1638 410 2016 L882 2489 L1355 2962 C1544 3166 1804 3269 2068 3269 C2332 3269 2599 3166 2804 2962 L3277 2489 C3403 2363 3403 2142 3277 2016 C3178 1918 3070 1870 2977 1870 C2892 1870 2818 1910 2773 1985 L2300 2457 C2237 2520 2143 2552 2052 2552 C1961 2552 1875 2520 1827 2457 L1575 2205 L2300 1512 C2395 1386 2395 1134 2300 1040 C2237 977 2143 945 2052 945 C1961 945 1875 977 1827 1040 L1103 1733 L882 1512 C756 1386 756 1166 882 1040 L1355 567 C1449 441 1449 221 1355 95 C1292 32 1197 0 1107 0 Z" fill="#113D34"></path></g><g transform="translate(-5480050 2456975) scale(25 25)"><path d="M1100 686 C1190 686 1277 710 1324 757 L2332 1765 C2490 1860 2490 2112 2332 2238 C2269 2285 2183 2309 2096 2309 C2009 2309 1923 2285 1860 2238 L852 1229 C757 1135 757 883 852 757 C915 710 1009 686 1100 686 Z M1119 1 C852 1 584 95 379 284 C1 694 1 1356 379 1765 L1387 2742 C1576 2931 1836 3025 2100 3025 C2364 3025 2632 2931 2836 2742 C3214 2332 3214 1671 2836 1293 L1860 284 C1655 95 1387 1 1119 1 Z" fill="#113D34"></path></g><g transform="translate(-5637575 2397900) scale(25 25)"><path d="M9185 1479 C9245 1479 9245 1482 9263 1482 C9421 1482 9579 1513 9673 1545 L9106 2143 C8980 2269 8980 2490 9106 2616 C9153 2679 9240 2710 9330 2710 C9421 2710 9515 2679 9579 2616 L10146 2017 C10272 2175 10303 2332 10303 2553 L10146 5325 C10114 5798 9925 6239 9515 6554 L9484 6585 L8570 7499 C5231 10902 5829 10303 5199 10902 C5136 10949 5050 10972 4963 10972 C4876 10972 4790 10949 4727 10902 L820 6995 C694 6869 694 6648 820 6522 L5262 2112 C5577 1797 5987 1639 6365 1608 C8503 1495 9033 1479 9185 1479 Z M11422 1 C11335 1 11248 32 11185 95 L10240 1041 C9958 871 9650 752 9316 752 C9278 752 9239 754 9200 757 L6428 883 C5829 915 5262 1167 4853 1608 L379 6018 C1 6396 1 7058 379 7468 L4286 11374 C4490 11563 4758 11658 5022 11658 C5286 11658 5546 11563 5735 11374 L9137 7972 L10051 7058 C10555 6648 10870 6018 10902 5388 L11059 2584 C11059 2238 10996 1828 10776 1545 L11721 600 C11815 442 11815 221 11658 95 C11595 32 11508 1 11422 1 Z" fill="#113D34"></path></g></svg>