<svg xmlns="http://www.w3.org/2000/svg" viewBox="5775900 2308125 295375 295375"><g transform="translate(5984625 2482975) scale(25 25)"><path d="M378 0 C158 0 0 158 0 347 C0 568 158 725 378 725 C567 725 725 568 725 347 C725 158 567 0 378 0 Z" fill="#113D34"></path></g><g transform="translate(5775900 2308125) scale(25 25)"><path d="M7845 725 C7719 914 7656 1166 7656 1450 C7656 1670 7719 1922 7845 2143 L1387 2143 C1009 2143 694 1828 694 1450 C694 1040 1009 725 1387 725 Z M6112 6994 C5955 7183 5829 7436 5766 7719 L3466 7719 L3466 6994 Z M694 2678 C883 2773 1103 2867 1387 2867 L1387 10460 C1009 10460 694 10145 694 9767 L694 2678 Z M8381 2836 L8381 5608 C7814 5703 7247 5923 6774 6301 L3151 6301 C2962 6301 2804 6459 2804 6648 L2804 8034 C2804 8223 2962 8381 3151 8381 L5640 8381 L5640 8727 C5640 9357 5829 9956 6144 10492 L2080 10492 L2080 10460 L2080 2836 Z M8727 6301 C10050 6301 11153 7404 11153 8727 C11153 10082 10050 11216 8727 11216 C7373 11216 6270 10113 6270 8727 C6270 7373 7373 6301 8727 6301 Z M1387 0 C630 0 0 630 0 1355 L0 9704 C0 10460 630 11090 1387 11090 L6742 11090 C7310 11563 8003 11815 8727 11815 C10460 11815 11815 10334 11815 8664 C11815 7120 10618 5829 9074 5608 L9074 2458 C9074 2269 9042 2143 8822 2080 C8538 1985 8349 1733 8349 1418 C8349 1135 8538 851 8822 725 C8979 694 9074 536 9074 410 L9074 347 C9074 158 8916 0 8727 0 Z" fill="#113D34"></path></g><g transform="translate(5984625 2508975) scale(25 25)"><path d="M378 0 C158 0 0 158 0 347 L0 2111 C0 2300 158 2458 378 2458 C567 2458 725 2300 725 2111 L725 347 C725 158 567 0 378 0 Z" fill="#F6620B"></path></g><g transform="translate(5845200 2395550) scale(25 25)"><path d="M347 0 C158 0 1 158 1 347 C1 599 158 694 347 694 L4569 694 C4758 694 4916 536 4916 347 C4916 158 4758 0 4569 0 Z" fill="#F6620B"></path></g><g transform="translate(5845200 2431000) scale(25 25)"><path d="M347 0 C158 0 1 158 1 347 C1 536 158 693 347 693 L4569 693 C4758 693 4916 536 4916 347 C4916 158 4758 0 4569 0 Z" fill="#113D34"></path></g></svg>