<svg xmlns="http://www.w3.org/2000/svg" viewBox="-31523625 1939525 291450 291425"><g transform="translate(-31523625 1939525) scale(25 25)"><path d="M2269 756 C2899 756 3372 1260 3372 1859 C3372 2363 3057 2615 2805 2867 C2710 2962 2679 3025 2679 3119 L2679 7246 C2679 7341 2710 7435 2805 7498 C3057 7750 3372 8002 3372 8506 C3372 9137 2868 9609 2269 9609 L1765 9609 C1167 9609 663 9137 663 8506 C663 8002 978 7750 1261 7498 C1324 7404 1356 7341 1356 7246 L1356 3119 C1356 3025 1324 2930 1261 2867 C978 2615 663 2363 663 1859 C663 1229 1167 756 1765 756 Z M10650 2048 C10870 2048 11028 2205 11028 2395 L11028 9294 L10965 9294 C10965 9483 10807 9641 10618 9641 L3687 9641 C3939 9326 4097 8948 4097 8538 C4097 8065 3876 7593 3561 7278 L3404 7120 L3404 3245 C3624 3025 4002 2710 4097 2048 Z M4758 10334 L4758 10649 C4758 10838 4601 10995 4412 10995 L2710 10995 C2521 10995 2364 10838 2364 10649 L2364 10334 Z M1797 0 C820 0 1 788 1 1827 C1 2300 190 2773 505 3088 L663 3245 L663 7089 C474 7278 1 7719 1 8506 C1 9452 694 10208 1639 10271 L1734 10271 L1734 10649 C1734 11184 2206 11657 2742 11657 L4443 11657 C5010 11657 5451 11184 5451 10649 L5451 10334 L10618 10334 C11185 10334 11658 9861 11658 9294 L11658 2395 C11658 1827 11185 1386 10618 1386 L4034 1386 C3845 599 3151 0 2301 0 Z" fill="#113D34"></path></g><g transform="translate(-31404675 2007250) scale(25 25)"><path d="M4852 725 L4852 1418 L693 1418 L693 725 Z M347 1 C158 1 0 158 0 379 L0 1733 C0 1954 158 2111 347 2111 L5199 2111 C5388 2111 5545 1954 5545 1733 L5545 379 C5514 158 5356 1 5199 1 Z" fill="#F6620B"></path></g><g transform="translate(-31404675 2077350) scale(25 25)"><path d="M347 0 C158 0 0 158 0 347 C0 568 158 725 347 725 L1008 725 C1229 725 1386 568 1386 347 C1386 158 1229 0 1008 0 Z" fill="#113D34"></path></g><g transform="translate(-31353475 2077350) scale(25 25)"><path d="M347 0 C158 0 0 158 0 347 C0 568 158 725 347 725 L1071 725 C1260 725 1418 568 1418 347 C1418 158 1260 0 1071 0 Z" fill="#113D34"></path></g><g transform="translate(-31301500 2077350) scale(25 25)"><path d="M347 0 C158 0 0 158 0 347 C0 568 158 725 347 725 L1072 725 C1261 725 1418 568 1418 347 C1387 158 1229 0 1072 0 Z" fill="#113D34"></path></g><g transform="translate(-31404675 2112000) scale(25 25)"><path d="M347 1 C158 1 0 158 0 347 C0 536 158 694 347 694 L1008 694 C1229 694 1386 536 1386 347 C1386 158 1229 1 1008 1 Z" fill="#113D34"></path></g><g transform="translate(-31353475 2112000) scale(25 25)"><path d="M347 1 C158 1 0 158 0 347 C0 536 158 694 347 694 L1071 694 C1260 694 1418 536 1418 347 C1418 158 1260 1 1071 1 Z" fill="#113D34"></path></g><g transform="translate(-31301500 2112000) scale(25 25)"><path d="M347 1 C158 1 0 158 0 347 C0 536 158 694 347 694 L1072 694 C1261 694 1418 536 1418 347 C1387 158 1229 1 1072 1 Z" fill="#113D34"></path></g><g transform="translate(-31404675 2145075) scale(25 25)"><path d="M347 1 C158 1 0 158 0 379 C0 568 158 726 347 726 L1008 726 C1229 726 1386 568 1386 379 C1386 158 1229 1 1008 1 Z" fill="#113D34"></path></g><g transform="translate(-31353475 2145075) scale(25 25)"><path d="M347 1 C158 1 0 158 0 379 C0 568 158 726 347 726 L1071 726 C1260 726 1418 568 1418 379 C1418 158 1260 1 1071 1 Z" fill="#113D34"></path></g><g transform="translate(-31301500 2145075) scale(25 25)"><path d="M347 1 C158 1 0 158 0 379 C0 568 158 726 347 726 L1072 726 C1261 726 1418 568 1418 379 C1387 158 1229 1 1072 1 Z" fill="#113D34"></path></g></svg>