<svg xmlns="http://www.w3.org/2000/svg" viewBox="-60597975 1939525 267825 315850"><g transform="translate(-60597975 1939525) scale(25 25)"><path d="M7436 788 L7436 1859 C7310 1733 7247 1607 6995 1607 C6806 1607 6743 1733 6617 1859 L6617 788 Z M9515 788 C9767 788 9925 977 9925 1197 L9925 4222 L2490 4222 L2490 788 L5798 788 L5798 2867 C5798 3119 5980 3287 6185 3287 C6288 3287 6396 3245 6491 3151 L7058 2615 L7594 3151 C7688 3245 7800 3287 7907 3287 C8122 3287 8318 3119 8318 2867 L8318 788 Z M9925 5041 L9925 8349 L2490 8349 L2490 5041 Z M9925 9168 L9925 11373 C9925 11625 9736 11783 9515 11783 L2490 11783 L2490 9168 Z M1639 788 L1639 11814 L820 11814 L820 788 Z M379 0 C158 0 1 189 1 410 L1 12256 C1 12445 190 12634 379 12634 L9484 12634 C10146 12634 10713 12098 10713 11436 L10713 1229 C10713 567 10177 0 9484 0 Z" fill="#113D34"></path></g><g transform="translate(-60494775 2097050) scale(25 25)"><path d="M410 0 C158 0 0 189 0 410 C0 630 189 819 410 819 L3718 819 C3938 819 4127 630 4127 410 C4127 158 3938 0 3718 0 Z" fill="#F6620B"></path></g></svg>