<svg xmlns="http://www.w3.org/2000/svg" viewBox="-3137650 2067900 291450 256775"><g transform="translate(-3137650 2067900) scale(25 25)"><path d="M10618 694 C10838 694 10964 851 10964 1040 L10964 6522 C10964 6711 10838 6868 10618 6868 L1009 6868 C820 6868 662 6711 662 6522 L662 1040 C662 851 820 694 1009 694 Z M1009 0 C473 0 1 473 1 1009 L1 6490 C1 7026 473 7499 1009 7499 L10618 7499 C11185 7499 11658 7026 11658 6490 L11658 1009 C11658 473 11217 0 10618 0 Z" fill="#113D34"></path></g><g transform="translate(-3137650 2273475) scale(25 25)"><path d="M10618 662 C10838 662 10964 819 10964 1008 C10964 1197 10838 1355 10618 1355 L6050 1355 C6113 1260 6113 1134 6113 1008 C6113 882 6050 788 6050 662 Z M5105 662 C5294 662 5451 819 5451 1008 C5451 1229 5294 1386 5105 1386 L1009 1386 C820 1355 662 1229 662 1008 C662 819 820 662 1009 662 Z M1009 0 C473 0 1 473 1 1008 C1 1575 473 2048 1009 2048 L10618 2048 C11185 2048 11658 1575 11658 1008 C11658 473 11217 0 10618 0 Z" fill="#F6620B"></path></g><g transform="translate(-3035250 2103000) scale(25 25)"><path d="M662 896 L3056 2346 L662 3826 L662 896 Z M322 1 C144 1 0 131 0 298 L0 4425 C0 4607 132 4740 301 4740 C365 4740 435 4720 504 4677 L3939 2629 C4159 2535 4159 2219 3939 2093 L504 46 C443 15 381 1 322 1 Z" fill="#113D34"></path></g></svg>