<svg xmlns="http://www.w3.org/2000/svg" viewBox="-2571737 2403625 292225 291425"><g transform="translate(-2571737 2403625) scale(25 25)"><path d="M9547 725 C9704 725 9830 788 9893 914 L10681 2772 L1135 2772 L1891 914 C1922 788 2080 725 2206 725 Z M10649 3403 C10870 3403 11027 3560 11027 3749 L11027 5167 C11027 5356 10870 5513 10649 5513 L1040 5513 C851 5513 694 5356 694 5167 L694 3749 C694 3560 851 3403 1040 3403 Z M10681 6206 C10870 6238 11027 6364 11027 6553 L11027 7939 C11027 8128 10870 8286 10681 8286 L1072 8286 C851 8286 694 8128 694 7939 L694 6553 C694 6364 851 6206 1072 6206 Z M10681 8947 C10870 8947 11027 9105 11027 9294 L11027 10680 C11027 10869 10870 11027 10681 11027 L1072 11027 C851 11027 694 10869 694 10680 L694 9294 C694 9105 851 8947 1072 8947 Z M2174 0 C1733 0 1387 252 1229 630 L64 3403 C32 3529 0 3686 0 3781 L0 5198 C0 5482 127 5734 284 5860 C127 6080 0 6301 0 6553 L0 7908 C0 8191 127 8443 284 8601 C127 8790 0 9010 0 9262 L0 10649 C0 11184 473 11657 1009 11657 L10618 11657 C11185 11657 11657 11184 11657 10649 L11657 9262 C11657 8979 11531 8758 11374 8601 C11531 8380 11657 8160 11657 7908 L11657 6553 C11657 6269 11531 6017 11374 5860 C11531 5671 11657 5450 11657 5198 L11657 3781 L11689 3781 C11689 3686 11657 3529 11594 3403 L10460 630 C10303 252 9925 0 9515 0 Z" fill="#113D34"></path></g><g transform="translate(-2485967 2649150) scale(25 25)"><path d="M378 1 C158 1 0 159 0 379 C0 568 158 726 378 726 L6585 726 C6774 726 6931 568 6931 379 C6931 159 6774 1 6585 1 Z" fill="#F6620B"></path></g><g transform="translate(-2485967 2511325) scale(25 25)"><path d="M378 1 C158 1 0 158 0 379 C0 568 158 725 378 725 L6585 725 C6774 725 6931 568 6931 379 C6931 158 6774 1 6585 1 Z" fill="#113D34"></path></g><g transform="translate(-2540185 2511325) scale(25 25)"><path d="M378 1 C158 1 0 158 0 379 C0 568 158 757 378 757 C567 757 725 568 725 379 C725 158 567 1 378 1 Z" fill="#113D34"></path></g><g transform="translate(-2485579 2580625) scale(25 25)"><path d="M347 0 C158 0 1 158 1 347 C32 536 158 693 347 693 L6554 693 C6774 693 6900 536 6900 347 C6900 158 6774 0 6554 0 Z" fill="#113D34"></path></g><g transform="translate(-2540185 2580625) scale(25 25)"><path d="M378 0 C158 0 0 158 0 347 C0 536 158 693 378 693 C567 693 725 536 725 347 C725 158 567 0 378 0 Z" fill="#113D34"></path></g><g transform="translate(-2540185 2649150) scale(25 25)"><path d="M378 1 C158 1 0 159 0 379 C0 568 158 726 378 726 C567 726 725 568 725 379 C725 159 567 1 378 1 Z" fill="#113D34"></path></g></svg>