<svg xmlns="http://www.w3.org/2000/svg" viewBox="5046550 2327025 299325 261525"><g transform="translate(5046550 2448325) scale(25 25)"><path d="M4569 1386 C4538 1575 4506 1828 4443 2111 L757 2111 L757 1386 Z M11185 1386 L11185 2111 L7530 2111 C7467 1828 7436 1575 7373 1386 Z M5955 725 C6270 725 6396 788 6491 1071 C6743 1639 6900 2804 7247 4852 L4664 4852 C5010 2804 5168 1639 5388 1071 C5514 788 5640 725 5955 725 Z M5955 0 C5357 0 5010 221 4758 725 L347 725 C158 725 1 882 1 1071 L1 2458 C1 2647 158 2804 347 2804 L4254 2804 C4191 3371 4065 4064 3907 4884 L3498 4884 C3309 4884 3151 5041 3151 5262 C3151 5451 3309 5608 3498 5608 L8350 5608 C8539 5608 8696 5451 8696 5262 C8696 5041 8539 4884 8350 4884 L7972 4884 C7814 4064 7688 3403 7593 2804 L11500 2804 C11689 2804 11847 2647 11847 2458 L11847 1071 C11910 882 11752 725 11532 725 L7121 725 C6900 252 6554 0 5955 0 Z" fill="#113D34"></path></g><g transform="translate(5241900 2327025) scale(25 25)"><path d="M1985 725 C2394 725 2709 1040 2709 1450 C2709 1828 2394 2143 1985 2143 C1607 2143 1292 1828 1292 1450 C1292 1040 1638 725 1985 725 Z M1985 2804 C2741 2804 3371 3435 3371 4191 L630 4191 C630 3435 1260 2804 1985 2804 Z M2048 1 C1292 1 662 631 662 1387 C662 1765 819 2111 1040 2332 C410 2710 0 3372 0 4159 L0 4506 C0 4695 158 4852 347 4852 L3812 4852 C4001 4852 4159 4695 4159 4506 L4159 4159 C4096 3403 3655 2710 3025 2332 C3245 2111 3403 1765 3403 1387 C3403 631 2772 1 2048 1 Z" fill="#F6620B"></path></g><g transform="translate(5048925 2328600) scale(25 25)"><path d="M2048 662 C2426 662 2741 977 2741 1387 C2741 1765 2426 2080 2048 2080 C1639 2080 1324 1765 1324 1387 C1324 977 1670 662 2048 662 Z M2048 2710 C2773 2710 3403 3340 3403 4096 L662 4096 C662 3340 1292 2710 2048 2710 Z M2111 1 C1355 1 725 631 725 1387 C725 1733 882 2080 1134 2332 C410 2647 0 3340 0 4128 L0 4474 C0 4695 158 4852 347 4852 L3812 4852 C4001 4852 4159 4695 4159 4474 L4159 4128 C4159 3340 3718 2678 3088 2332 C3340 2080 3497 1733 3497 1387 C3497 631 2867 1 2111 1 Z" fill="#113D34"></path></g></svg>