<svg xmlns="http://www.w3.org/2000/svg" viewBox="-60254550 1938025 317425 318925"><g transform="translate(-60254550 2049000) scale(25 25)"><path d="M10428 1639 C11184 1639 11814 2269 11814 3025 C11814 3781 11184 4411 10428 4411 L9767 4411 C9861 4033 9893 3686 9893 3308 L9893 1639 Z M9073 819 L9073 3308 C9073 5577 7215 7435 4915 7435 C2646 7435 788 5577 788 3308 L788 819 Z M410 0 C158 0 0 189 0 441 L0 3308 C0 5041 882 6522 2205 7435 L410 7435 C158 7435 0 7624 0 7877 C0 8097 189 8318 410 8318 L9483 8318 C9735 8318 9893 8097 9893 7877 C9893 7624 9704 7435 9483 7435 L7687 7435 C8506 6900 9137 6144 9546 5230 L10491 5230 C11688 5230 12697 4253 12697 3025 C12697 1796 11657 819 10428 819 L9893 819 L9893 441 C9893 189 9704 0 9483 0 Z" fill="#113D34"></path></g><g transform="translate(-60219125 1938025) scale(25 25)"><path d="M1068 0 C947 0 819 61 725 155 C568 312 568 564 757 722 C1103 1100 1103 1446 757 1761 C32 2392 1 3368 757 4030 C832 4105 936 4144 1041 4144 C1156 4144 1273 4097 1356 3998 C1513 3841 1513 3557 1292 3400 C946 3085 946 2707 1292 2392 C2017 1761 2049 785 1292 92 C1229 28 1150 0 1068 0 Z" fill="#F6620B"></path></g><g transform="translate(-60156900 1938025) scale(25 25)"><path d="M1057 0 C926 0 788 61 694 155 C536 312 536 564 757 722 C1103 1100 1103 1446 757 1761 C32 2392 1 3368 757 4030 C832 4105 929 4144 1026 4144 C1133 4144 1242 4097 1324 3998 C1859 3463 473 3179 1292 2392 C2017 1761 2049 785 1292 92 C1229 28 1145 0 1057 0 Z" fill="#113D34"></path></g><g transform="translate(-60094675 1938025) scale(25 25)"><path d="M1056 0 C926 0 788 61 694 155 C536 312 536 564 725 722 C1103 1100 1103 1446 725 1761 C32 2392 1 3368 725 4030 C800 4105 904 4144 1009 4144 C1125 4144 1241 4097 1324 3998 C1481 3841 1481 3557 1292 3400 C946 3085 946 2707 1292 2392 C1985 1761 2048 785 1292 92 C1229 28 1145 0 1056 0 Z" fill="#113D34"></path></g></svg>