<svg xmlns="http://www.w3.org/2000/svg" viewBox="-3137650 2787000 291450 257575"><g transform="translate(-3137650 2787000) scale(25 25)"><path d="M10618 693 C10807 693 10964 851 10964 1040 L10964 2741 L662 2741 L662 1040 C662 851 820 693 1009 693 Z M10996 3403 L10996 9231 C10964 9420 10838 9578 10618 9578 L1009 9578 C820 9578 662 9420 662 9231 L662 3403 Z M1009 0 C473 0 1 473 1 1040 L1 9263 C1 9830 473 10302 1009 10302 L10618 10302 C11185 10302 11658 9830 11658 9263 L11658 1040 C11658 441 11217 0 10618 0 Z" fill="#113D34"></path></g><g transform="translate(-3104575 2820875) scale(25 25)"><path d="M348 0 C158 0 1 158 1 347 C1 536 158 693 348 693 C568 693 726 536 726 347 C726 158 568 0 348 0 Z" fill="#113D34"></path></g><g transform="translate(-3069900 2820875) scale(25 25)"><path d="M347 0 C158 0 0 158 0 347 C0 536 158 693 347 693 C536 693 693 536 693 347 C693 158 536 0 347 0 Z" fill="#113D34"></path></g><g transform="translate(-3035250 2820875) scale(25 25)"><path d="M347 0 C158 0 0 158 0 347 C0 536 158 693 347 693 C536 693 693 536 693 347 C693 158 536 0 347 0 Z" fill="#113D34"></path></g><g transform="translate(-3002175 2820875) scale(25 25)"><path d="M347 0 C158 0 1 158 1 347 C32 536 190 693 347 693 L4506 693 C4695 693 4852 536 4852 347 C4852 158 4695 0 4506 0 Z" fill="#113D34"></path></g><g transform="translate(-2948625 2907300) scale(25 25)"><path d="M347 1 C261 1 174 24 127 72 C1 198 1 450 127 544 L1261 1710 L127 2844 C1 2970 1 3191 127 3317 C174 3380 261 3411 347 3411 C434 3411 521 3380 568 3317 L1954 1930 C2080 1804 2080 1584 1954 1458 L568 72 C521 24 434 1 347 1 Z" fill="#113D34"></path></g><g transform="translate(-3088025 2907300) scale(25 25)"><path d="M1749 1 C1662 1 1576 24 1513 72 L127 1458 C1 1584 1 1804 127 1930 L1513 3317 C1576 3380 1662 3411 1749 3411 C1836 3411 1922 3380 1985 3317 C2111 3191 2111 2970 1985 2844 L851 1710 L1985 544 C2143 450 2143 198 1985 72 C1922 24 1836 1 1749 1 Z" fill="#113D34"></path></g><g transform="translate(-3019500 2888975) scale(25 25)"><path d="M1778 0 C1617 0 1501 108 1450 237 L63 4333 C0 4522 95 4680 253 4743 C305 4765 354 4775 399 4775 C543 4775 646 4674 694 4554 L2080 458 C2174 300 2048 111 1891 17 C1851 6 1813 0 1778 0 Z" fill="#F6620B"></path></g></svg>