<svg xmlns="http://www.w3.org/2000/svg" viewBox="-34776500 2631825 291450 291450"><g transform="translate(-34691425 2666500) scale(25 25)"><path d="M2331 693 C3277 693 4033 1449 4033 2394 C4096 2899 3844 3466 3403 3781 C3151 3970 2741 4348 2741 4946 L2741 5135 C2741 5356 2583 5513 2363 5513 C2174 5513 2016 5356 2016 5135 L2016 4946 C2016 4285 2363 3655 2962 3214 C3245 3025 3403 2710 3403 2394 C3403 1827 2930 1355 2363 1355 C1827 1355 1355 1827 1355 2394 C1355 2583 1197 2741 1008 2741 C788 2741 630 2583 630 2394 C630 1449 1386 693 2331 693 Z M2426 0 C1071 0 0 1040 0 2394 C0 2930 473 3403 1040 3403 C1575 3403 2048 2930 2048 2394 C2048 2205 2205 2048 2426 2048 C2615 2048 2772 2205 2772 2394 C2772 2520 2741 2583 2615 2646 C1827 3245 1386 4064 1386 4946 L1386 5135 C1386 5702 1859 6175 2426 6175 C2962 6175 3434 5702 3434 5135 L3434 4946 C3434 4663 3686 4442 3844 4316 C4474 3875 4820 3151 4820 2394 C4789 1040 3718 0 2426 0 Z" fill="#F6620B"></path></g><g transform="translate(-34656775 2837400) scale(25 25)"><path d="M1040 662 C1229 662 1386 820 1386 1040 C1386 1229 1197 1387 1040 1387 C819 1387 662 1229 662 1040 C662 820 819 662 1040 662 Z M1040 1 C473 1 0 473 0 1040 C0 1576 473 2048 1040 2048 C1576 2048 2048 1576 2048 1040 C2048 473 1576 1 1040 1 Z" fill="#113D34"></path></g><g transform="translate(-34776500 2631825) scale(25 25)"><path d="M5829 662 C8664 662 10964 2994 10964 5829 C10933 8665 8664 10996 5829 10996 C2993 10996 662 8665 662 5829 C662 2994 2993 662 5829 662 Z M5829 1 C2584 1 0 2647 0 5829 C0 9043 2615 11658 5829 11658 C9042 11658 11657 9011 11657 5829 C11657 2584 9011 1 5829 1 Z" fill="#113D34"></path></g></svg>