<svg xmlns="http://www.w3.org/2000/svg" viewBox="1790525 2319150 267800 294600"><g transform="translate(1881100 2423125) scale(25 25)"><path d="M1418 1323 L1418 2741 L1072 2741 C882 2741 725 2583 725 2394 L725 1701 C725 1481 882 1323 1072 1323 Z M2458 3466 C2647 3466 2804 3623 2804 3812 L2804 4537 C2804 4726 2647 4883 2458 4883 L2111 4883 L2111 3466 Z M1796 0 C1576 0 1418 158 1418 347 L1418 693 L1072 693 C473 693 63 1166 63 1733 L63 2426 C63 3025 536 3466 1072 3466 L1418 3466 L1418 4852 L1072 4852 C882 4852 725 4694 725 4474 C725 4285 567 4127 378 4127 C158 4127 0 4285 0 4474 C0 5072 473 5513 1040 5513 L1387 5513 L1387 5860 C1387 6049 1544 6207 1733 6207 C1954 6207 2111 6049 2111 5860 L2111 5545 L2458 5545 C3056 5545 3466 5072 3466 4537 L3466 3812 C3466 3214 2993 2804 2458 2804 L2111 2804 L2111 1386 L2458 1386 C2647 1386 2804 1544 2804 1733 C2804 1922 2962 2079 3151 2079 C3371 2079 3529 1922 3529 1733 C3529 1134 3056 693 2489 693 L2143 693 L2143 347 C2143 158 1985 0 1796 0 Z" fill="#F6620B"></path></g><g transform="translate(1790525 2319150) scale(25 25)"><path d="M6427 662 C6837 662 7152 977 7152 1355 C7152 1765 6837 2080 6427 2080 L6427 1702 C6427 1513 6270 1355 6081 1355 L4695 1355 C4505 1355 4348 1513 4348 1702 L4348 2080 C3938 2017 3623 1765 3623 1355 C3623 977 3938 662 4348 662 Z M5734 2017 L5734 2741 L5010 2741 L5010 2017 Z M1418 1985 L1859 2489 L1355 2930 L914 2426 L1418 1985 Z M9357 1985 L9861 2426 L9420 2930 L8916 2489 L9357 1985 Z M5356 3434 C7467 3434 9200 5167 9200 7278 C9200 9389 7498 11090 5356 11090 C3277 11090 1544 9357 1544 7278 C1576 5136 3277 3434 5356 3434 Z M4316 0 C3560 0 2930 631 2930 1387 C2930 2143 3560 2773 4316 2773 L4316 2899 C3749 3025 3214 3277 2741 3592 L2269 3056 L2521 2804 C2741 2678 2741 2458 2615 2332 L1702 1292 C1631 1203 1530 1165 1432 1165 C1357 1165 1284 1188 1229 1229 L158 2143 C0 2269 0 2489 126 2615 L1040 3687 C1106 3770 1199 3809 1291 3809 C1372 3809 1453 3778 1513 3718 L1796 3498 L2269 4033 C1387 4852 882 6018 882 7278 C882 9735 2899 11783 5356 11783 C7845 11783 9861 9735 9861 7278 C9861 6081 9389 4915 8475 4033 L8948 3498 L9231 3718 C9306 3778 9387 3809 9465 3809 C9553 3809 9637 3770 9704 3687 L10617 2615 C10712 2458 10712 2269 10554 2143 L9515 1229 C9446 1188 9365 1165 9288 1165 C9189 1165 9095 1203 9042 1292 L8129 2332 C8003 2489 8003 2710 8160 2804 L8444 3056 L7971 3592 C7498 3245 6931 3025 6396 2899 L6396 2773 C7152 2773 7782 2143 7782 1387 C7782 631 7152 0 6396 0 Z" fill="#113D34"></path></g></svg>