<svg xmlns="http://www.w3.org/2000/svg" viewBox="-62518200 2692475 318225 289100"><g transform="translate(-62518200 2692475) scale(25 25)"><path d="M3750 851 C5420 851 6617 1513 6617 2112 C6617 2679 5420 3309 3750 3309 C2206 3309 851 2679 851 2112 C851 1481 2112 851 3750 851 Z M6617 3403 L6617 3781 C5829 4222 5199 4884 4821 5672 C4475 5766 4096 5766 3750 5766 C2206 5766 851 5136 851 4506 L851 3403 C1639 3939 2742 4159 3750 4159 C4727 4159 5829 3939 6617 3403 Z M883 5913 C1396 6254 2361 6617 3750 6617 C4033 6617 4254 6617 4538 6585 L4538 6585 C4475 6869 4475 7184 4475 7467 C4475 7719 4506 7971 4538 8255 C4317 8287 4033 8287 3781 8287 C2269 8287 883 7656 883 7026 L883 5913 Z M851 8350 C1639 8917 2773 9106 3750 9106 C4096 9106 4412 9074 4727 9043 C4979 9547 5294 10019 5672 10397 C5136 10649 4475 10775 3750 10775 C2112 10775 851 10082 851 9547 L851 8350 Z M8570 4159 C10366 4159 11878 5640 11878 7467 C11878 9263 10366 10775 8570 10775 C6743 10775 5262 9263 5262 7467 C5262 5609 6743 4159 8570 4159 Z M3781 1 C1797 1 64 851 64 2112 L64 9547 C1 10082 442 10649 1230 11027 C1891 11405 2805 11563 3750 11563 C4790 11563 5735 11311 6428 10964 C7058 11342 7814 11563 8602 11563 C10870 11563 12729 9704 12729 7404 C12729 5136 10870 3277 8602 3277 C8192 3277 7846 3309 7499 3435 L7499 2049 C7499 1481 7058 914 6302 536 C5640 158 4727 1 3781 1 Z" fill="#113D34"></path></g><g transform="translate(-62335475 2804325) scale(25 25)"><path d="M1261 0 C1009 0 820 189 820 410 L820 694 C348 851 1 1324 1 1891 C1 2552 537 2930 978 3245 C1293 3497 1639 3718 1639 3970 C1671 4254 1482 4411 1261 4411 C1009 4411 820 4191 820 3970 C820 3718 631 3529 411 3529 C190 3529 1 3718 1 3970 C1 4506 348 4947 820 5136 L820 5419 C820 5671 1009 5860 1261 5860 C1482 5860 1639 5671 1639 5419 L1639 5136 C2112 4978 2458 4506 2458 3970 C2458 3308 1923 2899 1482 2584 C1167 2363 820 2111 820 1891 C820 1639 1009 1450 1261 1450 C1482 1450 1639 1639 1639 1891 C1639 2111 1860 2300 2049 2300 C2269 2300 2490 2111 2490 1891 C2490 1324 2112 883 1639 694 L1639 410 C1639 189 1450 0 1261 0 Z" fill="#F6620B"></path></g></svg>