<svg xmlns="http://www.w3.org/2000/svg" viewBox="-30805300 2298675 290650 291125"><g transform="translate(-30720225 2419175) scale(25 25)"><path d="M347 1 C158 1 0 158 0 347 C0 536 158 694 347 694 C536 694 693 536 693 347 C693 158 536 1 347 1 Z" fill="#113D34"></path></g><g transform="translate(-30635175 2453250) scale(25 25)"><path d="M3124 0 C3033 0 2946 40 2899 118 L1040 1946 L599 1505 C536 1442 450 1410 363 1410 C276 1410 190 1442 127 1505 C1 1631 1 1851 127 1977 L788 2639 C883 2733 977 2765 1040 2765 C1103 2765 1198 2733 1261 2639 L3372 591 C3498 496 3498 244 3372 118 C3309 40 3214 0 3124 0 Z" fill="#F6620B"></path></g><g transform="translate(-30805300 2298675) scale(25 25)"><path d="M5797 630 C6333 630 6806 1103 6806 1670 L6806 4096 L6459 4096 C5514 4096 4758 4852 4758 5797 L4758 6144 L3088 6144 L3088 6207 C2993 6207 2930 6238 2836 6270 L2017 7057 L2017 6490 C2017 6301 1859 6144 1670 6144 C1103 6144 631 5671 631 5136 L631 1670 C631 1103 1103 630 1670 630 Z M9925 4852 C10492 4852 10964 5325 10964 5860 L10964 8601 C10964 9137 10492 9609 9925 9609 L8538 9609 C8475 9609 8349 9672 8318 9735 L7530 10523 L7530 9987 C7530 9767 7373 9609 7184 9609 L6491 9609 C5955 9609 5482 9137 5482 8601 L5482 5860 C5482 5325 5955 4852 6491 4852 Z M1702 0 C757 0 1 756 1 1702 L1 5167 C1 5986 599 6711 1387 6868 L1387 7940 C1387 8034 1450 8192 1576 8255 C1618 8265 1663 8272 1708 8272 C1796 8272 1880 8244 1922 8160 L3246 6900 L4821 6900 L4821 8601 C4821 9546 5545 10302 6491 10302 L6869 10302 L6869 11311 C6869 11468 6932 11594 7058 11626 C7104 11637 7154 11644 7202 11644 C7286 11644 7364 11623 7404 11563 L8664 10302 L9925 10302 C10870 10302 11626 9546 11626 8601 L11626 5892 C11626 4884 10870 4159 9925 4159 L7530 4159 L7530 1702 C7530 756 6774 0 5829 0 Z" fill="#113D34"></path></g><g transform="translate(-30737575 2332550) scale(25 25)"><path d="M1041 0 C474 0 1 473 1 1008 C1 1197 158 1355 379 1355 C568 1355 726 1197 726 1008 C726 819 883 662 1072 662 C1293 662 1450 819 1450 1008 C1450 1103 1324 1292 1198 1323 C915 1449 757 1701 757 1953 L757 2426 C757 2615 915 2772 1135 2772 C1324 2772 1482 2615 1482 2426 L1482 1953 C1860 1796 2143 1418 2143 1008 C2049 473 1576 0 1041 0 Z" fill="#113D34"></path></g></svg>