<svg xmlns="http://www.w3.org/2000/svg" viewBox="-32956300 1915900 292225 295375"><g transform="translate(-32956300 1915900) scale(25 25)"><path d="M10996 2079 L10996 3466 L10334 3466 L10334 2079 Z M10996 4127 L10996 5513 L10303 5513 L10303 4127 Z M10996 6175 L10996 7561 L10334 7561 L10334 6175 Z M2741 536 L2741 10869 L1733 10869 C1679 10914 1627 10934 1581 10934 C1467 10934 1387 10815 1387 10680 L1387 10334 L1733 10334 C1922 10334 2080 10145 2080 9956 C2080 9767 1922 9609 1733 9609 L1387 9609 L1387 8223 L1733 8223 C1922 8223 2080 8065 2080 7876 C2080 7687 1922 7530 1733 7530 L1387 7530 L1387 6143 L1733 6143 C1922 6143 2080 5986 2080 5797 C2080 5576 1922 5419 1733 5419 L1387 5419 L1387 4064 L1733 4064 C1922 4064 2080 3907 2080 3686 C2080 3497 1922 3340 1733 3340 L1387 3340 L1387 1953 L1733 1953 C1922 1953 2080 1796 2080 1607 C2080 1418 1922 1260 1733 1260 L1387 1260 L1387 914 C1387 693 1544 536 1733 536 Z M9263 725 C9452 725 9609 882 9609 1071 L9609 10680 C9609 10869 9452 11027 9263 11027 L3371 11027 L3371 725 Z M1733 0 C1166 0 694 473 694 1040 L694 1386 L347 1386 C158 1386 0 1544 0 1733 C0 1922 158 2079 347 2079 L694 2079 L694 3466 L347 3466 C158 3466 0 3623 0 3812 C0 4033 158 4190 347 4190 L694 4190 L694 5545 L347 5545 C158 5545 0 5702 0 5923 C0 6112 158 6269 347 6269 L694 6269 L694 7656 L347 7656 C158 7656 0 7813 0 8002 C0 8191 158 8349 347 8349 L694 8349 L694 9735 L347 9735 C158 9735 0 9893 0 10082 C0 10271 158 10428 347 10428 L694 10428 L694 10806 C694 11342 1166 11814 1733 11814 L9294 11814 C9830 11814 10303 11342 10303 10806 L10303 8380 L11342 8380 C11531 8380 11689 8223 11689 8034 L11689 1859 C11689 1544 11531 1386 11342 1386 L10303 1386 L10303 1040 C10303 473 9830 0 9294 0 Z" fill="#113D34"></path></g><g transform="translate(-32836575 1967875) scale(25 25)"><path d="M2773 693 L2773 2048 L1733 2048 C1544 2048 1386 2206 1386 2426 L1386 5136 C1386 5325 1544 5482 1733 5482 L2773 5482 L2773 6868 L1733 6868 C1197 6868 725 6396 725 5829 L725 1733 C725 1198 1197 693 1733 693 Z M1701 0 C756 0 0 788 0 1733 L0 5829 C0 6774 756 7530 1701 7530 L3088 7530 C3277 7530 3434 7372 3434 7183 L3434 5136 C3434 4947 3277 4789 3088 4789 L2048 4789 L2048 2741 L3088 2741 C3277 2741 3434 2552 3434 2363 L3434 284 C3434 158 3277 0 3088 0 Z" fill="#F6620B"></path></g></svg>