<svg xmlns="http://www.w3.org/2000/svg" viewBox="-35101800 2631050 222925 291450"><g transform="translate(-34999400 2699575) scale(25 25)"><path d="M347 0 C158 0 1 158 1 347 C1 567 158 725 347 725 C568 725 725 567 725 347 C725 158 568 0 347 0 Z" fill="#113D34"></path></g><g transform="translate(-34999400 2732650) scale(25 25)"><path d="M347 0 C158 0 1 190 1 379 L1 1765 C1 1985 158 2111 347 2111 C568 2111 725 1954 725 1765 L725 379 C725 190 568 0 347 0 Z" fill="#113D34"></path></g><g transform="translate(-35067125 2665700) scale(25 25)"><path d="M3056 694 C4411 694 5482 1765 5482 3088 C5482 4443 4411 5482 3056 5482 C1733 5482 662 4443 662 3088 C662 1796 1764 694 3056 694 Z M3056 1 C1386 1 0 1387 0 3088 C0 4789 1386 6176 3056 6176 C4757 6176 6144 4789 6144 3088 C6144 1387 4757 1 3056 1 Z" fill="#F6620B"></path></g><g transform="translate(-35101800 2631050) scale(25 25)"><path d="M4443 693 C6554 693 8192 2395 8192 4474 C8192 5293 7940 6081 7436 6711 L4443 10775 L1450 6711 C1009 6049 726 5293 726 4474 C726 2395 2364 693 4443 693 Z M4443 0 C2017 0 1 1985 1 4443 C1 5419 316 6333 883 7120 L4191 11531 C4254 11594 4349 11657 4443 11657 C4569 11657 4664 11594 4727 11531 L8003 7120 C8602 6333 8917 5419 8917 4443 C8917 1985 6901 0 4443 0 Z" fill="#113D34"></path></g></svg>