<svg xmlns="http://www.w3.org/2000/svg" viewBox="-59889100 2671925 319000 315950"><g transform="translate(-59889100 2672000) scale(25 25)"><path d="M5073 946 L5073 2647 L5104 2647 C3623 3151 2489 4569 2489 6302 C2489 6900 2647 7499 2867 8034 L1639 9263 C1103 8381 788 7373 788 6302 C788 3750 2584 1513 5073 946 Z M5482 1 C2395 442 0 3088 0 6270 C0 7688 441 8979 1292 10082 C1377 10184 1500 10241 1624 10241 C1729 10241 1835 10200 1922 10114 L3718 8349 C3812 8223 3844 8003 3781 7845 C3497 7373 3340 6806 3340 6270 C3340 4884 4285 3655 5671 3309 C5860 3277 5986 3120 5986 2899 L5986 379 C5955 190 5703 1 5482 1 Z" fill="#113D34"></path></g><g transform="translate(-59830825 2892525) scale(25 25)"><path d="M5735 946 L6963 2175 C6113 2710 5073 2994 4065 2994 C3025 2994 2017 2710 1135 2175 L2364 946 C2868 1198 3466 1356 4065 1356 C4600 1356 5199 1198 5735 946 Z M5758 1 C5693 1 5630 11 5577 32 C5105 316 4569 474 4002 474 C3956 476 3911 478 3865 478 C3376 478 2890 326 2458 95 C2389 54 2315 31 2239 31 C2142 31 2043 70 1954 158 L190 1923 C1 2143 32 2395 221 2553 C1324 3403 2616 3813 4002 3813 C5388 3813 6711 3403 7814 2521 C8035 2364 8066 2080 7877 1891 L6113 127 C6029 43 5889 1 5758 1 Z" fill="#113D34"></path></g><g transform="translate(-59719775 2671925) scale(25 25)"><path d="M820 917 C3309 1453 5105 3690 5105 6273 C5073 7344 4790 8352 4254 9235 L3025 8006 C3309 7502 3435 6903 3435 6305 C3435 4572 2332 3154 820 2650 L820 917 Z M419 0 C190 0 1 180 1 413 L1 2934 C1 3123 127 3280 316 3312 C1639 3658 2647 4855 2647 6273 C2647 6809 2490 7376 2206 7848 C2080 8006 2112 8195 2269 8352 L4065 10117 C4149 10214 4251 10257 4353 10257 C4481 10257 4608 10190 4695 10085 C5514 8982 5987 7659 5987 6273 C5892 3123 3529 445 474 4 C455 1 437 0 419 0 Z" fill="#113D34"></path></g><g transform="translate(-59762300 2757075) scale(25 25)"><path d="M1261 0 C1040 0 820 189 820 378 L820 662 C347 819 1 1292 1 1827 C1 2521 568 2899 977 3214 C1292 3466 1670 3686 1670 3938 C1670 4159 1450 4348 1261 4348 C1072 4348 820 4159 820 3938 C820 3686 631 3497 442 3497 C253 3497 32 3686 32 3938 C32 4474 410 4915 883 5104 L883 5387 C883 5608 1072 5829 1292 5829 C1544 5829 1702 5608 1702 5387 L1702 5104 C2175 4946 2521 4474 2521 3938 C2521 3245 1985 2867 1544 2552 C1229 2300 883 2079 883 1827 C883 1607 1072 1418 1292 1418 C1544 1418 1702 1607 1702 1827 C1702 2079 1891 2268 2143 2268 C2364 2268 2521 2079 2521 1827 C2521 1292 2175 851 1702 662 L1702 378 C1702 189 1513 0 1261 0 Z" fill="#F6620B"></path></g></svg>