<svg xmlns="http://www.w3.org/2000/svg" viewBox="1777925 1953700 294600 296950"><g transform="translate(1794450 2052125) scale(25 25)"><path d="M10545 1 C10499 1 10449 11 10397 33 C10208 64 10145 253 10177 474 C10334 1009 10460 1514 10460 1986 C10460 4885 8129 7247 5199 7247 C3561 7247 2017 6460 1040 5137 L1734 5137 C1954 5137 2112 4979 2112 4790 C2112 4601 1954 4444 1734 4444 L379 4444 C158 4444 1 4601 1 4790 L1 6176 C1 6365 158 6523 379 6523 C568 6523 725 6365 725 6176 L725 5830 C1860 7184 3529 7941 5199 7941 C8476 7941 11122 5294 11122 2049 C11122 1482 11028 883 10839 253 C10814 109 10698 1 10545 1 Z" fill="#F6620B"></path></g><g transform="translate(1777925 1953700) scale(25 25)"><path d="M5892 0 C2647 0 0 2615 0 5892 C0 6459 63 7026 284 7656 C310 7869 450 7947 606 7947 C635 7947 664 7944 693 7939 C914 7908 977 7719 945 7498 C788 6963 662 6459 662 5923 C662 3056 2993 693 5923 693 C7561 693 9105 1481 10082 2773 L9389 2773 C9168 2773 9011 2930 9011 3151 C9011 3340 9168 3497 9389 3497 L10743 3497 C10964 3497 11121 3340 11121 3151 L11121 1765 C11121 1575 10964 1418 10743 1418 C10554 1418 10397 1575 10397 1765 L10397 2111 C9263 725 7593 0 5892 0 Z" fill="#113D34"></path></g><g transform="translate(1829125 2006475) scale(25 25)"><path d="M4190 693 C4757 788 5324 1008 5797 1386 L5545 1607 C5450 1733 5450 1953 5545 2079 C5608 2142 5702 2174 5793 2174 C5884 2174 5970 2142 6017 2079 L6270 1859 C6616 2268 6868 2835 6931 3466 L6616 3466 C6427 3466 6270 3623 6270 3812 C6270 4001 6427 4159 6616 4159 L6931 4159 C6868 4757 6616 5324 6270 5797 L6017 5545 C5970 5482 5884 5450 5793 5450 C5702 5450 5608 5482 5545 5545 C5450 5671 5450 5923 5545 6017 L5797 6270 C5356 6616 4820 6837 4190 6931 L4190 6616 C4190 6427 4033 6270 3812 6270 C3623 6270 3466 6427 3466 6616 L3466 6931 C2867 6837 2331 6616 1859 6270 L2079 6017 C2205 5891 2205 5671 2079 5545 C2032 5482 1945 5450 1855 5450 C1764 5450 1670 5482 1607 5545 L1386 5797 C1040 5356 788 4789 725 4159 L1040 4159 C1229 4159 1386 4001 1386 3812 C1386 3623 1229 3466 1040 3466 L725 3466 C788 2867 1040 2331 1386 1859 L1607 2079 C1701 2174 1764 2205 1859 2205 C1922 2205 2048 2174 2079 2079 C2205 1953 2205 1733 2079 1607 L1859 1386 C2300 1008 2835 788 3466 693 L3466 1008 C3466 1229 3623 1386 3812 1386 C4033 1386 4190 1229 4190 1008 L4190 693 Z M3812 0 C1733 0 0 1701 0 3812 C0 5923 1701 7656 3812 7656 C5923 7656 7656 5954 7656 3812 C7656 1733 5954 0 3812 0 Z" fill="#113D34"></path></g><g transform="translate(1915750 2058450) scale(25 25)"><path d="M347 0 C158 0 1 158 1 378 L1 1733 C1 1954 158 2111 347 2111 L1072 2111 C1261 2111 1418 1954 1418 1733 C1418 1544 1261 1387 1072 1387 L725 1387 L725 378 C725 158 568 0 347 0 Z" fill="#113D34"></path></g></svg>