<svg xmlns="http://www.w3.org/2000/svg" viewBox="-35854750 2272675 293000 291450"><g transform="translate(-35854750 2272675) scale(25 25)"><path d="M5844 654 C6144 654 6443 773 6679 1009 L7057 1355 L4600 1355 L5009 1009 C5246 773 5545 654 5844 654 Z M2080 3939 L2080 6365 L819 5136 L2080 3939 Z M9609 3876 L10869 5136 L9609 6365 L9609 3876 Z M8570 2080 C8790 2080 8948 2238 8948 2427 L8948 7089 L8286 7751 C7593 7152 6774 6837 5860 6837 C4978 6837 4127 7152 3466 7751 L2804 7089 L2804 2427 C2804 2238 2962 2080 3119 2080 Z M693 5987 L2993 8223 L693 10492 L693 5987 Z M11027 5987 L11027 10492 L8727 8223 L11027 5987 Z M5829 7499 C6616 7499 7309 7814 7876 8381 L10523 10964 L1166 10964 L3781 8381 C4316 7814 5041 7499 5829 7499 Z M5864 1 C5380 1 4899 190 4537 568 L3655 1387 L3119 1387 C2552 1387 2080 1859 2080 2427 L2080 2962 L315 4726 C126 4915 0 5136 0 5420 L0 10618 C32 11216 473 11657 1071 11657 L10680 11657 C11216 11657 11720 11185 11720 10618 L11720 5420 C11720 5136 11626 4915 11405 4726 L9641 2962 L9641 2427 C9641 1859 9168 1387 8633 1387 L8065 1387 L7215 568 C6837 190 6348 1 5864 1 Z" fill="#113D34"></path></g><g transform="translate(-35733475 2340425) scale(25 25)"><path d="M1009 0 C474 0 1 473 1 1008 C1 1260 158 1418 316 1418 C505 1418 663 1260 663 1040 C663 851 820 693 1009 693 C1198 693 1356 851 1356 1040 C1356 1229 1293 1323 1135 1386 C852 1449 663 1733 663 2016 L663 2394 C663 2583 820 2741 1009 2741 C1230 2741 1387 2583 1387 2394 L1387 2016 C1765 1827 2049 1449 2049 1008 C2049 473 1576 0 1009 0 Z" fill="#F6620B"></path></g><g transform="translate(-35716925 2418400) scale(25 25)"><path d="M347 0 C158 0 1 158 1 347 C1 536 158 693 347 693 C536 693 694 536 694 347 C662 158 536 0 347 0 Z" fill="#113D34"></path></g></svg>