<svg xmlns="http://www.w3.org/2000/svg" viewBox="-59889100 1945025 317425 301975"><g transform="translate(-59845000 2074200) scale(25 25)"><path d="M1702 788 L1702 1639 L883 1639 L883 788 Z M442 0 C190 0 1 190 1 410 L1 2048 C1 2300 190 2458 442 2458 L2080 2458 C2332 2458 2521 2237 2521 2048 L2521 410 C2521 158 2332 0 2080 0 Z" fill="#113D34"></path></g><g transform="translate(-59761500 1990700) scale(25 25)"><path d="M1670 820 L1670 4979 L851 4979 L851 820 Z M410 1 C158 1 0 190 0 411 L0 5357 C0 5577 158 5798 410 5798 L2048 5798 C2300 5798 2458 5577 2458 5388 L2458 411 C2458 158 2269 1 2048 1 Z" fill="#F6620B"></path></g><g transform="translate(-59678800 2053725) scale(25 25)"><path d="M1670 788 L1670 2458 L851 2458 L851 788 Z M410 0 C158 0 0 189 0 410 L0 2867 C0 3056 158 3277 410 3277 L2048 3277 C2300 3277 2458 3056 2458 2867 L2458 410 C2458 158 2269 0 2048 0 Z" fill="#113D34"></path></g><g transform="translate(-59889100 1945025) scale(25 25)"><path d="M6333 851 C9357 851 11846 2931 11846 5546 C11846 8129 9357 10208 6333 10208 C5482 10208 4600 10019 3812 9704 C3757 9682 3697 9671 3637 9671 C3529 9671 3421 9706 3340 9767 L2489 10649 L2489 9074 C2489 8948 2426 8822 2363 8759 C1387 7877 819 6743 819 5514 C819 2962 3308 851 6333 851 Z M6333 1 C2836 1 0 2490 0 5514 C0 6963 599 8255 1639 9263 L1639 11689 C1639 11918 1832 12079 2045 12079 C2153 12079 2267 12037 2363 11941 L3749 10555 C4569 10901 5419 11027 6333 11027 C9830 11027 12697 8570 12697 5514 C12697 2490 9861 1 6333 1 Z" fill="#113D34"></path></g></svg>