<svg xmlns="http://www.w3.org/2000/svg" viewBox="3297607 1426474 239156 239156"><g transform="translate(3297607 1426474) scale(18.881730617400915 18.881730617400915)"><path d="M379 0 C158 0 1 189 1 441 L1 12287 C1 12508 190 12665 379 12665 L12256 12665 C12477 12665 12666 12476 12666 12287 C12634 12098 12477 11878 12256 11878 L820 11878 L820 441 C820 189 631 0 379 0 Z" fill="#113D34"></path></g><g transform="translate(3328554 1494883) scale(18.88174480819806 18.881652892561984)"><path d="M9767 788 C10019 788 10208 977 10208 1229 C10176 1450 10019 1639 9767 1639 C9546 1639 9389 1450 9389 1229 C9389 977 9578 788 9767 788 Z M4001 1607 C4222 1607 4379 1796 4379 2048 C4379 2269 4222 2489 4001 2489 C3749 2489 3560 2269 3560 2048 C3560 1796 3749 1607 4001 1607 Z M6459 4128 C6679 4128 6900 4317 6900 4569 C6868 4758 6711 4947 6459 4947 C6238 4947 6081 4758 6081 4569 C6081 4317 6270 4128 6459 4128 Z M1229 4380 C1481 4380 1638 4569 1638 4789 C1638 5041 1481 5230 1229 5230 C1008 5230 788 5041 788 4789 C788 4569 1008 4380 1229 4380 Z M9767 0 C9105 0 8570 536 8570 1229 C8570 1418 8601 1576 8664 1765 L7026 3434 C6868 3340 6679 3308 6459 3308 C6270 3308 6112 3340 5923 3434 L5104 2584 C5167 2426 5199 2237 5199 2048 C5199 1387 4663 788 4001 788 C3308 788 2773 1324 2773 2048 C2773 2237 2804 2395 2899 2584 L1796 3686 C1638 3623 1418 3592 1229 3592 C567 3592 0 4128 0 4852 C0 5514 567 6049 1229 6049 C1890 6049 2458 5514 2458 4852 C2458 4632 2426 4474 2332 4285 L3434 3182 C3592 3245 3781 3308 4001 3308 C4190 3308 4348 3277 4537 3182 L5356 4001 C5293 4159 5262 4348 5262 4569 C5262 5230 5797 5766 6459 5766 C7152 5766 7687 5230 7687 4569 C7687 4348 7656 4191 7561 4001 L9231 2363 C9389 2426 9578 2489 9767 2489 C10460 2489 11027 1922 11027 1229 C10995 536 10460 0 9767 0 Z" fill="#F6620B"></path></g></svg>