<svg xmlns="http://www.w3.org/2000/svg" viewBox="-35495600 1912725 292225 293025"><g transform="translate(-35495600 1912725) scale(25 25)"><path d="M3088 726 C3277 726 3435 883 3435 1041 L3435 3120 C3435 3309 3277 3467 3088 3467 L2710 3467 L2710 726 Z M2080 757 L2080 3561 C1702 3719 1418 4065 1418 4538 L1418 7310 C1418 7720 1702 8129 2080 8287 L2080 11028 C1292 10870 725 10177 725 9326 L725 2458 C725 1639 1292 915 2080 757 Z M3136 8314 C3303 8314 3435 8461 3435 8633 L3435 10681 C3435 10870 3277 11028 3088 11028 L2710 11028 L2710 8318 L3088 8318 C3104 8316 3120 8314 3136 8314 Z M2395 1 C1072 1 0 1104 0 2427 L0 9263 C0 10618 1072 11721 2395 11721 L3088 11721 C3624 11721 4096 11248 4096 10681 L4096 8633 C4096 8098 3624 7625 3088 7625 L2395 7625 C2206 7625 2048 7468 2048 7247 L2048 4506 C2048 4317 2206 4160 2395 4160 L3088 4160 C3624 4160 4096 3687 4096 3120 L4096 1041 C4096 474 3624 1 3088 1 Z" fill="#113D34"></path></g><g transform="translate(-35305775 1912725) scale(25 25)"><path d="M1386 694 L1386 3435 L1040 3435 C1023 3438 1007 3439 992 3439 C825 3439 693 3293 693 3120 L693 1041 C693 852 851 694 1040 694 Z M1386 8287 L1386 10996 L1040 10996 C851 10996 693 10839 693 10681 L693 8633 C693 8444 851 8287 1040 8287 Z M2016 757 C2804 915 3403 1639 3403 2458 L3403 9295 C3403 10114 2804 10839 2016 10996 L2016 8255 C2426 8098 2678 7720 2678 7247 L2678 4506 C2678 4065 2426 3687 2016 3530 L2016 757 Z M1040 1 C473 1 0 474 0 1041 L0 3120 C0 3687 473 4128 1040 4128 L1701 4128 C1890 4128 2048 4286 2048 4506 L2048 7247 C2048 7436 1890 7625 1701 7625 L1040 7625 C473 7625 0 8098 0 8633 L0 10681 C0 11248 473 11689 1040 11689 L1701 11689 C3056 11689 4096 10650 4096 9295 L4096 2458 C4096 1104 2993 1 1701 1 Z" fill="#F6620B"></path></g><g transform="translate(-35427875 2017025) scale(25 25)"><path d="M4853 1122 L5420 1657 L4853 2256 C4821 2130 4695 2035 4538 2035 L1734 2035 C1576 2035 1482 2098 1419 2256 L883 1657 L1419 1122 C1482 1248 1576 1342 1734 1342 L4538 1342 C4695 1342 4821 1279 4853 1122 Z M1715 0 C1631 0 1553 22 1513 82 L127 1468 C1 1594 1 1783 127 1941 L1513 3327 C1550 3401 1619 3432 1696 3432 C1750 3432 1807 3416 1860 3390 C1986 3359 2049 3201 2049 3075 L2049 2729 L4160 2729 L4160 3075 C4160 3233 4223 3359 4349 3390 C4401 3416 4458 3432 4512 3432 C4589 3432 4658 3401 4695 3327 L6081 1941 C6207 1815 6207 1594 6081 1468 L4695 82 C4649 36 4552 7 4454 7 C4418 7 4382 11 4349 19 C4223 51 4160 208 4160 334 L4160 681 L2049 681 L2049 334 C2049 177 1986 51 1860 19 C1814 8 1763 0 1715 0 Z" fill="#113D34"></path></g></svg>