<svg xmlns="http://www.w3.org/2000/svg" viewBox="-60987050 2671400 315850 318825"><g transform="translate(-60987050 2671400) scale(25 25)"><path d="M6270 844 L11783 3175 L11783 4152 L757 4152 L757 3175 L6270 844 Z M2552 5002 L2552 10232 L1733 10232 L1733 5002 Z M5041 5002 L5041 10232 L3403 10232 L3403 5002 Z M6711 5002 L6711 10232 L5860 10232 L5860 5002 Z M9168 5002 L9168 10232 L7530 10232 L7530 5002 Z M10838 5002 L10838 10232 L10019 10232 L10019 5002 Z M11374 11020 C11594 11051 11783 11209 11783 11461 L11783 11870 L757 11870 L757 11461 C757 11209 946 11020 1198 11020 Z M6290 1 C6238 1 6191 9 6144 25 L252 2514 C95 2577 0 2703 0 2892 L0 4561 C0 4782 189 5002 410 5002 L946 5002 L946 10264 C410 10390 0 10894 0 11492 L0 12311 C0 12532 189 12753 410 12753 L12256 12753 C12476 12753 12634 12532 12634 12311 L12634 11492 C12634 10894 12256 10390 11689 10264 L11689 5002 L12256 5002 C12476 5002 12634 4782 12634 4561 L12634 2892 C12602 2734 12539 2577 12382 2514 L6459 25 C6396 9 6341 1 6290 1 Z" fill="#113D34"></path></g><g transform="translate(-60839775 2731075) scale(25 25)"><path d="M379 0 C158 0 1 190 1 379 C1 599 158 788 379 788 C599 788 789 599 789 379 C789 190 599 0 379 0 Z" fill="#F6620B"></path></g></svg>