<svg xmlns="http://www.w3.org/2000/svg" viewBox="-1333975 2365850 292225 293575"><g transform="translate(-1285150 2365850) scale(25 25)"><path d="M3813 684 C5545 684 6900 2039 6900 3740 C6931 4780 6553 5347 6270 5788 C5797 6544 5608 6922 5608 7930 C5608 8119 5451 8277 5230 8277 L2489 8277 C2300 8277 2143 8119 2143 7930 C2143 6922 1922 6576 1450 5820 C1198 5347 567 4528 788 3205 C1040 1819 2237 684 3813 684 Z M4852 8907 L4852 9569 L4506 9569 C4285 9569 4128 9726 4128 9915 C4128 10136 4285 10293 4506 10293 L4852 10293 L4852 10640 C4884 10829 4726 10986 4537 10986 L3151 10986 C2962 10986 2804 10829 2804 10640 L2804 10293 L3151 10293 C3371 10293 3529 10136 3529 9915 C3529 9726 3371 9569 3151 9569 L2804 9569 L2804 8907 Z M3897 1 C3632 1 3361 28 3088 86 C1607 401 441 1566 158 3079 C0 3992 158 4969 631 5757 C757 5914 820 6072 914 6229 C1355 6891 1450 7143 1450 7962 C1450 8403 1733 8781 2143 8939 L2143 10703 C2143 11270 2615 11743 3151 11743 L4537 11743 C5073 11743 5545 11270 5545 10703 L5545 8939 C5955 8781 6238 8435 6238 7962 L6238 7930 C6238 7143 6427 6828 6805 6229 C7089 5788 7593 5032 7593 3835 C7649 1658 5950 1 3897 1 Z" fill="#113D34"></path></g><g transform="translate(-1076425 2452250) scale(25 25)"><path d="M347 1 C158 1 0 158 0 379 C0 568 158 725 347 725 L1040 725 C1229 725 1386 568 1386 379 C1386 158 1229 1 1040 1 Z" fill="#113D34"></path></g><g transform="translate(-1333975 2452250) scale(25 25)"><path d="M347 1 C158 1 0 158 0 379 C0 568 158 725 347 725 L1008 725 C1197 694 1386 536 1386 379 C1386 158 1197 1 1008 1 Z" fill="#113D34"></path></g><g transform="translate(-1093750 2383050) scale(25 25)"><path d="M992 1 C931 1 870 19 819 59 L221 406 C63 500 0 721 95 878 C159 985 295 1063 415 1063 C473 1063 527 1045 567 1005 L1166 658 C1323 563 1418 343 1292 185 C1249 79 1120 1 992 1 Z" fill="#113D34"></path></g><g transform="translate(-1317450 2512575) scale(25 25)"><path d="M1005 1 C944 1 880 15 820 45 L221 392 C64 486 1 707 127 864 C169 971 299 1049 427 1049 C488 1049 548 1031 599 990 L1166 644 C1324 549 1418 329 1292 171 C1250 64 1134 1 1005 1 Z" fill="#113D34"></path></g><g transform="translate(-1092975 2512575) scale(25 25)"><path d="M378 1 C264 1 149 64 64 171 C1 329 32 518 190 644 L788 990 C838 1010 891 1021 944 1021 C1059 1021 1175 972 1261 864 C1387 675 1292 486 1135 392 L536 45 C486 15 432 1 378 1 Z" fill="#113D34"></path></g><g transform="translate(-1316650 2383750) scale(25 25)"><path d="M405 1 C283 1 159 50 95 157 C0 315 63 504 221 630 L788 977 C838 1007 895 1021 953 1021 C1074 1021 1196 958 1260 850 C1386 693 1292 504 1134 378 L567 31 C517 11 461 1 405 1 Z" fill="#113D34"></path></g><g transform="translate(-1239475 2401575) scale(25 25)"><path d="M1733 1492 L1733 2343 C1733 2500 1796 2626 1922 2658 L3246 3225 L2395 4611 L2395 3729 C2395 3572 2332 3445 2206 3414 L851 2878 L1733 1492 Z M2038 0 C1919 0 1814 47 1765 169 L64 2941 C32 3004 1 3130 32 3225 C64 3288 158 3382 221 3414 L1733 4013 L1733 5808 C1733 5966 1859 6092 1954 6123 L2049 6123 C2143 6123 2269 6092 2301 5966 L4002 3225 C4033 3130 4096 3004 4033 2941 C4033 2878 3970 2784 3907 2752 L2395 2154 L2395 358 C2395 169 2269 74 2143 11 C2108 4 2072 0 2038 0 Z" fill="#F6620B"></path></g></svg>