<svg xmlns="http://www.w3.org/2000/svg" viewBox="2821450 2957850 259275 258550"><g transform="translate(2821450 3080500) scale(25 25)"><path d="M2677 585 C3151 585 3569 1004 3569 1505 C3569 1979 3151 2397 2677 2397 C2147 2397 1757 1979 1757 1505 C1757 1004 2175 585 2677 585 Z M7555 585 C8029 585 8447 1004 8447 1505 C8447 1979 8029 2397 7555 2397 C7025 2397 6635 1979 6635 1505 C6635 1004 7053 585 7555 585 Z M2677 2983 C3736 2983 4628 3791 4795 4795 L586 4795 C698 3791 1618 2983 2677 2983 Z M7555 2983 C8614 2983 9506 3791 9646 4795 L5409 4795 C5548 3791 6468 2983 7555 2983 Z M2733 0 C1896 0 1227 669 1227 1505 C1227 1951 1395 2342 1729 2620 C698 3039 1 4014 1 5129 C1 5296 140 5436 335 5436 L10036 5436 C10231 5436 10370 5296 10370 5129 C10259 3958 9562 2983 8559 2620 C8865 2342 9032 1951 9032 1505 C9032 669 8391 0 7555 0 C6719 0 6050 669 6050 1505 C6050 1951 6217 2342 6524 2620 C5910 2843 5409 3317 5130 3903 C4823 3317 4322 2843 3736 2620 C4043 2342 4238 1951 4238 1505 C4238 669 3569 0 2733 0 Z" fill="#113D34"></path></g><g transform="translate(2831900 2957850) scale(25 25)"><path d="M8336 585 C8531 585 8642 725 8642 892 L8642 2119 C8642 2286 8531 2425 8336 2425 L7137 2425 C6942 2425 6803 2565 6803 2732 L6803 3234 L6106 2537 C6050 2453 5966 2425 5911 2425 L3430 2425 C3346 2425 3262 2453 3207 2537 L2510 3234 L2510 2732 C2510 2565 2370 2425 2203 2425 L1032 2425 C865 2425 726 2286 726 2119 L726 892 C726 725 865 585 1032 585 Z M921 0 C447 0 1 418 1 892 L1 2119 C1 2592 419 3011 921 3011 L1841 3011 L1841 3958 C1924 4098 2008 4209 2120 4237 C2150 4247 2188 4254 2228 4254 C2298 4254 2373 4234 2426 4181 L3541 3011 L5743 3011 L6830 4181 C6883 4234 6959 4254 7035 4254 C7080 4254 7124 4247 7165 4237 C7249 4209 7332 4070 7332 3958 L7332 3011 L8224 3011 C8726 3011 9144 2592 9144 2119 L9144 892 C9144 418 8726 0 8224 0 Z" fill="#F6620B"></path></g><g transform="translate(3024600 2966925) scale(25 24.619949494949495)"><path d="M159 2269 C131 2225 349 2178 444 2102 C539 2027 682 2090 730 1816 C778 1542 774 725 730 459 C686 193 587 273 468 221 C349 169 -16 185 16 149 C48 113 473 -21 659 7 C846 35 1048 54 1135 316 C1222 578 1183 1276 1183 1578 C1183 1880 1230 1995 1135 2126 C1040 2257 774 2340 611 2364 C448 2388 187 2313 159 2269 Z" fill="#113D34"></path></g></svg>