<svg xmlns="http://www.w3.org/2000/svg" viewBox="-30064925 2332550 291425 291425"><g transform="translate(-30064925 2332550) scale(25 25)"><path d="M5829 662 C8664 662 10995 2993 10995 5828 C10995 8695 8664 10995 5829 10995 C2993 10995 662 8664 662 5828 C662 2993 2993 662 5829 662 Z M5829 0 C2615 0 0 2615 0 5828 C0 9042 2647 11657 5829 11657 C9074 11657 11657 9010 11657 5828 C11657 2646 9074 0 5829 0 Z" fill="#113D34"></path></g><g transform="translate(-29944425 2384525) scale(25 25)"><path d="M1009 662 C1198 662 1355 819 1355 1040 C1355 1229 1198 1387 1009 1387 C820 1387 662 1229 662 1040 C662 819 820 662 1009 662 Z M1009 0 C473 0 0 473 0 1040 C0 1576 473 2048 1009 2048 C1576 2048 2048 1576 2048 1040 C2048 473 1607 0 1009 0 Z" fill="#113D34"></path></g><g transform="translate(-29944425 2452250) scale(25 25)"><path d="M1009 725 C1198 725 1355 883 1355 1072 L1355 3781 C1355 4002 1198 4159 1009 4159 C820 4159 662 4002 662 3781 L662 1072 C662 883 820 725 1009 725 Z M1009 1 C473 1 0 473 0 1040 L0 3750 C0 4317 473 4790 1009 4790 C1576 4790 2048 4317 2048 3750 L2048 1040 C2048 473 1607 1 1009 1 Z" fill="#F6620B"></path></g></svg>