<svg xmlns="http://www.w3.org/2000/svg" viewBox="-62882850 1999375 315850 250500"><g transform="translate(-62882850 1999375) scale(25 25)"><path d="M10586 851 C10838 851 11027 1040 11027 1261 L11027 7499 L1638 7499 L1638 1261 L1607 1261 C1607 1040 1796 851 2048 851 Z M11814 8318 L11814 8727 C11814 8948 11594 9137 11405 9137 L1197 9137 C977 9137 788 8948 788 8727 L788 8318 Z M2048 1 C1355 1 788 568 788 1261 L788 7499 L378 7499 C158 7499 0 7688 0 7940 L0 8759 C0 9420 536 10019 1197 10019 L11405 10019 C12066 10019 12634 9452 12634 8759 L12634 7940 C12634 7656 12444 7499 12224 7499 L11814 7499 L11814 1261 C11814 599 11247 1 10586 1 Z" fill="#113D34"></path></g><g transform="translate(-62806475 2062375) scale(25 25)"><path d="M3782 1 C3561 1 3341 221 3341 410 C3341 631 3561 852 3782 852 L4443 852 L2962 2332 L2395 1765 C2332 1686 2230 1647 2124 1647 C2017 1647 1907 1686 1828 1765 L159 3435 C1 3592 1 3876 159 4034 C237 4112 348 4152 458 4152 C568 4152 678 4112 757 4034 L2143 2647 L2679 3183 C2758 3262 2868 3301 2978 3301 C3088 3301 3199 3262 3278 3183 L5042 1419 L5042 2080 C5042 2332 5231 2521 5451 2521 C5640 2521 5861 2332 5861 2080 L5861 442 C5861 158 5672 1 5451 1 Z" fill="#F6620B"></path></g></svg>