<svg xmlns="http://www.w3.org/2000/svg" viewBox="-30806075 2657050 291425 291425"><g transform="translate(-30806075 2657050) scale(25 25)"><path d="M5828 693 C8664 693 10995 2993 10995 5828 C10995 8664 8664 10995 5828 10995 C2993 10995 662 8664 662 5828 C662 2993 2993 693 5828 693 Z M5828 0 C2583 0 0 2646 0 5828 C0 9073 2646 11657 5828 11657 C9042 11657 11657 9042 11657 5828 C11657 2646 9042 0 5828 0 Z" fill="#113D34"></path></g><g transform="translate(-30771425 2692475) scale(25 25)"><path d="M4442 725 C6522 725 8192 2427 8192 4474 C8192 6522 6522 8192 4442 8192 C2363 8192 693 6522 693 4474 C693 2427 2395 725 4442 725 Z M4442 1 C1985 1 0 2017 0 4474 C0 6900 1985 8917 4442 8917 C6868 8917 8885 6900 8885 4474 C8885 2017 6868 1 4442 1 Z" fill="#F6620B"></path></g><g transform="translate(-30669050 2726350) scale(25 25)"><path d="M347 0 C158 0 1 158 1 347 L1 3056 C1 3151 32 3277 95 3308 L1482 4695 C1545 4742 1631 4766 1718 4766 C1805 4766 1891 4742 1954 4695 C2080 4569 2080 4317 1954 4222 L694 2962 L694 347 C694 158 536 0 347 0 Z" fill="#113D34"></path></g></svg>