<svg xmlns="http://www.w3.org/2000/svg" viewBox="-4211975 2783850 291450 274100"><g transform="translate(-4211975 2937125) scale(25 25)"><path d="M978 706 C1167 706 1324 863 1324 1052 L1324 3762 C1324 3982 1167 4140 978 4140 L631 4140 L631 706 Z M3866 717 C4374 717 4886 859 5325 1147 C5672 1367 5703 1399 5829 1399 L7247 1399 C7436 1399 7594 1556 7594 1777 C7594 1966 7436 2124 7247 2124 L4758 2124 C4380 2124 4034 2344 3845 2659 C3782 2817 3845 3069 4002 3132 C4045 3158 4096 3169 4148 3169 C4284 3169 4429 3088 4475 2974 C4538 2848 4632 2785 4790 2785 L7562 2785 C7783 2785 8003 2722 8192 2596 L10555 769 C10603 747 10649 737 10693 737 C10969 737 11146 1123 10902 1367 C10844 1406 10817 1419 10805 1419 C10780 1419 10836 1354 10826 1354 C10804 1354 10447 1686 8066 3856 C7877 4014 7625 4140 7373 4140 L3435 4140 C2962 4140 2490 4014 2049 3825 L2049 1399 L2332 1210 C2774 883 3318 717 3866 717 Z M3817 0 C3151 0 2491 205 1923 611 C1765 265 1419 13 1009 13 L348 13 C159 13 1 170 1 391 L1 4486 C1 4675 159 4833 348 4833 L1009 4833 C1324 4833 1608 4675 1797 4486 C2332 4707 2868 4833 3435 4833 L7373 4833 C7783 4833 8192 4675 8507 4392 C8539 4392 11217 1903 11248 1872 C11406 1809 11658 1493 11658 1084 C11658 454 11185 44 10618 44 C10303 44 10051 202 9925 296 L8192 1619 C8098 1084 7688 706 7153 706 L5861 706 L5640 548 C5075 182 4444 0 3817 0 Z" fill="#113D34"></path></g><g transform="translate(-4109575 2783850) scale(25 25)"><path d="M3057 693 C4411 693 5482 1765 5482 3088 C5482 4442 4411 5482 3057 5482 C1733 5482 662 4442 662 3088 C662 1765 1733 693 3057 693 Z M3057 0 C1387 0 1 1387 1 3088 C1 4789 1387 6175 3057 6175 C4758 6175 6144 4789 6144 3088 C6144 1387 4758 0 3057 0 Z" fill="#F6620B"></path></g><g transform="translate(-4074925 2818500) scale(25 25)"><path d="M1671 631 C2238 631 2710 1103 2710 1670 C2710 2206 2238 2678 1671 2678 C1135 2678 662 2206 662 1670 C662 1103 1135 631 1671 631 Z M1671 1 C725 1 1 757 1 1702 C1 2647 725 3403 1671 3403 C2616 3403 3372 2647 3372 1702 C3372 757 2616 1 1671 1 Z" fill="#113D34"></path></g></svg>