<svg xmlns="http://www.w3.org/2000/svg" viewBox="2508825 2318350 297750 295400"><g transform="translate(2508825 2318350) scale(25 25)"><path d="M5892 694 C7625 694 9043 2112 9043 3845 C9043 5483 7751 6838 6081 6932 C6018 6932 5987 6901 5924 6869 L5766 6711 C5297 6298 4683 6101 4072 6101 C3985 6101 3899 6105 3813 6113 C3151 5577 2773 4727 2773 3845 C2773 2112 4191 694 5892 694 Z M4171 6822 C4577 6822 4979 6964 5294 7247 C5420 7373 5735 7657 5892 7657 L7972 7657 C8192 7657 8350 7814 8350 8003 C8350 8192 8192 8350 7972 8350 L5514 8350 C5294 8350 5136 8507 5136 8728 C5136 8917 5294 9074 5514 9074 L8224 9074 C8507 9074 8759 8948 8980 8759 L10492 7090 C10568 7033 10666 6987 10766 6987 C10833 6987 10902 7008 10965 7058 C11122 7184 11185 7373 11059 7531 L9389 9767 C9074 10209 8570 10492 8035 10492 L2773 10492 L2773 7468 L3025 7247 C3356 6964 3766 6822 4171 6822 Z M1734 6932 C1923 6932 2080 7090 2080 7310 L2080 10807 C2080 10996 1923 11154 1734 11154 L662 11154 L662 6932 Z M5924 1 C3844 1 2112 1734 2112 3845 C2112 4790 2458 5672 3088 6396 C2931 6459 2773 6585 2616 6711 C2427 6428 2112 6270 1765 6270 L347 6270 C158 6270 1 6428 1 6585 L1 11469 C1 11658 158 11815 347 11815 L1765 11815 C2238 11815 2584 11563 2742 11122 L8035 11122 C8759 11122 9515 10776 9956 10146 L11595 7877 C11910 7468 11878 6838 11437 6459 C11249 6301 11015 6221 10780 6221 C10503 6221 10224 6332 10019 6554 L9011 7657 C8885 7247 8539 6932 8098 6932 C8287 6838 8444 6680 8602 6522 C9358 5798 9767 4821 9767 3845 C9767 1734 8035 1 5924 1 Z" fill="#113D34"></path></g><g transform="translate(2629350 2353025) scale(25 25)"><path d="M1071 0 C882 0 725 158 725 347 L725 756 C315 914 63 1292 63 1733 C0 2332 473 2804 1071 2804 C1260 2804 1418 2962 1418 3151 C1418 3308 1355 3434 1229 3466 C1185 3492 1140 3503 1093 3503 C970 3503 839 3422 725 3308 C662 3245 575 3214 488 3214 C402 3214 315 3245 252 3308 C126 3434 126 3655 252 3781 C410 3938 567 4064 756 4096 L756 4505 C756 4694 914 4852 1103 4852 C1323 4852 1481 4694 1481 4505 L1481 4096 C1481 4096 1512 4096 1512 4064 C1890 3907 2142 3497 2142 3119 C2142 2521 1670 2079 1103 2079 C914 2079 756 1922 756 1733 C756 1575 851 1449 1008 1418 C1047 1405 1085 1399 1124 1399 C1273 1399 1418 1494 1544 1670 C1610 1753 1703 1792 1795 1792 C1876 1792 1957 1761 2016 1701 C2174 1575 2174 1323 2048 1229 C1859 977 1670 819 1418 756 L1418 347 C1418 158 1260 0 1071 0 Z" fill="#F6620B"></path></g></svg>