<svg xmlns="http://www.w3.org/2000/svg" viewBox="-63665750 1914325 328450 316450"><g transform="translate(-63665750 1914325) scale(25 25)"><path d="M8144 835 C9097 835 10050 1197 10775 1922 C12256 3371 12256 5734 10775 7183 C10050 7908 9097 8270 8144 8270 C7191 8270 6238 7908 5513 7183 C4064 5734 4064 3371 5513 1922 C6238 1197 7191 835 8144 835 Z M3466 8632 L4064 9231 L1607 11688 L1008 11090 L3466 8632 Z M8172 0 C7010 0 5844 441 4946 1323 C3277 3024 3182 5671 4694 7467 L4096 8065 L3214 7183 C3151 7104 3048 7065 2942 7065 C2836 7065 2725 7104 2646 7183 C2489 7341 2489 7624 2646 7782 L2899 8065 L158 10806 C0 10964 0 11247 158 11405 L1292 12539 C1371 12618 1481 12657 1591 12657 C1701 12657 1812 12618 1890 12539 L4631 9798 L4915 10050 C4994 10129 5104 10168 5214 10168 C5324 10168 5435 10129 5513 10050 C5671 9893 5671 9640 5513 9483 L4631 8601 L5230 8034 C6059 8730 7090 9078 8127 9078 C9296 9078 10472 8635 11373 7750 C13138 5986 13138 3087 11373 1323 C10491 441 9333 0 8172 0 Z" fill="#113D34"></path></g><g transform="translate(-63524775 1955275) scale(25 25)"><path d="M2458 882 C2930 882 3308 1229 3308 1702 C3308 2174 2962 2521 2458 2521 C1985 2521 1639 2174 1639 1702 C1639 1229 2048 882 2458 882 Z M2458 3340 C3245 3340 3876 3875 4096 4600 L883 4600 C1040 3875 1733 3340 2458 3340 Z M2458 0 C1576 0 820 756 820 1670 C820 2080 977 2489 1292 2804 C536 3245 0 4033 0 4978 C0 5230 189 5388 410 5388 L4569 5388 C4789 5388 4947 5199 4947 4978 C4947 4033 4443 3245 3655 2804 C3939 2489 4128 2080 4128 1670 C4128 756 3371 0 2458 0 Z" fill="#F6620B"></path></g></svg>