<svg xmlns="http://www.w3.org/2000/svg" viewBox="1049375 2680675 297725 297725"><g transform="translate(1113175 2752350) scale(25 25)"><path d="M3403 2079 C3781 2079 4096 2394 4096 2773 C4096 3182 3781 3497 3403 3497 C2993 3434 2678 3119 2678 2773 C2678 2394 2993 2079 3403 2079 Z M3371 693 C4694 693 5765 1796 5765 3119 C5765 3686 5545 4222 5198 4663 C5072 4442 4915 4190 4694 4001 C4568 3907 4442 3812 4348 3749 C4568 3529 4726 3182 4726 2804 C4726 2079 4096 1449 3340 1449 C2615 1449 1985 2079 1985 2804 C1985 3182 2142 3529 2363 3749 L2016 4001 C1827 4190 1607 4442 1512 4663 C1040 4064 882 3434 945 2773 C1103 1670 2111 693 3371 693 Z M3371 4159 C4001 4159 4505 4600 4694 5135 C4316 5387 3875 5545 3371 5545 C2898 5545 2426 5387 2016 5135 C2174 4537 2741 4159 3371 4159 Z M3308 0 C1701 0 441 1229 252 2710 C0 4600 1512 6238 3371 6238 C5104 6238 6459 4820 6459 3119 C6459 1386 5041 0 3308 0 Z" fill="#F6620B"></path></g><g transform="translate(1049375 2680675) scale(25 25)"><path d="M6270 1512 C8475 1670 10239 3434 10397 5640 L10082 5640 C9893 5640 9735 5797 9735 5986 C9735 6207 9893 6364 10082 6364 L10397 6364 C10239 8569 8475 10334 6270 10491 L6270 10176 C6270 9987 6112 9830 5923 9830 C5703 9830 5545 9987 5545 10176 L5545 10491 C3340 10334 1575 8569 1418 6364 L1733 6364 C1922 6364 2079 6207 2079 5986 C2142 5797 1985 5640 1764 5640 L1418 5640 C1575 3434 3340 1670 5545 1512 L5545 1827 C5545 2016 5703 2174 5923 2174 C6112 2174 6270 2016 6270 1827 L6270 1512 Z M5955 0 C5766 0 5608 158 5608 347 L5608 756 C2993 914 914 2993 756 5608 L347 5608 C158 5608 0 5766 0 5955 C0 6144 158 6301 347 6301 L756 6301 C914 8916 2993 10995 5608 11153 L5608 11562 C5608 11751 5766 11909 5955 11909 C6144 11909 6301 11751 6301 11562 L6301 11153 C8916 10995 10995 8916 11153 6301 L11531 6301 C11751 6301 11909 6144 11909 5955 C11909 5766 11751 5608 11531 5608 L11153 5608 C10995 2993 8916 914 6301 756 L6301 347 C6301 158 6144 0 5955 0 Z" fill="#113D34"></path></g></svg>