<svg xmlns="http://www.w3.org/2000/svg" viewBox="5794025 2673575 259925 296175"><g transform="translate(5794025 2673575) scale(25 25)"><path d="M5860 694 C7089 694 8097 1639 8254 2805 C8160 2773 8065 2773 7939 2773 L7561 2773 C7404 1985 6679 1387 5860 1387 L4474 1387 C3655 1387 2930 1985 2804 2773 L2394 2773 C2268 2773 2142 2773 2079 2805 C2237 1639 3277 694 4474 694 Z M6206 2143 C6616 2300 6931 2647 6931 3120 L6931 3403 C6522 3246 6206 2899 6206 2427 L6206 2143 Z M5513 2080 L5513 2427 C5513 3025 5041 3435 4474 3435 L3466 3435 L3466 3088 C3466 2490 3938 2080 4474 2080 Z M2741 3435 L2741 5451 C2363 5293 2048 4947 2048 4474 L2048 3813 C2048 3592 2205 3435 2394 3435 Z M7939 3498 C8160 3498 8317 3655 8317 3844 L8317 4506 C8317 4947 8034 5325 7593 5482 L7593 3498 Z M5891 3435 C6143 3750 6522 4033 6931 4128 L6931 5892 C6931 6491 6459 6900 5891 6900 L4505 6900 C3938 6900 3497 6428 3497 5892 L3497 4159 L4505 4159 C5072 4159 5576 3876 5891 3435 Z M6238 7593 C6333 7782 6459 7971 6616 8097 L5198 9547 L3718 8097 C3875 7971 4033 7782 4096 7593 C4190 7625 4379 7625 4474 7625 L5860 7625 C5986 7625 6143 7625 6238 7593 Z M2961 8318 L4852 10177 L4852 11122 L662 11122 L662 9358 C662 8759 1134 8318 1701 8318 Z M8664 8318 C9262 8318 9672 8790 9672 9358 L9672 11122 L5513 11122 L5513 10177 L7404 8318 Z M4537 1 C2804 1 1418 1418 1418 3120 L1418 4506 C1418 5356 2048 6050 2835 6207 C2898 6648 3151 7026 3497 7278 C3466 7467 3308 7625 3119 7625 L1733 7625 C788 7625 0 8412 0 9358 L0 11468 C0 11689 158 11846 347 11846 L10050 11846 C10239 11846 10397 11689 10397 11468 L10397 9358 C10397 8412 9609 7625 8664 7625 L7278 7625 C7089 7625 6931 7467 6931 7278 C7278 7026 7530 6648 7593 6207 C8380 6050 9010 5325 9010 4506 L9010 3120 C9010 1387 7593 1 5891 1 Z" fill="#113D34"></path></g><g transform="translate(5967300 2915375) scale(25 25)"><path d="M347 1 C158 1 0 158 0 347 C0 536 158 694 347 694 L1040 694 C1260 694 1418 536 1418 347 C1418 158 1260 1 1040 1 Z" fill="#F6620B"></path></g></svg>