<svg xmlns="http://www.w3.org/2000/svg" viewBox="-59502375 1904375 319000 319500"><g transform="translate(-59455125 2097050) scale(25 25)"><path d="M1670 819 L1670 1670 L820 1670 L820 819 Z M3309 819 L3309 1670 L2489 1670 L2489 819 Z M4978 819 L4978 1670 L4128 1670 L4128 819 Z M6617 819 L6617 1670 L5798 1670 L5798 819 Z M8286 819 L8286 1670 L7436 1670 L7436 819 Z M410 0 C158 0 1 189 1 410 L1 2048 C1 2300 190 2489 410 2489 L8664 2489 C8917 2489 9106 2300 9106 2048 L9106 410 C9106 158 8917 0 8664 0 Z" fill="#F6620B"></path></g><g transform="translate(-59502375 1966300) scale(25 25)"><path d="M8633 1639 L8633 3592 L7814 3592 L7814 1639 Z M11941 819 L11941 3592 L11122 3592 L11122 819 Z M5041 3119 L5041 3970 C5041 4222 5230 4411 5482 4411 L11941 4411 L11941 9357 L914 9357 L914 4222 L2552 3119 L2552 3970 C2552 4207 2767 4373 2980 4373 C3050 4373 3120 4355 3182 4316 L5041 3119 Z M10712 0 C10491 0 10334 189 10334 441 L10334 3592 L9483 3592 L9483 1261 C9483 1008 9294 819 9074 819 L7404 819 C7183 819 6963 1008 6963 1261 L6963 3592 L5860 3592 L5860 2363 C5860 2206 5797 2080 5640 2017 C5581 1973 5509 1949 5436 1949 C5352 1949 5266 1981 5199 2048 L3340 3245 L3340 2395 C3340 2237 3277 2111 3119 2048 C3061 2004 2989 1981 2916 1981 C2831 1981 2746 2012 2678 2080 L189 3718 C95 3812 0 3938 0 4096 L0 9861 C0 10113 189 10302 441 10302 L12287 10302 C12539 10302 12697 10113 12697 9861 L12697 504 C12760 158 12602 0 12382 0 Z" fill="#113D34"></path></g><g transform="translate(-59322800 1904375) scale(25 25)"><path d="M1291 0 C890 0 485 181 158 556 C0 713 32 965 189 1123 C265 1198 369 1237 474 1237 C589 1237 706 1190 788 1091 C946 918 1119 831 1292 831 C1465 831 1639 918 1796 1091 C2115 1457 2530 1646 2948 1646 C3357 1646 3769 1465 4096 1091 C4254 902 4191 650 4033 493 C3975 420 3885 381 3788 381 C3674 381 3551 436 3466 556 C3308 729 3127 815 2946 815 C2765 815 2584 729 2426 556 C2108 189 1701 0 1291 0 Z" fill="#113D34"></path></g></svg>