<svg xmlns="http://www.w3.org/2000/svg" viewBox="-4573475 2045850 293800 293800"><g transform="translate(-4573475 2045850) scale(25 25)"><path d="M6333 756 L6459 1292 C6490 1418 6585 1544 6742 1576 C7372 1702 7908 1922 8444 2300 C8491 2332 8546 2347 8605 2347 C8664 2347 8727 2332 8790 2300 L9231 2017 L9798 2584 L9546 3025 C9452 3151 9452 3308 9546 3371 C9893 3907 10113 4505 10239 5073 C10271 5199 10365 5325 10523 5356 L11058 5482 L11058 6301 L10523 6427 C10397 6459 10271 6553 10239 6711 C10113 7309 9893 7877 9546 8381 C9452 8507 9452 8633 9546 8759 L9798 9168 L9231 9767 L8790 9483 C8727 9452 8656 9436 8593 9436 C8530 9436 8475 9452 8444 9483 C7908 9861 7341 10082 6742 10208 C6616 10239 6490 10334 6459 10428 L6333 10964 L5514 10964 L5388 10428 C5356 10334 5230 10208 5136 10208 C4505 10082 3938 9861 3434 9483 C3371 9452 3308 9436 3249 9436 C3190 9436 3135 9452 3088 9483 L2647 9767 L2048 9168 L2332 8759 C2395 8633 2395 8475 2332 8381 C1985 7877 1733 7278 1607 6711 C1575 6585 1512 6459 1386 6427 L882 6301 L882 5482 L1386 5356 C1512 5325 1607 5199 1607 5073 C1733 4442 1985 3907 2332 3371 C2395 3277 2395 3151 2332 3025 L2048 2584 L2647 2017 L3088 2300 C3135 2332 3198 2347 3261 2347 C3324 2347 3387 2332 3434 2300 C3938 1922 4537 1702 5136 1576 C5230 1544 5356 1450 5388 1292 L5514 756 Z M5167 0 C5009 0 4852 126 4852 284 L4694 882 C4127 977 3623 1229 3119 1513 L2615 1197 C2557 1154 2485 1130 2412 1130 C2327 1130 2242 1161 2174 1229 L1197 2206 C1071 2332 1071 2489 1134 2647 L1449 3151 C1134 3623 945 4159 819 4726 L284 4884 C126 4915 0 5041 0 5199 L0 6585 C0 6742 126 6868 284 6900 L819 7057 C945 7593 1197 8129 1449 8633 L1134 9137 C1071 9263 1071 9452 1197 9578 L2174 10554 C2242 10622 2318 10653 2399 10653 C2469 10653 2542 10630 2615 10586 L3119 10271 C3592 10586 4127 10806 4694 10901 L4852 11468 C4883 11626 5009 11752 5167 11752 L6553 11752 C6711 11752 6805 11626 6868 11468 L7026 10901 C7561 10806 8065 10554 8601 10271 L9105 10586 C9164 10630 9236 10653 9309 10653 C9393 10653 9479 10622 9546 10554 L10523 9578 C10649 9452 10649 9294 10554 9137 L10239 8633 C10554 8160 10743 7656 10869 7057 L11468 6900 C11626 6868 11752 6742 11752 6585 L11752 5199 C11752 5041 11626 4915 11468 4884 L10869 4726 C10743 4159 10523 3655 10239 3151 L10554 2647 C10649 2521 10649 2332 10523 2206 L9546 1229 C9479 1161 9402 1130 9321 1130 C9251 1130 9178 1154 9105 1197 L8601 1513 C8128 1197 7593 977 7026 882 L6868 284 C6805 126 6711 0 6553 0 Z" fill="#113D34"></path></g><g transform="translate(-4521500 2099400) scale(25 25)"><path d="M3750 662 C5451 662 6837 2017 6837 3718 C6869 5104 6049 6239 4821 6648 L4821 5892 C5640 5514 6207 4663 6207 3718 C6207 2710 5577 1796 4569 1481 C4535 1472 4501 1467 4468 1467 C4278 1467 4096 1609 4096 1796 L4096 3372 L3435 3372 L3435 1796 C3435 1609 3276 1467 3073 1467 C3037 1467 3000 1472 2962 1481 C2017 1828 1355 2742 1355 3718 C1355 4663 1891 5514 2741 5892 L2741 6648 C1544 6207 694 5073 694 3718 C694 2017 2048 662 3750 662 Z M4852 2363 C5293 2679 5514 3183 5514 3718 C5514 4443 5041 5104 4380 5356 C4254 5388 4159 5545 4159 5671 L4159 6806 L3781 6806 C3734 6821 3679 6829 3624 6829 C3568 6829 3513 6821 3466 6806 L3466 5671 C3466 5514 3403 5388 3246 5356 C2584 5104 2111 4443 2111 3718 C2111 3183 2363 2679 2773 2363 L2773 3718 C2773 3939 2930 4096 3120 4096 L4506 4096 C4695 4096 4852 3939 4852 3718 L4852 2363 Z M3781 1 C1702 1 1 1670 1 3781 C1 5861 1702 7530 3781 7530 C5892 7530 7562 5861 7562 3781 C7562 1670 5892 1 3781 1 Z" fill="#F6620B"></path></g></svg>