<svg xmlns="http://www.w3.org/2000/svg" viewBox="-5995925 2757850 275675 292225"><g transform="translate(-5995925 2757850) scale(25 25)"><path d="M9924 1324 C10113 1324 10271 1481 10271 1702 L10271 9263 L10302 9263 C10302 9452 10145 9610 9956 9610 L9609 9610 L9609 8570 C9609 8381 9452 8223 9263 8223 L4442 8223 C4253 8223 4096 8381 4096 8570 L4096 9610 L3434 9610 L3434 1324 Z M2426 631 C2647 631 2804 788 2804 977 L2804 9925 C2804 10114 2647 10271 2426 10271 L1071 10271 C851 10271 693 10114 693 9925 L693 977 C693 788 851 631 1071 631 Z M8948 8948 L8948 10996 L4852 10996 L4852 8948 Z M1008 1 C473 1 0 473 0 1009 L0 9956 C0 10523 473 10996 1008 10996 L2395 10996 C2836 10996 3214 10712 3371 10303 L4127 10303 L4127 11342 C4127 11531 4285 11689 4474 11689 L9294 11689 C9483 11689 9641 11531 9641 11342 L9641 10271 L9987 10271 C10554 10271 11027 9799 11027 9263 L11027 1702 C10995 1103 10554 662 9956 662 L3371 662 C3214 284 2867 1 2395 1 Z" fill="#113D34"></path></g><g transform="translate(-5892750 2808250) scale(25 25)"><path d="M4821 694 L4821 2112 L725 2112 L725 694 Z M347 1 C158 1 0 158 0 348 L0 2427 C0 2616 158 2773 347 2773 L5167 2773 C5356 2773 5514 2616 5514 2427 L5514 348 C5514 158 5356 1 5167 1 Z" fill="#F6620B"></path></g><g transform="translate(-5891975 2895675) scale(25 25)"><path d="M379 1 C158 1 1 159 1 348 C1 537 158 694 379 694 L1041 694 C1230 694 1387 537 1387 348 C1356 127 1198 1 1041 1 Z" fill="#113D34"></path></g><g transform="translate(-5891975 2928775) scale(25 25)"><path d="M379 0 C158 0 1 158 1 378 C1 567 158 725 379 725 L1041 725 C1230 725 1387 567 1387 378 C1356 158 1198 0 1041 0 Z" fill="#113D34"></path></g><g transform="translate(-5840775 2928775) scale(25 25)"><path d="M379 0 C158 0 1 158 1 378 C1 567 158 725 379 725 L1040 725 C1229 725 1387 567 1387 378 C1387 158 1229 0 1040 0 Z" fill="#113D34"></path></g><g transform="translate(-5840775 2895675) scale(25 25)"><path d="M379 1 C158 1 1 159 1 348 C1 537 158 694 379 694 L1040 694 C1229 694 1387 537 1387 348 C1387 127 1229 1 1040 1 Z" fill="#113D34"></path></g><g transform="translate(-5789575 2895675) scale(25 25)"><path d="M379 1 C158 1 1 159 1 348 C1 537 158 694 379 694 L1040 694 C1229 694 1387 537 1387 348 C1387 127 1229 1 1040 1 Z" fill="#113D34"></path></g><g transform="translate(-5789575 2928775) scale(25 25)"><path d="M379 0 C158 0 1 158 1 378 C1 567 158 725 379 725 L1040 725 C1229 725 1387 567 1387 378 C1387 158 1229 0 1040 0 Z" fill="#113D34"></path></g><g transform="translate(-5858100 2998075) scale(25 25)"><path d="M347 1 C158 1 1 158 1 347 C1 536 158 694 347 694 L2395 694 C2584 694 2742 536 2742 347 C2742 158 2584 1 2395 1 Z" fill="#113D34"></path></g></svg>