<svg xmlns="http://www.w3.org/2000/svg" viewBox="-64774725 1916550 319000 314400"><g transform="translate(-64774725 1916550) scale(25 25)"><path d="M11436 856 C11562 856 11657 888 11783 951 C11877 1077 11940 1203 11909 1329 C11814 2431 11562 3440 11090 4416 L8317 1675 C9263 1234 10334 951 11436 856 Z M3781 4542 L3781 4542 C3529 4983 3245 5456 3056 5960 C2878 5949 2699 5942 2522 5942 C2167 5942 1817 5970 1481 6054 C1544 5928 1670 5802 1733 5739 C2331 5141 2993 4731 3781 4542 Z M7561 2022 L10680 5141 C9546 7157 7687 8669 5419 9331 L3403 7346 C4064 5109 5576 3219 7561 2022 Z M2899 8008 L4789 9898 L4316 10623 L2142 8449 L2899 8008 Z M2363 9867 L2899 10371 C2741 10497 2520 10654 2300 10780 C1985 10969 1733 11095 1638 11127 C1701 10969 1796 10780 1985 10465 C2142 10213 2268 10024 2363 9867 Z M8191 8984 L8191 8984 C7971 9867 7467 10686 6711 11284 C6837 10749 6837 10245 6774 9741 C7309 9551 7782 9268 8191 8984 Z M11509 1 C11474 1 11440 2 11405 6 C10365 100 9389 321 8412 730 C7498 1077 6616 1644 5797 2274 C5324 2652 4852 3093 4474 3566 C3245 3629 2048 4196 1166 5109 C725 5519 378 6054 95 6590 C0 6748 63 6937 158 7063 C252 7157 378 7189 441 7189 C536 7189 567 7189 630 7157 C1198 6873 1842 6743 2471 6743 C2540 6743 2609 6744 2678 6748 C2647 6905 2615 7031 2584 7189 L1229 7976 C1008 8134 945 8449 1166 8606 L1733 9173 C1544 9425 1323 9772 1103 10119 C945 10465 788 10717 725 10906 C599 11316 630 11599 851 11788 C981 11918 1144 11961 1320 11961 C1443 11961 1572 11940 1701 11914 C1953 11820 2174 11694 2489 11505 C2836 11316 3151 11095 3434 10875 L4033 11473 C4116 11557 4225 11597 4330 11597 C4464 11597 4593 11533 4663 11410 L5450 10056 C5608 10024 5734 9993 5892 9930 L5892 9930 C5923 10591 5797 11316 5482 11977 C5419 12135 5450 12324 5576 12450 C5639 12534 5759 12576 5878 12576 C5937 12576 5997 12565 6049 12544 C6585 12261 7089 11914 7530 11473 C8443 10560 8979 9394 9074 8165 C9546 7756 9987 7346 10365 6811 C11027 5991 11562 5141 11940 4227 C12350 3282 12571 2242 12665 1234 C12760 1014 12665 636 12382 384 C12126 128 11820 1 11509 1 Z" fill="#113D34"></path></g><g transform="translate(-64636900 2010600) scale(25 25)"><path d="M1828 827 C2048 827 2269 906 2426 1064 C2741 1410 2741 1914 2426 2229 C2269 2387 2048 2466 1828 2466 C1607 2466 1387 2387 1229 2229 C914 1914 914 1379 1229 1064 C1387 906 1607 827 1828 827 Z M1820 0 C1402 0 977 166 631 497 C0 1127 0 2198 631 2828 C946 3143 1371 3301 1796 3301 C2222 3301 2647 3143 2962 2828 C3592 2198 3592 1127 2962 497 C2647 166 2237 0 1820 0 Z" fill="#F6620B"></path></g></svg>