<svg xmlns="http://www.w3.org/2000/svg" viewBox="-4572700 2764950 293025 293000"><g transform="translate(-4572700 2764950) scale(25 25)"><path d="M10681 2048 C10870 2048 11027 2206 11027 2395 L11027 7246 C11027 7435 10870 7593 10681 7593 L1072 7593 C883 7593 725 7435 725 7246 L725 2395 C725 2206 883 2048 1072 2048 Z M4821 8286 L4821 8979 L3435 8979 L3435 8286 Z M8287 8286 L8287 8979 L6869 8979 L6869 8286 Z M6207 8254 L6207 11027 L5514 11027 L5514 8254 Z M1733 0 C1544 0 1387 158 1387 347 C1387 536 1544 693 1733 693 L2112 693 L2112 1355 L1072 1355 C536 1355 64 1827 64 2395 L64 7246 C64 7782 536 8254 1072 8254 L2773 8254 L2773 8916 L1733 8916 C1544 8916 1387 9074 1387 9294 C1387 9483 1544 9641 1733 9641 L4821 9641 L4821 11027 L379 11027 C158 11027 1 11184 1 11373 C1 11562 158 11720 379 11720 L11342 11720 C11563 11720 11721 11562 11721 11373 C11721 11184 11563 11027 11342 11027 L6869 11027 L6869 9641 L9988 9641 C10177 9641 10334 9483 10334 9294 C10334 9074 10177 8916 9988 8916 L8948 8916 L8948 8254 L10681 8254 C11248 8254 11721 7782 11721 7246 L11721 2395 C11721 1827 11248 1355 10681 1355 L9673 1355 L9673 693 L10019 693 C10208 693 10366 536 10366 347 C10366 158 10208 0 10019 0 L8633 0 C8444 0 8287 158 8287 347 C8287 536 8444 693 8633 693 L8980 693 L8980 1355 L6207 1355 L6207 693 L6554 693 C6743 693 6900 536 6900 347 C6900 158 6743 0 6554 0 L5168 0 C4978 0 4821 158 4821 347 C4821 536 4978 693 5168 693 L5514 693 L5514 1355 L2773 1355 L2773 693 L3120 693 C3309 693 3466 536 3466 347 C3466 158 3309 0 3120 0 Z" fill="#113D34"></path></g><g transform="translate(-4538825 2833475) scale(25 25)"><path d="M2804 662 L2804 3466 L757 3466 L757 662 Z M347 0 C158 0 0 158 0 347 L0 3812 C0 4033 158 4190 347 4190 L3119 4190 C3308 4190 3466 4033 3466 3812 L3466 347 C3466 158 3308 0 3119 0 Z" fill="#F6620B"></path></g><g transform="translate(-4435650 2902775) scale(25 25)"><path d="M347 1 C158 1 1 158 1 347 C32 536 158 694 347 694 L4506 694 C4695 694 4852 536 4852 347 C4852 158 4695 1 4506 1 Z" fill="#113D34"></path></g><g transform="translate(-4435650 2867325) scale(25 25)"><path d="M347 1 C158 1 1 158 1 347 C32 568 158 694 347 694 L4506 694 C4695 694 4852 536 4852 347 C4852 158 4695 1 4506 1 Z" fill="#113D34"></path></g><g transform="translate(-4435650 2833475) scale(25 25)"><path d="M347 0 C158 0 1 158 1 347 C32 567 158 725 347 725 L4506 725 C4695 725 4852 567 4852 347 C4852 158 4695 0 4506 0 Z" fill="#113D34"></path></g></svg>