<svg xmlns="http://www.w3.org/2000/svg" viewBox="-63250675 2664125 317425 318225"><g transform="translate(-63250675 2664125) scale(25 25)"><path d="M6364 2521 C8475 2521 10208 4254 10208 6396 C10208 8507 8475 10240 6364 10240 C4222 10240 2489 8507 2489 6396 C2489 4254 4222 2521 6364 2521 Z M6364 1 C6112 1 5923 190 5923 442 L5923 1702 C4946 1765 4033 2174 3308 2773 L2426 1859 C2347 1781 2237 1741 2127 1741 C2017 1741 1906 1781 1827 1859 C1670 2017 1670 2300 1827 2458 L2741 3340 C2143 4065 1733 4978 1670 5955 L410 5955 C158 5955 0 6144 0 6333 C0 6585 221 6774 410 6774 L1670 6774 C1733 7751 2143 8664 2741 9389 L1827 10271 C1670 10429 1670 10712 1827 10870 C1890 10964 2017 10996 2111 10996 C2174 10996 2300 10964 2363 10870 L3277 9956 C4001 10555 4883 10964 5892 11027 L5892 12287 C5892 12508 6081 12729 6301 12729 C6553 12729 6711 12508 6711 12287 L6711 11027 C7687 10964 8601 10555 9294 9956 L10208 10870 C10302 10964 10397 10996 10491 10996 C10617 10996 10680 10964 10775 10870 C10932 10712 10932 10429 10775 10271 L9861 9389 C10460 8664 10838 7751 10932 6774 L12193 6774 C12413 6774 12602 6585 12602 6333 C12697 6144 12508 5955 12256 5955 L10995 5955 C10932 4978 10523 4065 9924 3340 L10838 2458 C10995 2300 10995 2017 10838 1859 C10759 1781 10649 1741 10539 1741 C10428 1741 10318 1781 10239 1859 L9357 2773 C8633 2174 7719 1765 6742 1702 L6742 442 C6742 190 6553 1 6364 1 Z" fill="#113D34"></path></g><g transform="translate(-63167975 2747625) scale(25 25)"><path d="M2615 819 L2615 1701 C2521 1733 2458 1733 2363 1764 L1796 1197 C2017 1040 2300 914 2615 819 Z M3434 882 C3749 914 4033 1040 4253 1229 L3686 1827 C3592 1796 3529 1733 3434 1733 L3434 882 Z M1197 1796 L1796 2363 C1733 2457 1701 2520 1701 2615 L851 2615 C914 2300 1040 2016 1197 1796 Z M4852 1796 C5010 2016 5136 2300 5199 2615 L4348 2615 C4316 2520 4316 2457 4253 2363 L4852 1796 Z M3056 2457 C3214 2457 3308 2520 3434 2615 C3560 2741 3592 2836 3592 2993 C3592 3151 3529 3308 3434 3403 C3308 3529 3214 3560 3056 3560 C2899 3560 2773 3466 2647 3403 C2521 3277 2489 3151 2489 2993 C2489 2836 2584 2741 2647 2615 C2773 2489 2899 2457 3056 2457 Z M1733 3434 C1796 3529 1796 3592 1828 3686 L1229 4253 C1040 4033 914 3749 882 3434 Z M5199 3434 C5136 3749 5010 4033 4852 4253 L4253 3686 C4316 3592 4348 3529 4348 3434 Z M2363 4253 C2458 4316 2521 4348 2615 4348 L2615 5198 C2300 5167 2017 5041 1796 4852 L2363 4253 Z M3686 4253 L4253 4852 C4033 5009 3749 5135 3434 5198 L3434 4348 C3529 4316 3592 4316 3686 4253 Z M3056 0 C1355 0 0 1386 0 3056 C0 3875 315 4631 882 5167 C1229 5608 2111 6081 3056 6081 C4694 6081 6081 4726 6081 3056 C6081 1355 4694 0 3056 0 Z" fill="#F6620B"></path></g></svg>