<svg xmlns="http://www.w3.org/2000/svg" viewBox="3601275 2319150 294600 294600"><g transform="translate(3601275 2319150) scale(25 25)"><path d="M8223 694 C8696 725 9168 914 9546 1198 L7057 3687 C6774 3498 6459 3340 6144 3245 L8223 694 Z M10523 1198 C10838 1576 11027 2111 11027 2615 L8286 4852 L7561 4159 L10523 1198 Z M5592 3923 C6033 3923 6474 4096 6805 4443 C7498 5104 7498 6207 6805 6869 C6474 7199 6033 7365 5592 7365 C5151 7365 4710 7199 4379 6869 C3718 6207 3718 5104 4379 4443 C4710 4096 5151 3923 5592 3923 Z M8034 5577 L8191 5734 C8696 6270 9326 6742 10019 7058 L9420 7278 C9263 7310 9168 7467 9168 7593 L9168 8066 C8601 7814 8034 7467 7561 7058 C7876 6648 8034 6175 8034 5608 L8034 5577 Z M3245 6081 C3308 6427 3466 6806 3655 7058 L1197 9546 C882 9200 662 8696 630 8160 L3245 6081 Z M7057 7593 C7435 8066 7813 8601 8034 9200 L7561 9200 C7404 9200 7278 9263 7246 9420 L7057 10019 C6742 9357 6270 8727 5766 8223 L5608 8066 L5640 8066 C6144 8066 6648 7877 7057 7593 Z M4096 7625 L4820 8318 L2552 11090 C2048 11059 1575 10901 1134 10586 L4096 7625 Z M8160 0 C8034 0 7971 63 7876 126 L5356 3245 C4852 3308 4348 3529 3938 3970 C3592 4317 3340 4758 3277 5262 L126 7782 C32 7845 0 7940 0 8066 C0 8790 284 9546 756 10114 L473 10366 C410 10460 347 10523 347 10618 C347 10681 410 10807 473 10838 C1103 11468 1922 11783 2804 11783 C2930 11783 2993 11752 3088 11657 L5388 8790 C6018 9452 6553 10303 6805 11153 C6868 11311 7026 11405 7120 11405 C7278 11405 7404 11311 7435 11153 L7845 9924 L8601 9924 C8696 9924 8790 9893 8853 9767 C8948 9704 8948 9578 8916 9452 C8790 9137 8664 8822 8507 8507 L8507 8507 C8822 8664 9137 8790 9452 8916 C9489 8926 9526 8929 9561 8929 C9646 8929 9722 8907 9767 8885 C9861 8790 9924 8727 9924 8601 L9924 7845 L11153 7467 C11310 7404 11373 7247 11373 7152 C11373 6995 11310 6869 11153 6837 C10271 6553 9452 6049 8790 5419 L11657 3088 C11689 2962 11783 2867 11783 2773 C11783 1922 11436 1072 10838 442 C10775 379 10688 347 10602 347 C10515 347 10428 379 10365 442 L10082 725 C9546 284 8853 0 8160 0 Z" fill="#113D34"></path></g><g transform="translate(3713900 2434350) scale(25 25)"><path d="M1087 685 C1174 685 1261 717 1324 780 C1450 874 1450 1126 1324 1252 C1261 1300 1174 1323 1087 1323 C1001 1323 914 1300 851 1252 C725 1126 725 937 851 780 C914 717 1001 685 1087 685 Z M1115 0 C851 0 583 102 378 307 C0 685 0 1347 378 1756 C583 1977 851 2087 1115 2087 C1379 2087 1639 1977 1828 1756 C2237 1347 2237 685 1828 307 C1639 102 1379 0 1115 0 Z" fill="#F6620B"></path></g></svg>