<svg xmlns="http://www.w3.org/2000/svg" viewBox="-2571737 2764550 292225 290650"><g transform="translate(-2496085 3009100) scale(25 25)"><path d="M347 1 C127 1 0 158 0 347 C0 536 127 694 347 694 C536 694 694 536 694 347 C662 158 505 1 347 1 Z" fill="#113D34"></path></g><g transform="translate(-2398548 2800375) scale(25 25)"><path d="M1008 0 C819 0 662 158 662 378 L662 757 C252 914 0 1261 0 1733 C0 2300 473 2773 1008 2773 C1323 2773 1481 3119 1260 3371 C1197 3419 1103 3442 1012 3442 C922 3442 835 3419 788 3371 C725 3308 630 3277 540 3277 C449 3277 362 3308 315 3371 C189 3466 189 3718 315 3844 C410 3939 536 4033 693 4065 L693 4474 C693 4663 851 4821 1040 4821 C1260 4821 1418 4663 1418 4474 L1418 4065 C1796 3907 2079 3560 2079 3088 C2079 2521 1607 2048 1040 2048 C851 2048 693 1891 693 1702 C693 1495 842 1356 1016 1356 C1107 1356 1205 1394 1292 1481 C1355 1528 1441 1552 1528 1552 C1615 1552 1701 1528 1764 1481 C1859 1355 1859 1103 1764 1009 C1638 883 1512 788 1355 757 L1355 378 C1355 158 1197 0 1008 0 Z" fill="#F6620B"></path></g><g transform="translate(-2571737 2764550) scale(25 25)"><path d="M5009 1355 C4789 1576 4694 1796 4537 2049 L662 2049 L662 1670 C662 1513 819 1355 1008 1355 Z M7908 694 C9609 694 10995 2080 10995 3781 C10995 5451 9609 6837 7908 6837 C7309 6837 6679 6680 6206 6365 C6162 6342 6086 6320 6023 6320 C5997 6320 5973 6324 5954 6333 C5671 6396 5324 6522 5009 6648 L5324 5703 C5356 5609 5324 5514 5261 5420 C4946 4947 4789 4348 4789 3781 C4789 2080 6238 694 7908 694 Z M4253 2710 C4190 3025 4096 3372 4096 3718 C4096 4411 4253 5041 4600 5609 L4127 7089 C4096 7184 4127 7341 4222 7436 C4266 7480 4358 7525 4453 7525 C4492 7525 4531 7517 4568 7499 C4568 7499 5387 7247 6017 7026 C6080 7089 6143 7089 6175 7121 L6175 8223 L662 8223 L662 2710 Z M6112 8885 L6112 10618 C6143 10807 5986 10964 5797 10964 L977 10964 C788 10964 630 10807 630 10618 L630 8885 Z M7908 1 C7120 1 6364 221 5734 662 L1008 662 C473 662 0 1135 0 1670 L0 10618 C0 11153 473 11626 1008 11626 L5828 11626 C6364 11626 6837 11153 6837 10618 L6837 7341 C7215 7436 7561 7499 7908 7499 C9987 7499 11688 5798 11688 3718 C11657 1670 9956 1 7908 1 Z" fill="#113D34"></path></g></svg>