<svg xmlns="http://www.w3.org/2000/svg" viewBox="-35134875 2272675 291450 291875"><g transform="translate(-35134875 2272675) scale(25 25)"><path d="M9925 662 C10460 662 10933 1135 10933 1733 L10933 5136 C10933 5703 10460 6176 9925 6176 C9704 6176 9547 6333 9547 6522 L9547 7751 L8192 6365 L8192 4474 C8192 3529 7404 2742 6459 2742 L3372 2742 L3372 1733 C3372 1166 3844 662 4411 662 Z M6459 3403 C6995 3403 7499 3876 7499 4474 L7499 7908 L7467 7908 C7467 8444 6995 8917 6396 8917 L3687 8917 C3624 8917 3498 8948 3466 9043 L1986 10492 L1986 9295 C1986 9074 1828 8917 1639 8917 C1103 8917 631 8444 631 7908 L631 4474 C631 3939 1103 3403 1639 3403 Z M4411 1 C3466 1 2710 788 2710 1733 L2710 2742 L1671 2742 C725 2742 1 3529 1 4474 L1 7908 C1 8728 568 9452 1355 9610 L1355 11342 C1355 11500 1450 11594 1576 11657 C1607 11668 1646 11675 1687 11675 C1769 11675 1860 11647 1923 11563 L3876 9610 L6491 9610 C7436 9610 8224 8854 8224 7908 L8224 7341 L9704 8822 C9773 8868 9876 8897 9976 8897 C10013 8897 10049 8893 10082 8885 C10208 8854 10271 8696 10271 8570 L10271 6837 C11059 6680 11658 5987 11658 5136 L11658 1733 C11595 788 10870 1 9925 1 Z" fill="#113D34"></path></g><g transform="translate(-35093925 2419175) scale(25 25)"><path d="M348 1 C159 1 1 158 1 347 C1 536 159 694 348 694 C568 694 726 536 726 347 C726 158 568 1 348 1 Z" fill="#F6620B"></path></g><g transform="translate(-35042725 2419175) scale(25 25)"><path d="M347 1 C158 1 1 158 1 347 C1 536 158 694 347 694 C568 694 725 536 725 347 C725 158 568 1 347 1 Z" fill="#113D34"></path></g><g transform="translate(-34991525 2419175) scale(25 25)"><path d="M347 1 C158 1 1 158 1 347 C1 536 158 694 347 694 C568 694 725 536 725 347 C725 158 568 1 347 1 Z" fill="#113D34"></path></g></svg>