<svg xmlns="http://www.w3.org/2000/svg" viewBox="5411225 2726350 296950 190625"><g transform="translate(5534100 2794875) scale(25 25)"><path d="M1009 662 C1229 662 1387 851 1387 1040 C1387 1229 1229 1387 1009 1387 C819 1387 662 1229 662 1040 C662 851 819 662 1009 662 Z M1009 0 C441 0 0 473 0 1040 C0 1639 473 2048 1009 2048 C1607 2048 2048 1576 2048 1040 C2080 473 1607 0 1009 0 Z" fill="#F6620B"></path></g><g transform="translate(5411225 2726350) scale(25 25)"><path d="M5924 662 C7404 662 8759 1576 9641 2332 C9736 2395 9830 2489 9925 2584 C8696 2080 7278 1733 5924 1733 C4569 1733 3183 2080 1954 2584 C2048 2521 2111 2458 2206 2395 C3151 1544 4474 662 5924 662 Z M5924 2426 C6333 2426 6711 2489 7089 2521 C7467 2836 7656 3308 7656 3813 C7656 4758 6869 5545 5924 5545 C4978 5545 4191 4758 4191 3813 C4191 3308 4411 2836 4789 2521 C5136 2489 5545 2426 5924 2426 Z M3781 2710 L3781 2710 C3624 3056 3498 3434 3498 3813 C3498 5167 4600 6270 5924 6270 C7278 6270 8381 5167 8381 3813 C8381 3434 8286 3056 8097 2710 L8097 2710 C9137 2993 10145 3434 11027 3907 C10744 4222 10240 4789 9547 5356 C8601 6144 7310 6932 5924 6932 C4474 6932 3088 6018 2237 5262 C1607 4726 1135 4222 851 3907 C1733 3371 2710 2962 3781 2710 Z M5924 0 C4411 0 2931 820 1765 1796 C725 2678 95 3592 64 3624 C1 3750 1 3907 64 4002 C95 4065 725 4915 1765 5829 C2931 6805 4348 7625 5924 7625 C7436 7625 8759 6900 9925 5955 C10712 5325 11374 4600 11815 4002 C11878 3907 11878 3750 11815 3624 C11752 3592 11122 2710 10114 1796 C8916 820 7499 0 5924 0 Z" fill="#113D34"></path></g></svg>