<svg xmlns="http://www.w3.org/2000/svg" viewBox="-60988625 2310475 316650 311150"><g transform="translate(-60988625 2310475) scale(25 25)"><path d="M7877 883 C8097 883 8318 1072 8318 1324 L8318 10398 C8318 10870 8444 11311 8727 11626 L2111 11626 C1450 11626 851 11091 851 10398 L851 1324 L820 1324 C820 1072 1009 883 1261 883 Z M11500 10807 C11342 11280 10870 11626 10303 11626 C9767 11626 9326 11280 9137 10807 Z M1261 1 C568 1 32 568 32 1230 L32 10334 C0 11563 946 12445 2080 12445 L10334 12445 C11500 12445 12445 11500 12445 10366 C12445 10145 12224 9925 12004 9925 L9074 9925 L9074 1230 C9074 568 8538 1 7877 1 Z" fill="#113D34"></path></g><g transform="translate(-60947675 2353025) scale(25 25)"><path d="M442 0 C190 0 1 189 1 441 C1 630 190 819 442 819 L5388 819 C5640 819 5829 630 5829 441 C5829 189 5640 0 5388 0 Z" fill="#113D34"></path></g><g transform="translate(-60947675 2415250) scale(25 25)"><path d="M442 0 C190 0 1 189 1 378 C1 630 190 819 442 819 L5388 819 C5640 819 5829 630 5829 378 C5829 158 5640 0 5388 0 Z" fill="#113D34"></path></g><g transform="translate(-60947675 2475875) scale(25 25)"><path d="M442 1 C190 1 1 221 1 442 C1 694 190 883 442 883 L5388 883 C5640 883 5829 694 5829 442 C5829 221 5640 1 5388 1 Z" fill="#113D34"></path></g><g transform="translate(-60947675 2538100) scale(25 25)"><path d="M442 1 C190 1 1 190 1 442 C1 662 190 883 442 883 L5388 883 C5640 883 5829 662 5829 442 C5829 190 5640 1 5388 1 Z" fill="#113D34"></path></g><g transform="translate(-60740525 2312050) scale(25 25)"><path d="M1796 789 C1891 789 1922 852 1922 946 L1922 1639 L820 1639 L820 946 C820 852 883 789 977 789 Z M1922 2458 L1922 6617 L820 6617 L820 2458 Z M1639 7436 L1355 8035 L1040 7436 Z M977 1 C410 1 1 410 1 946 L1 6995 C1 7090 1 7121 32 7184 L1009 9137 C1103 9295 1198 9358 1355 9358 C1513 9358 1670 9295 1733 9137 L2678 7184 C2710 7153 2710 7090 2710 6995 L2710 946 C2741 410 2300 1 1796 1 Z" fill="#F6620B"></path></g></svg>