<svg xmlns="http://www.w3.org/2000/svg" viewBox="-33673825 1916675 291450 291450"><g transform="translate(-33486375 1950550) scale(25 25)"><path d="M379 0 C158 0 1 158 1 347 C1 536 158 693 379 693 L1072 693 C1639 693 2111 1166 2111 1733 L2111 2269 L1985 2174 C1922 2111 1836 2080 1749 2080 C1663 2080 1576 2111 1513 2174 C1387 2269 1387 2521 1513 2647 L2174 3308 C2237 3371 2324 3403 2411 3403 C2497 3403 2584 3371 2647 3308 L3309 2647 C3435 2521 3435 2269 3309 2174 C3261 2111 3175 2080 3084 2080 C2994 2080 2899 2111 2836 2174 L2742 2269 L2742 1733 C2773 788 1985 0 1072 0 Z" fill="#113D34"></path></g><g transform="translate(-33605300 2122250) scale(25 25)"><path d="M1024 0 C938 0 851 32 788 95 L126 756 C0 882 0 1134 126 1229 C189 1292 276 1323 363 1323 C449 1323 536 1292 599 1229 L725 1134 L725 1670 C662 2174 820 2615 1135 2930 C1450 3245 1891 3434 2363 3434 L3025 3434 C3245 3434 3403 3277 3403 3088 C3403 2899 3245 2741 3025 2741 L2363 2741 C1828 2741 1355 2269 1355 1670 L1355 1134 L1450 1229 C1513 1292 1607 1323 1698 1323 C1788 1323 1875 1292 1922 1229 C2048 1134 2048 882 1922 756 L1261 95 C1198 32 1111 0 1024 0 Z" fill="#113D34"></path></g><g transform="translate(-33673825 1916675) scale(25 25)"><path d="M3718 694 C5073 694 6144 1733 6144 3088 L6144 3466 L6081 3466 C5986 2647 5262 2048 4411 2048 L3025 2048 C2143 2048 1481 2678 1324 3466 L1292 3466 L1292 3088 C1355 1733 2426 694 3718 694 Z M4380 2741 C4915 2741 5388 3214 5388 3750 L5388 4096 L5388 4096 C5153 4096 4907 4091 4821 4033 C4789 4002 4758 3876 4758 3781 C4758 3592 4600 3435 4411 3435 C4191 3435 4033 3592 4033 3781 C4033 3876 4033 4002 3970 4033 C3907 4096 3757 4112 3576 4112 C3395 4112 3182 4096 2993 4096 L1954 4096 L1954 3750 C1954 3214 2426 2741 2993 2741 Z M1009 4065 C1198 4065 1355 4222 1355 4411 L1355 5104 C1355 5293 1198 5451 1009 5451 C820 5451 662 5293 662 5104 L662 4411 C662 4222 820 4065 1009 4065 Z M6490 4096 C6679 4096 6837 4254 6837 4474 L6837 5136 C6837 5325 6679 5482 6490 5482 C6301 5482 6144 5325 6144 5136 L6144 4474 C6144 4254 6301 4096 6490 4096 Z M4443 4537 C4726 4726 5073 4789 5451 4789 L5451 5136 C5451 6081 4663 6869 3718 6869 C2773 6869 2048 6081 2048 5136 L2048 4789 L3056 4789 C3148 4789 3241 4790 3333 4790 C3749 4790 4159 4769 4443 4537 Z M3813 1 C2111 1 725 1387 725 3088 L725 3466 C347 3624 63 4002 63 4474 L63 5136 C0 5671 473 6144 1009 6144 C1198 6144 1355 6112 1513 6049 C1891 6932 2741 7562 3781 7562 C4789 7562 5671 6932 6018 6049 C6175 6112 6333 6144 6522 6144 C7089 6144 7562 5671 7562 5136 L7562 4474 C7562 4033 7278 3624 6869 3466 L6869 3088 C6869 1387 5514 1 3813 1 Z" fill="#113D34"></path></g><g transform="translate(-33503700 2070250) scale(25 25)"><path d="M3151 726 C3687 726 4222 1198 4222 1734 L4222 2112 C3939 2112 3655 2112 3592 1986 C3529 1954 3498 1828 3498 1734 C3498 1545 3340 1387 3151 1387 C2962 1387 2804 1545 2804 1734 C2804 1828 2804 1954 2710 1986 C2636 2060 2487 2090 2312 2090 C2189 2090 2053 2075 1922 2049 L694 2049 L694 1734 C694 1198 1166 726 1765 726 Z M3151 2521 C3435 2742 3813 2773 4222 2773 L4222 3120 C4159 4034 3372 4853 2426 4853 C1481 4853 694 4065 694 3120 L694 2773 L1765 2773 C1859 2773 2836 2773 3151 2521 Z M1733 1 C788 1 1 757 1 1702 L1 3088 C1 4412 1103 5483 2395 5483 C3750 5483 4789 4380 4789 3088 L4789 1702 C4852 789 4065 1 3120 1 Z" fill="#F6620B"></path></g></svg>