<svg xmlns="http://www.w3.org/2000/svg" viewBox="-64343900 2282125 207150 316000"><g transform="translate(-64270650 2310475) scale(25 25)"><path d="M1229 1 C1008 1 851 221 851 442 L851 726 C378 883 0 1356 0 1891 C0 2584 567 2962 1008 3277 C1323 3529 1670 3750 1670 4002 C1670 4223 1481 4412 1229 4412 C1008 4412 851 4223 851 4002 C851 3750 630 3592 441 3592 C221 3592 0 3781 0 4002 C0 4538 378 4979 851 5168 L851 5451 C851 5672 1040 5892 1229 5892 C1481 5829 1639 5640 1639 5451 L1639 5168 C2111 5010 2458 4538 2458 4002 C2458 3309 1891 2931 1481 2616 C1166 2364 788 2143 788 1891 C788 1671 1008 1513 1197 1513 C1418 1513 1639 1702 1639 1891 C1639 2143 1828 2332 2017 2332 C2269 2332 2458 2143 2458 1891 C2458 1356 2111 915 1639 726 L1639 442 C1639 221 1418 1 1229 1 Z" fill="#F6620B"></path></g><g transform="translate(-64343900 2282125) scale(25 25)"><path d="M4159 788 C5986 788 7467 2301 7467 4096 C7467 5924 5986 7404 4159 7404 C2300 7404 851 5924 851 4096 C851 2301 2363 788 4159 788 Z M851 8917 C1513 8980 2206 9295 2773 9862 C3340 10429 3655 11122 3718 11784 C3056 11689 2395 11374 1796 10838 C1261 10271 945 9578 851 8917 Z M7467 8917 L7467 8917 C7404 9578 7089 10240 6522 10838 C5923 11374 5262 11689 4600 11784 C4663 11122 4947 10429 5545 9862 C6081 9295 6805 8980 7467 8917 Z M4159 1 C1891 1 32 1860 32 4128 C32 6270 1670 8034 3781 8223 L3781 9736 C3623 9578 3497 9421 3371 9295 C2584 8507 1576 8066 410 8066 C189 8066 32 8287 32 8476 C0 9578 410 10649 1261 11437 C2048 12225 3056 12634 4096 12634 L4159 12634 C4225 12638 4290 12640 4355 12640 C5385 12640 6348 12178 7089 11437 C7877 10649 8286 9610 8286 8476 C8286 8223 8097 8066 7908 8066 C7872 8065 7837 8064 7801 8064 C6709 8064 5709 8532 4947 9295 C4821 9452 4663 9578 4569 9736 L4569 8223 C6648 8034 8286 6270 8286 4128 C8286 1860 6459 1 4159 1 Z" fill="#113D34"></path></g></svg>