<svg xmlns="http://www.w3.org/2000/svg" viewBox="6167350 2672800 297750 295375"><g transform="translate(6167350 2672800) scale(25 25)"><path d="M4537 725 C4758 725 4915 882 4915 1071 C4915 1260 5073 1418 5262 1418 L5955 1418 C6175 1418 6333 1575 6333 1796 C6333 1985 6175 2142 5955 2142 L3119 2142 C2930 2142 2773 1985 2773 1796 C2773 1575 2930 1418 3151 1418 L3844 1418 C4033 1418 4191 1260 4191 1071 C4191 882 4348 725 4537 725 Z M8066 2111 C8255 2111 8412 2268 8412 2458 L8412 10806 L8381 10806 C8381 10995 8223 11153 8034 11153 L1040 11153 C851 11153 693 10995 693 10806 L693 2458 C693 2268 851 2111 1040 2111 L2143 2111 C2300 2489 2647 2804 3119 2804 L5986 2804 C6396 2804 6805 2521 6963 2111 Z M4506 0 C4096 0 3686 284 3529 725 L3088 725 C2678 725 2269 1008 2111 1418 L1009 1418 C410 1418 0 1890 0 2458 L0 10806 C0 11405 473 11814 1009 11814 L7971 11814 C8570 11814 9011 11342 9011 10806 L9011 2458 C9074 1859 8601 1418 8034 1418 L6931 1418 C6774 1040 6396 725 5923 725 L5545 725 C5514 567 5388 441 5262 315 C5073 126 4789 0 4506 0 Z" fill="#113D34"></path></g><g transform="translate(6201225 2762575) scale(25 25)"><path d="M406 1 C315 1 221 32 158 95 C63 190 63 442 158 568 L599 977 L158 1418 C0 1544 0 1733 158 1891 C221 1954 315 1985 406 1985 C496 1985 583 1954 630 1891 L1071 1450 L1512 1891 C1575 1954 1662 1985 1749 1985 C1835 1985 1922 1954 1985 1891 C2111 1765 2111 1544 1985 1418 L1544 977 L1985 568 C2111 442 2111 190 1985 95 C1922 32 1835 1 1749 1 C1662 1 1575 32 1512 95 L1071 505 L630 95 C583 32 496 1 406 1 Z" fill="#113D34"></path></g><g transform="translate(6308325 2882300) scale(25 25)"><path d="M363 0 C276 0 190 32 127 95 C1 221 1 441 127 567 L568 1009 L127 1450 C1 1544 1 1796 127 1891 C190 1954 276 1985 363 1985 C450 1985 536 1954 599 1891 L1040 1481 L1481 1891 C1529 1954 1615 1985 1706 1985 C1797 1985 1891 1954 1954 1891 C2049 1796 2049 1544 1954 1450 L1513 1009 L1954 567 C2049 441 2049 252 1954 95 C1891 32 1804 0 1718 0 C1631 0 1544 32 1481 95 L1040 536 L599 95 C536 32 450 0 363 0 Z" fill="#113D34"></path></g><g transform="translate(6200425 2759425) scale(25 25)"><path d="M1103 5609 C1292 5609 1450 5766 1450 5955 C1450 6144 1292 6302 1103 6302 C914 6302 757 6144 757 5955 C757 5766 914 5609 1103 5609 Z M5325 1 C5230 1 5136 64 5073 127 L4380 851 C4254 946 4254 1198 4380 1324 C4443 1371 4529 1395 4616 1395 C4703 1395 4789 1371 4852 1324 L4978 1198 L4978 2458 C4978 2647 4821 2805 4600 2805 L1765 2805 C1513 2805 1229 2931 1040 3120 C820 3309 725 3592 725 3876 L725 4978 C316 5136 1 5482 1 5955 C1 6554 473 6995 1040 6995 C1607 6995 2048 6522 2048 5955 C2048 5514 1765 5136 1355 4978 L1355 3876 C1355 3687 1513 3529 1702 3529 L4537 3529 C5136 3529 5545 3057 5545 2490 L5545 1229 L5671 1355 C5734 1418 5821 1450 5908 1450 C5994 1450 6081 1418 6144 1355 C6270 1229 6270 1009 6144 883 L5545 127 C5482 64 5388 1 5325 1 Z" fill="#F6620B"></path></g><g transform="translate(6412300 2742900) scale(25 25)"><path d="M1009 662 C1229 662 1387 819 1387 1040 L1387 1386 L662 1386 L662 1040 C662 819 820 662 1009 662 Z M1387 2048 L1387 6017 C1261 5986 1142 5970 1024 5970 C906 5970 788 5986 662 6017 L662 2048 Z M1009 6711 C1103 6711 1166 6711 1261 6742 L1009 7246 L788 6742 C851 6711 946 6711 1009 6711 Z M1009 0 C441 0 0 473 0 1040 L0 6616 C0 6648 0 6742 32 6774 L757 8160 C788 8286 946 8349 1040 8349 C1166 8349 1292 8286 1355 8160 L2080 6774 C2111 6742 2111 6648 2111 6616 L2111 1040 C2048 473 1576 0 1009 0 Z" fill="#113D34"></path></g></svg>