<svg xmlns="http://www.w3.org/2000/svg" viewBox="-31165250 2298675 292225 291900"><g transform="translate(-31003000 2332550) scale(25 25)"><path d="M2049 1386 C2017 1764 1923 2111 1734 2426 C1576 2111 1450 1764 1418 1386 Z M1734 0 C1545 0 1387 158 1387 347 L1387 693 L347 693 C158 693 1 851 1 1071 C1 1260 158 1418 347 1418 L694 1418 C757 2016 946 2552 1292 3056 L788 3592 C662 3686 662 3938 788 4064 C851 4111 938 4135 1025 4135 C1111 4135 1198 4111 1261 4064 L1702 3623 L2112 4064 C2175 4111 2269 4135 2360 4135 C2450 4135 2537 4111 2584 4064 C2710 3938 2710 3686 2584 3592 L2080 3056 C2395 2552 2584 2016 2679 1418 L3025 1418 C3214 1418 3372 1260 3372 1071 C3466 851 3309 693 3120 693 L2080 693 L2080 347 C2080 158 1923 0 1734 0 Z" fill="#F6620B"></path></g><g transform="translate(-31165250 2298675) scale(25 25)"><path d="M8192 630 C9704 630 10933 1859 10933 3403 C10964 4947 9767 6144 8224 6144 C7656 6144 7152 5986 6711 5671 C6674 5634 6616 5619 6548 5619 C6501 5619 6448 5627 6396 5640 L5609 5923 L5861 4947 C5861 4852 5861 4789 5829 4695 C5577 4317 5451 3844 5451 3403 C5451 1859 6680 630 8192 630 Z M3403 5545 C3970 5545 4474 5703 4916 5986 L4790 6490 C4758 6616 4790 6742 4916 6868 C4960 6913 5052 6958 5146 6958 C5186 6958 5225 6950 5262 6931 L5703 6774 C6018 7152 6176 7656 6176 8255 C6176 8696 6050 9137 5829 9546 C5766 9609 5766 9704 5766 9767 L6018 10775 L5231 10491 C5178 10478 5126 10471 5078 10471 C5011 10471 4952 10486 4916 10523 C4474 10838 3939 10996 3403 10996 C1891 10996 662 9767 662 8286 C662 6774 1891 5545 3403 5545 Z M8224 0 C6333 0 4790 1544 4790 3434 C4790 3938 4916 4506 5136 4978 L5073 5262 C4569 4978 4002 4821 3435 4821 C1513 4821 1 6364 1 8255 C1 10113 1544 11657 3435 11657 C4065 11657 4632 11500 5168 11185 L6365 11657 C6411 11669 6457 11676 6503 11676 C6583 11676 6663 11654 6743 11594 C6806 11500 6837 11405 6837 11248 L6491 9767 C6743 9294 6837 8790 6837 8255 C6837 7625 6648 6994 6333 6427 L6459 6396 C6963 6711 7593 6868 8192 6868 C10082 6868 11626 5325 11626 3434 C11689 1544 10114 0 8224 0 Z" fill="#113D34"></path></g><g transform="translate(-31115625 2452250) scale(25 25)"><path d="M1481 1576 L1639 2112 L1324 2112 L1481 1576 Z M1418 1 C1261 1 1166 127 1103 253 L568 2049 L410 2049 C221 2049 64 2206 64 2427 C64 2584 158 2742 316 2773 L64 3718 C1 3907 95 4065 284 4159 C308 4163 332 4165 355 4165 C512 4165 643 4072 725 3907 L1072 2773 L1796 2773 L2143 3907 C2170 4072 2318 4165 2502 4165 C2528 4165 2556 4163 2584 4159 C2773 4096 2836 3907 2805 3718 L2521 2773 C2678 2742 2805 2616 2805 2427 C2805 2206 2647 2049 2458 2049 L2300 2049 L1733 253 C1702 95 1576 1 1418 1 Z" fill="#113D34"></path></g></svg>