<svg xmlns="http://www.w3.org/2000/svg" viewBox="-34421275 2631050 295375 291450"><g transform="translate(-34421275 2639125) scale(25 25)"><path d="M5592 717 C5679 717 5766 749 5829 812 L10680 5663 C10775 5758 10775 6010 10680 6136 C10617 6183 10523 6207 10432 6207 C10342 6207 10255 6183 10208 6136 L5356 1284 C5230 1158 5230 938 5356 812 C5419 749 5506 717 5592 717 Z M8444 7239 L8538 7396 C8696 7554 8664 7806 8475 7932 L5923 9223 C5873 9261 5819 9278 5763 9278 C5678 9278 5590 9237 5514 9160 L5230 8877 C6301 8089 7341 7617 8444 7239 Z M5230 2198 L9294 6230 C7908 6703 5797 7270 3560 9381 L2080 7932 C3340 6608 4285 5033 4852 3395 L5230 2198 Z M1138 8089 C1229 8089 1323 8121 1386 8184 L3308 10105 C3434 10231 3434 10452 3308 10578 C3245 10641 3159 10673 3072 10673 C2985 10673 2899 10641 2836 10578 L914 8656 C788 8530 788 8278 914 8184 C961 8121 1048 8089 1138 8089 Z M5565 0 C5301 0 5041 103 4852 307 C4474 654 4442 1158 4694 1568 L4159 3143 C3655 4655 2710 6199 1575 7428 C1422 7357 1259 7321 1100 7321 C834 7321 575 7420 378 7617 C0 8026 0 8688 378 9066 L2363 11051 C2552 11240 2820 11334 3088 11334 C3356 11334 3623 11240 3812 11051 C4127 10736 4222 10263 4001 9853 C4222 9664 4442 9475 4694 9286 L5041 9633 C5238 9830 5496 9928 5755 9928 C5910 9928 6065 9893 6207 9822 L8790 8530 C9357 8215 9515 7459 9137 6986 L9893 6766 C10050 6858 10229 6906 10412 6906 C10668 6906 10932 6811 11153 6608 C11531 6199 11531 5537 11153 5128 L6301 307 C6096 103 5829 0 5565 0 Z" fill="#113D34"></path></g><g transform="translate(-34181850 2644625) scale(25 25)"><path d="M1328 1 C1237 1 1151 40 1103 119 L95 1096 C1 1222 1 1442 95 1568 C158 1631 253 1663 343 1663 C434 1663 521 1631 568 1568 L1576 592 C1671 466 1671 213 1576 119 C1513 40 1418 1 1328 1 Z" fill="#F6620B"></path></g><g transform="translate(-34217275 2631050) scale(25 25)"><path d="M347 0 C158 0 0 158 0 347 L0 1324 C0 1513 158 1670 347 1670 C536 1670 693 1513 693 1324 L693 347 C693 158 536 0 347 0 Z" fill="#113D34"></path></g><g transform="translate(-34168450 2704300) scale(25 25)"><path d="M347 0 C158 0 0 158 0 378 C0 567 158 725 347 725 L1355 725 C1544 725 1702 567 1702 378 C1670 158 1544 0 1355 0 Z" fill="#113D34"></path></g></svg>