<svg xmlns="http://www.w3.org/2000/svg" viewBox="-34032200 1916675 291450 291450"><g transform="translate(-34032200 1916675) scale(25 25)"><path d="M6459 694 C6648 694 6806 851 6806 1040 L6806 1387 L662 1387 L662 1040 C662 851 820 694 977 694 Z M10303 4096 L8192 5419 L6207 4096 Z M5420 4411 L7971 6112 C8034 6144 8097 6144 8192 6144 C8255 6144 8286 6144 8381 6112 L10933 4537 L10933 7184 C10933 7373 10775 7530 10618 7530 L5766 7530 C5577 7530 5420 7373 5420 7184 L5420 4443 L5420 4411 Z M6806 2048 L6806 3435 L5766 3435 C5231 3435 4758 3907 4758 4443 L4758 7184 C4758 7719 5231 8192 5766 8192 L6806 8192 L6806 8916 L662 8916 L662 2048 Z M6774 9578 L6774 10649 C6806 10838 6648 10996 6459 10996 L977 10996 C788 10996 631 10838 631 10649 L631 9578 Z M1009 1 C473 1 1 473 1 1040 L1 10649 C1 11185 473 11657 1009 11657 L6491 11657 C7026 11657 7499 11185 7499 10649 L7499 8255 L10618 8255 C11185 8255 11658 7782 11658 7215 L11658 4506 C11658 3907 11185 3435 10618 3435 L7499 3435 L7499 1040 C7499 473 7026 1 6491 1 Z" fill="#113D34"></path></g><g transform="translate(-33999125 2019075) scale(25 25)"><path d="M347 0 C158 0 1 158 1 378 C1 567 158 725 347 725 L2395 725 C2616 725 2773 567 2773 378 C2710 158 2616 0 2395 0 Z" fill="#F6620B"></path></g><g transform="translate(-33999900 2053725) scale(25 25)"><path d="M347 0 C158 0 0 158 0 347 C0 567 158 725 347 725 L1733 725 C1922 725 2080 567 2080 347 C2080 158 1922 0 1733 0 Z" fill="#113D34"></path></g><g transform="translate(-33999125 2088375) scale(25 25)"><path d="M347 1 C158 1 1 158 1 347 C1 536 158 694 347 694 L1041 694 C1230 694 1387 536 1387 347 C1387 158 1230 1 1041 1 Z" fill="#113D34"></path></g></svg>