<svg xmlns="http://www.w3.org/2000/svg" viewBox="2890050 2318350 259150 296975"><g transform="translate(2936525 2353025) scale(25 25)"><path d="M3371 2048 C3749 2048 4064 2363 4064 2773 C4064 3151 3749 3466 3371 3466 C2961 3466 2646 3151 2646 2773 C2646 2363 2961 2048 3371 2048 Z M3308 662 C4663 662 5734 1764 5734 3119 C5734 3655 5513 4159 5167 4663 C4978 4253 4694 3938 4316 3686 C4537 3466 4694 3119 4694 2741 C4694 2016 4064 1386 3308 1386 C2583 1386 1953 2016 1953 2741 C1953 3119 2111 3466 2331 3686 C1953 3907 1670 4253 1481 4663 C1008 4096 851 3434 914 2773 C1071 1670 2048 662 3308 662 Z M3308 4190 C3938 4190 4442 4600 4663 5167 C4253 5387 3844 5545 3308 5545 C2835 5545 2363 5387 1985 5167 C2142 4568 2678 4190 3308 4190 Z M3308 0 C1701 0 410 1229 252 2678 C0 4600 1481 6238 3308 6238 C5041 6238 6427 4820 6427 3119 C6427 1386 5009 0 3308 0 Z" fill="#F6620B"></path></g><g transform="translate(2890050 2318350) scale(25 25)"><path d="M5167 694 C7309 694 9011 2427 9011 4506 C9011 5640 8475 6711 7656 7405 L5167 9547 L2710 7405 C1796 6585 1229 5420 1386 4034 C1575 2206 3151 694 5167 694 Z M8475 8980 L9546 11122 L977 11122 L2017 8980 L3529 8980 L4978 10240 C5073 10272 5136 10335 5230 10335 C5293 10335 5388 10272 5451 10240 L6900 8980 Z M5107 1 C2772 1 912 1815 662 3939 C441 5483 1040 6932 2174 7940 L2615 8318 L1638 8318 C1575 8318 1481 8413 1449 8507 L63 11343 C0 11469 0 11595 63 11721 C126 11815 221 11878 347 11878 L10019 11878 C10145 11878 10271 11784 10302 11721 C10365 11595 10365 11469 10302 11343 L8916 8507 C8885 8413 8727 8318 8601 8318 L7624 8318 L8065 7940 C9042 7090 9641 5829 9641 4506 C9641 2049 7656 1 5167 1 C5147 1 5127 1 5107 1 Z" fill="#113D34"></path></g></svg>