<svg xmlns="http://www.w3.org/2000/svg" viewBox="-31166825 1939525 293800 291425"><g transform="translate(-31166825 1939525) scale(25 25)"><path d="M5892 662 C6081 662 6239 819 6239 1040 L6239 1386 L2805 1386 L2805 1040 C2805 819 2962 662 3120 662 Z M8035 1323 C8255 1323 8413 1512 8413 1701 L8413 10617 C8413 10838 8255 10995 8035 10995 L1166 10995 C946 10995 788 10838 788 10617 L788 1701 L757 1701 C757 1512 914 1323 1103 1323 L2143 1323 L2143 1701 C2143 1890 2301 2048 2490 2048 L6617 2048 C6837 2048 6995 1890 6995 1701 L6995 1323 Z M3120 0 C2679 0 2301 284 2143 662 L1040 662 C473 662 1 1134 1 1701 L1 10649 C64 11216 536 11657 1072 11657 L7971 11657 C8507 11657 8980 11184 8980 10649 L8980 1701 C8980 1134 8507 662 7971 662 L6869 662 C6711 284 6365 0 5892 0 Z" fill="#113D34"></path></g><g transform="translate(-31131375 2145075) scale(25 25)"><path d="M1355 726 L1355 1387 L694 1387 L694 726 Z M379 1 C158 1 0 158 0 379 L0 1734 C0 1954 158 2112 379 2112 L1733 2112 C1954 2112 2111 1954 2111 1734 L2111 379 C2111 158 1954 1 1733 1 Z" fill="#113D34"></path></g><g transform="translate(-31131375 2076550) scale(25 25)"><path d="M1355 694 L1355 1356 L694 1356 L694 694 Z M379 1 C158 1 0 159 0 348 L0 1734 C0 1923 158 2080 379 2080 L1733 2080 C1954 2080 2111 1923 2111 1734 L2111 348 C2111 159 1954 1 1733 1 Z" fill="#113D34"></path></g><g transform="translate(-31131375 2007250) scale(25 25)"><path d="M1355 725 L1355 1387 L694 1387 L694 725 Z M379 1 C158 1 0 158 0 379 L0 1733 C0 1954 158 2111 379 2111 L1733 2111 C1954 2111 2111 1954 2111 1733 L2111 379 C2111 158 1954 1 1733 1 Z" fill="#113D34"></path></g><g transform="translate(-31062075 2007250) scale(25 25)"><path d="M347 1 C158 1 1 158 1 379 C1 568 158 725 347 725 L3057 725 C3277 725 3435 568 3435 379 C3435 158 3277 1 3057 1 Z" fill="#113D34"></path></g><g transform="translate(-31062075 2041900) scale(25 25)"><path d="M347 1 C158 1 1 158 1 347 C1 568 158 725 347 725 L1734 725 C1923 725 2080 568 2080 347 C2080 158 1923 1 1734 1 Z" fill="#113D34"></path></g><g transform="translate(-31062075 2076550) scale(25 25)"><path d="M347 1 C158 1 1 159 1 348 C1 537 158 694 347 694 L3057 694 C3277 694 3435 537 3435 348 C3435 159 3277 1 3057 1 Z" fill="#113D34"></path></g><g transform="translate(-31062075 2110425) scale(25 25)"><path d="M347 1 C158 1 1 190 1 379 C1 568 158 725 347 725 L1734 725 C1923 725 2080 568 2080 379 C2080 190 1923 1 1734 1 Z" fill="#113D34"></path></g><g transform="translate(-31062075 2145075) scale(25 25)"><path d="M347 1 C158 1 1 158 1 379 C1 568 158 726 347 726 L3057 726 C3277 726 3435 568 3435 379 C3435 158 3277 1 3057 1 Z" fill="#113D34"></path></g><g transform="translate(-31062075 2179750) scale(25 25)"><path d="M347 0 C158 0 1 158 1 347 C1 567 158 725 347 725 L1734 725 C1923 725 2080 567 2080 347 C2080 158 1923 0 1734 0 Z" fill="#113D34"></path></g><g transform="translate(-30924225 1974175) scale(25 25)"><path d="M1008 662 C1229 662 1386 819 1386 1009 L1386 2080 L725 2080 L725 1009 L662 1009 C662 819 819 662 1008 662 Z M1323 2741 L1323 6900 L662 6900 L662 2741 Z M1260 7562 L1008 8192 L819 7562 Z M1008 0 C473 0 0 473 0 1009 L0 7215 L0 7309 L662 9357 C693 9515 819 9609 977 9609 C1134 9609 1260 9515 1292 9357 L1954 7309 L1954 7215 L1954 1009 C2048 441 1576 0 1008 0 Z" fill="#F6620B"></path></g></svg>