<svg xmlns="http://www.w3.org/2000/svg" viewBox="-32245875 1938725 295400 292225"><g transform="translate(-32156075 2042700) scale(25 25)"><path d="M2395 725 C3340 725 4096 1481 4096 2426 C4096 3308 3340 4096 2395 4096 C1450 4096 725 3340 725 2426 C725 1450 1450 725 2395 725 Z M2395 0 C1072 0 1 1071 1 2426 C1 3749 1072 4821 2395 4821 C3750 4821 4821 3749 4821 2426 C4758 1071 3718 0 2395 0 Z" fill="#F6620B"></path></g><g transform="translate(-32105675 2076550) scale(25 25)"><path d="M347 1 C158 1 1 159 1 348 L1 1009 C1 1230 158 1356 347 1356 L1009 1356 C1230 1356 1387 1198 1387 1009 C1419 852 1261 694 1072 694 L694 694 L694 348 C694 159 536 1 347 1 Z" fill="#113D34"></path></g><g transform="translate(-32245875 1938725) scale(25 25)"><path d="M10965 1355 C11154 1355 11311 1544 11311 1733 L11311 2742 L1009 2742 L1009 1733 L852 1733 C852 1544 1009 1355 1198 1355 L1545 1355 L1545 1733 C1545 1922 1702 2080 1891 2080 C2112 2080 2269 1922 2269 1733 L2269 1355 L3624 1355 L3624 1733 C3624 1922 3782 2080 4002 2080 C4191 2080 4349 1922 4349 1733 L4349 1355 L5735 1355 L5735 1733 C5735 1922 5892 2080 6081 2080 C6270 2080 6428 1922 6428 1733 L6428 1355 L7814 1355 L7814 1733 C7814 1922 7972 2080 8161 2080 C8381 2080 8539 1922 8539 1733 L8539 1355 L9893 1355 L9893 1733 C9893 1922 10051 2080 10272 2080 C10461 2080 10618 1922 10618 1733 L10618 1355 Z M11154 3466 L11154 9641 L852 9641 L852 3466 Z M11154 10366 L11154 10712 C11122 10870 10965 11027 10807 11027 L1198 11027 C1009 11027 852 10870 852 10649 L852 10366 Z M1734 1 C1545 1 1387 158 1387 347 L1387 694 L1041 694 C474 694 1 1166 1 1733 L1 10649 C1 11216 474 11689 1041 11689 L10650 11689 C11185 11689 11658 11216 11658 10649 L11658 1733 C11815 1166 11343 694 10807 694 L10461 694 L10461 347 C10461 158 10303 1 10083 1 C9893 1 9736 158 9736 347 L9736 694 L8350 694 L8350 347 C8350 158 8192 1 8003 1 C7814 1 7657 158 7657 347 L7657 694 L6270 694 L6270 347 C6270 158 6113 1 5924 1 C5735 1 5577 158 5577 347 L5577 694 L4191 694 L4191 347 C4191 158 4034 1 3845 1 C3624 1 3466 158 3466 347 L3466 694 L2112 694 L2112 347 C2112 158 1954 1 1734 1 Z" fill="#113D34"></path></g></svg>