<svg xmlns="http://www.w3.org/2000/svg" viewBox="-4211975 2046625 292250 290675"><g transform="translate(-4211975 2081300) scale(25 25)"><path d="M4758 693 L4758 5167 C4758 5356 4916 5513 5105 5513 L9578 5513 C9358 7813 7436 9609 5105 9609 C2679 9609 663 7593 663 5167 C663 2835 2490 914 4758 693 Z M5105 0 C2269 0 1 2300 1 5104 C1 7939 2269 10239 5105 10239 C7940 10239 10240 7939 10240 5104 C10240 4978 10083 4820 9925 4820 L5483 4820 L5483 347 C5483 158 5325 0 5105 0 Z" fill="#113D34"></path></g><g transform="translate(-4057600 2046625) scale(25 25)"><path d="M663 694 C2836 851 4601 2616 4758 4790 L663 4790 L663 694 Z M348 1 C158 1 1 158 1 379 L1 5168 C1 5357 158 5514 348 5514 L5168 5514 C5357 5514 5514 5357 5514 5168 C5483 3750 4979 2490 3971 1513 C2994 536 1734 1 348 1 Z" fill="#F6620B"></path></g></svg>