<svg xmlns="http://www.w3.org/2000/svg" viewBox="-65131525 2281350 316650 316650"><g transform="translate(-65131525 2322300) scale(25 25)"><path d="M5073 820 L5073 5514 C5073 5766 5262 5923 5482 5923 L10145 5923 C9956 8318 7940 10208 5482 10208 C2867 10208 788 8129 788 5514 C788 3088 2678 1072 5073 820 Z M5514 0 C2458 0 0 2489 0 5514 C0 8538 2458 11027 5514 11027 C8538 11027 11027 8538 11027 5514 C11027 5293 10807 5104 10618 5104 L5923 5104 L5923 410 C5892 158 5734 0 5514 0 Z" fill="#113D34"></path></g><g transform="translate(-64963775 2281350) scale(25 25)"><path d="M852 819 C3088 1008 4884 2836 5105 5073 L852 5073 L852 819 Z M442 0 C221 0 1 189 1 441 L1 5514 C1 5734 221 5955 442 5955 L5514 5955 C5766 5955 5955 5734 5955 5514 C5955 2426 3466 0 442 0 Z" fill="#F6620B"></path></g></svg>