<svg xmlns="http://www.w3.org/2000/svg" viewBox="4685050 1945825 294575 294575"><g transform="translate(4720475 2086025) scale(25 25)"><path d="M2017 693 C2427 693 2742 1008 2742 1386 C2742 1796 2427 2111 2017 2111 C1639 2111 1324 1796 1324 1386 C1324 1008 1639 693 2017 693 Z M2017 2772 C2773 2772 3403 3403 3403 4127 L631 4127 C631 3403 1261 2772 2017 2772 Z M2049 0 C1324 0 694 630 694 1386 C694 1733 851 2111 1072 2331 C442 2678 1 3340 1 4127 L1 4505 C1 4694 158 4852 379 4852 L3844 4852 C4033 4852 4191 4694 4191 4505 L4191 4127 C4096 3340 3687 2678 3057 2331 C3277 2111 3435 1733 3435 1386 C3435 630 2805 0 2049 0 Z" fill="#F6620B"></path></g><g transform="translate(4685050 1945825) scale(25 25)"><path d="M6900 693 L6900 1418 L4820 1418 L4820 693 Z M7215 2111 C7404 2111 7561 2269 7561 2458 C7561 2678 7404 2836 7215 2836 L4474 2836 C4253 2836 4096 2678 4096 2458 C4096 2269 4316 2111 4474 2111 Z M6900 3497 L6900 4568 C6900 4757 6742 4915 6553 4915 L5167 4915 C4978 4915 4820 4757 4820 4568 L4820 3497 Z M10775 4883 C10964 4883 11121 5041 11121 5230 L11121 10775 C11121 10964 10964 11121 10775 11121 L1008 11121 C788 11121 630 10964 630 10775 L630 5230 C630 5041 788 4883 1008 4883 L4190 4883 C4348 5261 4694 5577 5167 5577 L6553 5577 C6994 5577 7372 5293 7530 4883 Z M4505 0 C4316 0 4159 158 4159 347 L4159 1449 C3749 1607 3434 1953 3434 2426 C3434 2867 3718 3245 4159 3403 L4159 4190 L1040 4190 C441 4190 0 4663 0 5230 L0 10775 C0 11373 473 11783 1040 11783 L10775 11783 C11342 11783 11783 11310 11783 10775 L11783 5230 C11783 4663 11342 4190 10775 4190 L7624 4190 L7624 3403 C8002 3245 8317 2899 8317 2426 C8317 1985 8034 1607 7624 1449 L7624 347 C7624 158 7467 0 7246 0 Z" fill="#113D34"></path></g><g transform="translate(4840200 2103350) scale(25 25)"><path d="M347 0 C158 0 0 158 0 347 C0 536 158 693 347 693 L3844 693 C4033 693 4191 536 4191 347 C4191 158 4033 0 3844 0 Z" fill="#113D34"></path></g><g transform="translate(4840200 2137200) scale(25 25)"><path d="M347 1 C158 1 0 158 0 379 C0 568 158 725 347 725 L3844 725 C4033 725 4191 568 4191 379 C4191 158 4033 1 3844 1 Z" fill="#113D34"></path></g><g transform="translate(4840200 2171875) scale(25 25)"><path d="M347 0 C158 0 0 158 0 347 C0 567 158 725 347 725 L3844 725 C4033 725 4191 567 4191 347 C4191 158 4033 0 3844 0 Z" fill="#113D34"></path></g></svg>