<svg xmlns="http://www.w3.org/2000/svg" viewBox="-34032200 2634975 292225 292250"><g transform="translate(-34032200 2634975) scale(25 25)"><path d="M5766 662 C8602 662 10933 2962 10933 5798 C10933 6806 10649 7783 10114 8602 L10145 8444 C10177 8350 10145 8224 10082 8129 C9988 8066 9862 8035 9767 8035 L9641 8066 C10019 7405 10240 6617 10240 5829 C10240 3372 8223 1356 5766 1356 C5136 1356 4506 1482 3970 1765 C3813 1828 3718 2017 3813 2175 L3970 2553 L2710 2742 L2301 2773 C2364 2647 2710 1324 2742 1198 L2836 1293 C2898 1354 2986 1402 3084 1402 C3136 1402 3191 1389 3246 1356 C4033 883 4915 662 5766 662 Z M6144 2080 C7940 2238 9358 3687 9515 5451 L9200 5451 C9011 5451 8854 5609 8854 5829 C8854 6018 9011 6176 9200 6176 L9515 6176 C9452 6932 9169 7657 8665 8255 L6995 8570 C6900 8602 6806 8665 6774 8759 C6743 8885 6743 9011 6806 9074 L6995 9389 C6743 9484 6459 9547 6176 9547 L6176 9232 C6176 9043 6018 8885 5829 8885 C5640 8885 5483 9043 5483 9232 L5483 9547 C3655 9389 2238 7940 2080 6176 L2395 6176 C2584 6176 2742 6018 2742 5829 C2742 5609 2584 5451 2395 5451 L2080 5451 C2175 4727 2427 3971 2962 3372 L4474 3183 C4600 3183 4663 3088 4726 3025 C4758 2931 4758 2836 4726 2710 L4506 2269 C4789 2143 5104 2112 5420 2080 L5420 2395 C5420 2584 5577 2742 5766 2742 C5987 2742 6144 2584 6144 2395 L6144 2080 Z M1607 2899 L1544 3151 C1481 3246 1544 3372 1607 3466 C1670 3529 1796 3561 1922 3561 L1985 3561 C1607 4254 1387 5042 1387 5861 C1387 8287 3372 10303 5829 10303 C6459 10303 7089 10177 7688 9925 C7751 9862 7845 9799 7877 9704 C7908 9641 7877 9515 7845 9452 L7688 9200 L9421 8854 L9421 8854 C9326 9200 9074 10177 9011 10492 L8759 10303 C8708 10235 8640 10204 8567 10204 C8505 10204 8439 10228 8381 10271 C7593 10744 6680 10965 5829 10965 C2994 10965 662 8665 662 5829 C662 4758 977 3781 1607 2899 Z M5766 1 C4884 1 3970 221 3151 662 L2836 316 C2765 245 2677 210 2597 210 C2570 210 2545 214 2521 221 C2395 253 2301 347 2269 473 L1985 1450 C694 2553 1 4160 1 5829 C1 7342 599 8854 1733 9956 C2836 11059 4285 11689 5861 11689 C6774 11689 7719 11437 8539 11028 L8980 11406 C9027 11477 9110 11512 9201 11512 C9232 11512 9263 11508 9295 11500 C9421 11437 9484 11374 9515 11248 L9799 10114 C10996 9011 11689 7468 11689 5861 C11658 2616 9011 1 5766 1 Z" fill="#113D34"></path></g><g transform="translate(-33947125 2735800) scale(25 25)"><path d="M1040 1 C473 1 0 473 0 1040 C0 1229 158 1387 378 1387 C567 1387 725 1229 725 1040 C725 851 882 662 1071 662 C1292 662 1449 851 1449 1040 L1449 1292 C1449 1418 1355 1544 1229 1639 L599 1954 C252 2111 63 2458 63 2836 L63 3119 C0 3372 158 3466 315 3466 L1701 3466 C1891 3466 2048 3309 2048 3119 C2048 2930 1891 2773 1701 2773 L693 2773 C725 2678 756 2584 882 2521 L1512 2206 C1859 2048 2048 1702 2048 1292 L2048 1040 C2048 473 1575 1 1040 1 Z" fill="#113D34"></path></g><g transform="translate(-33878600 2737375) scale(25 25)"><path d="M347 1 C158 1 0 158 0 347 L0 1733 C0 1922 158 2080 347 2080 L1355 2080 L1355 3088 C1355 3309 1512 3466 1733 3466 C1922 3466 2079 3309 2079 3088 L2079 1733 L2079 347 C2079 158 1922 1 1733 1 C1512 1 1355 158 1355 347 L1355 1355 L693 1355 L693 347 C693 158 536 1 347 1 Z" fill="#F6620B"></path></g></svg>