<svg xmlns="http://www.w3.org/2000/svg" viewBox="3962775 1990700 296975 224500"><g transform="translate(4216400 2093100) scale(25 25)"><path d="M379 1 C158 1 1 158 1 347 C1 568 158 725 379 725 L1387 725 C1576 725 1733 568 1733 347 C1702 158 1544 1 1387 1 Z" fill="#113D34"></path></g><g transform="translate(4206950 2129325) scale(25 25)"><path d="M351 1 C260 1 174 32 127 95 C1 221 1 410 127 568 L820 1261 C883 1324 969 1356 1056 1356 C1143 1356 1229 1324 1292 1261 C1418 1166 1418 914 1292 788 L599 95 C536 32 442 1 351 1 Z" fill="#F6620B"></path></g><g transform="translate(4207750 2041900) scale(25 25)"><path d="M1067 1 C977 1 882 32 819 95 L126 788 C0 914 0 1135 126 1261 C189 1340 268 1379 351 1379 C433 1379 520 1340 599 1261 L1292 568 C1418 442 1418 190 1292 95 C1244 32 1158 1 1067 1 Z" fill="#F6620B"></path></g><g transform="translate(3962775 1990700) scale(25 25)"><path d="M1419 3403 L1419 4790 C1009 4790 694 4506 694 4097 C694 3719 1009 3403 1419 3403 Z M4191 2710 L4191 5483 L2490 5483 C2269 5483 2112 5325 2112 5105 L2112 3088 C2112 2868 2269 2710 2490 2710 Z M6995 1828 L6995 6428 C6428 5924 5672 5609 4884 5514 L4884 2710 C5672 2647 6428 2332 6995 1828 Z M8066 631 C8255 631 8413 789 8413 978 L8413 7216 C8413 7405 8255 7562 8066 7562 C7877 7562 7720 7405 7720 7216 L7720 978 C7720 789 7877 631 8066 631 Z M3498 6176 L3498 7909 C3498 8129 3340 8287 3151 8287 C2962 8287 2805 8129 2805 7909 L2805 6176 Z M8035 1 C7531 1 7090 411 6995 883 L6680 1198 C6144 1734 5325 2049 4538 2049 L2427 2049 C2017 2049 1608 2332 1450 2773 L1387 2773 C631 2773 1 3403 1 4128 C1 4884 631 5514 1387 5514 L1450 5514 C1576 5798 1797 6018 2080 6144 L2080 7940 C2112 8507 2584 8980 3151 8980 C3750 8980 4160 8507 4160 7972 L4160 6239 L4538 6239 C5325 6239 6144 6554 6680 7090 L6995 7405 C7090 7909 7531 8287 8035 8287 C8633 8287 9043 7814 9043 7247 L9043 1041 C9043 442 8570 1 8035 1 Z" fill="#113D34"></path></g></svg>