<svg xmlns="http://www.w3.org/2000/svg" viewBox="-62150375 2664925 316650 318225"><g transform="translate(-62150375 2961850) scale(25 25)"><path d="M379 0 C158 0 1 189 1 410 C1 662 190 851 379 851 L12225 851 C12477 851 12634 662 12634 410 C12666 158 12477 0 12225 0 Z" fill="#113D34"></path></g><g transform="translate(-62150375 2838200) scale(25 25)"><path d="M2363 756 C2427 756 2521 851 2521 914 L2521 3119 C2521 3214 2427 3245 2363 3245 L977 3245 C883 3245 820 3151 820 3119 L820 914 C820 851 883 756 977 756 Z M946 0 C379 0 1 441 1 945 L1 3151 C1 3686 410 4096 946 4096 L2300 4096 C2868 4096 3309 3686 3309 3151 L3309 945 C3309 410 2868 0 2300 0 Z" fill="#113D34"></path></g><g transform="translate(-62033800 2664925) scale(25 25)"><path d="M2332 788 C2426 851 2489 882 2489 945 L2489 10050 C2489 10145 2426 10176 2332 10176 L946 10176 C882 10176 851 10082 851 10050 L851 945 C851 882 914 788 946 788 Z M946 0 C410 0 0 441 0 945 L0 10050 C0 10617 441 10995 946 10995 L2332 10995 C2899 10995 3308 10554 3308 10050 L3308 945 C3308 410 2899 0 2332 0 Z" fill="#113D34"></path></g><g transform="translate(-61917225 2754700) scale(25 25)"><path d="M2394 788 C2489 788 2520 883 2520 946 L2520 6459 C2520 6554 2426 6585 2394 6585 L1008 6585 C945 6585 851 6491 851 6459 L851 946 C851 883 945 788 1008 788 Z M977 1 C441 1 0 442 0 977 L0 6491 C0 7058 441 7436 977 7436 L2363 7436 C2899 7436 3308 7026 3308 6491 L3308 977 C3340 442 2899 1 2363 1 Z" fill="#F6620B"></path></g></svg>