<svg xmlns="http://www.w3.org/2000/svg" viewBox="-62150375 2297875 314275 315875"><g transform="translate(-61994425 2297875) scale(25 25)"><path d="M1324 1 C1072 1 883 190 883 442 L883 1387 L757 1261 C678 1182 568 1143 457 1143 C347 1143 237 1182 158 1261 C1 1419 1 1702 158 1860 L1009 2679 C1088 2758 1190 2797 1292 2797 C1395 2797 1497 2758 1576 2679 L2426 1860 C2584 1702 2584 1419 2426 1261 C2348 1182 2237 1143 2127 1143 C2017 1143 1907 1182 1828 1261 L1702 1387 L1702 442 C1733 190 1544 1 1324 1 Z" fill="#F6620B"></path></g><g transform="translate(-62150375 2338050) scale(25 25)"><path d="M11752 2805 L11059 6932 L3970 6932 L3183 2805 Z M5199 9421 C5388 9452 5514 9610 5514 9830 C5514 10051 5293 10240 5073 10240 C4821 10240 4663 10051 4663 9830 C4663 9610 4789 9452 4978 9421 Z M9830 9421 C10019 9452 10145 9610 10145 9830 C10145 10051 9956 10240 9704 10240 C9484 10240 9326 10051 9326 9830 C9358 9610 9484 9452 9673 9421 Z M284 1 C190 64 1 253 1 473 C1 725 190 883 379 883 L1954 883 L3151 7058 C2710 7247 2427 7688 2427 8192 C2427 8885 2994 9421 3655 9421 L3844 9421 C3813 9547 3781 9704 3781 9830 C3781 10492 4317 11027 5010 11027 C5672 11027 6207 10492 6207 9830 C6207 9673 6176 9547 6144 9421 L8475 9421 C8412 9547 8381 9704 8381 9830 C8381 10492 8948 11027 9610 11027 C10271 11027 10870 10492 10870 9830 C10870 9673 10838 9547 10775 9421 L11405 9421 C11657 9421 11815 9231 11815 9042 C11815 8822 11626 8601 11405 8601 L3529 8601 C3309 8601 3151 8412 3151 8160 C3151 7940 3340 7719 3529 7719 L11311 7719 C11500 7719 11689 7562 11689 7373 L12508 2426 C12571 2174 12351 1954 12130 1954 L2899 1954 L2584 379 C2553 158 2395 1 2206 1 Z" fill="#113D34"></path></g><g transform="translate(-61972375 2430200) scale(25 25)"><path d="M442 1 C190 1 1 190 1 379 L1 2048 C32 2269 221 2427 442 2427 C662 2427 820 2237 820 2048 L820 379 C820 158 631 1 442 1 Z" fill="#113D34"></path></g><g transform="translate(-61909350 2430200) scale(25 25)"><path d="M378 1 C189 1 0 190 0 379 L0 2048 C0 2269 189 2427 378 2427 C630 2427 788 2237 788 2048 L788 379 C788 158 599 1 378 1 Z" fill="#113D34"></path></g><g transform="translate(-62033800 2430200) scale(25 25)"><path d="M410 1 C158 1 0 190 0 379 L0 2048 C0 2269 221 2427 410 2427 C630 2427 851 2237 851 2048 L851 379 C851 158 630 1 410 1 Z" fill="#113D34"></path></g></svg>