<svg xmlns="http://www.w3.org/2000/svg" viewBox="-34767825 1914325 273325 291425"><g transform="translate(-34767825 1914325) scale(25 25)"><path d="M5954 662 C5702 851 5482 1103 5324 1355 L693 1355 L693 1008 C662 819 819 662 1008 662 Z M7902 692 C9199 692 10239 1752 10239 3056 C10239 4411 9168 5450 7845 5450 C7404 5450 6963 5356 6585 5104 C6519 5082 6454 5045 6389 5045 C6360 5045 6330 5053 6301 5072 L5671 5261 L5860 4631 C5923 4568 5860 4442 5828 4348 C5608 3970 5482 3529 5482 3087 C5482 2678 5608 2268 5765 1953 C5797 1922 5797 1922 5797 1859 C6207 1166 6963 693 7845 693 C7864 693 7883 692 7902 692 Z M3749 5450 C4127 5450 4411 5765 4411 6143 C4411 6521 4096 6805 3749 6805 C3732 6806 3714 6807 3697 6807 C3343 6807 3056 6504 3056 6143 C3056 5734 3371 5450 3749 5450 Z M4946 1985 C4852 2300 4789 2646 4789 3024 C4757 3560 4915 4096 5167 4568 L4883 5387 C4631 5009 4222 4757 3749 4757 C2993 4757 2363 5387 2363 6143 C2363 6490 2489 6805 2709 7026 C2016 7404 1481 8065 1386 8853 L662 8853 L662 1985 Z M3749 7498 C4568 7498 5261 8097 5419 8884 L2079 8884 C2237 8097 2899 7498 3749 7498 Z M6364 5765 C6522 5860 6679 5923 6837 5986 L6837 8884 L6112 8884 C5986 8065 5482 7404 4757 7089 C5009 6837 5104 6521 5104 6175 L5230 6175 L6364 5765 Z M6805 9514 L6805 10586 C6805 10775 6648 10932 6490 10932 L1008 10932 C819 10932 662 10775 662 10586 L662 9514 Z M1008 0 C473 0 0 473 0 1040 L0 10649 C0 11184 441 11657 1008 11657 L6490 11657 C7057 11657 7530 11184 7530 10617 L7530 6143 C7624 6143 7750 6175 7876 6175 C9578 6175 10932 4789 10932 3087 C10932 1418 9578 0 7876 0 Z" fill="#113D34"></path></g><g transform="translate(-34579600 1947400) scale(25 25)"><path d="M347 0 C158 0 1 189 1 347 C1 567 158 725 347 725 C536 725 694 567 694 347 C694 158 536 0 347 0 Z" fill="#113D34"></path></g><g transform="translate(-34581175 1982050) scale(25 25)"><path d="M379 0 C158 0 1 158 1 347 L1 1733 C1 1922 158 2080 379 2080 C568 2080 725 1922 725 1733 L725 347 C725 158 568 0 379 0 Z" fill="#F6620B"></path></g></svg>