<svg xmlns="http://www.w3.org/2000/svg" viewBox="-35853975 2631825 293800 292250"><g transform="translate(-35813025 2701825) scale(25 25)"><path d="M1765 824 L2868 1643 L2238 2462 C2112 2620 2143 2840 2301 2935 L5042 4983 C5108 5035 5179 5060 5246 5060 C5341 5060 5428 5011 5483 4920 L6113 4100 L7247 4920 L6554 5739 C6348 6001 6042 6152 5735 6152 C5525 6152 5315 6081 5136 5928 L1324 3061 C883 2714 757 2084 1135 1643 L1765 824 Z M1647 1 C1540 1 1435 63 1356 162 L537 1265 C1 1990 95 3061 883 3659 L4727 6526 C5026 6760 5384 6876 5744 6876 C6255 6876 6770 6642 7121 6180 L7940 5077 C8066 4888 8003 4668 7846 4573 L6207 3344 C6142 3292 6070 3267 6001 3267 C5903 3267 5808 3316 5735 3407 L5105 4258 L2931 2588 L3561 1769 C3687 1612 3656 1423 3498 1297 L1828 68 C1770 22 1708 1 1647 1 Z" fill="#F6620B"></path></g><g transform="translate(-35853975 2631825) scale(25 25)"><path d="M5861 662 C8696 662 11027 2994 11027 5829 C11027 6806 10744 7751 10240 8539 C10177 8665 10114 8791 10177 8854 L10807 10776 L8854 10145 C8837 10137 8815 10133 8792 10133 C8728 10133 8648 10162 8602 10208 C7751 10713 6806 10996 5861 10996 C3025 10996 725 8665 725 5829 C725 2994 3025 662 5861 662 Z M5829 1 C2616 1 1 2647 1 5829 C1 7373 599 8854 1733 9956 C2836 11059 4285 11689 5861 11689 C6900 11689 7908 11406 8822 10870 L11279 11658 C11303 11666 11331 11669 11360 11669 C11449 11669 11555 11634 11626 11563 C11689 11500 11752 11343 11689 11217 L10901 8791 C11469 7877 11752 6837 11752 5829 C11689 2647 9074 1 5829 1 Z" fill="#113D34"></path></g><g transform="translate(-35715350 2735025) scale(25 25)"><path d="M410 0 C221 0 64 126 64 315 C1 504 158 662 379 662 C788 725 1166 977 1261 1386 C1311 1536 1439 1626 1585 1626 C1623 1626 1662 1620 1702 1607 C1891 1575 1985 1386 1954 1197 C1733 504 1103 32 410 0 Z" fill="#113D34"></path></g><g transform="translate(-35705900 2667275) scale(25 25)"><path d="M347 1 C158 1 1 127 1 316 C1 505 95 662 316 662 C2048 820 3372 2111 3655 3781 C3683 3951 3813 4070 3976 4070 C3995 4070 4014 4068 4033 4065 C4191 4065 4317 3844 4317 3687 C4002 1733 2364 190 347 1 Z" fill="#113D34"></path></g><g transform="translate(-35709825 2700350) scale(25 25)"><path d="M347 1 C158 1 0 127 0 316 C0 536 95 694 315 725 C1323 788 2142 1545 2394 2490 C2422 2655 2570 2748 2753 2748 C2780 2748 2808 2746 2836 2742 C3025 2679 3088 2490 3056 2301 C2741 1072 1670 127 347 1 Z" fill="#113D34"></path></g></svg>