<svg xmlns="http://www.w3.org/2000/svg" viewBox="-34778075 2272675 293800 293025"><g transform="translate(-34725300 2324675) scale(25 25)"><path d="M4127 693 L4127 1134 C4127 1292 4253 1418 4411 1449 C4600 1481 4821 1607 4978 1701 C5023 1724 5075 1734 5130 1734 C5230 1734 5338 1699 5419 1638 L5734 1323 L6207 1796 L5892 2111 C5766 2237 5766 2394 5860 2552 C5986 2741 6049 2961 6081 3150 C6144 3308 6238 3434 6396 3434 L6837 3434 L6837 4096 L6396 4096 C6238 4096 6144 4222 6081 4379 C6049 4568 5923 4789 5860 4946 C5766 5072 5829 5261 5892 5387 L6207 5702 L5734 6175 L5419 5860 C5352 5792 5275 5761 5194 5761 C5124 5761 5051 5785 4978 5828 C4789 5954 4600 6017 4411 6049 C4253 6080 4127 6206 4127 6364 L4127 6805 L3466 6805 L3466 6364 C3466 6206 3340 6112 3182 6049 C2993 6017 2741 5891 2584 5828 C2549 5794 2497 5780 2441 5780 C2344 5780 2234 5820 2174 5860 L1859 6175 L1387 5702 L1702 5387 C1796 5261 1796 5104 1733 4946 C1607 4757 1544 4568 1481 4379 C1450 4222 1324 4096 1166 4096 L756 4096 L756 3434 L1166 3434 C1324 3434 1450 3308 1481 3150 C1544 2961 1639 2709 1733 2552 C1796 2426 1765 2237 1702 2111 L1387 1796 L1859 1323 L2174 1638 C2230 1712 2307 1743 2392 1743 C2453 1743 2518 1727 2584 1701 C2804 1575 2993 1481 3182 1449 C3340 1418 3466 1292 3466 1134 L3466 693 Z M3056 0 C2867 0 2710 158 2710 347 L2710 851 C2584 914 2521 945 2426 977 L2080 630 C1985 536 1922 504 1828 504 C1765 504 1639 536 1607 630 L630 1607 C536 1701 504 1764 504 1859 C504 1922 536 2048 630 2079 L977 2426 C945 2520 914 2646 851 2709 L347 2709 C158 2709 0 2867 0 3056 L0 4442 C0 4631 158 4789 347 4789 L851 4789 C882 4915 945 5009 977 5072 L630 5419 C536 5513 504 5576 504 5671 C504 5734 536 5860 630 5891 L1607 6900 C1670 6963 1765 6994 1828 6994 C1922 6994 2048 6963 2080 6900 L2426 6521 C2521 6585 2615 6616 2710 6648 L2710 7152 C2710 7372 2867 7530 3056 7530 L4443 7530 C4632 7530 4789 7372 4789 7152 L4789 6648 C4915 6616 4978 6585 5073 6521 L5419 6900 C5514 6963 5577 6994 5671 6994 C5734 6994 5860 6963 5892 6900 L6868 5891 C6994 5797 6994 5545 6868 5419 L6522 5072 C6553 5009 6616 4883 6648 4789 L7152 4789 C7341 4789 7499 4631 7499 4442 L7499 3056 C7499 2867 7341 2709 7152 2709 L6648 2709 C6616 2583 6553 2520 6522 2426 L6868 2079 C6994 1953 6994 1733 6868 1607 L5892 630 C5829 536 5734 504 5671 504 C5577 504 5451 536 5419 630 L5073 977 C4978 945 4884 914 4789 851 L4789 347 C4789 158 4632 0 4443 0 Z" fill="#F6620B"></path></g><g transform="translate(-34673325 2375850) scale(25 25)"><path d="M1702 662 C2238 662 2710 1135 2710 1702 C2710 2238 2238 2710 1702 2710 C1135 2710 662 2238 662 1702 C662 1135 1135 662 1702 662 Z M1702 1 C757 1 1 757 1 1702 C1 2647 757 3372 1702 3372 C2647 3372 3403 2647 3403 1702 C3372 757 2647 1 1702 1 Z" fill="#113D34"></path></g><g transform="translate(-34778075 2272675) scale(25 25)"><path d="M5892 694 C8727 694 11027 3025 11027 5861 C10996 8665 8727 10964 5892 10964 C4884 10964 3939 10712 3119 10177 C3075 10154 2999 10132 2936 10132 C2910 10132 2886 10136 2867 10145 L914 10775 L1544 8854 C1576 8759 1544 8665 1513 8570 C1009 7751 725 6806 725 5861 C725 3025 3056 694 5892 694 Z M5892 1 C4348 1 2867 568 1733 1733 C631 2836 0 4285 0 5861 C0 6869 284 7908 851 8822 L63 11248 C0 11374 63 11531 127 11594 C197 11665 304 11701 392 11701 C422 11701 449 11697 473 11689 L2930 10901 C3844 11437 4852 11720 5892 11720 C7404 11720 8916 11122 10019 9988 C11122 8885 11752 7436 11752 5861 C11752 4317 11153 2805 10019 1702 C8885 568 7404 1 5892 1 Z" fill="#113D34"></path></g></svg>