<svg xmlns="http://www.w3.org/2000/svg" viewBox="685475 2318350 297750 296200"><g transform="translate(685475 2371925) scale(25 25)"><path d="M2080 662 C2458 662 2773 977 2773 1387 C2773 1765 2458 2080 2080 2080 C1671 2080 1356 1765 1356 1387 C1356 977 1734 662 2080 662 Z M2962 6900 L3120 7593 L1135 7593 L1293 6900 Z M1742 2767 C1866 2767 1991 2831 2049 2962 L2553 3938 C2584 4064 2742 4127 2868 4127 L3813 4127 C4002 4127 4159 4285 4159 4474 C4159 4695 4002 4852 3813 4852 L2427 4852 C2301 4852 2175 4758 2112 4631 C2042 4515 1919 4450 1784 4450 C1737 4450 1688 4458 1639 4474 C1482 4568 1387 4758 1482 4947 C1671 5325 2017 5545 2427 5545 L3813 5545 C3970 5545 4128 5671 4159 5829 L4853 8570 C4916 8790 4790 8979 4632 9011 C4608 9015 4584 9017 4560 9017 C4403 9017 4273 8927 4191 8790 L3655 6522 C3592 6364 3498 6270 3277 6270 L1040 6270 C914 6270 851 6207 757 6144 C694 5986 694 5892 694 5797 L1419 3025 C1453 2855 1597 2767 1742 2767 Z M2143 0 C1419 0 788 630 788 1387 C788 1733 946 2080 1135 2332 C977 2426 851 2647 788 2867 L64 5640 C1 5955 64 6270 253 6522 C347 6648 473 6774 631 6805 L32 9263 C1 9452 95 9609 253 9672 C281 9676 309 9678 335 9678 C513 9678 639 9589 694 9452 L977 8318 L3372 8318 L3529 8885 C3661 9359 4079 9679 4526 9679 C4613 9679 4702 9667 4790 9641 C5357 9483 5703 8916 5546 8381 L4821 5640 C4790 5482 4727 5325 4601 5199 C4758 5010 4884 4758 4884 4474 C4884 3907 4412 3466 3844 3466 L3088 3466 L2710 2647 C3183 2395 3529 1922 3529 1387 C3529 630 2899 0 2143 0 Z" fill="#F6620B"></path></g><g transform="translate(839850 2371925) scale(25 25)"><path d="M3624 662 C4002 662 4317 977 4317 1355 C4317 1765 4002 2080 3624 2080 C3214 2080 2899 1765 2899 1355 C2899 977 3214 662 3624 662 Z M4317 6900 L4474 7593 L2490 7593 L2647 6900 Z M3962 2731 C4108 2731 4250 2818 4285 2993 L4979 5734 C5010 6018 4853 6207 4632 6207 L2395 6207 C2238 6207 2080 6333 2049 6490 L1482 8727 C1456 8883 1323 8996 1154 8996 C1118 8996 1080 8990 1040 8979 C851 8916 725 8727 820 8538 L1513 5766 C1576 5608 1671 5514 1891 5514 L3246 5514 C3655 5514 4002 5262 4222 4915 C4285 4758 4222 4537 4033 4442 C3993 4426 3948 4418 3902 4418 C3770 4418 3631 4483 3561 4600 C3529 4726 3372 4789 3246 4789 L1891 4789 C1671 4789 1513 4631 1513 4442 C1513 4253 1671 4096 1891 4096 L2836 4096 C2931 4096 3057 4001 3151 3907 C3151 3844 3655 2899 3655 2899 C3725 2787 3845 2731 3962 2731 Z M3529 0 C2805 0 2175 630 2175 1355 C2175 1922 2490 2395 2994 2615 L2584 3466 L1860 3466 C1261 3466 820 3938 820 4474 C820 4758 946 4978 1103 5199 C977 5325 914 5451 851 5608 L158 8381 C1 8916 347 9483 914 9641 C1002 9667 1091 9679 1178 9679 C1624 9679 2038 9359 2143 8885 L2332 8286 L4695 8286 L4947 9452 C4995 9597 5118 9704 5257 9704 C5300 9704 5344 9694 5388 9672 C5577 9641 5703 9452 5609 9231 L5042 6805 C5514 6616 5735 6144 5640 5640 L4916 2867 C4884 2647 4758 2489 4569 2332 C4790 2080 4916 1733 4916 1355 C4916 630 4285 0 3529 0 Z" fill="#113D34"></path></g><g transform="translate(772900 2318350) scale(25 25)"><path d="M3844 631 C4034 631 4223 789 4223 978 L4223 1734 C4223 1923 4034 2112 3844 2112 C3655 2143 3498 2301 3498 2458 L3498 2994 L2679 2206 C2584 2143 2521 2112 2427 2112 L1009 2112 C820 2112 662 1923 662 1734 L662 978 C662 789 820 631 1009 631 Z M1009 1 C442 1 1 474 1 1041 L1 1765 C1 2364 473 2805 1009 2805 L2269 2805 L3592 4097 C3663 4167 3770 4203 3872 4203 C3906 4203 3939 4199 3970 4191 C4097 4160 4160 4002 4160 3876 L4160 2773 C4569 2616 4884 2238 4884 1765 L4884 1041 C4884 442 4412 1 3844 1 Z" fill="#113D34"></path></g></svg>