<svg xmlns="http://www.w3.org/2000/svg" viewBox="-60621600 2716100 316650 226875"><g transform="translate(-60621600 2716100) scale(25 25)"><path d="M11374 789 C11626 789 11815 1009 11815 1230 L11815 1671 L788 1671 L788 1230 C788 1009 977 789 1166 789 Z M11815 2490 L11815 7877 C11815 8129 11626 8318 11374 8318 L1166 8318 C946 8318 788 8129 788 7877 L788 2490 Z M1229 1 C536 1 1 568 1 1230 L1 7846 C1 8507 536 9074 1229 9074 L11406 9074 C12099 9074 12666 8507 12666 7846 L12666 1230 C12634 568 12099 1 11406 1 Z" fill="#113D34"></path></g><g transform="translate(-60546775 2798025) scale(25 25)"><path d="M2080 883 C2332 883 2553 946 2805 1072 C2647 1387 2521 1733 2521 2080 C2521 2489 2647 2804 2805 3119 C2584 3245 2364 3308 2080 3308 C1418 3308 820 2741 820 2048 C820 1418 1418 883 2080 883 Z M4569 883 C5231 883 5798 1418 5798 2080 C5798 2741 5231 3340 4569 3340 C3907 3340 3340 2804 3340 2080 C3309 1418 3907 883 4569 883 Z M2080 0 C946 0 1 946 1 2080 C1 3245 946 4191 2080 4191 C2521 4191 2962 4033 3340 3749 C3687 4033 4128 4191 4569 4191 C5703 4191 6648 3245 6648 2080 C6648 946 5703 0 4569 0 C4096 0 3655 158 3340 441 C2994 158 2553 0 2080 0 Z" fill="#F6620B"></path></g></svg>