<svg xmlns="http://www.w3.org/2000/svg" viewBox="-2777700 2049775 287325 291475"><g transform="translate(-2777700 2049775) scale(25 25)"><path d="M7121 662 C7341 662 7499 820 7499 1040 C7499 1230 7341 1387 7121 1387 L4380 1387 C4191 1387 4033 1230 4033 1040 C4033 820 4191 662 4380 662 Z M6774 2049 L6774 4285 C6774 4412 6774 4443 7499 5514 L3970 5514 C4758 4412 4726 4443 4726 4348 L4726 2049 Z M8003 6176 C8696 7215 9578 8507 10177 9389 C10649 10082 10177 10996 9294 10996 L2206 10996 C1387 10996 914 10051 1387 9389 C1859 8665 2804 7341 3561 6176 Z M4380 1 C3813 1 3340 473 3340 1040 C3340 1513 3655 1860 4065 2017 L4065 4222 C3718 4790 1198 8413 788 8980 C1 10114 820 11658 2206 11658 L9294 11658 C9308 11658 9322 11658 9335 11658 C10697 11658 11492 10103 10712 9011 C10271 8444 7845 4853 7499 4254 L7499 1986 C7877 1828 8160 1450 8160 1040 C8160 473 7688 1 7121 1 Z" fill="#113D34"></path></g><g transform="translate(-2694200 2221475) scale(25 25)"><path d="M1386 694 C1733 694 2048 1009 2048 1356 C2048 1765 1764 2049 1386 2049 C1008 2049 725 1702 725 1356 C725 978 1040 694 1386 694 Z M1386 1 C630 1 0 631 0 1356 C0 2112 630 2742 1386 2742 C2142 2742 2772 2112 2772 1356 C2772 631 2142 1 1386 1 Z" fill="#F6620B"></path></g><g transform="translate(-2608350 2255350) scale(25 25)"><path d="M1040 694 C1229 694 1386 851 1386 1040 C1386 1229 1229 1387 1040 1387 C819 1387 693 1229 693 1040 C693 851 819 694 1040 694 Z M1040 1 C473 1 0 473 0 1040 C0 1576 473 2048 1040 2048 C1575 2048 2048 1576 2048 1040 C2048 473 1575 1 1040 1 Z" fill="#113D34"></path></g></svg>