<svg xmlns="http://www.w3.org/2000/svg" viewBox="6131900 2301825 295375 294600"><g transform="translate(6131900 2301825) scale(25 25)"><path d="M3813 630 C4002 630 4159 788 4159 977 L4159 1355 L1387 1355 L1387 977 L1355 977 C1355 788 1513 630 1733 630 Z M10114 1355 C10303 1355 10460 1513 10460 1702 L10460 3434 L7688 3434 C7656 3277 7656 1859 7656 1702 C7656 1513 7814 1355 8034 1355 Z M4128 2048 L4128 4821 L1355 4821 L1355 2048 Z M6617 2048 C6806 2048 6963 2206 6963 2395 L6963 4852 L4821 4852 L4821 2395 C4821 2206 4978 2048 5167 2048 Z M10429 4127 L10429 4852 L7656 4852 L7656 4127 Z M10775 5514 C10964 5514 11122 5671 11122 5860 L11122 10744 C11122 10964 10964 11122 10775 11122 L1009 11122 C820 11122 662 10964 662 10744 L662 5860 C662 5671 820 5514 1009 5514 Z M1733 0 C1135 0 694 473 694 1040 L694 4884 C316 5041 1 5388 1 5860 L1 10744 C1 11342 473 11783 1009 11783 L10775 11783 C11374 11783 11815 11311 11815 10744 L11815 5860 C11815 5388 11531 5010 11122 4884 L11122 1702 C11122 1103 10649 662 10114 662 L8034 662 C7530 662 7152 977 7026 1418 C6932 1387 6806 1355 6648 1355 L5230 1355 C5104 1355 4978 1387 4884 1418 L4884 1040 C4884 441 4380 0 3844 0 Z" fill="#113D34"></path></g><g transform="translate(6218550 2456200) scale(25 25)"><path d="M3844 725 C4033 725 4190 882 4190 1071 C4190 1260 4033 1418 3844 1418 L1008 1418 C819 1418 662 1260 662 1071 C662 882 819 725 1008 725 Z M1008 0 C410 0 0 473 0 1040 C0 1639 473 2048 1008 2048 L3844 2048 C4442 2048 4883 1576 4883 1040 C4852 473 4411 0 3844 0 Z" fill="#F6620B"></path></g><g transform="translate(6340625 2353025) scale(25 25)"><path d="M347 0 C158 0 0 158 0 347 C0 567 158 725 347 725 L1040 725 C1261 725 1418 567 1418 347 C1355 158 1198 0 1040 0 Z" fill="#113D34"></path></g><g transform="translate(6183100 2369550) scale(25 25)"><path d="M347 1 C158 1 0 158 0 379 C0 568 158 725 347 725 L1040 725 C1261 725 1418 568 1418 379 C1418 158 1261 1 1040 1 Z" fill="#113D34"></path></g></svg>