<svg xmlns="http://www.w3.org/2000/svg" viewBox="-30805300 1938725 291450 290650"><g transform="translate(-30805300 1938725) scale(25 25)"><path d="M6806 694 L6806 1450 L6112 1450 L6112 694 Z M10586 4821 C10807 4821 10964 5010 10964 5199 C10964 5388 10807 5545 10586 5545 L8570 5545 C8349 5545 8192 5388 8192 5199 C8192 5010 8349 4821 8570 4821 Z M6459 3529 C7089 3529 7656 3844 7971 4411 C7688 4600 7499 4915 7499 5262 C7499 5388 7530 5545 7562 5672 C7121 5703 6806 6113 6806 6585 C6806 6680 6806 6774 6869 6900 C6743 6932 6617 6932 6459 6932 C5514 6932 4758 6176 4758 5230 C4758 4285 5514 3529 6459 3529 Z M9893 6207 C10082 6207 10240 6365 10240 6585 C10240 6774 10082 6932 9893 6932 L7845 6932 C7656 6932 7499 6774 7499 6585 C7499 6365 7656 6207 7845 6207 Z M9231 7562 C9420 7562 9578 7719 9578 7908 C9578 8097 9420 8255 9231 8255 L7845 8255 C7656 8255 7499 8097 7499 7908 C7499 7719 7656 7562 7845 7562 Z M6595 2171 C7889 2171 8963 3033 9389 4159 L8633 4159 C8223 3340 7404 2805 6459 2805 C5136 2805 4065 3844 4065 5199 C4065 6522 5136 7593 6459 7593 C6617 7593 6743 7593 6900 7562 L6900 7562 C6869 7688 6806 7782 6806 7940 C6806 8066 6806 8192 6869 8255 C6743 8255 6585 8318 6459 8318 C4758 8318 3403 6932 3403 5230 C3403 3529 4758 2174 6459 2174 C6505 2172 6550 2171 6595 2171 Z M8538 8917 C8759 8917 8916 9074 8916 9295 C8853 9484 8696 9641 8538 9641 L7877 9641 C7688 9641 7530 9484 7530 9295 C7530 9074 7688 8917 7877 8917 Z M3592 1765 C3655 2111 3655 2427 3592 2805 C3025 3466 2710 4285 2710 5199 C2710 7278 4411 8917 6459 8917 C6585 8917 6743 8917 6869 8885 L6869 8885 C6806 9011 6774 9137 6774 9232 C6774 9358 6806 9484 6806 9610 L4915 9610 C4537 9641 4096 9830 3781 10145 L3088 10870 L788 8633 L1544 7908 C1859 7593 2048 7152 2048 6680 L2048 3655 C2048 3592 2080 3498 2143 3435 L3592 1765 Z M5167 1 C4978 1 4821 158 4821 347 C4821 536 4978 694 5167 694 L5514 694 L5514 1576 C5136 1702 4726 1891 4380 2111 C4380 1796 4317 1481 4222 1229 L4159 977 C4096 851 4033 788 3907 757 C3872 739 3839 731 3808 731 C3728 731 3660 783 3592 851 L1702 2962 C1544 3151 1418 3372 1418 3624 L1418 6648 C1418 6932 1292 7152 1103 7373 L127 8349 C64 8412 1 8507 1 8570 C1 8664 32 8790 127 8822 L2867 11531 C2930 11594 3025 11626 3116 11626 C3206 11626 3293 11594 3340 11531 L4348 10555 C4537 10366 4758 10240 5041 10240 L8601 10240 C9137 10240 9610 9767 9610 9200 C9610 9106 9578 8948 9547 8822 C9956 8696 10303 8318 10303 7845 C10303 7719 10240 7562 10208 7436 C10649 7310 10964 6932 10964 6459 C10964 6333 10933 6176 10870 6050 C11027 6018 11185 5955 11342 5798 C11563 5577 11657 5325 11657 5041 C11657 4758 11563 4474 11342 4285 C11122 4285 10870 4159 10586 4159 L10145 4159 C9767 2899 8790 1922 7530 1576 L7530 694 L7877 694 C8097 694 8255 536 8255 347 C8255 158 8097 1 7877 1 Z" fill="#113D34"></path></g><g transform="translate(-30670625 2042700) scale(25 25)"><path d="M1072 0 C883 0 725 158 725 378 L725 725 L379 725 C158 725 1 882 1 1071 C1 1260 158 1418 379 1418 L1041 1418 C1230 1418 1387 1260 1387 1071 L1387 410 C1419 158 1261 0 1072 0 Z" fill="#F6620B"></path></g></svg>