<svg xmlns="http://www.w3.org/2000/svg" viewBox="-33314675 2275050 291450 293000"><g transform="translate(-33143750 2275050) scale(25 25)"><path d="M2426 725 C3371 725 4096 1512 4096 2458 C4159 3403 3371 4159 2426 4159 C1481 4159 725 3403 725 2458 C725 1512 1481 725 2426 725 Z M2426 0 C1071 0 0 1103 0 2426 C0 3749 1071 4820 2426 4820 C3749 4820 4821 3749 4821 2426 C4821 1103 3749 0 2426 0 Z" fill="#F6620B"></path></g><g transform="translate(-33093350 2309700) scale(25 25)"><path d="M347 0 C158 0 1 158 1 347 L1 1009 C1 1229 158 1387 347 1387 L1040 1387 C1229 1387 1387 1229 1387 1009 C1418 883 1261 694 1072 694 L725 694 L725 347 C725 158 568 0 347 0 Z" fill="#113D34"></path></g><g transform="translate(-33314675 2328600) scale(25 25)"><path d="M3057 631 C3624 631 4096 1103 4096 1639 C4096 2206 3624 2678 3057 2678 C2521 2678 2049 2206 2049 1639 C2049 1103 2490 631 3057 631 Z M3063 3369 C3690 3369 4308 3646 4726 4065 L4411 4065 C3844 4065 3372 4506 3372 5073 L3372 6774 L662 6774 L662 5892 C662 4569 1702 3435 2962 3372 C2996 3370 3029 3369 3063 3369 Z M7215 4726 C7373 4726 7530 4884 7530 5073 L7530 6774 L4096 6774 L4096 5073 C4096 4884 4254 4726 4443 4726 Z M8586 7495 C8753 7495 8885 7644 8885 7845 L8885 8885 L662 8885 L662 7499 L8539 7499 C8555 7496 8571 7495 8586 7495 Z M3057 1 C2112 1 1387 725 1387 1702 C1387 2206 1576 2647 1923 2930 C820 3403 1 4600 1 5923 L1 9263 C1 9420 127 9578 316 9578 L9200 9578 C9421 9578 9578 9420 9578 9200 L9578 7845 C9578 7278 9106 6806 8539 6806 L8192 6806 L8192 5104 C8192 4569 7719 4096 7152 4096 L5577 4096 C5231 3561 4758 3183 4222 2930 C4569 2615 4758 2206 4758 1702 C4758 725 4002 1 3057 1 Z" fill="#113D34"></path></g></svg>