<svg xmlns="http://www.w3.org/2000/svg" viewBox="6479471 2079003 348923 348706"><g transform="translate(6479471 2200291) scale(27.519826964671953 27.51951219512195)"><path d="M379 0 C158 0 1 189 1 378 C1 630 190 819 379 819 L946 819 C1166 819 1387 630 1387 378 C1387 189 1166 0 946 0 Z" fill="#113D34"></path></g><g transform="translate(-60218325 2304850) scale(25 25)"><path d="M4884 825 C6994 825 8633 2463 8633 4542 C8570 6023 7688 7378 6364 7945 C6207 8039 6112 8165 6112 8354 L6112 8543 L3623 8543 L3623 8354 C3623 8197 3560 8039 3403 7945 C1828 7251 914 5582 1229 3880 C1481 2431 2647 1203 4096 888 C4379 856 4663 825 4884 825 Z M6081 9362 L6081 10213 L3592 10213 L3592 9362 Z M5986 11032 C5829 11505 5419 11851 4852 11851 C4316 11851 3875 11505 3686 11032 Z M4842 0 C4526 0 4202 32 3875 100 C2111 509 693 1959 378 3723 C0 5834 1071 7724 2773 8575 L2773 10591 C2773 11725 3718 12670 4852 12670 C5986 12670 6963 11725 6963 10591 L6963 8575 C8444 7787 9420 6243 9420 4511 C9392 1995 7331 0 4842 0 Z" fill="#113D34"></path></g><g transform="translate(-60127750 2347500) scale(25 25)"><path d="M1229 1 C1009 1 851 190 851 379 L851 662 C378 820 0 1292 0 1828 C0 2521 567 2899 1009 3214 C1324 3466 1670 3687 1670 3939 C1670 4159 1481 4348 1229 4348 C1009 4348 851 4159 851 3939 C851 3687 630 3498 441 3498 C221 3498 0 3687 0 3939 C0 4474 378 4915 851 5104 L851 5388 C851 5608 1040 5829 1229 5829 C1481 5829 1670 5608 1670 5388 L1670 5104 C2143 4947 2489 4474 2489 3939 C2489 3246 1954 2868 1513 2553 C1198 2300 851 2080 851 1828 C788 1607 1009 1418 1229 1418 C1481 1418 1670 1607 1670 1828 C1670 2080 1859 2269 2048 2269 C2300 2269 2489 2080 2489 1828 C2489 1292 2143 851 1670 662 L1670 379 C1670 158 1481 1 1229 1 Z" fill="#F6620B"></path></g><g transform="translate(-60212825 2510750) scale(25 25)"><path d="M836 0 C725 0 615 39 536 118 L158 496 C1 654 1 906 158 1095 C237 1174 340 1213 442 1213 C544 1213 647 1174 725 1095 L1135 717 C1293 559 1293 276 1135 118 C1056 39 946 0 836 0 Z" fill="#113D34"></path></g><g transform="translate(-60012750 2310675) scale(25 25)"><path d="M835 1 C725 1 614 40 536 119 L126 528 C0 686 0 938 126 1096 C205 1174 315 1214 425 1214 C536 1214 646 1174 725 1096 L1134 718 C1292 560 1292 276 1134 119 C1056 40 945 1 835 1 Z" fill="#113D34"></path></g><g transform="translate(-60012750 2510750) scale(25 25)"><path d="M425 0 C315 0 205 39 126 118 C0 276 0 559 126 717 L536 1095 C614 1174 725 1213 835 1213 C945 1213 1056 1174 1134 1095 C1292 937 1292 654 1134 496 L725 118 C646 39 536 0 425 0 Z" fill="#113D34"></path></g><g transform="translate(-60212825 2310675) scale(25 25)"><path d="M442 1 C340 1 237 40 158 119 C1 276 1 560 158 718 L536 1096 C615 1174 725 1214 836 1214 C946 1214 1056 1174 1135 1096 C1293 938 1293 686 1135 528 L725 119 C647 40 544 1 442 1 Z" fill="#113D34"></path></g><g transform="translate(-59974175 2415250) scale(25 25)"><path d="M442 0 C221 0 1 189 1 378 C1 630 221 819 442 819 L1009 819 C1230 819 1387 630 1387 378 C1419 189 1230 0 1009 0 Z" fill="#113D34"></path></g></svg>