<svg xmlns="http://www.w3.org/2000/svg" viewBox="-31523625 2298675 293025 291450"><g transform="translate(-31523625 2298675) scale(25 25)"><path d="M4443 630 C4632 630 4790 788 4790 977 C4790 1198 4632 1355 4443 1355 C4254 1355 4097 1198 4097 977 C4097 788 4254 630 4443 630 Z M7153 3434 C6523 3938 6176 4663 6176 5482 L6176 7530 L663 7530 L663 5482 C663 4348 1576 3434 2710 3434 L4790 3434 L4790 4474 C4790 4663 4947 4821 5136 4821 C5357 4821 5514 4663 5514 4474 L5514 3434 Z M6176 8255 L6176 8916 L663 8916 L663 8255 Z M8917 3434 C10083 3434 10965 4348 10965 5482 L10965 8916 L6869 8916 L6869 5482 C6869 4380 7783 3434 8917 3434 Z M4790 9609 L4790 10996 L4128 10996 L4128 9609 Z M4443 0 C3876 0 3404 473 3404 1040 C3404 1576 3876 2048 4443 2048 C4569 2048 4664 2017 4790 2017 L4790 2773 L2710 2773 C1198 2773 1 4001 1 5482 L1 9231 C1 9420 159 9578 348 9578 L3467 9578 L3467 11311 C3467 11500 3624 11657 3813 11657 L5199 11657 C5388 11657 5546 11500 5546 11311 L5546 9578 L11374 9578 C11563 9578 11721 9420 11721 9231 L11721 5482 C11658 4001 10429 2773 8917 2773 L5451 2773 L5451 1040 C5451 473 4979 0 4443 0 Z" fill="#113D34"></path></g><g transform="translate(-31334575 2452250) scale(25 25)"><path d="M1670 694 C1890 694 2048 851 2048 1040 C2048 1229 1890 1387 1670 1387 L1008 1387 C819 1387 662 1229 662 1040 C662 851 819 694 1008 694 Z M1008 1 C473 1 0 473 0 1040 C0 1576 473 2049 1008 2049 L1670 2049 C2237 2049 2710 1576 2710 1040 C2710 473 2269 1 1670 1 Z" fill="#F6620B"></path></g><g transform="translate(-31334575 2419175) scale(25 25)"><path d="M347 1 C158 1 0 158 0 347 C0 536 158 694 347 694 L2395 694 C2584 694 2741 536 2741 347 C2710 158 2552 1 2395 1 Z" fill="#113D34"></path></g></svg>