<svg xmlns="http://www.w3.org/2000/svg" viewBox="-31164450 2657050 291425 291425"><g transform="translate(-31028975 2761000) scale(25 25)"><path d="M378 1 C158 1 0 158 0 347 C63 536 221 694 378 694 C567 694 725 536 725 347 C725 158 567 1 378 1 Z" fill="#113D34"></path></g><g transform="translate(-31028975 2794075) scale(25 25)"><path d="M378 1 C158 1 0 158 0 347 L0 1734 C63 1923 221 2080 378 2080 C567 2080 725 1923 725 1734 L725 347 C725 158 567 1 378 1 Z" fill="#113D34"></path></g><g transform="translate(-31164450 2657050) scale(25 25)"><path d="M1323 4852 L1323 8286 L977 8286 C788 8286 630 8128 630 7939 L630 5198 C630 5009 788 4852 977 4852 Z M10554 4852 C10743 4852 10901 5009 10901 5198 L10901 7939 L10932 7939 C10932 8128 10775 8286 10586 8286 L10239 8286 L10239 4852 Z M5797 10302 C5986 10302 6144 10460 6144 10649 C6144 10838 5986 10995 5797 10995 C5577 10995 5419 10838 5419 10649 C5419 10460 5577 10302 5797 10302 Z M5829 0 C3371 0 1260 1796 788 4190 C347 4316 0 4694 0 5167 L0 7876 C0 8443 473 8916 1008 8916 L1702 8916 C1891 8916 2048 8758 2048 8569 L2048 4474 C2048 4253 1891 4096 1702 4096 L1449 4096 C1922 2111 3749 630 5797 630 C7876 630 9641 2079 10113 4096 L9893 4096 C9672 4096 9515 4253 9515 4474 L9515 8569 C9515 8758 9672 8916 9893 8916 L10208 8916 C10050 9704 9326 10302 8507 10302 L6742 10302 C6585 9893 6207 9609 5734 9609 C5199 9609 4726 10082 4726 10649 C4726 11184 5199 11657 5734 11657 C6175 11657 6585 11405 6742 10995 L8507 10995 C9735 10995 10743 10082 10869 8916 C11248 8790 11563 8412 11563 7939 L11563 5198 C11657 4694 11311 4316 10869 4190 C10397 1796 8255 0 5829 0 Z" fill="#113D34"></path></g><g transform="translate(-31097500 2727125) scale(25 25)"><path d="M3119 663 C4442 663 5514 1734 5514 3088 C5514 4412 4411 5483 3119 5483 C2647 5483 2206 5357 1796 5136 C1750 5090 1670 5061 1606 5061 C1582 5061 1561 5065 1544 5073 L914 5294 L1103 4664 C1134 4569 1103 4443 1071 4380 C819 3971 693 3561 693 3120 C693 1734 1796 663 3119 663 Z M3151 1 C1449 1 32 1387 32 3057 C32 3593 158 4097 441 4569 L32 5703 C0 5829 32 5955 126 6081 C172 6128 269 6157 367 6157 C403 6157 439 6153 473 6144 L1607 5735 C2080 5987 2584 6144 3151 6144 C4852 6144 6270 4758 6270 3057 C6270 1387 4883 1 3151 1 Z" fill="#F6620B"></path></g></svg>