<svg xmlns="http://www.w3.org/2000/svg" viewBox="5669466 387350 476950 508000"><g transform="translate(5757248 479207) scale(42.883495145631066 42.88365622423743)"><path d="M1765 1355 C1986 1355 2143 1513 2143 1702 L2143 2048 L1765 2048 C1671 2048 1545 2048 1419 2111 L1419 1702 C1419 1513 1576 1355 1765 1355 Z M3151 631 C3341 631 3498 788 3498 1009 L3498 2111 C3404 2048 3277 2017 3151 2017 L2805 2017 L2805 1009 C2805 788 2962 631 3151 631 Z M4538 1355 C4727 1355 4884 1513 4884 1702 L4884 3088 C4884 3277 4727 3435 4538 3435 C4349 3435 4191 3277 4191 3088 L4191 1702 C4191 1513 4349 1355 4538 1355 Z M5924 2017 C6113 2017 6270 2174 6270 2363 L6270 3088 C6270 3277 6113 3435 5924 3435 C5703 3435 5546 3277 5546 3088 L5546 2363 C5546 2174 5703 2017 5924 2017 Z M3120 2741 C3309 2741 3467 2899 3467 3088 C3467 3277 3309 3435 3120 3435 L1734 3435 C1545 3435 1387 3592 1387 3781 C1387 4002 1545 4159 1734 4159 C2679 4159 3467 4947 3467 5892 C3467 6081 3624 6238 3845 6238 C4034 6238 4191 6081 4191 5892 C4191 5167 3876 4537 3435 4096 C3593 4065 3750 4002 3876 3876 C4065 4033 4317 4159 4569 4159 C4853 4159 5073 4033 5294 3876 C5483 4033 5703 4159 5987 4159 C6113 4159 6239 4096 6333 4065 L6333 5167 C6333 5923 5861 6554 5199 6774 C5042 6837 4979 6995 4979 7089 L4979 7562 L2206 7562 L2206 7089 C2206 6932 2143 6837 1986 6774 C1261 6554 820 5892 820 5167 L820 3750 L726 3750 C726 3151 1198 2741 1734 2741 Z M5199 8286 C5388 8286 5546 8444 5546 8633 L5546 8979 L1387 8979 L1387 8633 C1387 8444 1545 8286 1734 8286 Z M3120 1 C2647 1 2269 316 2143 757 C2017 725 1891 694 1734 694 C1167 694 726 1166 726 1702 L726 2426 C285 2678 1 3214 1 3750 L1 5136 C1 6081 568 6932 1387 7341 L1387 7656 C1009 7814 694 8160 694 8633 L694 9357 C694 9546 852 9704 1041 9704 L5892 9704 C6081 9704 6239 9546 6239 9357 L6239 8633 C6239 8192 5955 7814 5514 7656 L5514 7341 C6365 6932 6901 6081 6901 5136 L6901 2363 C6901 1796 6428 1355 5892 1355 C5766 1355 5609 1387 5483 1418 C5357 1009 4979 694 4506 694 C4380 694 4223 725 4097 757 C4002 316 3593 1 3120 1 Z" fill="#113D34"></path></g><g transform="translate(5905883 387350) scale(42.882920110192835 42.88385269121813)"><path d="M379 0 C158 0 1 158 1 347 L1 1418 C1 1607 158 1764 379 1764 C568 1764 725 1607 725 1418 L725 347 C725 158 568 0 379 0 Z" fill="#F6620B"></path></g><g transform="translate(5995037 418398) scale(42.883720930232556 42.88333333333333)"><path d="M1076 1 C985 1 899 32 851 95 L127 788 C1 914 1 1166 127 1261 C190 1340 284 1379 375 1379 C466 1379 552 1340 599 1261 L1324 568 C1419 442 1419 221 1324 95 C1261 32 1167 1 1076 1 Z" fill="#F6620B"></path></g><g transform="translate(6085564 596751) scale(42.883720930232556 42.88328530259366)"><path d="M347 0 C158 0 1 158 1 347 C1 536 158 694 347 694 L1040 694 C1261 694 1418 536 1418 347 C1418 158 1261 0 1040 0 Z" fill="#F6620B"></path></g><g transform="translate(5669466 596751) scale(42.883638928067704 42.88328530259366)"><path d="M378 0 C158 0 0 158 0 347 C0 536 158 694 378 694 L1071 694 C1260 694 1418 536 1418 347 C1418 158 1260 0 1071 0 Z" fill="#113D34"></path></g><g transform="translate(5787010 418398) scale(42.883638928067704 42.8834808259587)"><path d="M343 1 C252 1 158 32 95 95 C0 221 0 442 95 568 L819 1261 C866 1324 953 1356 1044 1356 C1134 1356 1229 1324 1292 1261 C1418 1166 1418 914 1292 788 L567 95 C520 32 433 1 343 1 Z" fill="#113D34"></path></g><g transform="translate(5696483 476248) scale(42.8836748182419 42.88414055080722)"><path d="M422 0 C285 0 140 81 95 196 C0 353 95 574 252 668 L945 1015 C989 1041 1039 1052 1091 1052 C1227 1052 1372 971 1418 857 C1512 700 1418 479 1260 385 L567 38 C524 12 473 0 422 0 Z" fill="#F6620B"></path></g><g transform="translate(6053144 477363) scale(42.8836748182419 42.88382899628253)"><path d="M1098 0 C1046 0 994 14 946 44 L253 422 C95 485 1 674 95 894 C142 1011 258 1076 405 1076 C456 1076 511 1068 568 1052 L1261 674 C1418 611 1513 422 1418 201 C1331 71 1214 0 1098 0 Z" fill="#113D34"></path></g></svg>