<svg xmlns="http://www.w3.org/2000/svg" viewBox="-59475600 2658625 309550 316625"><g transform="translate(-59427550 2913025) scale(25 25)"><path d="M410 0 C189 0 0 189 0 410 C0 630 189 788 410 788 C630 788 788 630 788 410 C788 189 630 0 410 0 Z" fill="#113D34"></path></g><g transform="translate(-59428350 2699575) scale(25 25)"><path d="M442 0 C190 0 1 189 1 441 L1 5671 C1 5923 190 6112 442 6112 C662 6112 820 5923 820 5671 L820 410 C820 158 631 0 442 0 Z" fill="#F6620B"></path></g><g transform="translate(-59330675 2913025) scale(25 25)"><path d="M378 0 C158 0 0 189 0 410 C0 630 158 788 378 788 C599 788 788 630 788 410 C788 189 599 0 378 0 Z" fill="#113D34"></path></g><g transform="translate(-59330675 2699575) scale(25 25)"><path d="M378 0 C158 0 0 189 0 441 L0 5671 C0 5923 189 6112 378 6112 C630 6112 820 5923 820 5671 L820 410 C788 158 567 0 378 0 Z" fill="#113D34"></path></g><g transform="translate(-59475600 2658625) scale(25 25)"><path d="M3372 788 C3624 788 3813 977 3813 1197 L3813 8538 L788 8538 L788 1197 C788 977 977 788 1166 788 Z M7278 788 C7530 788 7688 977 7688 1197 L7688 8538 L4632 8538 L4632 1197 C4632 977 4852 788 5073 788 Z M11122 788 C11342 788 11500 977 11500 1197 L11500 8538 L8507 8538 L8507 1197 C8507 977 8696 788 8885 788 Z M3813 9325 L3813 11405 C3813 11657 3624 11846 3372 11846 L1166 11846 C946 11846 788 11657 788 11405 L788 9325 Z M7688 9325 L7688 11405 C7688 11657 7467 11846 7278 11846 L5073 11846 C4852 11846 4632 11657 4632 11405 L4632 9325 Z M11563 9325 L11563 11405 L11531 11405 C11531 11657 11342 11846 11153 11846 L8948 11846 C8696 11846 8538 11657 8538 11405 L8538 9325 Z M1229 0 C536 0 0 536 0 1197 L0 11405 C0 12066 536 12665 1229 12665 L3435 12665 C3750 12665 4002 12539 4254 12350 C4474 12539 4758 12665 5073 12665 L7278 12665 C7593 12665 7877 12539 8097 12350 C8349 12539 8633 12665 8948 12665 L11153 12665 C11815 12665 12382 12129 12382 11405 L12382 1197 C12350 536 11815 0 11153 0 L8948 0 C8633 0 8349 95 8097 315 C7877 95 7593 0 7278 0 L5073 0 C4758 0 4474 95 4254 315 C4002 95 3750 0 3435 0 Z" fill="#113D34"></path></g><g transform="translate(-59234600 2913025) scale(25 25)"><path d="M411 0 C190 0 1 189 1 410 C1 630 190 788 411 788 C631 788 789 630 789 410 C789 189 631 0 411 0 Z" fill="#113D34"></path></g><g transform="translate(-59235375 2699575) scale(25 25)"><path d="M442 0 C190 0 0 189 0 441 L0 5671 C0 5923 190 6112 442 6112 C662 6112 820 5923 820 5671 L820 410 C820 158 631 0 442 0 Z" fill="#F6620B"></path></g></svg>