<svg xmlns="http://www.w3.org/2000/svg" viewBox="-31874100 1939525 271750 291500"><g transform="translate(-31874100 2132475) scale(25 25)"><path d="M2080 1135 L2300 1576 C2363 1702 2458 1734 2584 1765 L3056 1860 L2710 2206 C2615 2269 2584 2395 2615 2521 L2710 2994 L2269 2773 C2237 2710 2143 2710 2111 2710 C2080 2710 1985 2710 1954 2773 L1513 2994 L1607 2521 C1607 2395 1607 2301 1513 2206 L1166 1860 L1639 1765 C1670 1765 1796 1702 1828 1576 L2080 1135 Z M5514 1135 L5734 1576 C5766 1702 5892 1734 6018 1765 L6490 1860 L6144 2206 C6049 2269 6018 2395 6049 2521 L6144 2994 L5703 2773 C5671 2710 5577 2710 5545 2710 C5514 2710 5419 2710 5388 2773 L4947 2994 L5041 2521 C5041 2395 5041 2301 4947 2206 L4600 1860 L4978 1765 C5104 1765 5199 1702 5262 1576 L5514 1135 Z M8916 1135 L9168 1576 C9200 1702 9326 1734 9452 1765 L9924 1860 L9546 2206 C9483 2269 9452 2395 9483 2521 L9546 2994 L9137 2773 C9074 2710 9011 2710 8979 2710 C8916 2710 8853 2710 8822 2773 L8381 2994 L8444 2521 C8444 2395 8444 2301 8381 2206 L8034 1860 L8412 1765 C8538 1765 8601 1702 8696 1576 L8916 1135 Z M2048 1 C1922 1 1796 64 1733 190 L1292 1104 L315 1261 C189 1261 63 1387 32 1482 C0 1608 32 1765 95 1860 L819 2553 L662 3561 C630 3655 693 3813 788 3876 C862 3913 925 3928 990 3928 C1035 3928 1082 3920 1134 3907 L2048 3435 L2962 3907 C2998 3931 3039 3942 3082 3942 C3153 3942 3230 3915 3308 3876 C3434 3781 3466 3655 3434 3561 L3277 2553 L3749 2080 L4222 2553 L4064 3561 C4001 3655 4096 3813 4159 3876 C4233 3913 4307 3928 4380 3928 C4433 3928 4485 3920 4537 3907 L5419 3435 L6333 3907 C6381 3931 6429 3942 6475 3942 C6550 3942 6621 3915 6679 3876 C6805 3781 6837 3655 6805 3561 L6648 2553 L7120 2080 L7593 2553 L7435 3561 C7404 3655 7467 3813 7561 3876 C7635 3913 7698 3928 7763 3928 C7809 3928 7856 3920 7908 3907 L8822 3435 L9735 3907 C9771 3931 9812 3942 9856 3942 C9926 3942 10004 3915 10082 3876 C10208 3781 10239 3655 10208 3561 L10050 2553 L10743 1860 C10838 1765 10869 1608 10838 1482 C10775 1387 10680 1293 10554 1261 L9578 1104 L9137 190 C9105 64 8979 1 8822 1 C8696 1 8570 64 8507 190 L8066 1104 L7120 1261 L6175 1104 L5734 190 C5703 64 5577 1 5419 1 C5262 1 5199 64 5104 190 L4695 1104 L3749 1261 L2804 1104 L2363 190 C2332 64 2206 1 2048 1 Z" fill="#F6620B"></path></g><g transform="translate(-31830775 1939525) scale(25 25)"><path d="M3718 662 C5072 662 6144 1764 6144 3088 L6144 3466 L6081 3466 C5986 2647 5261 2048 4411 2048 L3025 2048 C2142 2048 1481 2678 1323 3466 L1292 3466 L1292 3088 C1323 1764 2426 662 3718 662 Z M4348 2773 C4915 2773 5387 3245 5387 3781 L5387 4127 L5387 4127 C5153 4127 4907 4122 4820 4064 C4789 4033 4757 3907 4757 3812 C4757 3623 4600 3466 4411 3466 C4190 3466 4033 3623 4033 3812 C4033 3907 4033 4033 3970 4064 C3907 4127 3789 4143 3643 4143 C3497 4143 3324 4127 3151 4127 L1953 4127 L1953 3781 C1953 3214 2426 2773 2993 2773 Z M1008 4096 C1197 4096 1355 4253 1355 4442 L1355 5135 C1323 5356 1197 5482 1008 5482 C819 5482 662 5324 662 5135 L662 4442 C662 4253 819 4096 1008 4096 Z M6459 4127 C6648 4127 6805 4285 6805 4505 L6805 5167 C6805 5356 6648 5513 6459 5513 C6238 5513 6081 5356 6081 5167 L6081 4505 C6081 4285 6238 4127 6459 4127 Z M4442 4568 C4726 4757 5072 4820 5450 4820 L5450 5167 C5450 6112 4663 6900 3718 6900 C2772 6900 2048 6112 2048 5167 L2048 4820 L3214 4820 C3305 4820 3394 4821 3479 4821 C3863 4821 4184 4800 4442 4568 Z M3718 0 C2048 0 662 1386 662 3119 L662 3497 C252 3655 0 4033 0 4505 L0 5167 C0 5703 473 6175 1008 6175 C1197 6175 1355 6144 1512 6081 C1890 6963 2741 7593 3781 7593 C4789 7593 5671 6963 6018 6049 C6175 6144 6333 6175 6522 6175 C7089 6175 7561 5703 7561 5167 L7561 4474 C7561 4064 7278 3655 6868 3497 L6868 3119 C6805 1386 5419 0 3718 0 Z" fill="#113D34"></path></g></svg>