<svg xmlns="http://www.w3.org/2000/svg" viewBox="-64401400 1914475 319000 317275"><g transform="translate(-64401400 1914475) scale(25 25)"><path d="M4726 1317 L4726 2703 C4663 2735 4600 2829 4569 2861 L4065 3554 C3970 3176 3907 2703 3907 2388 C3876 1947 3970 1632 4222 1475 C4348 1349 4537 1317 4726 1317 Z M7046 813 C7507 813 7937 916 8286 1128 C8759 1412 8979 1821 8948 2420 C8948 2703 8853 3113 8790 3554 L8286 2861 C8066 2609 7814 2451 7499 2451 L5514 2451 L5514 1160 C6020 931 6551 813 7046 813 Z M7530 3334 C7562 3334 7593 3365 7656 3365 L8601 4657 C8444 5917 7688 7177 6427 7177 C5167 7177 4411 5980 4254 4657 L5199 3365 C5230 3334 5293 3334 5325 3334 Z M5199 7681 C5608 7902 5986 8028 6427 8028 C6869 8028 7310 7902 7688 7713 L7688 7807 C7688 8028 7719 8185 7814 8343 L6427 9634 L5073 8280 C5167 8122 5199 7965 5199 7776 L5199 7681 Z M4537 8878 L5829 10170 L5230 10769 L4065 9036 C4222 9036 4380 9004 4537 8878 Z M8318 8878 C8475 8973 8633 9036 8790 9036 L7593 10769 L7026 10170 L8318 8878 Z M10460 9067 C11279 9067 11941 9760 11941 10580 L11941 11840 L7814 11840 C7908 11808 8003 11745 8034 11682 L9798 9067 Z M3088 9067 L4852 11651 C4915 11745 5041 11808 5167 11840 L5199 11840 C5325 11840 5419 11808 5482 11714 L6427 10769 L7404 11745 C7436 11777 7530 11840 7593 11871 L914 11871 L914 11840 L914 10580 C914 9760 1576 9067 2395 9067 Z M7043 1 C6380 1 5673 166 5010 498 C4898 477 4788 467 4680 467 C4300 467 3942 592 3624 813 C3308 1034 2962 1506 2962 2388 C2962 3144 3277 4405 3340 4625 C3466 5570 3781 6389 4285 6988 L4285 7744 C4285 8028 4065 8248 3781 8248 L2332 8248 C1072 8248 0 9288 0 10580 L0 12281 C0 12501 189 12690 410 12690 L12256 12690 C12508 12690 12697 12501 12697 12281 L12697 10580 C12760 9319 11689 8248 10429 8248 L8979 8248 C8696 8248 8475 8028 8475 7744 L8475 6957 C8979 6358 9294 5539 9389 4625 C9546 4121 9735 3050 9767 2420 C9767 1538 9420 845 8664 404 C8202 135 7640 1 7043 1 Z" fill="#113D34"></path></g><g transform="translate(-64172200 2175800) scale(25 25)"><path d="M410 1 C158 1 0 190 0 442 C0 662 221 883 410 883 L1513 883 C1765 883 1891 662 1891 442 C1954 190 1733 1 1513 1 Z" fill="#F6620B"></path></g><g transform="translate(-64212375 2210450) scale(25 25)"><path d="M1 1 L221 1" fill="#113D34"></path></g></svg>