<svg xmlns="http://www.w3.org/2000/svg" viewBox="-35830350 1912725 241050 293225"><g transform="translate(-35830350 1912725) scale(25 25)"><path d="M8665 694 C8822 726 8980 883 8980 1041 L8980 7562 L2836 7562 L2836 694 Z M2175 726 L2175 7625 L1828 7625 C1450 7625 1072 7720 788 7972 L788 1797 C788 1198 1261 726 1828 726 Z M8791 8287 C8696 8507 8665 8759 8633 8948 L1734 8948 C1545 8948 1387 9106 1387 9295 C1387 9515 1545 9673 1734 9673 L4821 9673 L4821 10335 L1860 10335 C1293 10335 757 9925 757 9295 C757 8728 1230 8287 1765 8287 Z M8665 9673 C8696 9894 8759 10146 8822 10335 L7594 10335 L7594 9673 Z M6900 9673 L6900 10693 L6428 10398 C6396 10366 6302 10366 6239 10366 C6144 10366 6113 10366 6018 10398 L5514 10713 L5514 9673 Z M1734 1 C1261 1 820 222 505 537 C190 820 1 1261 1 1734 L1 9295 C95 10272 946 10996 1860 10996 L4853 10996 L4853 11343 C4853 11469 4916 11595 5042 11658 C5099 11700 5155 11717 5209 11717 C5275 11717 5336 11692 5388 11658 L6239 11122 L7058 11658 C7121 11705 7176 11729 7231 11729 C7286 11729 7342 11705 7405 11658 C7531 11595 7594 11500 7594 11343 L7594 10996 L9295 10996 C9421 10996 9547 10933 9578 10839 C9641 10713 9641 10618 9578 10524 C9169 9767 9169 8885 9578 8098 C9610 8035 9610 8003 9610 7909 L9610 1041 C9610 474 9137 1 8602 1 Z" fill="#113D34"></path></g><g transform="translate(-35742925 1965500) scale(25 25)"><path d="M2364 694 C2773 694 3057 1009 3057 1356 C3057 1765 2742 2049 2364 2049 C2348 2050 2332 2051 2316 2051 C1989 2051 1702 1746 1702 1356 C1702 977 2017 694 2364 694 Z M2427 2742 C3246 2742 3939 3340 4097 4128 L757 4128 C883 3340 1576 2742 2427 2742 Z M2427 1 C1671 1 1041 599 1041 1356 C1041 1734 1167 2049 1387 2269 C568 2647 32 3498 32 4443 C1 4632 158 4790 379 4790 L4475 4790 C4664 4790 4821 4632 4821 4443 C4821 3498 4254 2647 3435 2269 C3687 2049 3813 1702 3813 1356 C3813 599 3183 1 2427 1 Z" fill="#F6620B"></path></g></svg>