<svg xmlns="http://www.w3.org/2000/svg" viewBox="5045775 1946400 296950 295150"><g transform="translate(5113500 1998600) scale(25 25)"><path d="M3309 2079 C3718 2079 4033 2394 4033 2804 C4033 3182 3718 3497 3309 3497 C2931 3497 2616 3150 2616 2804 C2616 2394 2931 2079 3309 2079 Z M3403 662 C4726 662 5798 1764 5798 3119 C5703 3655 5546 4222 5199 4663 C5010 4253 4726 3938 4348 3686 C4569 3466 4726 3119 4726 2741 C4726 2016 4096 1386 3340 1386 C2616 1386 1986 2016 1986 2741 C1986 3119 2143 3466 2364 3686 C1986 3907 1702 4253 1513 4663 C1072 4096 883 3434 977 2772 C1135 1670 2143 662 3403 662 Z M3309 4190 C3939 4190 4443 4600 4663 5167 C4254 5450 3781 5545 3309 5545 C2836 5545 2364 5387 1986 5167 C2143 4568 2679 4190 3309 4190 Z M3309 0 C1733 0 410 1229 253 2678 C1 4600 1450 6238 3309 6238 C5042 6238 6428 4820 6428 3119 C6428 1418 5042 0 3309 0 Z" fill="#F6620B"></path></g><g transform="translate(5045775 1946400) scale(25 25)"><path d="M6018 765 L6868 1426 C6963 1458 7026 1489 7152 1489 L8223 1332 L8664 2372 C8696 2435 8790 2529 8853 2561 L9893 2970 L9735 4073 C9735 4136 9735 4262 9798 4325 L10460 5207 L9798 6058 C9767 6152 9735 6215 9735 6341 L9893 7444 L8853 7853 C8790 7885 8696 7948 8664 8042 L8255 9051 L7120 8893 C7057 8893 6931 8893 6837 8988 L5986 9649 L5104 8988 C5041 8925 5010 8893 4915 8893 L4884 8893 L3781 9051 L3371 8042 C3340 7948 3277 7885 3182 7853 L2143 7444 L2300 6341 C2300 6278 2300 6152 2237 6058 L1576 5207 L2237 4325 C2269 4262 2300 4167 2300 4073 L2143 2970 L3182 2561 C3277 2529 3340 2435 3371 2372 L3812 1332 L4884 1489 C4947 1489 5073 1489 5167 1426 L6018 765 Z M2174 8168 L2804 8420 L3277 9586 C3308 9681 3434 9775 3529 9775 L2647 10720 L2426 9649 C2395 9523 2332 9429 2174 9366 L1134 9177 L2174 8168 Z M9861 8105 L10901 9145 L9893 9366 C9767 9429 9641 9492 9609 9649 L9389 10720 L8507 9712 C8601 9712 8727 9649 8759 9523 L9231 8389 L9861 8105 Z M6002 1 C5923 1 5844 24 5797 72 L4852 828 L3623 670 C3607 667 3590 665 3573 665 C3434 665 3305 775 3277 859 L2804 2025 L1639 2498 C1481 2561 1418 2687 1450 2844 L1607 4073 L851 5018 C788 5112 788 5333 851 5428 L1607 6373 L1450 7601 C1450 7696 1450 7759 1481 7853 L189 9145 C0 9334 126 9649 347 9744 L1765 10059 L2080 11539 C2099 11714 2250 11805 2407 11805 C2505 11805 2606 11770 2678 11697 C4410 9858 4587 9665 4601 9649 L4601 9649 L4789 9618 L5734 10374 C5829 10405 5860 10437 5955 10437 C6018 10437 6112 10405 6144 10374 L7089 9618 L7278 9649 L9200 11697 C9284 11770 9388 11805 9485 11805 C9640 11805 9779 11714 9798 11539 L10113 10059 L11531 9744 C11815 9681 11878 9334 11689 9145 L10523 7853 C10554 7759 10586 7696 10554 7601 L10397 6373 L11153 5428 C11216 5333 11216 5112 11153 5018 L10397 4073 L10554 2844 C10586 2687 10460 2529 10365 2498 L9200 2025 L8727 859 C8675 728 8578 662 8457 662 C8432 662 8407 665 8381 670 L7152 828 L6207 72 C6160 24 6081 1 6002 1 Z" fill="#113D34"></path></g></svg>