<svg xmlns="http://www.w3.org/2000/svg" viewBox="-35136450 1912725 292225 293025"><g transform="translate(-35136450 2050575) scale(25 25)"><path d="M3120 693 C3718 693 4191 1166 4191 1702 C4191 2269 3718 2741 3120 2741 C2521 2741 2049 2269 2049 1702 C2049 1166 2521 693 3120 693 Z M3120 3434 C4348 3434 5357 4348 5514 5514 L757 5514 C883 4348 1891 3434 3120 3434 Z M3120 0 C2175 0 1387 756 1387 1702 C1387 2174 1576 2615 1891 2930 L1954 2962 C851 3403 1 4506 1 5829 C1 6049 158 6207 379 6207 L5892 6207 C6081 6207 6239 6049 6239 5829 C6239 4537 5420 3434 4317 2962 L4348 2930 C4663 2615 4852 2174 4852 1702 C4852 756 4065 0 3120 0 Z" fill="#F6620B"></path></g><g transform="translate(-34964750 1947400) scale(25 25)"><path d="M1387 725 C1765 725 2049 1008 2049 1386 L2049 2773 C2049 2836 2049 2867 2017 2930 L1923 2836 C1860 2773 1773 2741 1686 2741 C1600 2741 1513 2773 1450 2836 C1324 2962 1324 3182 1450 3308 L1545 3403 C1482 3434 1450 3434 1387 3434 C977 3434 694 3119 694 2773 L694 1386 C694 977 1040 725 1387 725 Z M1387 0 C631 0 1 630 1 1386 L1 2773 C1 3497 631 4127 1387 4127 C1608 4127 1860 4064 2080 3938 L2175 4033 C2222 4080 2309 4104 2399 4104 C2490 4104 2584 4080 2647 4033 C2742 3907 2742 3655 2647 3560 L2553 3466 C2679 3277 2742 3025 2742 2773 L2742 1386 C2742 630 2112 0 1387 0 Z" fill="#113D34"></path></g><g transform="translate(-35016725 1912725) scale(25 25)"><path d="M3466 726 C4947 726 6175 1954 6175 3467 C6207 4979 4978 6207 3466 6207 C2930 6207 2426 6050 1985 5766 C1942 5745 1868 5708 1806 5708 C1778 5708 1753 5715 1733 5735 L946 5987 L1198 5199 C1261 5136 1198 5010 1166 4947 C914 4506 757 4002 757 3467 C757 1954 1954 726 3466 726 Z M3466 1 C1576 1 32 1545 32 3435 C32 4034 190 4569 473 5136 L32 6428 C0 6554 32 6712 95 6775 C166 6845 272 6881 374 6881 C408 6881 442 6877 473 6869 L1765 6428 C2269 6712 2867 6869 3466 6869 C5356 6869 6900 5325 6900 3435 C6869 1576 5356 1 3466 1 Z" fill="#113D34"></path></g></svg>