<svg xmlns="http://www.w3.org/2000/svg" viewBox="-62882850 2664925 315850 317425"><g transform="translate(-62882850 2664925) scale(25 25)"><path d="M11405 851 C11657 851 11814 1040 11814 1260 L11814 7719 L788 7719 L788 1260 C788 1040 977 851 1197 851 Z M11814 8506 L11814 8947 C11814 9199 11594 9389 11405 9389 L1197 9389 C977 9389 788 9199 788 8947 L788 8506 Z M7782 10208 L8349 11877 L4253 11877 L4789 10208 Z M1197 0 C536 0 0 567 0 1229 L0 8947 C0 9609 536 10176 1197 10176 L3938 10176 L3371 11814 L2867 11814 C2615 11814 2457 12003 2457 12255 C2457 12476 2678 12697 2867 12697 L9767 12697 C9987 12697 10176 12476 10176 12255 C10176 12003 9987 11814 9767 11814 L9231 11814 L8695 10176 L11405 10176 C12066 10176 12634 9609 12634 8947 L12634 1229 C12634 567 12066 0 11405 0 Z" fill="#113D34"></path></g><g transform="translate(-62756050 2702725) scale(25 25)"><path d="M1229 0 C977 0 819 189 819 441 L819 693 C347 851 0 1324 0 1891 C0 2552 536 2962 977 3277 C1292 3497 1639 3749 1639 3970 C1639 4222 1450 4411 1229 4411 C977 4411 819 4222 819 3970 C819 3749 630 3529 441 3529 C189 3529 0 3749 0 3970 C0 4537 347 4947 819 5167 L819 5419 C819 5671 1008 5860 1229 5860 C1450 5860 1639 5671 1639 5419 L1639 5167 C2111 5010 2489 4537 2489 3970 C2489 3308 1922 2899 1481 2584 C1166 2363 819 2111 819 1891 C819 1639 977 1450 1229 1450 C1450 1450 1639 1639 1639 1891 C1639 2111 1859 2332 2048 2332 C2237 2332 2489 2111 2489 1891 C2489 1324 2143 914 1639 693 L1639 441 C1639 189 1450 0 1229 0 Z" fill="#F6620B"></path></g></svg>