<svg xmlns="http://www.w3.org/2000/svg" viewBox="-59481900 2290800 319000 309550"><g transform="translate(-59481900 2290800) scale(25 25)"><path d="M6427 851 C6900 851 7247 1197 7247 1670 L7247 4159 L5608 4159 L5608 1670 C5608 1197 5955 851 6427 851 Z M11594 3308 C11846 3308 12004 3529 12004 3749 L12004 11185 L11941 11185 C11941 11437 11752 11594 11563 11594 L1355 11594 C1103 11594 914 11405 914 11185 L914 3749 C914 3529 1103 3308 1355 3308 L4821 3308 L4821 4568 C4821 4821 5010 5010 5199 5010 L7688 5010 C7940 5010 8129 4821 8129 4568 L8129 3308 Z M6396 0 C5482 0 4726 756 4726 1670 L4726 2489 L1261 2489 C599 2489 0 3056 0 3718 L0 11153 C0 11815 568 12382 1261 12382 L11468 12382 C12130 12382 12697 11815 12697 11153 L12697 3749 C12760 3025 12193 2489 11500 2489 L8034 2489 L8034 1670 C8034 756 7310 0 6396 0 Z" fill="#113D34"></path></g><g transform="translate(-59287350 2456200) scale(25 25)"><path d="M410 0 C189 0 0 221 0 441 C0 693 189 851 410 851 L2899 851 C3151 851 3308 630 3308 441 C3340 221 3151 0 2899 0 Z" fill="#113D34"></path></g><g transform="translate(-59287350 2497950) scale(25 25)"><path d="M410 0 C189 0 0 189 0 441 C0 662 189 851 410 851 L2899 851 C3151 851 3308 662 3308 441 C3340 189 3151 0 2899 0 Z" fill="#113D34"></path></g><g transform="translate(-59287350 2538900) scale(25 25)"><path d="M410 0 C189 0 0 221 0 441 C0 662 189 882 410 882 L2899 882 C3151 882 3308 662 3308 441 C3308 221 3151 0 2899 0 Z" fill="#113D34"></path></g><g transform="translate(-59439375 2425425) scale(25 25)"><path d="M2518 855 C2722 855 2928 925 3088 1074 C3277 1294 3340 1609 3277 1924 C3183 2176 2994 2428 2710 2460 C2626 2485 2546 2497 2469 2497 C2260 2497 2076 2409 1891 2271 C1702 2019 1607 1704 1702 1452 C1802 1070 2158 855 2518 855 Z M2521 3342 C3309 3342 3939 3846 4159 4539 L914 4539 C1103 3846 1733 3342 2521 3342 Z M2473 0 C1781 0 1110 436 914 1200 C757 1798 914 2334 1292 2775 C568 3216 1 4004 1 4949 C1 5169 190 5390 410 5390 L4537 5390 C4758 5390 4978 5169 4978 4949 C5010 4035 4506 3216 3718 2807 C3907 2618 4033 2397 4096 2113 C4254 1515 4096 916 3655 507 C3322 161 2894 0 2473 0 Z" fill="#F6620B"></path></g><g transform="translate(-59327525 2325450) scale(25 25)"><path d="M252 1 C95 1 0 127 0 284 C0 442 95 536 252 536 C410 536 536 442 536 284 C536 127 410 1 252 1 Z" fill="#113D34"></path></g></svg>