<svg xmlns="http://www.w3.org/2000/svg" viewBox="-60232500 2671225 268600 319000"><g transform="translate(-60222275 2843700) scale(25 25)"><path d="M1261 1 C1040 1 851 190 851 410 L851 694 C379 851 1 1324 1 1891 C1 2553 568 2931 1009 3246 C1324 3498 1671 3718 1671 3970 C1671 4191 1482 4348 1261 4348 C1072 4348 851 4159 851 3970 C851 3718 631 3529 442 3529 C253 3529 64 3718 64 3970 C64 4506 410 4947 883 5136 L883 5419 C883 5672 1072 5861 1324 5861 C1545 5861 1702 5672 1702 5419 L1702 5136 C2175 4978 2521 4506 2521 3970 C2521 3309 1986 2899 1545 2584 C1229 2364 883 2111 883 1891 C883 1639 1072 1450 1261 1450 C1513 1450 1671 1639 1671 1891 C1671 2111 1860 2269 2112 2269 C2332 2269 2490 2080 2490 1891 C2490 1324 2143 883 1671 694 L1671 410 C1671 190 1482 1 1261 1 Z" fill="#F6620B"></path></g><g transform="translate(-60232500 2671225) scale(25 25)"><path d="M5419 1701 C7561 1701 9357 3151 9830 5167 C9641 5041 9389 5009 9137 5009 C8601 5009 8191 5230 7908 5545 C7593 5198 7152 5009 6679 5009 C6175 5009 5734 5230 5419 5545 C5104 5198 4663 5009 4190 5009 C3686 5009 3245 5230 2993 5545 C2678 5198 2237 5009 1764 5009 C1512 5009 1292 5041 1040 5167 C1481 3151 3308 1701 5419 1701 Z M5356 0 C5104 0 4946 189 4946 441 L4946 851 C2206 1071 0 3371 0 6207 L0 6648 L32 6648 C32 6900 221 7089 473 7089 C693 7089 851 6900 851 6648 C851 6175 1197 5829 1701 5829 C2143 5829 2521 6175 2521 6648 C2521 6900 2710 7089 2899 7089 C3119 7089 3308 6900 3308 6648 C3308 6175 3655 5829 4127 5829 C4600 5829 4946 6175 4946 6648 L4946 11499 C4946 12161 5514 12728 6175 12728 C6837 12728 7404 12161 7404 11499 L7404 10680 C7404 10428 7215 10239 6994 10239 C6805 10239 6616 10428 6616 10680 L6616 11499 C6616 11720 6427 11940 6175 11940 C5955 11940 5797 11720 5797 11499 L5797 6648 C5797 6175 6144 5829 6616 5829 C7089 5829 7435 6175 7435 6648 C7435 6900 7624 7089 7876 7089 C8097 7089 8255 6900 8255 6648 C8255 6175 8633 5829 9105 5829 C9578 5829 9924 6175 9924 6648 C9924 6900 10113 7089 10302 7089 C10554 7089 10743 6900 10743 6648 L10743 6207 C10743 3371 8538 1071 5797 851 L5797 441 C5797 189 5577 0 5356 0 Z" fill="#113D34"></path></g></svg>