<svg xmlns="http://www.w3.org/2000/svg" viewBox="-6354300 2757075 292225 292225"><g transform="translate(-6354300 2757075) scale(25 25)"><path d="M10681 4159 C10870 4159 11027 4316 11027 4505 L11027 4915 C10901 4883 10775 4883 10681 4883 L9609 4883 L9609 4190 L10681 4190 L10681 4159 Z M2048 2773 L2048 6207 L662 6207 L662 3151 C694 2930 851 2773 1009 2773 Z M8885 693 L8885 4883 C8538 4915 8223 5104 8066 5419 L7751 6049 C7719 6175 7593 6238 7436 6238 L2710 6238 L2710 693 Z M10681 5513 C10870 5513 11027 5671 11027 5860 L11027 10649 C11027 10869 10870 11027 10681 11027 L1009 11027 C820 11027 662 10869 662 10649 L662 6868 L7436 6868 C7845 6868 8192 6648 8349 6333 L8664 5703 C8696 5576 8822 5513 8979 5513 Z M2395 0 C2206 0 2048 158 2048 347 L2048 2111 L1009 2111 C473 2111 0 2584 0 3151 L0 10649 C0 11216 473 11688 1009 11688 L10618 11688 C11185 11688 11657 11216 11657 10649 L11657 4505 C11689 3938 11216 3466 10681 3466 L9609 3466 L9609 347 C9609 158 9452 0 9263 0 Z" fill="#113D34"></path></g><g transform="translate(-6268450 2790150) scale(25 25)"><path d="M347 0 C158 0 1 158 1 347 C1 599 158 725 347 725 L4443 725 C4632 725 4789 567 4789 347 C4789 158 4632 0 4443 0 Z" fill="#F6620B"></path></g><g transform="translate(-6268450 2825600) scale(25 25)"><path d="M347 0 C158 0 1 158 1 347 C1 599 158 725 347 725 L4443 725 C4632 725 4789 567 4789 347 C4789 158 4632 0 4443 0 Z" fill="#113D34"></path></g><g transform="translate(-6268450 2860250) scale(25 25)"><path d="M347 0 C158 0 1 158 1 347 C1 536 158 693 347 693 L4443 693 C4632 693 4789 536 4789 347 C4789 158 4632 0 4443 0 Z" fill="#113D34"></path></g></svg>