<svg xmlns="http://www.w3.org/2000/svg" viewBox="-62496925 1931475 275675 316825"><g transform="translate(-62496925 1931475) scale(25 25)"><path d="M5514 1047 C6238 1519 7215 1834 8003 1834 C8538 1834 9294 1708 10208 1204 L10208 5237 C10177 8198 8349 10845 5514 11821 C2710 10845 820 8198 820 5237 L820 1204 C1513 1582 2269 1834 3025 1834 C3844 1834 4758 1551 5514 1047 Z M10654 1 C10567 1 10476 33 10397 102 C9389 826 8538 952 8034 952 C7310 952 6396 637 5766 165 C5703 102 5616 70 5526 70 C5435 70 5341 102 5262 165 C4632 637 3781 952 3025 952 C2237 952 1450 637 662 102 C582 40 495 13 411 13 C196 13 0 190 0 417 L0 5237 C0 8608 2080 11601 5388 12641 C5419 12641 5451 12672 5514 12672 C5545 12672 5577 12672 5640 12641 C8979 11538 11027 8513 11027 5237 L11027 417 C11027 157 10848 1 10654 1 Z" fill="#113D34"></path></g><g transform="translate(-62390600 2016700) scale(25 25)"><path d="M1261 1 C1009 1 820 190 820 410 L820 694 C347 851 1 1324 1 1891 C1 2553 536 2931 977 3246 C1292 3498 1639 3718 1639 3970 C1639 4191 1450 4411 1261 4411 C1040 4411 820 4191 820 3970 C820 3718 631 3561 410 3561 C221 3561 32 3781 32 3970 C32 4506 379 4947 851 5136 L851 5419 C851 5671 1040 5861 1292 5861 C1513 5861 1670 5671 1670 5419 L1670 5136 C2143 4978 2521 4506 2521 3970 C2521 3309 1954 2899 1513 2584 C1198 2363 851 2111 851 1891 C851 1670 1040 1481 1261 1481 C1481 1481 1639 1670 1639 1891 C1639 2111 1828 2300 2080 2300 C2300 2300 2458 2111 2458 1891 C2458 1324 2111 883 1639 694 L1639 410 C1639 190 1450 1 1261 1 Z" fill="#F6620B"></path></g></svg>