<svg xmlns="http://www.w3.org/2000/svg" viewBox="-32243500 2299850 300900 290275"><g transform="translate(-32243500 2299850) scale(25 25)"><path d="M7955 654 C8743 654 9531 946 10114 1529 C11311 2726 11311 4679 10114 5876 C9540 6450 8752 6766 7951 6766 C7565 6766 7175 6692 6806 6538 C6759 6526 6709 6519 6661 6519 C6577 6519 6499 6541 6459 6601 L5545 7514 L4726 7514 C4537 7514 4380 7672 4380 7861 L4380 8460 L3907 8428 C3813 8428 3687 8428 3655 8491 C3592 8554 3529 8649 3529 8743 L3466 9531 L2678 9594 C2584 9594 2521 9657 2426 9720 C2395 9814 2363 9877 2363 9972 L2426 10665 L2174 10949 L694 10949 L694 9499 L757 9499 L5041 5215 C5104 5120 5167 4963 5104 4837 C4695 3702 4947 2411 5797 1529 C6380 946 7168 654 7955 654 Z M7936 1 C6971 1 6002 363 5262 1088 C4285 2096 3939 3576 4380 4931 L126 9184 C32 9247 0 9342 0 9405 L0 11358 C32 11453 189 11610 379 11610 L2332 11610 C2395 11610 2521 11579 2552 11516 L3025 11043 C3119 10949 3151 10823 3119 10759 L3025 10255 L3750 10161 C3907 10161 4002 10003 4065 9846 L4128 9153 L4663 9216 C4726 9216 4852 9216 4915 9153 C5010 9058 5041 8995 5041 8901 L5041 8271 L5671 8271 C5734 8271 5829 8239 5892 8145 L6774 7325 C7153 7452 7548 7514 7941 7514 C8920 7514 9889 7131 10586 6412 C12035 4963 12035 2568 10586 1088 C9862 363 8901 1 7936 1 Z" fill="#113D34"></path></g><g transform="translate(-32048175 2342775) scale(25 25)"><path d="M1119 662 C1206 662 1292 694 1355 757 C1481 883 1481 1135 1355 1229 C1292 1292 1206 1324 1119 1324 C1032 1324 946 1292 883 1229 C725 1135 725 914 883 757 C946 694 1032 662 1119 662 Z M1115 1 C851 1 584 95 379 284 C1 694 1 1355 379 1733 C599 1938 867 2041 1127 2041 C1387 2041 1639 1938 1828 1733 C2238 1355 2238 694 1828 284 C1639 95 1379 1 1115 1 Z" fill="#F6620B"></path></g></svg>