<svg xmlns="http://www.w3.org/2000/svg" viewBox="-59092025 2296300 317425 316650"><g transform="translate(-58994350 2382950) scale(25 25)"><path d="M2457 819 C2930 819 3277 1166 3277 1639 C3277 2111 2930 2458 2457 2458 C1985 2458 1607 2111 1607 1639 C1607 1166 2016 819 2457 819 Z M2489 3245 C3277 3245 3907 3781 4096 4506 L882 4506 C1071 3812 1701 3245 2489 3245 Z M2489 0 C1575 0 819 725 819 1639 C819 2080 977 2458 1292 2773 C567 3214 0 4001 0 4947 C0 5199 189 5356 410 5356 L4537 5356 C4757 5356 4915 5136 4915 4947 C4915 4001 4411 3182 3655 2773 C3938 2458 4127 2080 4127 1639 C4127 725 3403 0 2489 0 Z" fill="#F6620B"></path></g><g transform="translate(-59092025 2296300) scale(25 25)"><path d="M1261 820 C1513 820 1702 1009 1702 1198 C1670 1450 1513 1639 1261 1639 C1040 1639 883 1450 883 1198 C883 977 1072 820 1261 820 Z M11468 820 C11720 820 11878 1009 11878 1198 C11878 1450 11657 1639 11468 1639 C11248 1639 11027 1450 11027 1198 C11027 1009 11248 820 11468 820 Z M6396 2616 C7341 2616 8286 2994 9042 3718 C10492 5136 10492 7499 9042 8917 C8318 9641 7373 10019 6396 10019 C4348 10019 2647 8381 2647 6333 C2647 4222 4348 2616 6396 2616 Z M1261 10965 C1513 10965 1702 11185 1702 11406 C1670 11658 1513 11847 1261 11847 C1040 11847 883 11658 883 11406 C883 11185 1072 10965 1261 10965 Z M11468 11028 C11720 11028 11878 11217 11878 11437 C11878 11689 11657 11878 11468 11878 C11248 11878 11027 11689 11027 11437 C11027 11217 11248 11028 11468 11028 Z M1229 1 C567 1 0 536 0 1198 C0 1891 567 2458 1229 2458 C1418 2458 1576 2427 1796 2364 L2836 3403 C2174 4222 1828 5231 1828 6302 C1828 7341 2174 8381 2899 9200 L1796 10303 C1639 10240 1418 10177 1229 10177 C567 10177 0 10744 0 11437 C0 12130 567 12666 1229 12666 C1891 12666 2489 12130 2489 11437 C2489 11248 2458 11091 2363 10901 L3466 9799 C4317 10460 5325 10838 6396 10838 C7467 10838 8475 10492 9263 9830 L10334 10901 C10240 11059 10208 11248 10208 11437 C10208 12099 10775 12666 11468 12666 C12130 12666 12697 12099 12697 11437 C12697 10775 12130 10177 11468 10177 C11279 10177 11122 10208 10933 10303 L9861 9232 C11279 7562 11279 5073 9861 3403 L10933 2364 C11122 2427 11279 2458 11468 2458 C12130 2458 12697 1923 12697 1198 C12697 536 12130 1 11468 1 C10807 1 10208 536 10208 1198 C10208 1419 10240 1576 10334 1765 L9263 2836 C8412 2127 7373 1773 6337 1773 C5301 1773 4269 2127 3434 2836 L2363 1765 C2458 1608 2489 1419 2489 1198 C2489 536 1954 1 1229 1 Z" fill="#113D34"></path></g></svg>