<svg xmlns="http://www.w3.org/2000/svg" viewBox="-33673825 2634975 291450 292625"><g transform="translate(-33673825 2634975) scale(25 25)"><path d="M5829 662 C6459 662 7089 1261 7562 2238 C7310 2364 7152 2553 7026 2773 C6648 2742 6238 2710 5860 2710 C5451 2710 5041 2742 4663 2773 C4569 2553 4348 2364 4159 2238 C4569 1261 5199 662 5829 662 Z M3403 2742 C3813 2742 4096 3057 4096 3403 C4096 3750 3781 4097 3403 4097 C3025 4097 2741 3750 2741 3403 C2741 3057 3025 2742 3403 2742 Z M7562 946 C9011 1482 10145 2616 10649 4097 C10334 3844 9988 3655 9609 3466 L9609 3403 C9609 2679 8979 2049 8223 2049 L8192 2049 C7971 1608 7782 1261 7562 946 Z M4096 978 L4096 978 C3844 1293 3624 1639 3466 2080 L3403 2080 C2678 2080 2048 2710 2048 3466 L2048 3498 C1639 3687 1292 3876 977 4128 C1481 2616 2615 1482 4096 978 Z M8223 2773 C8601 2773 8885 3088 8885 3466 C8885 3813 8601 4128 8223 4128 C7814 4128 7562 3813 7562 3466 C7562 3088 7877 2773 8223 2773 Z M9452 4160 C10429 4632 11027 5262 11027 5892 C10964 5924 10933 6050 10933 6176 C10492 5735 9925 5514 9294 5514 C9168 5514 9042 5514 8916 5546 C8916 5231 8885 4947 8885 4664 C9137 4569 9326 4349 9452 4160 Z M2237 4097 C2363 4349 2552 4506 2773 4632 C2741 5042 2710 5420 2710 5829 C2710 6207 2741 6617 2773 6995 C2552 7121 2363 7310 2237 7499 C1261 7026 662 6459 662 5829 C662 5199 1261 4569 2237 4097 Z M5829 3466 C6175 3466 6522 3466 6869 3498 C6932 4191 7467 4790 8192 4790 C8223 5105 8223 5420 8223 5735 C7436 6144 6869 6963 6869 7909 L6869 8192 C6522 8224 6175 8224 5829 8224 C5451 8224 5104 8224 4758 8192 C4726 7468 4159 6869 3466 6869 C3403 6522 3403 6207 3403 5861 C3403 5483 3403 5136 3466 4790 C4159 4758 4758 4191 4758 3498 C5104 3466 5482 3466 5829 3466 Z M3403 7562 C3813 7562 4096 7877 4096 8224 C4096 8570 3781 8885 3403 8885 C3025 8885 2741 8570 2741 8224 C2741 7877 3025 7562 3403 7562 Z M7940 10114 L8192 10429 L7593 10650 C7719 10492 7814 10303 7940 10114 Z M977 7594 C1261 7814 1639 8035 2048 8224 L2048 8255 C2048 9011 2678 9641 3403 9641 L3466 9641 C3655 10019 3844 10397 4096 10681 C2615 10145 1481 9011 977 7594 Z M9294 6207 C10240 6207 10964 6963 10964 7909 C10964 8192 10901 8413 10807 8665 C10744 8759 10177 9484 9294 10744 L8979 10303 C8018 9071 8059 9043 8038 9043 L8038 9043 C8037 9043 8036 9043 8034 9043 C7751 8728 7593 8350 7593 7909 C7593 6963 8349 6207 9294 6207 Z M7026 8854 C7152 9074 7278 9326 7467 9515 C7026 10429 6459 10965 5829 10965 C5199 10965 4569 10397 4096 9389 C4317 9295 4474 9074 4600 8854 C4978 8885 5388 8917 5766 8917 C6207 8917 6616 8885 7026 8854 Z M5829 1 C2584 1 0 2616 0 5861 C0 9043 2584 11689 5829 11689 C6806 11689 7751 11437 8570 11028 L8979 11563 C9042 11658 9145 11705 9247 11705 C9350 11705 9452 11658 9515 11563 C9515 11563 11279 9169 11405 8980 C11563 8665 11657 8287 11657 7940 C11657 7657 11626 7405 11531 7152 C11594 6774 11657 6333 11657 5892 C11657 2616 9042 1 5829 1 Z" fill="#113D34"></path></g><g transform="translate(-33467475 2806675) scale(25 25)"><path d="M1040 631 C1229 631 1387 789 1387 1009 C1387 1198 1198 1356 1040 1356 C820 1356 662 1198 662 1009 C662 789 820 631 1040 631 Z M1040 1 C473 1 1 474 1 1041 C1 1576 473 2049 1040 2049 C1576 2049 2049 1576 2049 1041 C2049 442 1576 1 1040 1 Z" fill="#F6620B"></path></g></svg>