<svg xmlns="http://www.w3.org/2000/svg" viewBox="2140225 2318650 307975 295600"><g transform="translate(2281200 2353025) scale(25 25)"><path d="M2080 662 C2490 662 2805 977 2805 1386 C2805 1764 2490 2079 2080 2079 C1702 2079 1387 1764 1387 1386 C1387 977 1702 662 2080 662 Z M2080 2773 C2836 2773 3466 3403 3466 4127 L662 4127 C662 3403 1293 2773 2080 2773 Z M2112 0 C1387 0 757 630 757 1386 C757 1733 915 2079 1135 2332 C505 2678 64 3340 64 4127 L64 4505 C1 4694 158 4852 347 4852 L3813 4852 C4002 4852 4160 4694 4160 4505 L4160 4127 C4160 3340 3750 2678 3120 2332 C3340 2079 3498 1733 3498 1386 C3498 630 2868 0 2112 0 Z" fill="#F6620B"></path></g><g transform="translate(2140225 2318650) scale(25 25)"><path d="M7712 682 C8607 682 9499 1029 10177 1690 C11468 2982 11531 5187 10177 6573 C9500 7266 8627 7590 7754 7590 C6839 7590 5923 7234 5230 6573 C3939 5282 3876 3045 5325 1659 C6001 997 6858 682 7712 682 Z M4128 6258 C4285 6573 4537 6857 4758 7078 C5010 7330 5293 7550 5577 7708 L5136 8180 C5073 8243 4978 8275 4888 8275 C4797 8275 4710 8243 4663 8180 L3655 7204 C3498 7078 3498 6857 3655 6731 L4128 6258 Z M3403 7960 L3876 8432 L3309 8968 L2836 8495 L3403 7960 Z M2363 8968 L2836 9440 L1292 10984 C1245 11047 1158 11079 1068 11079 C977 11079 883 11047 820 10984 C725 10858 725 10669 820 10512 L2363 8968 Z M7731 1 C6669 1 5604 403 4789 1218 C3592 2446 3309 4179 3844 5628 L3182 6290 C2867 6605 2804 7078 2993 7487 L410 10071 C0 10480 0 11142 410 11520 C580 11721 826 11823 1081 11823 C1345 11823 1619 11713 1828 11488 L4411 8905 C4565 8976 4727 9011 4887 9011 C5153 9011 5411 8913 5608 8716 L6270 8023 C6736 8205 7231 8296 7729 8296 C8781 8296 9847 7890 10681 7078 C12319 5439 12287 2793 10681 1218 C9873 410 8804 1 7731 1 Z" fill="#113D34"></path></g></svg>