<svg xmlns="http://www.w3.org/2000/svg" viewBox="-62516625 2297875 315875 317650"><g transform="translate(-62516625 2297875) scale(25 25)"><path d="M4632 3309 C5388 3309 6018 3939 6018 4695 C6018 4916 5924 5168 5829 5388 L5357 5861 C5136 5987 4916 6081 4632 6081 C3876 6081 3246 5451 3246 4695 C3246 3939 3876 3309 4632 3309 Z M4632 820 C6617 820 8287 2364 8444 4285 L8444 4412 C7877 4412 7310 4538 6806 4758 L6806 4695 C6806 3466 5829 2490 4601 2490 C3372 2490 2395 3466 2395 4695 C2395 5924 3372 6900 4601 6900 L4664 6900 C4443 7404 4317 7972 4317 8539 C4317 9421 4601 10240 5073 10902 L4601 11532 L1513 7026 C1009 6333 725 5546 725 4695 C788 2553 2521 820 4632 820 Z M8507 5231 C10334 5231 11815 6743 11815 8539 C11815 10366 10303 11847 8507 11847 C6680 11847 5199 10366 5199 8539 C5199 6743 6680 5231 8507 5231 Z M4664 1 C2080 1 1 2080 1 4695 C1 5703 316 6711 946 7499 L4317 12540 C4396 12650 4522 12705 4648 12705 C4774 12705 4900 12650 4979 12540 L5672 11532 C6396 12256 7404 12697 8507 12697 C10776 12697 12634 10838 12634 8539 C12634 6554 11217 4884 9326 4506 L9326 4222 C9074 1891 7121 1 4664 1 Z" fill="#113D34"></path></g><g transform="translate(-62335475 2438075) scale(25 25)"><path d="M1261 1 C1009 1 820 190 820 410 L820 694 C348 851 1 1324 1 1891 C1 2553 537 2931 978 3246 C1293 3498 1639 3718 1639 3970 C1671 4191 1482 4411 1261 4411 C1009 4411 820 4191 820 3970 C820 3718 631 3529 411 3529 C190 3529 1 3718 1 3970 C1 4506 348 4947 820 5136 L820 5420 C820 5672 1009 5829 1261 5829 C1482 5829 1639 5609 1639 5420 L1639 5136 C2112 4978 2458 4506 2458 3970 C2458 3309 1923 2899 1482 2584 C1167 2364 820 2112 820 1891 C820 1639 1009 1450 1261 1450 C1482 1450 1639 1639 1639 1891 C1639 2112 1860 2301 2049 2301 C2269 2301 2490 2112 2490 1891 C2490 1324 2112 883 1639 694 L1639 410 C1639 190 1450 1 1261 1 Z" fill="#F6620B"></path></g></svg>