<svg xmlns="http://www.w3.org/2000/svg" viewBox="-4178875 2405775 222925 293825"><g transform="translate(-4178875 2405775) scale(25 25)"><path d="M4474 694 C6553 694 8254 2395 8254 4475 C8191 5262 7971 6018 7530 6649 L4474 10776 L1418 6712 C945 6050 693 5294 693 4475 C693 2395 2363 694 4474 694 Z M4474 1 C2017 1 0 2017 0 4475 C0 5451 315 6365 882 7153 L4190 11595 C4253 11689 4348 11752 4474 11752 C4568 11752 4663 11721 4726 11595 L8097 7058 C8633 6333 8916 5420 8916 4506 C8916 1986 6900 1 4474 1 Z" fill="#113D34"></path></g><g transform="translate(-4093025 2491650) scale(25 25)"><path d="M1040 630 C1229 630 1386 788 1386 1008 C1386 1197 1197 1355 1040 1355 C819 1355 662 1197 662 1008 C662 788 819 630 1040 630 Z M1040 0 C473 0 0 473 0 1040 C0 1575 473 2048 1040 2048 C1575 2048 2048 1575 2048 1040 C2048 441 1575 0 1040 0 Z" fill="#113D34"></path></g><g transform="translate(-4145800 2439650) scale(25 25)"><path d="M3403 694 L3403 1166 C3403 1324 3497 1450 3655 1481 C3844 1576 4033 1670 4191 1828 C4268 1867 4358 1894 4445 1894 C4499 1894 4552 1884 4600 1859 L4978 1607 L5356 2206 L4947 2458 C4821 2521 4789 2647 4789 2805 C4821 3025 4821 3183 4789 3435 C4758 3592 4821 3687 4947 3781 L5356 4033 L4978 4600 L4600 4380 C4554 4345 4503 4332 4452 4332 C4363 4332 4270 4372 4191 4411 C4033 4537 3844 4632 3655 4726 C3529 4758 3403 4915 3403 5041 L3403 5514 L2741 5514 L2741 5041 C2741 4884 2678 4758 2521 4726 C2300 4663 2111 4569 1954 4411 C1874 4372 1782 4332 1701 4332 C1654 4332 1610 4345 1576 4380 L1166 4600 L820 4033 L1198 3781 C1324 3718 1418 3592 1355 3435 C1324 3183 1324 3025 1355 2805 C1418 2647 1324 2521 1198 2458 L820 2206 L1166 1607 L1576 1859 C1612 1884 1657 1894 1706 1894 C1786 1894 1876 1867 1954 1828 C2111 1702 2300 1576 2521 1481 C2615 1450 2741 1292 2741 1166 L2741 694 Z M2426 1 C2237 1 2080 158 2080 347 L2080 946 C1954 977 1828 1072 1765 1135 L1261 851 C1211 831 1158 821 1104 821 C990 821 874 870 788 977 L126 2175 C32 2332 63 2521 221 2647 L757 2899 L757 3120 L757 3309 L221 3592 C63 3655 0 3907 126 4065 L788 5231 C831 5337 960 5415 1088 5415 C1149 5415 1210 5397 1261 5357 L1765 5073 C1891 5167 1954 5199 2080 5262 L2080 5861 C2080 6050 2237 6207 2426 6207 L3812 6207 C4002 6207 4159 6050 4159 5861 L4159 5262 C4285 5231 4411 5167 4474 5073 L4978 5357 C5028 5376 5084 5387 5141 5387 C5263 5387 5386 5338 5451 5231 L6144 4065 C6207 3907 6175 3687 6018 3592 L5514 3309 L5514 3120 L5514 2899 L6018 2647 C6175 2521 6238 2332 6144 2175 L5451 977 C5408 870 5278 807 5149 807 C5089 807 5029 821 4978 851 L4474 1135 C4348 1072 4285 1009 4159 946 L4159 347 C4159 158 4002 1 3812 1 Z" fill="#F6620B"></path></g></svg>