<svg xmlns="http://www.w3.org/2000/svg" viewBox="-34421275 1912725 295375 292025"><g transform="translate(-34421275 1974375) scale(25 25)"><path d="M2158 725 C2245 725 2332 764 2395 843 L3371 1851 C3497 1946 3497 2198 3371 2324 L3151 2544 L1702 1095 L1922 843 C1985 764 2072 725 2158 725 Z M7345 5884 C7428 5884 7514 5915 7593 5978 L8570 6955 C8696 7081 8696 7301 8570 7428 L8349 7648 L6900 6199 L7120 5978 C7183 5915 7262 5884 7345 5884 Z M1166 1568 L2678 3048 C2521 3426 2584 3867 2867 4214 L5104 6451 C5301 6648 5559 6746 5826 6746 C5985 6746 6148 6711 6301 6640 L7782 8152 L7719 8215 C7522 8412 7264 8510 6997 8510 C6838 8510 6675 8475 6522 8404 C4348 7301 1891 4876 851 2796 C693 2418 788 1946 1103 1631 L1166 1568 Z M2190 0 C1922 0 1654 103 1449 307 L662 1095 C158 1599 0 2387 315 3017 C1386 5348 3907 7869 6270 9034 C6521 9154 6789 9214 7054 9214 C7488 9214 7910 9052 8223 8719 L9042 7900 C9452 7522 9452 6829 9042 6451 L8066 5474 C7876 5269 7609 5167 7341 5167 C7073 5167 6805 5269 6616 5474 L6144 5947 C6081 5994 5994 6018 5907 6018 C5821 6018 5734 5994 5671 5947 L3434 3678 C3308 3584 3308 3332 3434 3206 L3907 2733 C4285 2355 4285 1694 3907 1284 L2930 307 C2725 103 2458 0 2190 0 Z" fill="#113D34"></path></g><g transform="translate(-34288175 1912725) scale(25 25)"><path d="M5766 726 L5766 2458 L5388 2049 C5325 2002 5238 1978 5152 1978 C5065 1978 4978 2002 4915 2049 L1985 4979 C1922 5042 1891 5136 1891 5199 C1891 5294 1922 5420 1985 5451 L2395 5829 L662 5829 L662 4097 L1040 4506 C1103 4553 1198 4577 1288 4577 C1379 4577 1466 4553 1513 4506 L4443 1576 C4506 1513 4569 1419 4569 1356 C4569 1261 4537 1135 4443 1104 L4033 726 Z M3214 1 C3057 1 2931 96 2899 222 C2868 316 2868 474 2994 568 L3687 1261 L1261 3719 L536 2994 C490 2948 393 2919 295 2919 C259 2919 223 2922 190 2931 C64 2962 1 3120 1 3246 L1 6144 C1 6365 158 6522 347 6522 L3246 6522 C3403 6522 3529 6428 3561 6302 C3624 6207 3624 6050 3498 5955 L2773 5262 L5230 2805 L5924 3530 C5993 3576 6096 3605 6195 3605 C6232 3605 6268 3601 6302 3593 C6396 3561 6491 3404 6491 3277 L6491 379 C6459 159 6333 1 6144 1 Z" fill="#F6620B"></path></g></svg>