<svg xmlns="http://www.w3.org/2000/svg" viewBox="-63252250 1930850 319000 319025"><g transform="translate(-63252250 1930850) scale(25 25)"><path d="M7026 914 L7026 1954 C7026 2174 7120 2332 7341 2363 C7813 2489 8286 2647 8664 2899 C8733 2954 8820 2979 8905 2979 C9012 2979 9115 2938 9168 2868 L9924 2111 L10712 2899 L9956 3655 C9861 3781 9798 4002 9924 4159 C10208 4600 10397 5041 10460 5514 C10523 5703 10680 5829 10869 5829 L11941 5829 L11941 6932 L10869 6932 C10680 6932 10523 7058 10460 7247 C10365 7719 10208 8192 9924 8570 C9798 8727 9861 8979 9956 9105 L10712 9830 L9924 10618 L9168 9893 C9111 9817 8996 9775 8879 9775 C8803 9775 8726 9793 8664 9830 C8223 10114 7813 10303 7341 10397 C7120 10429 7026 10586 7026 10775 L7026 11846 L5923 11846 L5923 10775 C5923 10586 5797 10429 5577 10397 C5135 10271 4663 10114 4253 9830 C4191 9793 4119 9775 4047 9775 C3937 9775 3826 9817 3749 9893 L2993 10618 L2206 9830 L2962 9105 C3088 8979 3119 8727 2993 8570 C2710 8160 2521 7719 2458 7247 C2395 7058 2237 6932 2048 6932 L977 6932 L977 5829 L2048 5829 C2237 5829 2395 5703 2458 5514 C2552 5041 2710 4569 2993 4159 C3119 4002 3088 3781 2962 3655 L2206 2899 L2993 2111 L3749 2868 C3820 2938 3921 2979 4023 2979 C4103 2979 4184 2954 4253 2899 C4694 2647 5135 2426 5577 2363 C5797 2332 5923 2174 5923 1954 L5923 914 Z M5829 1 C5356 1 5009 347 5009 820 L5009 1576 C4631 1702 4285 1796 3970 2017 L3466 1481 C3308 1324 3103 1245 2891 1245 C2678 1245 2458 1324 2269 1481 L1481 2269 C1166 2584 1166 3120 1481 3466 L2017 3970 C1796 4285 1701 4632 1575 5010 L819 5010 C347 5010 0 5356 0 5829 L0 6932 C0 7404 347 7751 819 7751 L1575 7751 C1701 8097 1796 8475 2017 8759 L1481 9295 C1166 9610 1166 10114 1481 10460 L2269 11248 C2426 11405 2639 11484 2855 11484 C3072 11484 3292 11405 3466 11248 L3970 10744 C4285 10933 4631 11059 5009 11185 L5009 11909 C5009 12382 5356 12760 5829 12760 L6931 12760 C7404 12760 7750 12382 7750 11909 L7750 11185 C8097 11059 8475 10933 8790 10744 L9294 11248 C9452 11405 9656 11484 9865 11484 C10074 11484 10287 11405 10460 11248 L11247 10460 C11563 10145 11563 9641 11247 9295 L10743 8759 C10932 8444 11058 8097 11184 7751 L11941 7751 C12413 7751 12760 7404 12760 6932 L12760 5829 C12760 5356 12350 5010 11941 5010 L11184 5010 C11058 4632 10932 4285 10743 3970 L11247 3466 C11563 3151 11563 2647 11247 2269 L10460 1481 C10302 1324 10098 1245 9889 1245 C9680 1245 9467 1324 9294 1481 L8790 2017 C8475 1796 8097 1702 7750 1576 L7750 820 C7750 347 7404 1 6931 1 Z" fill="#113D34"></path></g><g transform="translate(-63160900 2021425) scale(25 25)"><path d="M2773 820 C3813 820 4695 1702 4695 2742 C4695 3813 3813 4695 2773 4695 C1702 4695 820 3813 820 2742 C820 1702 1702 820 2773 820 Z M2773 1 C1229 1 1 1198 1 2742 C1 4285 1229 5514 2773 5514 C4285 5514 5514 4285 5514 2742 C5514 1229 4254 1 2773 1 Z" fill="#F6620B"></path></g></svg>