<svg xmlns="http://www.w3.org/2000/svg" viewBox="2139425 2682250 298550 296150"><g transform="translate(2139425 2787000) scale(25 25)"><path d="M3214 630 C3813 630 4286 1103 4286 1670 C4286 2206 3813 2678 3214 2678 C2647 2678 2175 2206 2175 1670 C2175 1166 2647 630 3214 630 Z M3183 3403 C4538 3403 5609 4506 5609 5829 L5609 6931 L757 6931 L757 5829 C757 4506 1860 3403 3183 3403 Z M3183 0 C2238 0 1419 788 1419 1733 C1419 2206 1608 2678 1954 2993 C820 3466 1 4569 1 5892 L1 7309 C64 7498 222 7656 442 7656 L6018 7656 C6207 7656 6365 7498 6365 7309 L6365 5892 C6365 4569 5546 3466 4412 2993 C4758 2647 4947 2206 4947 1733 C4947 788 4160 0 3183 0 Z" fill="#113D34"></path></g><g transform="translate(2280425 2682250) scale(25 25)"><path d="M3182 662 C4506 662 5608 1764 5608 3088 C5577 4442 4474 5545 3151 5545 C2710 5545 2300 5419 1954 5230 C1891 5198 1796 5198 1733 5198 L946 5388 L1166 4663 C1198 4568 1166 4474 1135 4411 C883 4001 725 3560 725 3088 C725 1764 1828 662 3182 662 Z M3151 0 C1418 0 32 1418 32 3088 C32 3655 158 4159 410 4631 L32 5766 C0 5892 32 6018 95 6144 C189 6207 315 6238 473 6238 L1765 5923 C2206 6175 2678 6238 3182 6238 C4915 6238 6301 4820 6301 3151 C6238 1418 4884 0 3151 0 Z" fill="#F6620B"></path></g><g transform="translate(2349725 2725550) scale(25 25)"><path d="M379 1 C158 1 1 158 1 348 C1 537 158 694 379 694 C568 694 725 537 725 348 C725 158 568 1 379 1 Z" fill="#113D34"></path></g><g transform="translate(2349725 2751550) scale(25 25)"><path d="M379 1 C158 1 1 158 1 379 L1 1733 C1 1954 158 2111 379 2111 C568 2111 725 1954 725 1733 L725 379 C725 158 568 1 379 1 Z" fill="#113D34"></path></g></svg>