<svg xmlns="http://www.w3.org/2000/svg" viewBox="-62148000 1930075 309550 319800"><g transform="translate(-62148000 1930075) scale(25 25)"><path d="M11594 1670 L11594 2899 C11594 3970 10775 4883 9735 4946 C9861 4631 9924 4190 9924 3781 L9924 1670 Z M2489 1733 L2489 3812 C2489 4253 2584 4631 2678 5041 C1638 4915 851 4033 851 2993 L851 1733 Z M9105 882 L9105 3812 C9105 5419 7813 6679 6207 6679 C4600 6679 3308 5387 3308 3812 L3308 882 Z M6648 7467 L6648 8601 L5797 8601 L5797 7467 C5923 7467 6081 7498 6207 7498 C6301 7498 6459 7498 6648 7467 Z M7057 9389 C7309 9389 7498 9609 7498 9830 L7498 10271 L5009 10271 L5009 9830 L4978 9830 C4978 9609 5167 9389 5419 9389 Z M8727 11090 C8948 11090 9105 11279 9105 11499 L9105 11909 L3308 11909 L3308 11499 C3308 11247 3529 11090 3718 11090 Z M2899 0 C2647 0 2489 189 2489 410 L2489 819 L410 819 C221 882 0 1040 0 1292 L0 2930 C0 4568 1323 5860 2930 5860 L3119 5860 C3560 6522 4222 7026 4978 7309 L4978 8695 C4505 8853 4159 9326 4159 9861 L4159 10302 L3749 10302 C3088 10302 2521 10869 2521 11531 L2521 12350 C2521 12571 2741 12791 2930 12791 L9546 12791 C9767 12791 9924 12571 9924 12350 L9924 11499 C9924 10806 9389 10271 8727 10271 L8286 10271 L8286 9830 C8286 9294 7939 8853 7467 8664 L7467 7278 C8191 6994 8885 6490 9294 5828 L9515 5828 C11121 5828 12382 4505 12382 2899 L12382 1260 C12382 1008 12193 819 11972 819 L9893 819 L9893 410 C9893 189 9704 0 9515 0 Z" fill="#113D34"></path></g><g transform="translate(-62044825 1972200) scale(25 25)"><path d="M2111 1308 L2237 1560 C2300 1686 2395 1781 2552 1812 L2867 1844 L2615 2033 C2552 2127 2458 2285 2521 2411 L2552 2726 L2269 2568 C2206 2505 2143 2505 2080 2505 C1985 2505 1954 2505 1891 2568 L1607 2726 L1639 2411 C1670 2285 1607 2127 1513 2033 L1292 1844 L1670 1812 C1796 1812 1922 1686 1985 1560 L2111 1308 Z M2143 1 C1993 1 1843 79 1765 237 L1355 1056 L473 1182 C95 1214 0 1655 221 1875 L851 2505 L693 3419 C668 3693 880 3908 1110 3908 C1171 3908 1233 3893 1292 3860 L2111 3419 L2930 3860 C2992 3891 3056 3905 3119 3905 C3376 3905 3605 3672 3529 3419 L3371 2505 L4033 1875 C4285 1655 4159 1214 3812 1182 L2899 1056 L2521 237 C2442 79 2292 1 2143 1 Z" fill="#F6620B"></path></g></svg>