<svg xmlns="http://www.w3.org/2000/svg" viewBox="-63669700 2646600 324525 317625"><g transform="translate(-63669700 2646600) scale(25 25)"><path d="M6947 867 C7058 867 7168 906 7247 985 C7404 1143 7404 1426 7247 1584 L5199 3632 C5120 3710 5010 3750 4900 3750 C4789 3750 4679 3710 4600 3632 C4443 3474 4443 3190 4600 3033 L6648 985 C6727 906 6837 867 6947 867 Z M7530 2434 L10429 5364 L8979 6814 L6050 3884 L7530 2434 Z M6648 5679 L7247 6246 L5482 8042 L4884 7444 L6648 5679 Z M11642 5561 C11752 5561 11862 5601 11941 5679 C12098 5837 12098 6089 11941 6246 L9893 8294 C9814 8373 9704 8412 9594 8412 C9484 8412 9373 8373 9295 8294 C9137 8137 9137 7885 9295 7727 L11342 5679 C11421 5601 11531 5561 11642 5561 Z M4065 7664 L5230 8861 L2426 11665 C2269 11823 2064 11902 1855 11902 C1647 11902 1434 11823 1261 11665 C914 11350 914 10783 1261 10468 L4065 7664 Z M6971 1 C6648 1 6317 119 6050 355 L4002 2403 C3529 2875 3529 3663 4002 4167 C4258 4424 4564 4544 4874 4544 C5058 4544 5243 4501 5419 4419 L6081 5018 L4285 6814 C4206 6735 4096 6695 3990 6695 C3884 6695 3781 6735 3718 6814 L631 9869 C1 10500 1 11571 631 12201 C965 12536 1405 12701 1840 12701 C2264 12701 2682 12544 2994 12232 L6050 9176 C6207 9019 6207 8735 6050 8578 L7845 6814 L8475 7444 C8255 7853 8318 8452 8696 8861 C8932 9098 9247 9216 9566 9216 C9885 9216 10208 9098 10460 8861 L12508 6814 C12981 6341 12981 5553 12508 5018 C12274 4784 11979 4670 11669 4670 C11479 4670 11282 4713 11090 4797 L8066 1773 C8255 1332 8223 733 7845 355 C7609 119 7294 1 6971 1 Z" fill="#113D34"></path></g><g transform="translate(-63532650 2901200) scale(25 25)"><path d="M5356 851 C5577 851 5734 1040 5734 1261 L5734 1702 L1607 1702 L1607 1261 C1607 1040 1796 851 2048 851 Z M2048 1 C1355 1 788 568 788 1261 L788 1702 L378 1702 C158 1702 0 1891 0 2111 C0 2332 189 2521 378 2521 L6995 2521 C7247 2521 7436 2332 7436 2111 C7404 1891 7184 1702 6963 1702 L6553 1702 L6553 1261 C6553 599 6018 1 5356 1 Z" fill="#F6620B"></path></g></svg>