<svg xmlns="http://www.w3.org/2000/svg" viewBox="-4931075 2765725 293025 291450"><g transform="translate(-4810550 2884650) scale(25 25)"><path d="M1008 663 C1229 663 1386 820 1386 1041 C1386 1230 1229 1387 1008 1387 C819 1387 662 1230 662 1041 C662 820 819 663 1008 663 Z M1008 1 C473 1 0 473 0 1041 C0 1576 473 2049 1040 2049 C1575 2049 2048 1576 2048 1041 C2048 473 1607 1 1008 1 Z" fill="#F6620B"></path></g><g transform="translate(-4931075 2765725) scale(25 25)"><path d="M3214 1387 L4475 3844 C4223 4002 4034 4222 3876 4443 L1356 3214 C1828 2427 2458 1796 3214 1387 Z M5829 4128 C6775 4128 7531 4884 7531 5829 C7562 6743 6775 7530 5829 7530 C4884 7530 4160 6774 4160 5829 C4160 4884 4884 4128 5829 4128 Z M5798 662 C8665 662 10996 2994 10996 5861 C10996 6585 10839 7247 10618 7845 L8129 6585 C8192 6333 8255 6050 8255 5829 C8255 4474 7184 3435 5829 3435 C5577 3435 5325 3466 5105 3529 L3845 1072 C4412 820 5105 662 5798 662 Z M7814 7152 L10303 8412 C9862 9200 9232 9830 8444 10271 L7216 7751 C7468 7593 7657 7404 7814 7152 Z M1072 3844 L3593 5073 C3530 5325 3498 5546 3498 5829 C3498 7152 4538 8223 5892 8223 C6176 8223 6396 8192 6648 8097 L7846 10618 C7216 10901 6554 11027 5892 11027 C2994 10996 694 8665 694 5829 C694 5104 852 4443 1072 3844 Z M5798 1 C4254 1 2773 599 1702 1702 C600 2805 1 4254 1 5798 C1 8980 2647 11657 5892 11657 C9106 11657 11721 9043 11721 5829 C11658 2647 9043 1 5798 1 Z" fill="#113D34"></path></g></svg>