<svg xmlns="http://www.w3.org/2000/svg" viewBox="-35495600 2631825 292225 291450"><g transform="translate(-35495600 2735025) scale(25 25)"><path d="M4443 662 C4663 662 4821 819 4821 1040 L4821 1386 L662 1386 L662 1040 C725 819 820 662 1040 662 Z M4821 2048 L4821 5482 L662 5482 L662 2048 Z M4852 6143 L4852 6490 C4821 6711 4663 6868 4506 6868 L1072 6868 C883 6868 725 6711 725 6490 L725 6143 Z M1040 0 C473 0 0 473 0 1040 L0 6490 C0 7057 473 7530 1040 7530 L4443 7530 C5010 7530 5482 7057 5482 6490 L5482 1040 C5482 473 5010 0 4443 0 Z" fill="#113D34"></path></g><g transform="translate(-35339650 2631825) scale(25 25)"><path d="M4411 662 C4600 662 4758 820 4758 1009 L4758 1387 L631 1387 L631 1009 C631 820 788 662 977 662 Z M4758 2049 L4758 5483 L631 5483 L631 2049 Z M4789 6144 L4789 6491 C4758 6680 4600 6837 4443 6837 L1009 6837 C820 6837 662 6680 662 6491 L662 6144 Z M1009 1 C473 1 0 473 0 1009 L0 6491 C0 7058 473 7531 1009 7531 L4443 7531 C4978 7531 5451 7058 5451 6491 L5451 1009 C5451 442 4978 1 4443 1 Z" fill="#F6620B"></path></g><g transform="translate(-35341225 2836625) scale(25 25)"><path d="M3056 0 C2836 0 2678 158 2678 347 L2678 1008 C2678 1575 2206 2048 1670 2048 L1103 2048 L1229 1922 C1418 1859 1418 1638 1261 1481 C1213 1418 1127 1386 1036 1386 C946 1386 851 1418 788 1481 L126 2142 C0 2268 0 2521 126 2615 L788 3308 C851 3355 946 3379 1036 3379 C1127 3379 1213 3355 1261 3308 C1387 3182 1387 2930 1261 2836 L1166 2710 L1702 2710 C2647 2710 3403 1953 3403 1008 L3403 347 C3403 158 3245 0 3056 0 Z" fill="#113D34"></path></g><g transform="translate(-35442050 2632625) scale(25 25)"><path d="M2348 0 C2261 0 2175 32 2112 95 C1986 189 1986 441 2112 567 L2238 662 L1671 662 C725 662 1 1418 1 2363 L1 3025 C1 3245 158 3403 347 3403 C536 3403 694 3245 694 3025 L694 2363 C694 1828 1166 1355 1734 1355 L2269 1355 L2143 1450 C1954 1544 1954 1765 2112 1891 C2175 1954 2261 1985 2348 1985 C2435 1985 2521 1954 2584 1891 L3246 1229 C3372 1103 3372 883 3246 756 L2584 95 C2521 32 2435 0 2348 0 Z" fill="#113D34"></path></g></svg>