<svg xmlns="http://www.w3.org/2000/svg" viewBox="-61784125 1931250 316650 317050"><g transform="translate(-61688025 1931250) scale(25 25)"><path d="M2497 845 C2709 845 2922 922 3088 1087 C3277 1276 3340 1591 3277 1906 C3182 2190 2993 2410 2709 2442 C2625 2467 2545 2479 2469 2479 C2259 2479 2075 2391 1890 2253 C1701 2032 1607 1717 1701 1434 C1800 1059 2145 845 2497 845 Z M2520 3324 C3277 3324 3907 3828 4096 4553 L914 4553 C1103 3828 1733 3324 2520 3324 Z M2510 1 C1805 1 1113 455 914 1213 C756 1780 914 2347 1292 2789 C567 3198 0 3986 0 4931 C0 5183 189 5372 441 5372 L4568 5372 C4820 5372 4978 5183 4978 4931 C4978 3986 4442 3198 3718 2789 C3907 2568 4033 2347 4096 2064 C4253 1528 4096 930 3655 489 C3331 153 2918 1 2510 1 Z" fill="#F6620B"></path></g><g transform="translate(-61784125 2113325) scale(25 25)"><path d="M2482 848 C2688 848 2895 921 3056 1082 C3245 1271 3340 1586 3245 1901 C3182 2185 2993 2437 2710 2468 C2633 2483 2559 2491 2487 2491 C2261 2491 2058 2415 1891 2248 C1670 2059 1607 1743 1670 1428 C1770 1068 2124 848 2482 848 Z M2458 3319 C3245 3319 3907 3854 4096 4547 L883 4547 C1040 3886 1733 3319 2458 3319 Z M2509 1 C1812 1 1143 437 946 1208 C788 1806 946 2342 1324 2783 C568 3224 32 4012 32 4957 C0 5209 189 5398 410 5398 L4569 5398 C4789 5398 4978 5209 4978 4988 C4978 4043 4474 3256 3718 2815 C3939 2626 4033 2374 4128 2090 C4285 1523 4128 924 3687 483 C3346 155 2923 1 2509 1 Z" fill="#113D34"></path></g><g transform="translate(-61591150 2113325) scale(25 25)"><path d="M2482 848 C2688 848 2895 921 3056 1082 C3245 1271 3340 1586 3245 1901 C3182 2185 2993 2437 2710 2468 C2633 2483 2559 2491 2486 2491 C2261 2491 2057 2415 1890 2248 C1670 2059 1607 1743 1670 1428 C1770 1068 2124 848 2482 848 Z M2521 3382 C3308 3382 3938 3886 4127 4579 L882 4579 C1103 3886 1733 3382 2521 3382 Z M2467 1 C1761 1 1080 437 882 1208 C725 1806 882 2342 1292 2783 C536 3224 0 4012 0 4957 C0 5178 189 5367 378 5367 L4505 5367 C4757 5367 4946 5178 4946 4957 C4946 4075 4442 3256 3686 2815 C3875 2626 4001 2374 4096 2090 C4253 1523 4096 924 3655 483 C3314 155 2887 1 2467 1 Z" fill="#113D34"></path></g><g transform="translate(-61677800 2072225) scale(25 25)"><path d="M2096 1 C1985 1 1875 48 1796 142 L158 1781 C1 1938 1 2222 158 2379 C237 2458 339 2497 442 2497 C544 2497 646 2458 725 2379 L2111 993 L3498 2379 C3576 2458 3687 2497 3797 2497 C3907 2497 4017 2458 4096 2379 C4254 2222 4254 1938 4096 1781 L2395 142 C2316 48 2206 1 2096 1 Z" fill="#113D34"></path></g></svg>