<svg xmlns="http://www.w3.org/2000/svg" viewBox="694926 1148799 239156 239138"><g transform="translate(775834 1175555) scale(18.881754300944998 18.88184758439458)"><path d="M2048 1 C1859 1 1638 190 1638 379 L1638 851 C725 1040 0 1891 0 2868 C0 3970 977 4632 1827 5262 C2552 5829 3308 6333 3308 6995 C3308 7656 2772 8255 2079 8255 C1418 8255 851 7688 851 6995 C851 6774 662 6617 441 6617 C189 6617 32 6806 32 6995 C32 7971 756 8854 1701 9011 L1701 9484 C1701 9704 1890 9893 2079 9893 C2268 9893 2489 9704 2489 9484 L2489 9011 C3434 8791 4127 7971 4127 6995 C4127 5892 3151 5231 2331 4600 C1575 4033 819 3529 819 2868 C788 2143 1386 1607 2048 1607 C2709 1607 3277 2143 3277 2868 C3277 3088 3466 3246 3686 3246 C3938 3246 4096 3057 4096 2868 C4096 1891 3371 1009 2426 851 L2426 379 C2426 158 2237 1 2048 1 Z" fill="#F6620B"></path></g><g transform="translate(694926 1148799) scale(18.881730617400915 18.88180023687327)"><path d="M6333 819 C9357 819 11846 3308 11846 6332 C11846 9357 9357 11846 6333 11846 C3308 11846 819 9357 819 6332 C819 3308 3308 819 6333 819 Z M6333 0 C2836 0 0 2835 0 6332 C0 9830 2836 12665 6333 12665 C9830 12665 12665 9830 12665 6332 C12665 2835 9830 0 6333 0 Z" fill="#113D34"></path></g></svg>