<svg xmlns="http://www.w3.org/2000/svg" viewBox="-59100700 1911950 315875 319000"><g transform="translate(-59015625 1993850) scale(25 25)"><path d="M189 1 C63 1 0 64 0 190 L0 631 C0 757 95 820 189 820 L630 820 C725 820 820 757 820 631 L820 190 C820 64 725 1 630 1 Z" fill="#113D34"></path></g><g transform="translate(-58954200 1993850) scale(25 25)"><path d="M221 1 C95 1 1 64 1 190 L1 631 C1 757 127 820 221 820 L631 820 C757 820 851 757 851 631 L851 190 C851 64 757 1 631 1 Z" fill="#113D34"></path></g><g transform="translate(-58891975 1993850) scale(25 25)"><path d="M190 1 C95 1 1 64 1 190 L1 631 C1 757 127 820 190 820 L631 820 C757 820 851 757 851 631 L851 190 C851 64 757 1 631 1 Z" fill="#113D34"></path></g><g transform="translate(-59015625 2034825) scale(25 25)"><path d="M189 0 C63 0 0 95 0 221 L0 630 C0 756 95 851 189 851 L630 851 C725 851 820 756 820 630 L820 221 C820 95 725 0 630 0 Z" fill="#113D34"></path></g><g transform="translate(-58954200 2034825) scale(25 25)"><path d="M221 0 C95 0 1 95 1 221 L1 630 C1 756 127 851 221 851 L631 851 C757 851 851 756 851 630 L851 221 C851 95 757 0 631 0 Z" fill="#F6620B"></path></g><g transform="translate(-58891975 2034825) scale(25 25)"><path d="M190 0 C95 0 1 95 1 221 L1 630 C1 756 127 851 190 851 L631 851 C757 851 851 756 851 630 L851 221 C851 95 757 0 631 0 Z" fill="#113D34"></path></g><g transform="translate(-59015625 2076550) scale(25 25)"><path d="M189 1 C63 1 0 64 0 190 L0 631 C0 757 95 820 189 820 L630 820 C725 820 820 757 820 631 L820 190 C820 64 725 1 630 1 Z" fill="#113D34"></path></g><g transform="translate(-58954200 2076550) scale(25 25)"><path d="M221 1 C95 1 1 64 1 190 L1 631 C1 757 127 820 221 820 L631 820 C757 820 851 757 851 631 L851 190 C851 64 757 1 631 1 Z" fill="#113D34"></path></g><g transform="translate(-58891975 2076550) scale(25 25)"><path d="M190 1 C95 1 1 64 1 190 L1 631 C1 757 127 820 190 820 L631 820 C757 820 851 757 851 631 L851 190 C851 64 757 1 631 1 Z" fill="#113D34"></path></g><g transform="translate(-59100700 1911950) scale(25 25)"><path d="M9169 788 L9169 1607 L3403 1607 L3403 788 Z M1734 9074 L1734 11815 L788 11815 L788 9074 Z M5861 9074 L5861 11815 L4223 11815 L4223 9074 Z M8350 9074 L8350 11815 L6711 11815 L6711 9074 Z M10051 2458 L10051 11815 L9169 11815 L9169 8664 C9169 8444 8980 8223 8791 8223 L3813 8223 C3592 8223 3435 8444 3435 8664 L3435 11815 L2616 11815 L2616 2458 Z M11815 9074 L11815 11815 L10839 11815 L10839 9074 Z M2994 0 C2773 0 2616 190 2616 410 L2616 1670 L2206 1670 C1986 1670 1765 1859 1765 2080 L1765 8318 L410 8318 C158 8318 1 8507 1 8727 L1 12319 C1 12571 190 12760 410 12760 L12256 12760 C12477 12760 12634 12571 12634 12319 L12634 8664 C12634 8444 12445 8223 12225 8223 L10839 8223 L10839 2017 C10839 1765 10650 1576 10429 1576 L10019 1576 L10019 410 C10019 158 9799 0 9610 0 Z" fill="#113D34"></path></g></svg>