<svg xmlns="http://www.w3.org/2000/svg" viewBox="1049375 2318350 298525 295400"><g transform="translate(1101350 2492325) scale(25 25)"><path d="M2473 0 C2377 0 2273 32 2206 99 L1072 1233 L599 761 C536 713 449 690 363 690 C276 690 189 713 126 761 C0 887 0 1139 126 1233 L820 1958 C914 2021 977 2021 1072 2021 C1135 2021 1261 1989 1292 1926 L2678 540 C2804 414 2804 162 2678 68 C2634 24 2557 0 2473 0 Z" fill="#113D34"></path></g><g transform="translate(1101350 2440525) scale(25 25)"><path d="M2469 1 C2374 1 2272 40 2206 123 L1072 1257 L599 785 C536 738 449 714 363 714 C276 714 189 738 126 785 C0 911 0 1163 126 1257 L820 1982 C914 2045 977 2045 1072 2045 C1135 2045 1261 2014 1292 1951 L2678 564 C2804 438 2804 186 2678 92 C2634 32 2554 1 2469 1 Z" fill="#F6620B"></path></g><g transform="translate(1101350 2388550) scale(25 25)"><path d="M2469 1 C2374 1 2272 40 2206 123 L1072 1257 L599 785 C536 722 449 690 363 690 C276 690 189 722 126 785 C0 911 0 1131 126 1257 L820 1982 C914 2045 977 2045 1072 2045 C1135 2045 1261 2013 1292 1919 L2678 532 C2804 438 2804 186 2678 91 C2634 32 2554 1 2469 1 Z" fill="#113D34"></path></g><g transform="translate(1049375 2318350) scale(25 25)"><path d="M6963 1198 L7876 2143 L6963 2143 L6963 1198 Z M10286 3498 C10373 3498 10460 3530 10523 3593 L10995 4065 C11184 4223 11184 4475 11027 4569 L10806 4821 L9798 3845 L10050 3593 C10113 3530 10200 3498 10286 3498 Z M9294 4349 L10271 5325 L7845 7783 L6868 6774 L9294 4349 Z M6585 7499 L7183 8098 L6427 8255 L6585 7499 Z M6994 10398 L6994 10776 C6994 10870 7057 10996 7089 11122 L1071 11122 C882 11122 693 10965 693 10776 L693 10398 Z M6270 663 L6270 2458 C6270 2647 6427 2805 6616 2805 L8349 2805 L8349 4286 L6112 6554 C6081 6585 6018 6680 6018 6711 L5608 8633 C5545 8759 5608 8885 5671 8948 C5742 9019 5813 9055 5897 9055 C5925 9055 5955 9051 5986 9043 L7908 8602 C8002 8602 8034 8570 8065 8507 L8349 8255 L8349 10807 L8380 10807 C8380 10996 8223 11154 8034 11154 C7845 11154 7687 10996 7687 10807 L7687 10083 C7687 9893 7530 9736 7309 9736 L1386 9736 L1386 663 Z M1071 1 C882 1 693 158 693 379 L693 9736 L347 9736 C158 9736 0 9893 0 10083 L0 10807 C0 11406 473 11815 1008 11815 L8002 11815 C8569 11815 9011 11343 9011 10807 L9011 7562 L11499 5105 C11940 4664 11940 4034 11531 3593 L11058 3120 C10869 2931 10609 2836 10346 2836 C10082 2836 9814 2931 9609 3120 L9105 3624 L9105 2490 C9105 2427 9074 2332 8979 2269 L6900 127 C6805 64 6742 1 6648 1 Z" fill="#113D34"></path></g></svg>