<svg xmlns="http://www.w3.org/2000/svg" viewBox="-61354075 1940500 314275 312325"><g transform="translate(-61354075 1940500) scale(25 25)"><path d="M6270 1001 L7687 2419 C7750 2482 7876 2513 7971 2513 L9956 2513 L9956 4529 C9956 4655 10019 4718 10082 4813 L11499 6231 L10082 7648 C10019 7711 9956 7837 9956 7900 L9956 9917 L7971 9917 C7845 9917 7750 9948 7687 10043 L6270 11460 L4852 10043 C4757 9948 4631 9917 4568 9917 L2552 9917 L2552 7900 C2552 7806 2521 7711 2426 7648 L1008 6231 L2426 4813 C2521 4718 2552 4624 2552 4529 L2552 2513 L4568 2513 C4694 2513 4757 2482 4852 2419 L6270 1001 Z M6285 1 C6175 1 6065 40 5986 119 L4411 1694 L2174 1694 C1922 1694 1733 1883 1733 2135 L1733 4372 L158 5947 C0 6105 0 6388 158 6546 L1733 8121 L1733 10358 C1733 10578 1922 10736 2174 10736 L4411 10736 L5986 12374 C6065 12453 6175 12492 6285 12492 C6396 12492 6506 12453 6585 12374 L8160 10736 L10397 10736 C10617 10736 10775 10547 10775 10358 L10775 8121 L12413 6546 C12571 6388 12571 6105 12413 5947 L10775 4372 L10775 2135 C10775 1883 10586 1694 10397 1694 L8160 1694 L6585 119 C6506 40 6396 1 6285 1 Z" fill="#113D34"></path></g><g transform="translate(-61268225 2024575) scale(25 25)"><path d="M1197 820 C1449 820 1607 1009 1607 1261 C1607 1481 1418 1639 1197 1639 C1008 1639 819 1450 819 1261 C788 977 977 820 1197 820 Z M1197 1 C536 1 0 536 0 1261 C0 1954 504 2458 1197 2458 C1890 2458 2426 1922 2426 1261 C2426 568 1890 1 1197 1 Z" fill="#113D34"></path></g><g transform="translate(-61187100 2107275) scale(25 25)"><path d="M1229 788 C1512 820 1670 977 1670 1198 C1670 1450 1481 1639 1229 1639 C1008 1639 851 1450 851 1198 C851 977 1040 788 1229 788 Z M1229 1 C567 1 0 536 0 1198 C0 1891 567 2458 1229 2458 C1922 2458 2458 1922 2458 1198 C2458 536 1922 1 1229 1 Z" fill="#113D34"></path></g><g transform="translate(-61250125 2044475) scale(25 25)"><path d="M3766 0 C3655 0 3545 40 3466 118 L158 3426 C1 3615 1 3836 158 4025 C237 4104 347 4143 458 4143 C568 4143 678 4104 757 4025 L4065 717 C4222 559 4222 276 4065 118 C3986 40 3876 0 3766 0 Z" fill="#F6620B"></path></g></svg>