<svg xmlns="http://www.w3.org/2000/svg" viewBox="-61354875 2322300 316650 290650"><g transform="translate(-61354875 2322300) scale(25 25)"><path d="M11405 788 C11657 788 11847 1009 11847 1229 L11847 10334 C11847 10555 11657 10775 11405 10775 L1198 10775 C977 10775 820 10555 820 10334 L820 1229 C820 1009 1009 788 1198 788 Z M1198 0 C536 0 1 568 1 1261 L1 10366 C1 11027 536 11626 1198 11626 L11405 11626 C12067 11626 12666 11059 12666 10366 L12666 1261 C12666 568 12130 0 11405 0 Z" fill="#113D34"></path></g><g transform="translate(-61313925 2364050) scale(25 25)"><path d="M8539 819 L8539 7435 L820 7435 L820 6207 L1671 6207 C1891 6207 2080 6018 2080 5797 C2080 5545 1891 5356 1671 5356 L820 5356 L820 2867 L1671 2867 C1891 2867 2080 2678 2080 2426 C2080 2206 1891 2048 1671 2048 L820 2048 L820 819 Z M410 0 C158 0 1 189 1 378 L1 7845 C1 8065 190 8255 410 8255 L8948 8255 C9169 8255 9326 8065 9326 7845 L9326 378 C9389 158 9169 0 8948 0 Z" fill="#F6620B"></path></g><g transform="translate(-61234375 2416225) scale(25 25)"><path d="M2175 1221 C2647 1221 2994 1568 2994 2040 C2994 2513 2647 2859 2175 2859 C1702 2859 1356 2513 1356 2040 C1356 1568 1702 1221 2175 1221 Z M458 0 C347 0 237 40 158 119 C1 276 1 560 158 717 L694 1221 C536 1442 442 1757 442 2040 C442 2324 536 2639 694 2859 L158 3395 C95 3553 95 3805 253 3962 C316 4057 442 4088 536 4088 C631 4088 726 4057 789 3962 L1324 3458 C1545 3616 1860 3710 2143 3710 C2427 3710 2742 3616 2962 3458 L3498 3962 C3561 4057 3687 4088 3750 4088 C3876 4088 3971 4057 4034 3962 C4191 3805 4191 3553 4034 3395 L3529 2859 C3687 2639 3750 2324 3750 2040 C3750 1757 3687 1442 3529 1221 L4034 717 C4191 560 4191 276 4034 119 C3955 40 3845 0 3734 0 C3624 0 3514 40 3435 119 L2931 623 C2679 465 2395 402 2112 402 C1828 402 1513 465 1261 623 L757 119 C678 40 568 0 458 0 Z" fill="#113D34"></path></g></svg>