<svg xmlns="http://www.w3.org/2000/svg" viewBox="2872725 1954475 295375 295400"><g transform="translate(2959350 1954475) scale(25 25)"><path d="M2395 694 C2805 694 3120 1009 3120 1418 C3120 1797 2805 2112 2395 2112 C2017 2112 1702 1797 1702 1418 C1733 1009 2048 694 2395 694 Z M2395 2742 C3340 2742 4128 3529 4128 4537 L4128 4884 L662 4884 L662 4537 C662 3529 1450 2742 2395 2742 Z M2490 1 C1733 1 1103 631 1103 1387 C1103 1734 1229 2049 1450 2332 C568 2710 1 3529 1 4537 L1 5231 C1 5420 158 5577 347 5577 L4537 5577 C4726 5577 4884 5420 4884 5231 L4884 4537 C4884 3529 4317 2710 3498 2332 C3750 2080 3844 1765 3844 1387 C3844 631 3214 1 2490 1 Z" fill="#F6620B"></path></g><g transform="translate(2906575 2146650) scale(25 25)"><path d="M1419 694 L1419 2080 L694 2080 L694 694 Z M2773 694 L2773 2080 L2080 2080 L2080 694 Z M4159 694 L4159 2080 L3466 2080 L3466 694 Z M6995 694 L6995 2080 L4884 2080 L4884 694 Z M347 1 C158 1 1 158 1 347 L1 2427 C1 2616 158 2773 347 2773 L7310 2773 C7499 2773 7657 2616 7657 2427 L7657 347 C7657 127 7499 1 7310 1 Z" fill="#113D34"></path></g><g transform="translate(2872725 2112000) scale(25 25)"><path d="M11121 2080 L11121 3466 L10397 3466 L10397 2080 Z M9389 662 C9578 662 9735 820 9735 1009 L9735 4474 C9735 4663 9578 4852 9389 4852 L1040 4852 C819 4852 662 4663 662 4474 L662 1009 C662 820 819 662 1040 662 Z M1040 1 C441 1 0 473 0 1009 L0 4474 C0 5073 473 5514 1040 5514 L9357 5514 C9956 5514 10397 5041 10397 4474 L10397 4128 L11436 4128 C11625 4128 11783 3970 11783 3781 L11783 1702 C11814 1513 11657 1387 11468 1387 L10397 1387 L10397 1009 C10397 442 9924 1 9357 1 Z" fill="#113D34"></path></g></svg>