<svg xmlns="http://www.w3.org/2000/svg" viewBox="-60620800 2304600 319000 318600"><g transform="translate(-60620800 2304600) scale(25 25)"><path d="M10939 845 C10969 845 11001 853 11027 866 L11752 1276 C11783 1339 11815 1433 11783 1465 L11437 2063 L10491 1496 L10838 898 C10856 861 10897 845 10939 845 Z M10050 2252 L10995 2819 L8916 6379 L7971 5844 L10050 2252 Z M7813 6663 L8318 6978 L7782 7324 L7813 6663 Z M11342 5245 C11594 5245 11752 5434 11752 5686 L11752 11483 C11752 11704 11531 11893 11342 11893 L1197 11893 C945 11893 788 11704 788 11483 L788 5686 C788 5434 977 5245 1197 5245 L7372 5245 L7057 5749 C7026 5812 7026 5875 7026 5970 L6900 7734 L5545 7734 C5325 7734 5167 7923 5167 8175 C5167 8396 5356 8585 5545 8585 L10523 8585 C10743 8585 10964 8396 10964 8175 C10964 7923 10743 7734 10523 7734 L8633 7734 L9294 7293 C9326 7261 9420 7230 9420 7135 L10523 5245 Z M10933 0 C10599 0 10280 175 10113 488 L9578 1433 L7877 4395 L1229 4395 C567 4395 0 4930 0 5592 L0 11483 C0 12145 567 12743 1229 12743 L11374 12743 C12067 12743 12602 12176 12602 11483 L12602 5686 C12602 5025 12067 4458 11374 4458 L11027 4458 L12508 1937 C12760 1433 12602 835 12130 551 L11437 141 C11277 46 11103 0 10933 0 Z" fill="#113D34"></path></g><g transform="translate(-60491625 2560150) scale(25 25)"><path d="M378 1 C158 1 0 190 0 411 C0 663 189 820 378 820 L5356 820 C5576 820 5797 631 5797 411 C5797 190 5576 1 5356 1 Z" fill="#113D34"></path></g><g transform="translate(-60573550 2445950) scale(25 25)"><path d="M1229 1 C977 1 820 190 820 410 L820 694 C347 851 1 1324 1 1891 C1 2553 568 2931 977 3246 C1292 3498 1670 3718 1670 3970 C1670 4191 1450 4348 1229 4348 C977 4348 820 4159 820 3970 C820 3718 631 3529 442 3529 C190 3529 1 3718 1 3970 C1 4506 347 4947 820 5136 L820 5420 C820 5672 1040 5861 1229 5861 C1450 5861 1670 5672 1670 5420 L1670 5136 C2143 4979 2489 4506 2489 3970 C2489 3309 1922 2899 1513 2584 C1198 2364 820 2112 820 1891 C788 1639 977 1450 1229 1450 C1450 1450 1670 1639 1670 1891 C1670 2112 1859 2269 2048 2269 C2300 2269 2489 2080 2489 1891 C2489 1324 2143 883 1670 694 L1670 410 C1670 190 1450 1 1229 1 Z" fill="#F6620B"></path></g></svg>