<svg xmlns="http://www.w3.org/2000/svg" viewBox="-63666550 2278975 319800 318625"><g transform="translate(-63481450 2309700) scale(25 25)"><path d="M1229 0 C977 0 819 189 819 441 L819 694 C347 883 0 1324 0 1891 C0 2552 536 2962 977 3277 C1292 3497 1638 3749 1638 3970 C1607 4254 1418 4411 1197 4411 C977 4411 819 4222 819 3970 C819 3749 630 3560 410 3560 C189 3560 0 3749 0 3970 C0 4537 347 4978 819 5167 L819 5419 C819 5671 1008 5860 1197 5860 C1449 5860 1638 5671 1638 5419 L1638 5167 C2111 5010 2489 4537 2489 3970 C2489 3308 1922 2930 1481 2615 C1166 2363 819 2143 819 1891 C819 1670 1008 1450 1229 1450 C1449 1450 1638 1670 1638 1891 C1638 2111 1859 2332 2048 2332 C2269 2332 2489 2111 2489 1891 C2489 1324 2111 914 1638 694 L1638 441 C1638 189 1449 0 1229 0 Z" fill="#F6620B"></path></g><g transform="translate(-63666550 2278975) scale(25 25)"><path d="M8601 914 C10429 914 11909 2427 11909 4222 C11909 6050 10429 7530 8601 7530 C7971 7530 7404 7373 6869 7026 L7089 6270 C7144 5997 6938 5748 6677 5748 C6637 5748 6596 5754 6554 5766 L5829 5955 C5514 5451 5293 4852 5293 4222 C5293 2364 6774 914 8601 914 Z M6050 6711 L5041 10303 L4789 9421 C4749 9221 4571 9098 4389 9098 C4284 9098 4177 9139 4096 9232 L1418 11910 L820 11311 L3529 8665 C3781 8444 3655 8034 3340 7971 L2458 7719 L6050 6711 Z M8664 1 C6365 1 4506 1860 4506 4159 C4506 4852 4663 5514 5041 6113 L820 7341 C631 7373 505 7562 505 7719 C505 7940 631 8097 820 8129 L2458 8570 L316 10712 C1 11027 1 11563 316 11910 L883 12508 C1040 12666 1253 12744 1469 12744 C1686 12744 1907 12666 2080 12508 L4254 10334 L4663 11973 C4727 12181 4906 12292 5078 12292 C5244 12292 5405 12189 5451 11973 L6680 7782 C7278 8097 7940 8286 8664 8286 C10933 8286 12792 6428 12792 4159 C12792 1860 10933 1 8664 1 Z" fill="#113D34"></path></g></svg>