<svg xmlns="http://www.w3.org/2000/svg" viewBox="3962775 2683025 296175 295375"><g transform="translate(3962775 2838200) scale(25 25)"><path d="M3530 3466 L3530 4883 L757 4883 L757 3466 Z M7688 725 L7688 4883 L4223 4883 L4223 725 Z M11185 2111 L11185 4883 L8381 4883 L8381 2111 Z M3845 0 C3656 0 3498 158 3498 378 L3498 2804 L348 2804 C158 2804 1 2962 1 3151 L1 5261 C1 5450 158 5608 348 5608 L11500 5608 C11689 5608 11847 5450 11847 5261 L11847 1733 C11847 1544 11689 1386 11532 1386 L8381 1386 L8381 378 C8381 158 8224 0 8035 0 Z" fill="#113D34"></path></g><g transform="translate(4051000 2683025) scale(25 25)"><path d="M2426 662 C2804 662 3120 977 3120 1387 C3120 1765 2804 2080 2426 2080 C2017 2080 1702 1765 1702 1387 C1702 977 2017 662 2426 662 Z M2426 2742 C3340 2742 4128 3529 4128 4474 L4128 4852 L694 4852 L694 4474 C694 3498 1481 2742 2426 2742 Z M2489 1 C1733 1 1103 631 1103 1387 C1103 1733 1229 2049 1450 2269 C568 2679 1 3498 1 4474 L1 5199 C1 5388 158 5546 379 5546 L4537 5546 C4726 5546 4884 5388 4884 5199 L4884 4474 C4884 3498 4348 2679 3529 2269 C3750 2049 3876 1733 3876 1387 C3876 631 3246 1 2489 1 Z" fill="#F6620B"></path></g><g transform="translate(4084875 2873200) scale(25 25)"><path d="M1095 0 C1001 0 903 28 819 112 L126 805 C0 931 0 1184 126 1278 C205 1341 292 1373 378 1373 C465 1373 552 1341 630 1278 L756 1184 L756 2066 L378 2066 C189 2066 32 2223 32 2444 C32 2633 189 2790 378 2790 L1765 2790 C1954 2790 2111 2633 2111 2444 C2111 2223 1954 2066 1765 2066 L1418 2066 L1418 333 C1418 175 1323 81 1229 18 C1187 7 1141 0 1095 0 Z" fill="#F6620B"></path></g></svg>