<svg xmlns="http://www.w3.org/2000/svg" viewBox="4321150 1946600 294600 295375"><g transform="translate(4321150 1946600) scale(25 25)"><path d="M9043 662 L9043 2080 L2742 2080 L2742 662 Z M10775 2742 C10996 2742 11153 2899 11153 3120 L11153 6554 C11153 6774 10996 6932 10775 6932 L9767 6932 L9767 4474 C9767 4285 9610 4128 9421 4128 L2427 4128 C2238 4128 2080 4285 2080 4474 L2080 6932 L1009 6932 C820 6932 662 6774 662 6554 L662 3120 C662 2899 820 2742 1009 2742 Z M9011 4821 L9011 11090 L2710 11090 L2710 4821 Z M2395 1 C2206 1 2049 158 2049 347 L2049 2112 L1009 2112 C442 2112 1 2584 1 3151 L1 6617 C1 7215 473 7625 1009 7625 L2049 7625 L2049 11468 C2049 11657 2206 11815 2395 11815 L9358 11815 C9578 11815 9736 11657 9736 11468 L9736 7625 L10744 7625 C11343 7625 11784 7152 11784 6617 L11784 3151 C11784 2553 11311 2112 10744 2112 L9736 2112 L9736 347 C9736 158 9578 1 9358 1 Z" fill="#113D34"></path></g><g transform="translate(4564525 2031675) scale(25 25)"><path d="M347 0 C158 0 1 189 1 378 C1 599 158 725 347 725 C536 725 694 567 694 378 C694 189 536 0 347 0 Z" fill="#113D34"></path></g><g transform="translate(4414100 2084450) scale(25 25)"><path d="M2174 693 C2584 693 2899 1008 2899 1418 C2899 1796 2584 2111 2174 2111 C1796 2111 1481 1796 1481 1418 C1481 1008 1796 693 2174 693 Z M2174 2804 C2930 2804 3592 3403 3592 4190 L756 4190 C756 3403 1387 2804 2174 2804 Z M2143 0 C1387 0 725 630 725 1386 C725 1733 882 2079 1103 2331 C473 2678 0 3340 0 4159 L0 4537 C63 4726 221 4883 410 4883 L3907 4883 C4127 4883 4253 4726 4253 4537 L4253 4159 C4253 3371 3844 2709 3151 2331 C3403 2048 3560 1733 3560 1386 C3560 599 2930 0 2143 0 Z" fill="#F6620B"></path></g></svg>