<svg xmlns="http://www.w3.org/2000/svg" viewBox="-61354875 2671225 316650 316650"><g transform="translate(-61354875 2671225) scale(25 25)"><path d="M11405 1701 C11657 1701 11847 1890 11847 2111 L11847 3340 L820 3340 L820 2111 C820 1890 1009 1701 1198 1701 L1639 1701 L1639 2111 C1639 2363 1828 2552 2048 2552 C2237 2552 2427 2363 2427 2111 L2427 1701 L5892 1701 L5892 2111 C5892 2363 6081 2552 6333 2552 C6585 2552 6743 2363 6743 2111 L6743 1701 L10208 1701 L10208 2111 C10208 2363 10397 2552 10618 2552 C10870 2552 11027 2363 11027 2111 L11027 1701 Z M11878 4159 L11878 6112 L11847 6112 C11090 5072 9862 4442 8538 4442 C6239 4442 4411 6301 4411 8569 C4411 9168 4506 9735 4758 10239 L1261 10239 C1009 10239 851 10050 851 9830 L851 4159 Z M8538 5261 C10334 5261 11847 6774 11847 8569 C11847 10397 10334 11877 8538 11877 C6711 11877 5230 10397 5230 8569 C5230 6774 6743 5261 8538 5261 Z M2048 0 C1828 0 1639 189 1639 441 L1639 851 L1198 851 C536 851 1 1418 1 2079 L1 9798 C1 10460 536 11027 1198 11027 L5230 11027 C5987 12003 7184 12665 8538 12665 C10807 12665 12666 10838 12666 8538 L12666 2079 C12666 1418 12130 851 11405 851 L11027 851 L11027 441 C11027 189 10807 0 10618 0 C10397 0 10177 189 10177 441 L10177 851 L6711 851 L6711 441 C6711 189 6522 0 6333 0 C6081 0 5892 189 5892 441 L5892 851 L2427 851 L2427 441 C2427 189 2237 0 2048 0 Z" fill="#113D34"></path></g><g transform="translate(-61172925 2813775) scale(25 25)"><path d="M1260 0 C1008 0 819 190 819 410 L819 662 C347 820 0 1292 0 1859 C0 2521 536 2899 977 3245 C1292 3466 1639 3687 1639 3939 C1639 4191 1450 4380 1260 4380 C1008 4380 819 4191 819 3939 C819 3718 630 3498 441 3498 C189 3498 0 3718 0 3939 C0 4506 347 4915 819 5136 L819 5388 C819 5640 1008 5829 1260 5829 C1481 5829 1639 5640 1639 5388 L1639 5136 C2111 4978 2489 4506 2489 3939 C2489 3277 1922 2867 1481 2552 C1166 2332 819 2080 819 1859 C819 1607 1008 1418 1260 1418 C1513 1418 1639 1607 1639 1859 C1639 2080 1859 2269 2048 2269 C2300 2269 2489 2080 2489 1859 C2489 1292 2143 883 1639 662 L1639 410 C1639 158 1450 0 1260 0 Z" fill="#F6620B"></path></g><g transform="translate(-61313925 2796450) scale(25 25)"><path d="M410 0 C158 0 1 189 1 378 C1 630 158 820 410 820 L1230 820 C1482 820 1639 630 1639 378 C1639 158 1419 0 1230 0 Z" fill="#113D34"></path></g><g transform="translate(-61313925 2837400) scale(25 25)"><path d="M410 1 C158 1 1 190 1 442 C1 631 158 820 410 820 L1230 820 C1482 820 1639 631 1639 442 C1639 190 1419 1 1230 1 Z" fill="#113D34"></path></g><g transform="translate(-61313925 2877575) scale(25 25)"><path d="M410 0 C158 0 1 221 1 441 C1 693 158 883 410 883 L1230 883 C1482 883 1639 693 1639 441 C1639 221 1419 0 1230 0 Z" fill="#113D34"></path></g></svg>