<svg xmlns="http://www.w3.org/2000/svg" viewBox="-63987100 2646800 227625 317425"><g transform="translate(-63987100 2646800) scale(25 25)"><path d="M7467 851 L7467 2426 C7152 2300 6711 2237 6238 2237 C5198 2237 4411 2678 4379 2710 C4379 2710 3718 3056 2930 3056 C2426 3056 1953 2899 1701 2773 L1701 851 Z M6207 3088 C6711 3088 7183 3245 7404 3371 C7309 4789 6049 5986 4537 5986 C3151 5986 2016 5041 1701 3718 L1701 3718 C2016 3844 2426 3939 2899 3939 C3907 3939 4694 3498 4726 3466 C4726 3466 5419 3088 6207 3088 Z M4537 10240 C5135 10240 5639 10933 5765 11878 L3308 11878 C3434 10933 3938 10240 4537 10240 Z M4505 6774 C6144 6806 7467 8066 7467 9672 L7467 11878 L6585 11878 C6553 11279 6364 10744 6049 10303 C5639 9704 5104 9389 4537 9389 C3938 9389 3434 9704 3056 10303 C2772 10744 2583 11279 2489 11878 L1638 11878 L1638 9672 C1638 8066 2930 6774 4505 6774 Z M410 0 C158 0 0 189 0 410 C0 662 221 851 410 851 L851 851 L851 3056 C851 4506 1670 5734 2867 6364 C1670 6995 851 8223 851 9672 L851 11878 L410 11878 C158 11878 0 12067 0 12287 C0 12508 221 12697 410 12697 L8664 12697 C8916 12697 9105 12508 9105 12287 C9105 12035 8916 11878 8664 11878 L8286 11878 L8286 9672 C8286 8223 7467 6995 6270 6364 C7467 5734 8286 4506 8286 3056 L8286 851 L8664 851 C8916 851 9105 662 9105 410 C9105 189 8916 0 8664 0 Z" fill="#113D34"></path></g><g transform="translate(-63883150 2826375) scale(25 25)"><path d="M379 1 C158 1 1 221 1 442 L1 1261 C1 1513 190 1670 379 1670 C631 1670 820 1481 820 1261 L820 442 C820 221 631 1 379 1 Z" fill="#F6620B"></path></g></svg>