<svg xmlns="http://www.w3.org/2000/svg" viewBox="-34418125 2271100 296950 293025"><g transform="translate(-34418125 2271100) scale(25 25)"><path d="M6207 1229 L7089 2080 L6207 2080 L6207 1229 Z M7561 9074 L7561 10366 L6238 10366 L7561 9074 Z M5514 725 L5514 2427 C5514 2616 5671 2773 5860 2773 L7561 2773 L7561 4222 C6837 4947 6742 5924 6994 6711 L4726 8980 L1670 8980 C1481 8980 1323 9137 1323 9358 C1323 9547 1481 9704 1670 9704 L4033 9704 L3718 10019 C3623 10145 3529 10240 3497 10397 L662 10397 L662 725 Z M9295 4211 C9367 4211 9441 4215 9515 4222 L9042 4695 C8664 5073 8664 5766 9042 6144 C9247 6349 9515 6451 9779 6451 C10042 6451 10302 6349 10491 6144 L10964 5672 L10964 5672 C11058 6239 10869 6743 10491 7089 C10183 7418 9741 7626 9278 7626 C9031 7626 8779 7567 8538 7436 C8496 7415 8451 7404 8404 7404 C8311 7404 8213 7446 8129 7530 L4726 10964 C4663 11012 4568 11035 4478 11035 C4387 11035 4301 11012 4253 10964 C4127 10838 4127 10586 4253 10492 L7656 7058 C7782 6932 7782 6774 7750 6648 C7467 6113 7498 5356 7971 4821 C8330 4407 8785 4211 9295 4211 Z M378 1 C189 1 32 158 32 347 L32 10681 C0 10870 158 11027 347 11027 L3529 11027 C3560 11185 3655 11311 3781 11437 C3970 11626 4230 11720 4494 11720 C4758 11720 5025 11626 5230 11437 L5608 11027 L7940 11027 C8129 11027 8286 10870 8286 10681 L8286 8349 L8538 8129 C8792 8220 9065 8269 9344 8269 C9929 8269 10536 8053 11027 7562 C11752 6806 11878 5735 11500 4852 C11437 4726 11342 4695 11248 4663 C11122 4663 11027 4663 10932 4726 L10082 5609 C10019 5656 9924 5679 9834 5679 C9743 5679 9657 5656 9609 5609 C9483 5483 9483 5230 9609 5136 L10460 4254 C10554 4191 10586 4065 10554 3939 C10554 3813 10460 3750 10334 3718 C10003 3561 9649 3482 9298 3482 C8948 3482 8601 3561 8286 3718 L8286 2395 C8286 2332 8255 2206 8192 2175 L6144 127 C6049 64 5986 1 5892 1 Z" fill="#113D34"></path></g><g transform="translate(-34331500 2305750) scale(25 25)"><path d="M347 1 C158 1 1 158 1 347 C1 568 158 725 347 725 C536 725 694 568 694 347 C694 158 536 1 347 1 Z" fill="#113D34"></path></g><g transform="translate(-34331500 2341200) scale(25 25)"><path d="M347 1 C158 1 1 158 1 347 L1 2395 C1 2584 158 2773 347 2773 C536 2773 694 2584 694 2395 L694 347 C694 158 536 1 347 1 Z" fill="#113D34"></path></g><g transform="translate(-34384275 2427050) scale(25 25)"><path d="M379 1 C158 1 1 158 1 347 C1 536 158 694 379 694 L4506 694 C4695 694 4853 536 4853 347 C4853 158 4695 1 4506 1 Z" fill="#F6620B"></path></g><g transform="translate(-34384275 2460125) scale(25 25)"><path d="M379 1 C158 1 1 158 1 379 C1 599 158 725 379 725 L3151 725 C3372 725 3530 568 3530 379 C3530 158 3372 1 3151 1 Z" fill="#113D34"></path></g></svg>