<svg xmlns="http://www.w3.org/2000/svg" viewBox="-31889075 2658950 302475 290775"><g transform="translate(-31889075 2658950) scale(25 25)"><path d="M10555 712 L11153 1310 L10051 3138 L8728 1814 L10555 712 Z M8665 2696 L9137 3169 L7278 4996 L6806 4524 L8665 2696 Z M3022 640 C3549 640 4066 847 4443 1247 C5010 1783 5199 2602 4915 3358 C4884 3484 4915 3642 5010 3705 L8160 6855 C8208 6926 8308 6961 8409 6961 C8442 6961 8476 6957 8507 6950 C8741 6862 8981 6819 9217 6819 C9743 6819 10248 7031 10618 7422 C11153 7926 11342 8682 11153 9375 L10240 8493 C10035 8289 9767 8186 9503 8186 C9240 8186 8980 8289 8791 8493 C8381 8871 8381 9533 8791 9943 L9673 10856 C9498 10904 9318 10928 9140 10928 C8614 10928 8096 10721 7719 10321 C7152 9785 6963 8966 7247 8210 C7278 8084 7247 7926 7152 7863 L4002 4713 C3960 4629 3876 4587 3787 4587 C3743 4587 3697 4597 3655 4618 C3421 4706 3181 4749 2945 4749 C2419 4749 1914 4537 1544 4146 C1009 3642 820 2885 1009 2192 L1009 2192 L1922 3075 C2127 3279 2395 3382 2659 3382 C2923 3382 3183 3279 3372 3075 C3781 2696 3781 2035 3372 1625 L2490 712 C2665 664 2844 640 3022 640 Z M4380 6036 L5829 7485 L2679 10636 C2474 10840 2206 10943 1942 10943 C1678 10943 1418 10840 1229 10636 C820 10226 820 9596 1229 9186 L4380 6036 Z M2915 1 C2465 1 2014 112 1607 334 C1544 365 1450 491 1450 554 C1450 680 1481 775 1544 838 L2836 2129 C2962 2255 2962 2507 2836 2602 C2773 2665 2686 2696 2600 2696 C2513 2696 2427 2665 2364 2602 L1072 1310 C1001 1239 912 1204 846 1204 C824 1204 804 1208 788 1216 C662 1216 599 1310 536 1373 C1 2413 127 3736 1009 4618 C1549 5135 2230 5407 2934 5407 C3173 5407 3415 5375 3655 5311 L3907 5563 L757 8714 C64 9344 64 10447 757 11108 C1088 11455 1521 11628 1954 11628 C2387 11628 2820 11455 3151 11108 L6302 7958 L6522 8210 C6302 9155 6522 10132 7247 10825 C7765 11362 8469 11630 9169 11630 C9618 11630 10066 11519 10460 11297 C10555 11266 10618 11140 10618 11077 C10618 11014 10586 10888 10555 10793 L9263 9501 C9137 9375 9137 9155 9263 9029 C9310 8966 9397 8934 9488 8934 C9578 8934 9673 8966 9736 9029 L11027 10321 C11075 10392 11157 10427 11236 10427 C11262 10427 11287 10423 11311 10415 C11405 10415 11500 10321 11532 10258 C12099 9218 11973 7895 11059 7013 C10542 6496 9850 6224 9139 6224 C8897 6224 8653 6255 8413 6320 L7719 5595 L9578 3736 L9799 3988 C9867 4056 9958 4089 10051 4089 C10172 4089 10294 4032 10366 3925 L11815 1499 C11878 1373 11878 1184 11784 1090 L10775 82 C10723 30 10652 6 10573 6 C10507 6 10437 22 10366 50 L7940 1499 C7751 1625 7719 1909 7877 2066 L8097 2287 L6270 4146 L5546 3421 C5798 2476 5546 1499 4852 806 C4315 269 3615 1 2915 1 Z" fill="#113D34"></path></g><g transform="translate(-31838650 2838200) scale(25 25)"><path d="M2430 0 C2339 0 2253 32 2205 95 L95 2174 C0 2300 0 2521 95 2647 C158 2710 236 2741 319 2741 C402 2741 488 2710 567 2647 L2678 567 C2804 441 2804 221 2678 95 C2615 32 2520 0 2430 0 Z" fill="#F6620B"></path></g></svg>