<svg xmlns="http://www.w3.org/2000/svg" viewBox="-33676975 2275050 295375 293000"><g transform="translate(-33502125 2309700) scale(25 25)"><path d="M1040 0 C473 0 1 473 1 1040 C1 1229 158 1387 379 1387 C568 1387 725 1229 725 1040 C725 820 883 662 1072 662 C1261 662 1450 820 1450 1040 C1450 1198 1355 1292 1198 1355 C914 1418 725 1702 725 1985 L725 2363 C725 2552 883 2710 1072 2710 C1292 2710 1450 2552 1450 2363 L1450 1985 C1828 1828 2111 1418 2111 977 C2048 473 1576 0 1040 0 Z" fill="#F6620B"></path></g><g transform="translate(-33484800 2395550) scale(25 25)"><path d="M347 0 C158 0 1 158 1 347 C1 536 158 694 347 694 C536 694 694 536 694 347 C662 158 536 0 347 0 Z" fill="#113D34"></path></g><g transform="translate(-33676975 2275050) scale(25 25)"><path d="M8034 725 C9735 725 11090 2080 11090 3781 C11090 5482 9735 6868 8034 6868 C6333 6868 4947 5482 4947 3781 C4947 2080 6333 725 8034 725 Z M5104 6207 C5262 6364 5419 6553 5577 6679 L5325 6931 C5262 6994 5167 7026 5077 7026 C4986 7026 4899 6994 4852 6931 C4726 6805 4726 6585 4852 6459 L5104 6207 Z M3104 8380 C3190 8380 3277 8412 3340 8475 C3466 8601 3466 8822 3340 8948 L1387 10932 C1324 10980 1229 11003 1139 11003 C1048 11003 961 10980 914 10932 C788 10806 788 10554 914 10460 L2867 8475 C2930 8412 3017 8380 3104 8380 Z M8034 0 C5955 0 4285 1701 4285 3749 C4285 4411 4443 5041 4758 5608 L4380 5986 C4065 6301 3970 6774 4159 7183 L3529 7813 C3387 7743 3232 7707 3077 7707 C2819 7707 2560 7806 2363 8002 L378 9987 C0 10365 0 11027 378 11436 C583 11625 851 11720 1119 11720 C1387 11720 1654 11625 1859 11436 L3813 9452 C4128 9137 4222 8664 4002 8286 L4632 7656 C4782 7725 4940 7761 5097 7761 C5367 7761 5629 7655 5829 7435 L6207 7057 C6774 7372 7404 7530 8066 7530 C10145 7530 11815 5829 11815 3781 C11815 1733 10082 0 8034 0 Z" fill="#113D34"></path></g></svg>