<svg xmlns="http://www.w3.org/2000/svg" viewBox="-61782550 2664925 316650 319275"><g transform="translate(-61782550 2664925) scale(25 25)"><path d="M10208 851 C10366 1670 10996 2300 11815 2457 L11815 6679 L11783 6679 C10964 6837 10334 7467 10177 8286 L9011 8286 C9105 8002 9168 7719 9168 7467 C9168 6081 8066 4978 6711 4978 C5325 4978 4222 6081 4222 7467 C4222 7719 4254 8002 4380 8286 L2395 8286 C2237 7467 1607 6837 788 6679 L788 2457 C1607 2300 2237 1670 2395 851 Z M6711 5797 C7593 5797 8349 6553 8349 7467 C8349 8349 7593 9105 6711 9105 C5797 9105 5041 8349 5041 7467 C5041 6553 5797 5797 6711 5797 Z M7530 9767 L7530 11468 L6932 11090 C6853 11043 6774 11019 6695 11019 C6616 11019 6538 11043 6459 11090 L5860 11468 L5860 9767 C6144 9861 6427 9924 6711 9924 C6995 9924 7247 9893 7530 9767 Z M2048 0 C1828 0 1670 221 1670 441 C1670 1103 1103 1670 410 1670 C158 1670 0 1859 0 2111 L0 7057 C0 7278 189 7498 410 7498 C1072 7498 1670 8034 1670 8758 C1670 8979 1859 9136 2048 9136 L4884 9136 L5073 9326 L5073 12318 C5073 12562 5298 12749 5517 12749 C5581 12749 5645 12732 5703 12697 L6743 12003 L7782 12697 C7850 12747 7926 12771 8002 12771 C8210 12771 8412 12595 8412 12318 L8412 9262 L8601 9073 L10618 9073 C10838 9073 10996 8884 10996 8664 C10996 8002 11563 7404 12224 7404 C12445 7404 12665 7215 12665 6994 L12665 2016 C12602 1827 12445 1670 12224 1670 C11531 1670 10996 1103 10996 441 C10996 221 10807 0 10586 0 Z" fill="#113D34"></path></g><g transform="translate(-61701425 2705875) scale(25 25)"><path d="M410 0 C189 0 0 189 0 410 C0 662 189 851 410 851 L5671 851 C5892 851 6049 662 6049 410 C6049 189 5860 0 5671 0 Z" fill="#113D34"></path></g><g transform="translate(-61742375 2747625) scale(25 25)"><path d="M410 0 C158 0 0 221 0 441 C0 693 221 882 410 882 L8948 882 C9200 882 9357 693 9357 441 C9357 221 9137 0 8948 0 Z" fill="#F6620B"></path></g></svg>