<svg xmlns="http://www.w3.org/2000/svg" viewBox="1413250 2680675 297750 297525"><g transform="translate(1413250 2680675) scale(25 25)"><path d="M10460 1418 L10460 7719 L1387 7719 L1387 1418 Z M5577 8380 L5577 9105 L5167 9105 L5451 8380 Z M6396 8380 L6679 9105 L6270 9105 L6270 8380 Z M5955 0 C5766 0 5608 158 5608 347 L5608 725 L378 725 C158 725 0 882 0 1071 C0 1260 158 1418 378 1418 L725 1418 L725 7719 L378 7719 C189 7719 32 7876 32 8097 C32 8286 189 8443 378 8443 L4758 8443 L3560 11436 C3497 11625 3560 11814 3749 11877 C3803 11893 3855 11901 3903 11901 C4052 11901 4167 11824 4191 11657 L4947 9830 L5608 9830 L5608 10838 C5608 11027 5766 11184 5955 11184 C6175 11184 6333 11027 6333 10838 L6333 9830 L6995 9830 L7751 11657 C7798 11824 7918 11901 8042 11901 C8082 11901 8122 11893 8160 11877 C8381 11783 8444 11594 8381 11436 L7184 8443 L11563 8443 C11752 8443 11909 8286 11909 8097 C11909 7876 11752 7719 11563 7719 L11185 7719 L11185 1418 L11563 1418 C11752 1418 11909 1260 11909 1071 C11909 882 11752 725 11563 725 L6301 725 L6301 347 C6301 158 6144 0 5955 0 Z" fill="#113D34"></path></g><g transform="translate(1465225 2805100) scale(25 25)"><path d="M1387 663 L1387 1387 L694 1387 L694 663 Z M347 1 C158 1 1 158 1 347 L1 1734 C1 1923 158 2080 347 2080 L1765 2080 C1954 2080 2112 1923 2112 1734 L2112 347 C2112 158 1954 1 1765 1 Z" fill="#F6620B"></path></g><g transform="translate(1535325 2769675) scale(25 25)"><path d="M1387 662 L1387 2741 L694 2741 L694 662 Z M379 0 C158 0 1 158 1 347 L1 3151 C1 3340 158 3497 379 3497 L1733 3497 L1733 3466 C1954 3466 2112 3308 2112 3119 L2112 347 C2112 158 1954 0 1733 0 Z" fill="#113D34"></path></g><g transform="translate(1604650 2733425) scale(25 25)"><path d="M1418 726 L1418 4254 L725 4254 L725 726 Z M347 1 C158 1 0 159 0 348 L0 4569 C0 4758 158 4916 347 4916 L1764 4916 C1953 4916 2111 4758 2111 4569 L2111 348 C2111 159 1953 1 1764 1 Z" fill="#F6620B"></path></g></svg>