<svg xmlns="http://www.w3.org/2000/svg" viewBox="-64764500 2280550 316650 319800"><g transform="translate(-64764500 2280550) scale(25 25)"><path d="M11405 820 C11657 820 11815 1009 11815 1261 C11815 1481 11657 1670 11405 1670 L1229 1670 C977 1670 788 1481 788 1261 C788 1009 977 820 1229 820 Z M10996 2521 L10996 8286 L1607 8286 L1607 2521 Z M6302 11027 C6554 11027 6743 11216 6743 11437 C6743 11689 6522 11878 6302 11878 C6050 11878 5892 11689 5892 11437 C5892 11216 6113 11027 6302 11027 Z M1229 1 C536 1 1 536 1 1261 C1 1797 347 2238 820 2427 L820 8286 L442 8286 C190 8286 32 8507 32 8728 C32 8980 221 9169 442 9169 L5955 9169 L5955 10334 C5483 10492 5104 10964 5104 11531 C5104 12193 5672 12792 6333 12792 C6995 12792 7593 12225 7593 11531 C7593 10964 7247 10555 6774 10334 L6774 9169 L12288 9169 C12508 9169 12666 8980 12666 8728 C12666 8507 12477 8286 12288 8286 L11847 8286 L11847 2427 C12319 2238 12634 1797 12634 1261 C12634 568 12099 1 11405 1 Z" fill="#113D34"></path></g><g transform="translate(-64679425 2364825) scale(25 25)"><path d="M3749 1 C3529 1 3371 190 3371 442 C3371 662 3560 820 3749 820 L4442 820 L2930 2332 L2395 1765 C2316 1686 2206 1647 2095 1647 C1985 1647 1875 1686 1796 1765 L126 3435 C0 3592 0 3844 126 4033 C195 4075 288 4098 384 4098 C507 4098 636 4059 725 3970 L2111 2616 L2647 3151 C2725 3230 2836 3269 2946 3269 C3056 3269 3166 3230 3245 3151 L5009 1387 L5009 2049 C5009 2269 5230 2490 5451 2490 C5703 2490 5860 2269 5860 2049 L5860 410 C5860 158 5640 1 5419 1 Z" fill="#F6620B"></path></g></svg>