<svg xmlns="http://www.w3.org/2000/svg" viewBox="6524150 1938725 297725 276625"><g transform="translate(6524150 2025375) scale(25 25)"><path d="M9767 2079 L9767 5198 C9735 5041 9672 4915 9546 4789 L7813 3056 C7624 2867 7341 2741 7057 2741 L6018 2741 C5923 2741 5797 2836 5734 2930 L5482 3403 C5293 3812 4883 4001 4505 4001 L5356 2269 C5419 2143 5576 2079 5671 2079 Z M1418 2079 L1418 5545 L725 5545 L725 2079 Z M11153 2079 L11153 5545 L10460 5545 L10460 2079 Z M6931 630 C6774 1008 6427 1323 5955 1323 L5671 1323 C5293 1323 4946 1575 4726 1922 L3655 4064 C3623 4127 3623 4253 3655 4316 C3718 4411 3781 4474 3875 4537 C4088 4627 4310 4670 4532 4670 C5165 4670 5785 4316 6112 3686 L6238 3434 L7026 3434 C7089 3434 7215 3466 7246 3529 L8979 5261 C9137 5419 9137 5545 9105 5640 C9105 5671 9042 5829 8885 5860 L5576 6805 C5543 6814 5507 6818 5470 6818 C5371 6818 5268 6788 5198 6742 L4096 5640 C4033 5545 3938 5514 3875 5514 L2111 5514 L2111 2048 L2741 2048 C3119 2048 3466 1796 3686 1449 L4001 819 C4064 693 4190 630 4316 630 Z M4316 0 C3907 0 3560 221 3371 599 L3056 1229 C2962 1323 2836 1418 2741 1418 L378 1418 C158 1418 0 1575 0 1764 L0 5955 C0 6144 158 6301 378 6301 L3718 6301 L4694 7278 C4894 7477 5139 7598 5410 7598 C5525 7598 5644 7577 5766 7530 L9074 6553 C9263 6522 9420 6396 9578 6238 L11562 6238 C11751 6238 11909 6081 11909 5892 L11909 1733 C11877 1544 11720 1386 11499 1386 L7341 1386 C7561 1103 7687 693 7687 347 C7687 158 7530 0 7341 0 Z" fill="#113D34"></path></g><g transform="translate(6664325 1938725) scale(25 25)"><path d="M348 1 C159 1 1 158 1 347 L1 1355 C1 1576 159 1733 348 1733 C537 1733 694 1576 694 1355 L694 347 C694 158 537 1 348 1 Z" fill="#113D34"></path></g><g transform="translate(6594250 1972800) scale(25 25)"><path d="M374 0 C291 0 205 40 126 118 C0 244 0 496 126 591 L819 1316 C882 1379 969 1410 1055 1410 C1142 1410 1229 1379 1292 1316 C1418 1190 1418 969 1292 843 L599 118 C536 40 457 0 374 0 Z" fill="#F6620B"></path></g><g transform="translate(6715525 1972800) scale(25 25)"><path d="M1056 0 C970 0 883 40 820 118 L127 843 C1 969 1 1190 127 1316 C174 1379 261 1410 351 1410 C442 1410 536 1379 599 1316 L1293 591 C1419 496 1419 244 1293 118 C1230 40 1143 0 1056 0 Z" fill="#F6620B"></path></g></svg>