<svg xmlns="http://www.w3.org/2000/svg" viewBox="-4570325 2405775 294600 293825"><g transform="translate(-4570325 2405775) scale(25 25)"><path d="M5734 694 C7624 694 9168 2238 9168 4128 C9168 6050 7624 7594 5734 7594 C3844 7594 2332 6018 2332 4128 C2332 2238 3844 694 5734 694 Z M977 7531 C1166 7531 1323 7688 1323 7909 C1292 8129 1134 8255 977 8255 C788 8255 630 8098 630 7909 C630 7688 788 7531 977 7531 Z M10586 7531 C10775 7531 10932 7688 10932 7909 C10932 8129 10775 8255 10586 8255 C10397 8255 10239 8098 10239 7909 C10239 7688 10397 7531 10586 7531 Z M3025 9641 C3214 9641 3371 9799 3371 9988 C3340 10177 3214 10335 3025 10335 C2836 10335 2678 10177 2678 9988 C2678 9799 2836 9641 3025 9641 Z M8475 9641 C8696 9641 8822 9799 8822 9988 C8822 10177 8664 10335 8475 10335 C8255 10335 8128 10177 8128 9988 C8128 9799 8255 9641 8475 9641 Z M5734 10303 C5955 10303 6112 10461 6112 10650 C6112 10839 5955 10996 5734 10996 C5545 10996 5388 10839 5388 10650 C5388 10461 5545 10303 5734 10303 Z M5797 1 C3497 1 1701 1860 1701 4097 C1701 5010 2017 5924 2552 6617 L1701 7153 C1481 6995 1260 6901 1040 6901 C473 6901 0 7373 0 7940 C0 8476 473 8948 1040 8948 C1575 8948 2048 8476 2048 7940 L2048 7751 L3088 7153 C3340 7373 3623 7625 3970 7783 L3308 8948 L3119 8948 C2552 8948 2080 9421 2080 9988 C2080 10524 2552 10996 3119 10996 C3655 10996 4127 10524 4127 9988 C4127 9736 4064 9515 3907 9326 L4600 8098 C4883 8161 5199 8255 5514 8287 L5514 9736 C5136 9894 4852 10272 4852 10713 C4852 11280 5325 11752 5860 11752 C6427 11752 6900 11280 6900 10713 C6900 10303 6616 9894 6238 9736 L6238 8287 C6553 8255 6868 8224 7120 8098 L7845 9326 C7687 9515 7593 9736 7593 9988 C7593 10524 8065 10996 8633 10996 C9168 10996 9641 10524 9641 9988 C9641 9421 9168 8948 8633 8948 L8444 8948 L7750 7783 C8065 7625 8381 7373 8664 7153 L9735 7751 L9735 7940 C9735 8476 10208 8948 10743 8948 C11310 8948 11783 8476 11783 7940 C11626 7342 11153 6901 10586 6901 C10302 6901 10082 6995 9924 7153 L9011 6617 C9578 5924 9893 5010 9893 4097 C9893 1828 8034 1 5797 1 Z" fill="#113D34"></path></g><g transform="translate(-4478175 2439650) scale(25 25)"><path d="M2048 725 C2458 725 2741 1040 2741 1387 C2741 1765 2426 2049 2048 2049 C1702 2049 1387 1733 1387 1387 C1387 1040 1702 725 2048 725 Z M2363 2773 C2930 2773 3403 3246 3403 3781 L3403 4128 L630 4128 L630 3781 L693 3781 C693 3246 1166 2773 1702 2773 Z M2111 1 C1355 1 725 631 725 1387 C725 1702 851 2017 1040 2238 C441 2521 63 3120 63 3781 L63 4443 C0 4663 158 4821 378 4821 L3781 4821 C4001 4821 4159 4663 4159 4443 L4159 3781 C4159 3120 3749 2521 3151 2238 C3371 2017 3466 1733 3466 1387 C3466 631 2836 1 2111 1 Z" fill="#F6620B"></path></g></svg>