<svg xmlns="http://www.w3.org/2000/svg" viewBox="2141000 1954475 296975 296175"><g transform="translate(2280425 1989925) scale(25 25)"><path d="M347 0 C158 0 0 158 0 347 C0 505 158 662 315 662 L2426 662 C2615 662 2773 820 2773 1009 L2773 1576 L2678 1450 C2615 1387 2521 1355 2430 1355 C2340 1355 2253 1387 2206 1450 C2080 1576 2080 1796 2206 1922 L2899 2647 C2993 2710 3056 2741 3151 2741 C3214 2741 3340 2710 3371 2647 L4096 1922 C4191 1796 4191 1576 4096 1450 C4033 1387 3938 1355 3848 1355 C3757 1355 3671 1387 3623 1450 L3497 1576 L3497 1009 C3497 442 3025 0 2458 0 Z" fill="#F6620B"></path></g><g transform="translate(2174875 2145875) scale(25 25)"><path d="M1056 0 C969 0 883 32 820 95 L95 820 C1 914 1 1166 95 1292 C158 1339 253 1363 343 1363 C434 1363 521 1339 568 1292 L694 1166 L694 1702 C757 2300 1229 2773 1765 2773 L3844 2773 C4065 2773 4222 2615 4222 2426 C4222 2237 4065 2080 3844 2080 L1765 2080 C1576 2080 1418 1922 1418 1702 L1418 1166 L1544 1292 C1592 1339 1678 1363 1769 1363 C1859 1363 1954 1339 2017 1292 C2112 1166 2112 914 2017 820 L1292 95 C1229 32 1143 0 1056 0 Z" fill="#113D34"></path></g><g transform="translate(2141000 1954475) scale(25 25)"><path d="M2773 694 C3372 694 3782 1166 3782 1734 C3782 2301 3309 2742 2773 2742 C2175 2742 1734 2269 1734 1734 C1734 1166 2206 694 2773 694 Z M2773 3466 C3908 3466 4853 4411 4853 5546 L4853 6270 L694 6270 L694 5546 C694 4411 1639 3466 2773 3466 Z M2805 1 C1860 1 1072 788 1072 1734 C1072 2238 1324 2710 1671 3025 C726 3466 64 4443 64 5577 L64 6617 C1 6806 159 6963 379 6963 L5199 6963 C5420 6963 5577 6806 5577 6617 L5577 5577 C5577 4443 4884 3498 3939 3025 C4317 2710 4538 2238 4538 1734 C4538 788 3750 1 2805 1 Z" fill="#113D34"></path></g><g transform="translate(2298525 2076550) scale(25 25)"><path d="M2773 663 C3372 663 3782 1135 3782 1702 C3782 2238 3309 2710 2773 2710 C2175 2710 1734 2238 1734 1702 C1734 1135 2175 663 2773 663 Z M2773 3467 C3908 3467 4853 4412 4853 5546 L4853 6270 L694 6270 L694 5546 C694 4412 1639 3467 2773 3467 Z M2773 1 C1828 1 1041 789 1041 1734 C1041 2238 1261 2710 1608 3025 C663 3467 1 4443 1 5546 L1 6617 C1 6806 159 6964 379 6964 L5199 6964 C5420 6964 5577 6806 5577 6617 L5577 5546 C5514 4412 4853 3467 3908 3025 C4254 2710 4506 2238 4506 1734 C4506 789 3719 1 2773 1 Z" fill="#F6620B"></path></g></svg>