<svg xmlns="http://www.w3.org/2000/svg" viewBox="3963575 2317575 296175 296175"><g transform="translate(3963575 2317575) scale(25 25)"><path d="M9483 1418 C9672 1418 9830 1576 9830 1765 L9830 2836 L788 2836 L788 1765 L725 1765 C725 1576 883 1418 1072 1418 L1418 1418 L1418 1765 C1418 1954 1576 2143 1765 2143 C1954 2143 2111 1954 2111 1765 L2111 1418 L3498 1418 L3498 1765 C3498 1954 3655 2143 3844 2143 C4065 2143 4222 1954 4222 1765 L4222 1418 L6333 1418 L6333 1765 C6333 1954 6490 2143 6680 2143 C6900 2143 7058 1954 7058 1765 L7058 1418 L8412 1418 L8412 1765 C8412 1954 8570 2143 8790 2143 C8979 2143 9137 1954 9137 1765 L9137 1418 Z M9767 3497 L9767 7026 C9641 7026 9546 6963 9420 6963 C8066 6963 6963 8066 6963 9420 C6963 9546 6963 9641 7026 9767 L1040 9767 C820 9767 662 9609 662 9420 L662 3497 Z M9420 7688 C10366 7688 11153 8475 11153 9420 C11153 10397 10366 11185 9420 11185 C8475 11185 7688 10397 7688 9420 C7688 8475 8475 7688 9420 7688 Z M1733 0 C1544 0 1387 158 1387 347 L1387 725 L1040 725 C442 725 0 1166 0 1733 L0 9389 C0 9956 473 10429 1040 10429 L7215 10429 C7593 11279 8444 11846 9420 11846 C10744 11846 11846 10744 11846 9420 C11846 8444 11311 7593 10492 7215 L10492 1733 C10492 1135 10019 725 9452 725 L9105 725 L9105 347 C9105 158 8948 0 8759 0 C8538 0 8381 158 8381 347 L8381 725 L7026 725 L7026 347 C7026 158 6869 0 6648 0 C6459 0 6301 158 6301 347 L6301 725 L4191 725 L4191 347 C4191 158 4033 0 3813 0 C3624 0 3466 158 3466 347 L3466 725 L2080 725 L2080 347 C2080 158 1922 0 1733 0 Z" fill="#113D34"></path></g><g transform="translate(4190400 2526300) scale(25 25)"><path d="M347 0 C158 0 1 158 1 347 L1 1071 C1 1260 127 1418 347 1418 L1041 1418 C1261 1418 1387 1260 1387 1071 C1387 882 1261 725 1041 725 L694 725 L694 347 C694 158 536 0 347 0 Z" fill="#F6620B"></path></g><g transform="translate(3998225 2421550) scale(25 25)"><path d="M347 0 C158 0 1 158 1 378 C1 567 158 725 347 725 L1072 725 C1261 725 1418 567 1418 378 C1418 158 1261 0 1072 0 Z" fill="#113D34"></path></g><g transform="translate(4050225 2421550) scale(25 25)"><path d="M347 0 C158 0 0 158 0 378 C0 567 158 725 347 725 L1071 725 C1260 725 1418 567 1418 378 C1418 158 1260 0 1071 0 Z" fill="#113D34"></path></g><g transform="translate(4102200 2421550) scale(25 25)"><path d="M378 0 C158 0 0 158 0 378 C0 567 158 725 378 725 L1072 725 C1261 725 1418 567 1418 378 C1418 158 1261 0 1072 0 Z" fill="#113D34"></path></g><g transform="translate(4155750 2421550) scale(25 25)"><path d="M347 0 C158 0 1 158 1 378 C1 567 158 725 347 725 L1072 725 C1261 725 1418 567 1418 378 C1418 158 1261 0 1072 0 Z" fill="#113D34"></path></g><g transform="translate(3998225 2456975) scale(25 25)"><path d="M347 1 C158 1 1 158 1 379 C1 568 158 725 347 725 L1072 725 C1261 725 1418 568 1418 379 C1418 158 1261 1 1072 1 Z" fill="#113D34"></path></g><g transform="translate(4050225 2456975) scale(25 25)"><path d="M347 1 C158 1 0 158 0 379 C0 568 158 725 347 725 L1071 725 C1260 725 1418 568 1418 379 C1418 158 1260 1 1071 1 Z" fill="#113D34"></path></g><g transform="translate(4102200 2456975) scale(25 25)"><path d="M378 1 C158 1 0 158 0 379 C0 568 158 725 378 725 L1072 725 C1261 725 1418 568 1418 379 C1418 158 1261 1 1072 1 Z" fill="#113D34"></path></g><g transform="translate(4155750 2456975) scale(25 25)"><path d="M347 1 C158 1 1 158 1 379 C1 568 158 725 347 725 L1072 725 C1261 725 1418 568 1418 379 C1418 158 1261 1 1072 1 Z" fill="#113D34"></path></g><g transform="translate(3998225 2491650) scale(25 25)"><path d="M347 0 C158 0 1 158 1 378 C1 567 158 725 347 725 L1072 725 C1261 725 1418 567 1418 378 C1418 158 1261 0 1072 0 Z" fill="#113D34"></path></g><g transform="translate(4050225 2491650) scale(25 25)"><path d="M347 0 C158 0 0 158 0 378 C0 567 158 725 347 725 L1071 725 C1260 725 1418 567 1418 378 C1418 158 1260 0 1071 0 Z" fill="#113D34"></path></g><g transform="translate(4102200 2491650) scale(25 25)"><path d="M378 0 C158 0 0 158 0 378 C0 567 158 725 378 725 L1072 725 C1261 725 1418 567 1418 378 C1418 158 1261 0 1072 0 Z" fill="#113D34"></path></g><g transform="translate(3998225 2526300) scale(25 25)"><path d="M347 0 C158 0 1 158 1 347 C1 567 158 725 347 725 L1072 725 C1261 725 1418 567 1418 347 C1418 158 1261 0 1072 0 Z" fill="#113D34"></path></g><g transform="translate(4050225 2526300) scale(25 25)"><path d="M347 0 C158 0 0 158 0 347 C0 567 158 725 347 725 L1071 725 C1260 725 1418 567 1418 347 C1418 158 1260 0 1071 0 Z" fill="#113D34"></path></g><g transform="translate(4102200 2526300) scale(25 25)"><path d="M378 0 C158 0 0 158 0 347 C0 567 158 725 378 725 L1072 725 C1261 725 1418 567 1418 347 C1418 158 1261 0 1072 0 Z" fill="#113D34"></path></g></svg>