<svg xmlns="http://www.w3.org/2000/svg" viewBox="-2419325 2408150 291450 291450"><g transform="translate(-2419325 2408150) scale(25 25)"><path d="M8948 725 L8948 2489 L8948 10366 C8948 10586 9011 10838 9137 11027 L1733 11027 C1134 11027 662 10586 662 10019 L662 725 Z M11027 2836 L11027 10366 L10995 10366 C10995 10744 10680 11027 10334 11027 C9987 11027 9672 10712 9672 10366 L9672 2836 Z M347 1 C158 1 0 158 0 347 L0 9956 C0 10901 756 11657 1702 11657 L10302 11657 C11027 11657 11657 11027 11657 10271 L11657 2395 C11657 2300 11500 2143 11342 2143 L9641 2143 L9641 347 C9641 158 9483 1 9294 1 Z" fill="#113D34"></path></g><g transform="translate(-2385475 2444375) scale(25 25)"><path d="M6207 694 L6207 2742 L694 2742 L694 694 Z M348 1 C159 1 1 158 1 379 L1 3120 C1 3309 159 3466 348 3466 L6554 3466 C6775 3466 6932 3309 6932 3120 L6932 379 C6869 158 6712 1 6554 1 Z" fill="#F6620B"></path></g><g transform="translate(-2385475 2545975) scale(25 25)"><path d="M2742 757 L2742 2805 L694 2805 L694 757 Z M348 1 C159 1 1 158 1 347 L1 3120 C1 3309 159 3466 348 3466 L3088 3466 C3309 3466 3467 3309 3467 3120 L3467 347 C3467 158 3309 1 3088 1 Z" fill="#113D34"></path></g><g transform="translate(-2281500 2546775) scale(25 25)"><path d="M347 0 C158 0 1 158 1 378 C1 567 158 725 347 725 L2395 725 C2616 725 2773 567 2773 378 C2710 158 2553 0 2395 0 Z" fill="#113D34"></path></g><g transform="translate(-2281500 2581425) scale(25 25)"><path d="M347 1 C158 1 1 158 1 347 C1 568 158 725 347 725 L2395 725 C2616 725 2773 568 2773 347 C2710 158 2553 1 2395 1 Z" fill="#113D34"></path></g><g transform="translate(-2281500 2616075) scale(25 25)"><path d="M347 1 C158 1 1 158 1 347 C1 536 158 694 347 694 L2395 694 C2616 694 2773 536 2773 347 C2710 158 2553 1 2395 1 Z" fill="#113D34"></path></g><g transform="translate(-2385475 2649150) scale(25 25)"><path d="M348 1 C159 1 1 159 1 379 C1 568 159 726 348 726 L6554 726 C6775 726 6932 568 6932 379 C6869 159 6712 1 6554 1 Z" fill="#113D34"></path></g></svg>