<svg xmlns="http://www.w3.org/2000/svg" viewBox="3599700 1954475 296175 295400"><g transform="translate(3599700 1954475) scale(25 25)"><path d="M3151 694 C3718 694 4159 1166 4159 1734 C4159 2301 3686 2742 3151 2742 C2584 2742 2111 2269 2111 1734 C2080 1166 2552 694 3151 694 Z M8727 694 C9326 694 9767 1166 9767 1734 C9767 2301 9294 2742 8727 2742 C8128 2742 7719 2269 7719 1734 C7656 1166 8128 694 8727 694 Z M5923 4852 C6522 4852 6994 5325 6994 5861 C6994 6396 6522 6869 5923 6869 C5356 6869 4883 6428 4883 5861 C4883 5294 5356 4852 5923 4852 Z M3151 3466 C3875 3466 4600 3813 5072 4380 C4537 4695 4159 5231 4159 5861 C4159 6239 4285 6617 4505 6900 L693 6900 L693 5892 C693 4569 1796 3466 3151 3466 Z M8696 3498 C10019 3498 11121 4600 11121 5955 L11121 6932 L7309 6932 C7561 6617 7656 6270 7656 5892 C7656 5262 7309 4726 6774 4411 C7215 3813 7939 3498 8696 3498 Z M5923 7625 C6207 7625 6490 7656 6711 7751 L5923 8791 L5135 7751 C5388 7688 5671 7625 5923 7625 Z M4505 8066 L5577 9484 L5577 11153 L3497 11153 L3497 10019 C3497 9200 3875 8507 4505 8066 Z M7341 8066 C7939 8507 8381 9263 8381 10051 L8381 11153 L6301 11153 L6301 9484 L7341 8066 Z M3088 1 C2143 1 1355 788 1355 1734 C1355 2238 1575 2679 1922 2994 C788 3466 0 4569 0 5861 L0 7247 C0 7436 158 7593 347 7593 L3938 7593 C3214 8192 2741 9043 2741 10019 L2741 11437 C2741 11658 2899 11815 3088 11815 L8696 11815 C8885 11815 9042 11658 9042 11437 L9042 10019 C9042 9043 8570 8192 7876 7593 L11436 7593 C11657 7593 11815 7436 11815 7247 L11815 5861 C11846 4600 11027 3466 9861 2994 C10239 2679 10428 2206 10428 1734 C10428 788 9641 1 8696 1 C7750 1 6963 788 6963 1734 C6963 2238 7152 2679 7498 2994 C6931 3214 6396 3624 6049 4159 L5734 4159 C5388 3655 4883 3214 4285 2994 C4631 2679 4820 2238 4820 1734 C4820 788 4033 1 3088 1 Z" fill="#113D34"></path></g><g transform="translate(3825750 2075775) scale(25 25)"><path d="M347 0 C158 0 0 158 0 347 C0 536 158 694 347 694 L1071 694 C1260 694 1418 536 1418 347 C1418 158 1260 0 1071 0 Z" fill="#F6620B"></path></g><g transform="translate(3633550 2075775) scale(25 25)"><path d="M379 0 C158 0 1 158 1 347 C1 536 158 694 379 694 L1072 694 C1261 694 1419 536 1419 347 C1419 158 1261 0 1072 0 Z" fill="#F6620B"></path></g></svg>