<svg xmlns="http://www.w3.org/2000/svg" viewBox="2523000 1954875 262325 295000"><g transform="translate(2523000 1954875) scale(25 25)"><path d="M5294 709 C6350 1316 7422 1602 8487 1602 C8915 1602 9343 1556 9767 1465 L9767 5026 C9767 7798 7940 10287 5294 11137 C2647 10350 789 7798 789 5026 L789 1465 C1222 1556 1654 1602 2084 1602 C3153 1602 4215 1316 5294 709 Z M5266 0 C5207 0 5152 16 5105 48 C4065 646 3057 930 2017 930 C1513 930 1009 835 473 678 C440 669 408 665 378 665 C297 665 228 695 158 741 C95 804 1 898 1 993 L1 4994 C127 8176 2206 10917 5199 11799 L5357 11799 C8350 10917 10492 8176 10492 5026 L10492 1056 C10492 930 10429 835 10335 772 C10282 720 10230 697 10173 697 C10126 697 10076 713 10019 741 C9509 876 9006 946 8504 946 C7490 946 6485 659 5451 48 C5388 16 5325 0 5266 0 Z" fill="#113D34"></path></g><g transform="translate(2595475 2024575) scale(25 25)"><path d="M2426 694 C2836 694 3151 1009 3151 1418 C3151 1796 2836 2111 2426 2111 C2048 2111 1733 1796 1733 1418 C1733 1009 2048 694 2426 694 Z M2426 2742 C3371 2742 4159 3529 4159 4474 L4159 4821 L693 4821 L693 4474 C693 3529 1481 2742 2426 2742 Z M2458 1 C1733 1 1103 599 1103 1355 C1103 1733 1198 2048 1450 2269 C630 2647 63 3498 63 4474 L63 5199 C0 5388 158 5546 347 5546 L4506 5546 C4726 5546 4884 5388 4884 5199 L4884 4474 C4884 3498 4317 2647 3497 2269 C3718 2048 3844 1702 3844 1355 C3844 599 3214 1 2458 1 Z" fill="#F6620B"></path></g></svg>