<?xml version="1.0" encoding="utf-8"?>
<!-- Generator: Adobe Illustrator 26.5.0, SVG Export Plug-In . SVG Version: 6.00 Build 0)  -->
<svg version="1.1" id="Layer_1" xmlns="http://www.w3.org/2000/svg" xmlns:xlink="http://www.w3.org/1999/xlink" x="0px" y="0px"
	 viewBox="0 0 44 18" style="enable-background:new 0 0 44 18;" xml:space="preserve">
<style type="text/css">
	.st0{fill:#696969;}
</style>
<g>
	<g>
		<path class="st0" d="M8.8,13c0.4,0.4,0.6,1.1,0.6,1.7c0,0.9-0.4,1.7-1,2.2c-1.3,0.9-3.7,0.9-6,0.9H0v-0.4l1.1-0.3v-2.7V9.8V7.2H1
			L0,6.9V6.6h4.2C6.3,6.7,8,6.9,8.7,8.3C8.8,8.6,8.9,9,8.9,9.4c0,1.6-1.3,2.1-2.7,2.4C7.2,12.1,8.2,12.3,8.8,13L8.8,13z M3,11.7
			c1.8,0,3.3-0.1,3.8-1.2C7.2,9.5,7,8.2,6,7.7C5.3,7.3,4.3,7.3,3.1,7.3H3V11.7L3,11.7z M6.9,13c-0.8-0.9-2.3-0.8-3.9-0.8v5
			c1.9,0.1,3.4,0.1,4.1-1C7.7,15.2,7.6,13.7,6.9,13L6.9,13z M34.2,11.2c0.4,0.7,0.5,1.3,0.5,2.4v0.1c0,1.2-0.1,1.8-0.5,2.4
			c-0.6,1-1.7,1.9-3.3,1.9h-0.6c-0.8,0-1.4-0.3-1.9-0.6c-1-0.7-1.7-1.8-1.7-3.5v-0.3v-0.3c0-1.8,0.7-2.8,1.7-3.5
			c0.5-0.3,1.1-0.5,1.9-0.6h0.6C32.5,9.2,33.7,10.1,34.2,11.2z M32.8,13.6c0-2.6-0.7-3.8-2-3.8h-0.3c-1.3,0-2,1.2-2,3.8
			s0.7,3.8,2,3.8h0.3C32.1,17.4,32.8,16.1,32.8,13.6z M44,17.5v0.3h-3.8v-0.2l1.1-0.3v-5.2c0-0.3-0.1-0.6-0.1-0.6
			c-0.1-0.7-0.8-1.2-1.5-1.2c-0.7-0.1-1.5,0.2-1.9,0.7v6.2l1,0.3v0.3H35v-0.4l1.1-0.3v-6.8L35,10V9.8l2.7-0.7l0.1,0.1v1.2
			c0.1,0,0.3-0.2,0.4-0.3c0.5-0.4,1.1-0.9,2.2-0.9c1.4,0,2.6,1.1,2.6,2.5c0,0,0,0,0,0v5.4L44,17.5z M18.4,13.7
			c0,1.2-0.1,1.8-0.5,2.4c-0.6,1-1.7,1.9-3.3,1.9H14c-0.8,0-1.4-0.3-1.9-0.6c-1-0.7-1.7-1.8-1.7-3.5v-0.3v-0.3
			c0-1.8,0.7-2.8,1.7-3.5c0.5-0.3,1.1-0.5,1.9-0.6h0.6c1.6,0,2.7,0.9,3.3,1.9c0.4,0.7,0.5,1.3,0.5,2.4V13.7z M16.5,13.6
			c0-2.6-0.7-3.8-2-3.8h-0.3c-1.3,0-2,1.2-2,3.8s0.7,3.8,2,3.8h0.3C15.8,17.4,16.5,16.1,16.5,13.6L16.5,13.6z M26.3,17.1l1.2,0.4
			v0.3h-4v-0.3l0.7-0.2l-2.3-3.1l-2.2,3l1.2,0.3v0.3h-2.8v-0.3l0.8-0.3l2.6-3.5L18.7,10l-0.2-0.2l3.2-4.3L20,3.5L22.6,0L25,3.2
			l-1.8,2.5l3,4L26,9.9l-2.5,3.5L26.3,17.1z M22.9,5.2l1.2-1.6l-1.7-2.2L21.2,3L22.9,5.2z M23.1,12.9l2-2.7L22,6.2l-2,2.7L23.1,12.9
			z"/>
	</g>
</g>
</svg>
