<?xml version="1.0" encoding="utf-8"?>
<!-- Generator: Adobe Illustrator 26.5.0, SVG Export Plug-In . SVG Version: 6.00 Build 0)  -->
<svg version="1.1" id="Layer_1" xmlns="http://www.w3.org/2000/svg" xmlns:xlink="http://www.w3.org/1999/xlink" x="0px" y="0px"
	 viewBox="0 0 200 134" style="enable-background:new 0 0 200 134;" xml:space="preserve">
<style type="text/css">
	.st0{fill:#AFACAC;}
	.st1{fill:#28316F;}
	.st2{fill:#B3B0B2;}
	.st3{fill:#D4D404;}
	.st4{fill:#74B02E;}
	.st5{fill:#27AFBA;}
	.st6{fill:#59AB4C;}
	.st7{fill:#2882C5;}
	.st8{fill:#213466;}
	.st9{fill:#757A81;}
</style>
<g>
	<g>
		<rect x="117.8" y="2.9" class="st0" width="2.2" height="2.2"/>
		<rect x="164.3" y="30.7" class="st0" width="2.2" height="2.2"/>
		<path class="st0" d="M191.5,28.3c0.5-0.3,1-0.6,1.3-1.1c0.3-0.5,0.6-1.1,0.7-1.8c0.1-0.7,0.2-1.5,0.2-2.4V7.4h-2.2V23
			c0,0.6,0,1.2-0.1,1.6c-0.1,0.4-0.2,0.8-0.3,1.1c-0.2,0.3-0.4,0.5-0.6,0.6c-0.3,0.1-0.6,0.2-1,0.2c-0.2,0-0.4,0-0.5,0
			c-0.1,0-0.4-0.1-0.6-0.1l-0.6,2.2c0.6,0.2,1.2,0.3,1.8,0.3C190.3,28.7,191,28.5,191.5,28.3z"/>
		<path class="st0" d="M183.8,3.4h-3.1V2.9c0-0.3,0.1-0.5,0.2-0.7c0.1-0.1,0.3-0.2,0.7-0.2h1.5V0.5h-1.6c-0.9,0-1.5,0.2-2,0.7
			c-0.5,0.4-0.7,1.2-0.7,2.2v1.8h4.9V3.4z"/>
		<rect x="159.9" y="30.7" class="st0" width="2.2" height="2.2"/>
		<rect x="122.3" y="2.9" class="st0" width="2.2" height="2.2"/>
		<path class="st0" d="M173.8,20.7c0.8,0.6,1.8,1.1,3,1.3c1.1,0.3,2.3,0.4,3.6,0.4h0.6l0.8-1.6v2.2c0,1.2-0.3,2-1,2.5
			c-0.7,0.5-1.6,0.8-2.8,0.8c-0.7,0-1.3-0.1-1.9-0.2c-0.5-0.1-1.2-0.4-1.9-0.7l-0.7,2.2c0.9,0.3,1.6,0.6,2.3,0.7
			c0.7,0.2,1.3,0.2,2,0.2c2.2,0,3.8-0.5,4.8-1.5c1-1,1.5-2.4,1.5-4.2V7.4h-3.6c-1.4,0-2.6,0.2-3.8,0.6c-1.1,0.4-2.1,0.9-2.9,1.6
			c-0.8,0.7-1.4,1.5-1.9,2.4c-0.4,0.9-0.7,2-0.7,3.1c0,1.3,0.2,2.5,0.7,3.4C172.2,19.4,172.9,20.1,173.8,20.7z M173.8,12.8
			c0.3-0.7,0.8-1.2,1.4-1.7c0.6-0.5,1.2-0.8,1.9-1.1c0.7-0.3,1.4-0.4,2.2-0.4v0h3.6l-1.3,0.6v10h-2.3c-0.8,0-1.6-0.1-2.4-0.4
			c-0.7-0.2-1.4-0.6-1.9-1c-0.6-0.4-1-1-1.3-1.6c-0.3-0.7-0.5-1.4-0.5-2.2C173.2,14.2,173.4,13.5,173.8,12.8z"/>
		<path class="st0" d="M118.4,28.4h4.7v-1.7c0,0.1,0.1,0.2,0.1,0.2c0.3,0.5,0.8,0.9,1.3,1.1c0.5,0.3,1.2,0.4,2,0.4h40.8V7.4h-2.2
			v18.8h-2.3h-36.2c-0.4,0-0.8-0.1-1-0.2c-0.3-0.1-0.5-0.3-0.6-0.6c-0.2-0.3-0.3-0.6-0.3-1.1c-0.1-0.4-0.1-1-0.1-1.6V7.4h-6
			c-6.2,0-10.4,4.9-10.4,10.5v0.1C108,23.5,112.2,28.4,118.4,28.4z M110.4,17.8c0-4.6,3.3-8.3,8-8.3h5.2l-1.4,0.7v12.6
			c0,0.9,0.1,1.7,0.2,2.4c0.1,0.4,0.2,0.8,0.3,1.1l-4.4,0C113.8,26.2,110.4,22.5,110.4,17.8L110.4,17.8z"/>
		<polygon class="st0" points="96.8,22.8 97.8,25.4 83.6,7.3 81.4,7.3 81.4,28.3 83.7,28.3 83.7,12.5 82.4,9.4 97.3,28.3 99.2,28.3 
			99.2,7.3 96.8,7.3 		"/>
		<path class="st0" d="M128.7,61.8l12.9-12.3v-8.4h-34.5v9.6h17.7l6.6-4.2L115,62.9l1.8,7.1h4.7c6.3,0,10,2.3,10,6.5v0.1
			c0,3.8-3,6.2-7.2,6.2c-5.2,0-8.8-2.2-12.3-6.1l-7.7,7.4c4.4,5.2,10.7,8.8,19.9,8.8c11.4,0,18.4-7.1,18.4-16.7v-0.1
			C142.4,66.6,135.7,63,128.7,61.8z"/>
		<path class="st0" d="M66.8,7C60.4,7,56.1,12,56.1,17.8v0.1c0,5.8,4.3,10.8,10.7,10.8s10.8-5.1,10.8-10.8v-0.1
			C77.5,12,73.2,7,66.8,7z M75,17.9c0,4.8-3.4,8.6-8.2,8.6c-4.8,0-8.3-3.9-8.3-8.7v-0.1c0-4.8,3.4-8.6,8.2-8.6
			C71.6,9.2,75,13.1,75,17.9L75,17.9z"/>
		<path class="st0" d="M172.5,40.2c-15.7,0-27.2,11.9-27.2,26.3v0.1c0,14.5,11.3,26.2,27.1,26.2c15.8,0,27.2-11.9,27.2-26.3v-0.1
			C199.6,51.9,188.3,40.2,172.5,40.2z M187.8,66.7c0,8.7-6.3,15.9-15.3,15.9c-9,0-15.5-7.3-15.5-16v-0.1c0-8.7,6.3-15.9,15.3-15.9
			c9,0,15.5,7.3,15.5,16V66.7z"/>
		<rect x="49.6" y="7.3" class="st0" width="2.4" height="21"/>
		<path class="st0" d="M11.5,86.2l2.2-1.7L24.8,76c9-7,13.4-11.2,13.4-19.7v-0.1c0-9.5-7-15.7-17.6-15.7c-9.1,0-14,3.7-19,10.6
			l7.9,6.3c3.8-4.7,6.5-6.8,10.4-6.8c4,0,6.9,2.3,6.9,6.6c0,4.2-2.5,7-8.8,12.2L1,83.2V92h37.8v-9.7H19.3L11.5,86.2z"/>
		<polygon class="st0" points="11.6,28.5 20.7,7.3 18.1,7.3 11,24.5 11.2,26.8 10.6,25.4 4.4,10.5 3.1,7.3 0.5,7.3 9.5,28.5 		"/>
		<rect x="23.9" y="7.3" class="st0" width="2.4" height="21"/>
		<path class="st0" d="M38.8,16.7c-4.6-1-5.7-2.1-5.7-4.1v-0.1c0-1.9,1.7-3.4,4.5-3.4c2.2,0,4.1,0.7,6.1,2.3L45,9.6
			C42.9,7.9,40.7,7,37.7,7c-4,0-6.9,2.4-6.9,5.7v0.1c0,3.4,2.2,5,7.1,6.1c4.4,0.9,5.5,2,5.5,4v0.1c0,2.1-1.9,3.6-4.7,3.6
			c-2.9,0-5-1-7.2-3l-1.5,1.7c2.5,2.2,5.3,3.4,8.6,3.4c4.2,0,7.2-2.3,7.2-5.9v-0.1C45.7,19.4,43.5,17.7,38.8,16.7z"/>
	</g>
	<polygon class="st1" points="69.2,36.9 71.8,39.3 69.3,41.9 66.8,39.4 	"/>
	<polygon class="st2" points="75.2,39.4 77.7,41.9 80.2,39.3 77.6,36.9 	"/>
	<polygon class="st3" points="71.5,42.7 73.5,44.6 75.5,42.6 73.5,40.7 	"/>
	<polygon class="st4" points="78.9,43.8 80.9,45.7 82.8,43.7 80.8,41.8 	"/>
	<polygon class="st3" points="68.2,45.8 70.2,47.7 72.2,45.7 70.2,43.8 	"/>
	<polygon class="st5" points="75,46 77,47.9 78.9,45.9 76.9,44 	"/>
	<polygon class="st4" points="72.3,48.3 73.8,49.7 75.1,48.3 73.7,46.9 	"/>
	<polygon class="st6" points="77.7,49.4 79.1,50.7 80.5,49.3 79,48 	"/>
	<rect x="89.7" y="38.2" transform="matrix(0.9836 -0.1803 0.1803 0.9836 -5.7811 17.2389)" class="st7" width="4.5" height="4.5"/>
	<rect x="83.9" y="40.1" transform="matrix(0.9836 -0.1801 0.1801 0.9836 -6.1458 16.1212)" class="st8" width="3.6" height="3.6"/>
	<rect x="90.7" y="45" transform="matrix(0.9836 -0.1804 0.1804 0.9836 -6.9256 17.4548)" class="st5" width="3.6" height="3.6"/>
	<rect x="85.8" y="45.6" transform="matrix(0.9836 -0.1802 0.1802 0.9836 -7.0426 16.4825)" class="st3" width="2.8" height="2.8"/>
	<rect x="91.1" y="50.8" transform="matrix(0.9836 -0.1802 0.1802 0.9836 -7.8929 17.5296)" class="st2" width="2.8" height="2.8"/>
	<rect x="81.7" y="46.7" transform="matrix(0.9836 -0.1802 0.1802 0.9836 -7.3108 15.7599)" class="st5" width="2.8" height="2.8"/>
	<rect x="86.7" y="50.3" transform="matrix(0.9836 -0.1802 0.1802 0.9836 -7.8756 16.7162)" class="st4" width="2.8" height="2.8"/>
	<rect x="83.1" y="50.7" transform="matrix(0.9836 -0.1803 0.1803 0.9836 -7.9445 16.0092)" class="st2" width="2" height="2"/>
	<rect x="86.8" y="54.7" transform="matrix(0.9837 -0.1798 0.1798 0.9837 -8.5821 16.694)" class="st6" width="2" height="2"/>
	<polygon class="st1" points="102.4,53 100.5,57 104.5,58.9 106.4,54.9 	"/>
	<polygon class="st5" points="96.7,51.1 95.1,54.4 98.4,55.9 99.9,52.7 	"/>
	<polygon class="st4" points="99.3,59.1 97.8,62.3 101,63.8 102.6,60.6 	"/>
	<polygon class="st3" points="95.1,56.7 93.9,59.2 96.4,60.4 97.6,57.9 	"/>
	<polygon class="st3" points="96.4,64 95.2,66.5 97.7,67.7 98.9,65.2 	"/>
	<polygon class="st7" points="91.1,55.2 89.9,57.7 92.4,58.9 93.6,56.4 	"/>
	<polygon class="st2" points="93,61 91.8,63.5 94.4,64.7 95.6,62.2 	"/>
	<polygon class="st4" points="90,59.2 89.2,61 90.9,61.8 91.8,60.1 	"/>
	<rect x="90.2" y="64.9" transform="matrix(0.4297 -0.903 0.903 0.4297 -7.5356 119.8891)" class="st5" width="2" height="2"/>
	<polygon class="st7" points="104.6,72.3 100.7,74.4 102.8,78.3 106.7,76.2 	"/>
	<polygon class="st5" points="101,67.4 97.9,69.1 99.6,72.3 102.8,70.5 	"/>
	<polygon class="st5" points="98.5,75.4 95.4,77.1 97.1,80.3 100.2,78.5 	"/>
	<polygon class="st1" points="96.5,71 94,72.3 95.4,74.7 97.8,73.4 	"/>
	<polygon class="st6" points="93.2,77.7 90.8,79 92.1,81.4 94.6,80.1 	"/>
	<polygon class="st8" points="94.1,67.4 91.7,68.8 93,71.2 95.5,69.9 	"/>
	<polygon class="st3" points="92.3,73.3 89.9,74.6 91.2,77.1 93.6,75.7 	"/>
	<polygon class="st2" points="90.9,70.1 89.2,71 90.1,72.7 91.8,71.8 	"/>
	<polygon class="st5" points="88.3,74.8 86.5,75.8 87.5,77.5 89.2,76.6 	"/>
	
		<rect x="90.3" y="88.9" transform="matrix(0.1226 -0.9925 0.9925 0.1226 -9.2101 171.7813)" class="st4" width="4.5" height="4.5"/>
	<rect x="91.2" y="82.9" transform="matrix(0.123 -0.9924 0.9924 0.123 -2.4925 166.5964)" class="st8" width="3.6" height="3.6"/>
	<rect x="84.5" y="87.9" transform="matrix(0.123 -0.9924 0.9924 0.123 -13.3704 164.3191)" class="st5" width="3.6" height="3.6"/>
	<rect x="86.3" y="83.2" transform="matrix(0.1227 -0.9924 0.9924 0.1227 -7.028 161.2534)" class="st4" width="2.8" height="2.8"/>
	
		<rect x="79.7" y="86.7" transform="matrix(0.1227 -0.9924 0.9924 0.1227 -16.2917 157.8225)" class="st2" width="2.8" height="2.8"/>
	<rect x="86.5" y="79" transform="matrix(0.123 -0.9924 0.9924 0.123 -2.6904 157.662)" class="st2" width="2.8" height="2.8"/>
	<rect x="81.5" y="82.6" transform="matrix(0.123 -0.9924 0.9924 0.123 -10.6456 155.9961)" class="st4" width="2.8" height="2.8"/>
	<rect x="83.1" y="79.3" transform="matrix(0.1228 -0.9924 0.9924 0.1228 -5.8278 153.8748)" class="st2" width="2" height="2"/>
	<rect x="78.2" y="81.6" transform="matrix(0.1227 -0.9924 0.9924 0.1227 -12.4558 151.0503)" class="st2" width="2" height="2"/>
	<polygon class="st3" points="77.4,97.3 74.1,94.3 71.1,97.5 74.4,100.6 	"/>
	<polygon class="st4" points="76.8,34.9 73.5,31.8 70.5,35.1 73.8,38.1 	"/>
	<polygon class="st5" points="80.9,92.4 78.3,90 75.8,92.6 78.5,95 	"/>
	<polygon class="st4" points="72.5,92.5 69.9,90.1 67.4,92.7 70.1,95.2 	"/>
	<polygon class="st7" points="76.1,89.2 74,87.3 72.1,89.4 74.2,91.3 	"/>
	<polygon class="st3" points="68.7,88.3 66.6,86.4 64.7,88.4 66.8,90.3 	"/>
	<polygon class="st3" points="78.7,85.9 76.7,84 74.8,86 76.8,87.9 	"/>
	<polygon class="st2" points="72.6,86 70.5,84.1 68.6,86.1 70.7,88 	"/>
	<polygon class="st8" points="75.2,83.6 73.7,82.3 72.4,83.7 73.8,85.1 	"/>
	<polygon class="st2" points="69.8,82.7 68.4,81.3 67,82.8 68.5,84.1 	"/>
	
		<rect x="53.5" y="89.6" transform="matrix(0.9805 -0.1965 0.1965 0.9805 -16.9622 12.7368)" class="st7" width="4.5" height="4.5"/>
	<rect x="60.1" y="88.5" transform="matrix(0.9805 -0.1964 0.1964 0.9805 -16.5207 13.919)" class="st5" width="3.6" height="3.6"/>
	<rect x="53.2" y="83.7" transform="matrix(0.9805 -0.1967 0.1967 0.9805 -15.734 12.4918)" class="st4" width="3.6" height="3.6"/>
	<rect x="59" y="83.8" transform="matrix(0.9805 -0.1964 0.1964 0.9805 -15.556 13.5116)" class="st3" width="2.8" height="2.8"/>
	<rect x="63" y="82.6" transform="matrix(0.9805 -0.1964 0.1964 0.9805 -15.2441 14.2922)" class="st1" width="2.8" height="2.8"/>
	<rect x="58" y="79.1" transform="matrix(0.9805 -0.1964 0.1964 0.9805 -14.6542 13.2342)" class="st7" width="2.8" height="2.8"/>
	<rect x="62.4" y="79.5" transform="matrix(0.9806 -0.1962 0.1962 0.9806 -14.5524 14.0005)" class="st4" width="2" height="2"/>
	<rect x="58.6" y="75.5" transform="matrix(0.9805 -0.1967 0.1967 0.9805 -13.8874 13.2201)" class="st2" width="2" height="2"/>
	<polygon class="st5" points="45,79.5 46.9,75.4 42.8,73.5 41,77.6 	"/>
	<polygon class="st3" points="50.8,81.2 52.3,78 49,76.5 47.5,79.7 	"/>
	<polygon class="st7" points="48,73.3 49.5,70.1 46.2,68.6 44.7,71.8 	"/>
	
		<rect x="50.2" y="72.4" transform="matrix(0.4149 -0.9098 0.9098 0.4149 -36.9738 90.1304)" class="st5" width="2.8" height="2.8"/>
	<polygon class="st2" points="55.7,82 56.8,79.5 54.3,78.3 53.1,80.8 	"/>
	
		<rect x="48.8" y="65.1" transform="matrix(0.4151 -0.9098 0.9098 0.4151 -31.1406 84.5657)" class="st1" width="2.8" height="2.8"/>
	
		<rect x="54.2" y="73.9" transform="matrix(0.4151 -0.9098 0.9098 0.4151 -35.9317 94.6041)" class="st6" width="2.8" height="2.8"/>
	
		<rect x="52.2" y="68.1" transform="matrix(0.4154 -0.9096 0.9096 0.4154 -31.8648 89.3427)" class="st3" width="2.8" height="2.8"/>
	<polygon class="st8" points="57.3,73 58.1,71.2 56.4,70.4 55.5,72.2 	"/>
	<polygon class="st4" points="56.6,67.6 57.4,65.9 55.6,65.1 54.8,66.8 	"/>
	<polygon class="st5" points="42.5,60.2 46.4,58 44.2,54.1 40.3,56.3 	"/>
	<polygon class="st4" points="46.2,65 49.3,63.2 47.5,60.1 44.4,61.9 	"/>
	<polygon class="st8" points="48.6,57 51.7,55.2 49.9,52.1 46.8,53.9 	"/>
	<polygon class="st7" points="50.6,61.4 53.1,60 51.7,57.6 49.3,59 	"/>
	<polygon class="st4" points="53.8,54.6 56.2,53.2 54.8,50.8 52.4,52.2 	"/>
	<polygon class="st5" points="53.1,64.9 55.5,63.5 54.1,61.1 51.7,62.5 	"/>
	<polygon class="st3" points="54.8,59 57.2,57.6 55.8,55.2 53.4,56.6 	"/>
	<polygon class="st2" points="56.3,62.2 58,61.2 57,59.5 55.3,60.5 	"/>
	<polygon class="st4" points="58.8,57.4 60.5,56.4 59.5,54.7 57.8,55.7 	"/>
	<rect x="52" y="39" transform="matrix(0.1063 -0.9943 0.9943 0.1063 7.5335 90.7532)" class="st4" width="4.5" height="4.5"/>
	<rect x="52.1" y="45.8" transform="matrix(0.1064 -0.9943 0.9943 0.1064 0.8539 96.1161)" class="st2" width="3.6" height="3.6"/>
	<rect x="58.8" y="40.7" transform="matrix(0.1064 -0.9943 0.9943 0.1064 11.8873 98.1413)" class="st5" width="3.6" height="3.6"/>
	<rect x="57.8" y="46.2" transform="matrix(0.1065 -0.9943 0.9943 0.1065 5.5868 101.4218)" class="st3" width="2.8" height="2.8"/>
	
		<rect x="64.3" y="42.6" transform="matrix(0.1061 -0.9944 0.9944 0.1061 15.0376 104.6685)" class="st7" width="2.8" height="2.8"/>
	<rect x="57.7" y="50.5" transform="matrix(0.1065 -0.9943 0.9943 0.1065 1.2722 105.1222)" class="st5" width="2.8" height="2.8"/>
	<rect x="62.6" y="46.7" transform="matrix(0.1065 -0.9943 0.9943 0.1065 9.3419 106.6034)" class="st4" width="2.8" height="2.8"/>
	<rect x="61.9" y="50.9" transform="matrix(0.1064 -0.9943 0.9943 0.1064 4.5542 108.8883)" class="st8" width="2" height="2"/>
	<rect x="66.8" y="48.5" transform="matrix(0.1058 -0.9944 0.9944 0.1058 11.356 111.6135)" class="st2" width="2" height="2"/>
	<path class="st9" d="M87.7,68.9c-0.3-0.2-0.9-0.5-1.8-0.8c-1.2-0.4-2.9-0.7-4.9-0.4c-0.7,0.1-1.4,0.3-2.1,0.5c-0.1,0-0.1,0-0.2,0.1
		c-0.4,0.1-0.7,0.3-1.1,0.5c-0.3,0.2-0.6,0.3-1,0.5c-0.7,0.4-1.4,0.9-2.1,1.5c-0.8-4.8-0.4-9.2-0.2-11.3c0,0,0,0,0,0
		c1.7,1.1,1.2,4,0.9,4.9c0,0,0,0,0,0c2.1-2.5,1.1-5.2,0.6-5.9c0,0,0,0,0,0c0.3,0.2,0.6,0.5,0.8,0.8c0.6,0.8,0.9,1.7,1,2.5
		c0,0.4,0,0.8,0,1.1c0,0.1,0,0.2,0,0.3c0,0,0,0,0,0c0,0,0,0,0,0c0.6-1.1,0.8-2.8,0-4.4c-0.2-0.4-0.5-0.9-1-1.3
		c-0.1-0.1-0.2-0.2-0.4-0.4c0,0,0,0,0,0c0.1,0,0.2,0.1,0.4,0.1c0.4,0.1,0.7,0.3,1,0.5c0.6,0.5,1.1,1.1,1.3,1.8
		c0.2,0.6,0.3,1.1,0.3,1.6c0,0,0,0,0,0c0.4-1.4,0.2-2.5-0.3-3.3c-0.4-0.6-0.8-1-1.3-1.3c-0.3-0.2-0.7-0.3-1-0.4
		C76.5,56,76.4,56,76.2,56c0,0,0,0,0,0c0.2,0,0.3,0,0.5,0c0.4,0,0.7,0,1,0.1c0.6,0.1,1,0.3,1.3,0.5c0.5,0.4,0.8,0.8,0.9,1
		c0,0,0,0,0,0c-0.1-0.8-0.4-1.4-0.9-1.8c-0.4-0.3-0.8-0.6-1.3-0.7c-0.3-0.1-0.6-0.1-1-0.1c-0.4,0-0.8,0.1-1.2,0.2c0,0,0,0,0,0
		c0.3-0.4,0.7-0.7,1.2-0.9c0.3-0.1,0.6-0.1,1-0.1c0.3,0,0.6,0.1,0.8,0.2c0,0,0,0,0,0c-0.2-0.3-0.5-0.5-0.8-0.6
		c-0.3-0.2-0.6-0.3-1-0.3c-0.8-0.1-1.7,0.3-2.3,1.1c0,0,0,0,0,0c-0.1-0.2-0.2-0.4-0.3-0.6c-0.2-0.5-0.4-1.1-0.5-1.7c0,0,0,0,0,0
		c-0.1,0.6-0.3,1.2-0.5,1.7c-0.1,0.2-0.2,0.4-0.3,0.6c0,0,0,0,0,0c-1-1.5-2.9-1.5-4-0.2c0,0,0,0,0,0c0.8-0.4,2.2-0.3,2.9,0.8
		c0,0,0,0,0,0c-1.1-0.5-2.9-0.2-3.8,0.9c-0.3,0.4-0.6,0.9-0.6,1.5c0,0,0,0,0,0c0.1-0.1,0.3-0.4,0.6-0.7c0.5-0.5,1.5-1,3-0.8
		c0,0,0,0,0,0c-0.8,0.1-2.4,0.8-3,2.4c-0.3,0.7-0.3,1.6,0,2.7c0,0,0,0,0,0c0,0,0-0.1,0-0.1c0-1.5,0.9-3.5,2.9-4c0,0,0,0,0,0
		c-2.3,2.1-2.1,4.6-1.3,6.1c0,0,0,0,0,0c-0.1-1.1-0.2-3.1,1.7-4.7c0,0,0,0,0,0c-0.4,0.7-1.5,3.4,0.6,5.9c0,0,0,0,0,0
		c-0.4-0.8-0.8-3.8,0.9-4.9c0,0,0,0,0,0c0.2,2.2,0.6,6.6-0.2,11.3c-1.4-1-2.8-1.9-4.2-2.5c-0.2-0.1-0.3-0.1-0.5-0.2
		c-1.5-0.5-2.8-0.6-4-0.6c-1.9,0.1-3.3,0.6-4.1,1c-0.2,0.1-0.3,0.2-0.4,0.2c0,0,0,0.1,0,0.1c0.1,0,0.2-0.1,0.4-0.1
		c1.4-0.4,2.8-0.5,4.1-0.4c1.4,0.1,2.7,0.5,4,1.1c1.7,0.8,3.3,1.9,4.7,3.1c-2,1.7-3.7,3.4-4.7,4c-0.1,0-0.1,0.1-0.2,0.1
		c-0.2-0.3-0.7-0.5-1.1-0.4c-0.4,0.1-0.7,0.4-0.8,0.8c-0.1,0.4,0,0.7,0.2,1c0.5,0.5,1.2,0.6,1.9,0.3c1.4-0.6,3.1-2.4,5.2-4.3
		c0.2-0.2,0.4-0.3,0.5-0.5c0.2,0.2,0.4,0.3,0.5,0.5c1,0.9,1.8,1.7,2.6,2.5c0.3,0.3,0.6,0.6,1,0.8c0.5,0.4,0.9,0.7,1.3,0.9
		c0.8,0.4,1.5,0.5,2.1,0c0,0,0.1-0.1,0.1-0.1c0.1-0.1,0.3-0.6,0.2-1c0-0.2-0.2-0.4-0.3-0.5c-0.1-0.1-0.3-0.2-0.5-0.3
		c-0.5-0.1-0.9,0.1-1.1,0.4c-0.1-0.1-0.3-0.2-0.5-0.3c-0.4-0.3-0.8-0.6-1.3-1.1c-0.3-0.3-0.6-0.5-1-0.9c-0.7-0.6-1.4-1.2-2.1-1.9
		c0.7-0.6,1.4-1.1,2.1-1.6c0.3-0.2,0.6-0.4,1-0.6c0.4-0.3,0.9-0.5,1.3-0.7c0.7-0.3,1.4-0.6,2.1-0.8c1.5-0.4,3.1-0.6,4.9-0.3
		C86.5,68.7,87.1,68.8,87.7,68.9C87.7,69,87.8,69,87.7,68.9"/>
	<g>
		<rect x="10.9" y="117.5" class="st0" width="1.3" height="1.3"/>
		<path class="st0" d="M99.4,116v-8.7h-1.3v7.4h-4.8v-7.4H92v7.4h-5.1v-7.4h-2c-0.8,0-1.5,0.1-2.2,0.3c-0.7,0.2-1.2,0.5-1.7,0.9
			c-0.5,0.4-0.8,0.8-1.1,1.4c-0.3,0.5-0.4,1.1-0.4,1.7c0,0.8,0.1,1.4,0.4,2c0.3,0.5,0.7,1,1.2,1.3c0.5,0.4,1,0.6,1.7,0.8
			c0.6,0.2,1.3,0.3,2,0.3H99.4z M83,114.5c-0.4-0.1-0.8-0.3-1.1-0.6c-0.3-0.3-0.6-0.6-0.7-1c-0.2-0.4-0.3-0.8-0.3-1.3
			c0-0.5,0.1-0.9,0.3-1.3c0.2-0.4,0.5-0.7,0.8-1c0.3-0.3,0.7-0.5,1.1-0.6c0.4-0.1,0.8-0.2,1.3-0.2h1.3v6.1h-1.3
			C83.9,114.7,83.4,114.6,83,114.5z"/>
		<rect x="72" y="104.5" class="st0" width="1.3" height="11.5"/>
		<rect x="85.6" y="104.5" class="st0" width="1.3" height="1.3"/>
		<rect x="98.1" y="117.5" class="st0" width="1.3" height="1.3"/>
		<rect x="13.1" y="117.5" class="st0" width="1.3" height="1.3"/>
		<path class="st0" d="M67,114.7h-2.1c-0.7,0-1.3-0.1-1.8-0.3c-0.4-0.2-0.8-0.5-1-1c0.1-0.3,0.1-0.7,0.1-1.2v-4.1h-1.3v4.3
			c0,0.7-0.2,1.3-0.6,1.8c-0.4,0.4-1,0.7-1.8,0.7c-0.4,0-0.7-0.1-1-0.2c-0.3-0.1-0.6-0.3-0.8-0.5c-0.2-0.2-0.4-0.4-0.5-0.7
			c-0.1-0.3-0.2-0.6-0.2-0.9v-4.5h-1.3v4.4c0,0.4-0.1,0.7-0.2,1c-0.1,0.3-0.3,0.5-0.5,0.7c-0.2,0.2-0.4,0.3-0.7,0.4
			c-0.3,0.1-0.5,0.1-0.8,0.1h-2.5v-6.6h-1.3v6.6h-6.7l2.2-5.4c-0.3-0.3-0.7-0.6-1.1-0.8c-0.4-0.3-0.8-0.5-1.2-0.7
			c-0.4-0.2-0.8-0.4-1.2-0.5c-0.4-0.1-0.8-0.2-1.2-0.2c-0.4,0-0.8,0.1-1.2,0.2c-0.4,0.1-0.8,0.3-1.2,0.5c-0.4,0.2-0.8,0.4-1.2,0.7
			c-0.4,0.3-0.7,0.5-1.1,0.8l2.3,5.4h-4.4v-7.4h-2c-0.8,0-1.5,0.1-2.2,0.3c-0.7,0.2-1.2,0.5-1.7,0.9c-0.5,0.4-0.8,0.9-1.1,1.4
			c-0.3,0.5-0.4,1.1-0.4,1.8c0,0.8,0.1,1.4,0.4,1.9c0.3,0.5,0.7,1,1.2,1.3c0.5,0.3,1,0.6,1.7,0.8c0.6,0.2,1.3,0.2,2,0.2h0.8v0.4
			c0,0.7-0.2,1.2-0.6,1.4c-0.4,0.3-0.9,0.4-1.6,0.4c-0.4,0-0.8,0-1.1-0.1c-0.3-0.1-0.7-0.2-1.1-0.4l-0.4,1.2
			c0.5,0.2,0.9,0.3,1.3,0.4c0.4,0.1,0.8,0.1,1.1,0.1c1.2,0,2.2-0.3,2.7-0.9c0.6-0.6,0.8-1.4,0.8-2.4V116h19.9c0.6,0,1.2-0.1,1.7-0.4
			c0.5-0.3,0.9-0.6,1.2-1.1c0.3,0.5,0.7,0.9,1.3,1.2c0.5,0.3,1.2,0.4,1.9,0.4c0.8,0,1.4-0.1,2-0.4c0.5-0.3,1-0.7,1.2-1.2
			c0.1,0.2,0.2,0.4,0.4,0.5c0.2,0.2,0.4,0.3,0.6,0.5c0.2,0.1,0.5,0.3,0.9,0.3c0.3,0.1,0.6,0.1,0.9,0.1v0h3.7v-11.5H67V114.7z
			 M31.4,114.7h-1.3c-0.5,0-0.9-0.1-1.4-0.2c-0.4-0.1-0.8-0.3-1.1-0.6c-0.3-0.3-0.6-0.6-0.8-0.9c-0.2-0.4-0.3-0.8-0.3-1.3
			c0-0.5,0.1-0.9,0.3-1.3c0.2-0.4,0.5-0.7,0.8-1c0.3-0.3,0.7-0.5,1.1-0.6c0.4-0.1,0.8-0.2,1.3-0.2h1.3V114.7z M38.4,114.7l-2-4.9
			c0.5-0.4,1-0.7,1.5-0.9c0.5-0.2,1.1-0.3,1.6-0.3c0.6,0,1.1,0.1,1.7,0.3c0.6,0.2,1,0.5,1.4,0.9l-2,4.9H38.4z"/>
		<rect x="6.5" y="104.5" class="st0" width="1.3" height="1.3"/>
		<rect x="136.1" y="104.5" class="st0" width="1.3" height="1.3"/>
		<rect x="124.7" y="104.5" class="st0" width="1.3" height="11.5"/>
		<rect x="83.3" y="104.5" class="st0" width="1.3" height="1.3"/>
		<path class="st0" d="M23.3,110.9c0-0.5-0.1-1-0.2-1.4c-0.1-0.4-0.3-0.8-0.6-1.1c-0.3-0.4-0.7-0.7-1.1-0.8
			c-0.4-0.2-0.9-0.3-1.5-0.3h-0.9v1.3h1.1c0.3,0,0.6,0.1,0.9,0.2c0.3,0.1,0.5,0.3,0.7,0.5c0.2,0.2,0.3,0.5,0.4,0.7
			c0.1,0.3,0.1,0.6,0.1,1v3.7h-6v1.3h7.3V110.9z"/>
		<rect x="192.5" y="104.5" class="st0" width="1.3" height="11.5"/>
		<rect x="138.3" y="104.5" class="st0" width="1.3" height="1.3"/>
		<path class="st0" d="M188.8,104.5h-1.3v10.2h-4.4c0.3-0.6,0.4-1.2,0.4-1.9c0-0.7-0.1-1.3-0.4-1.8c-0.2-0.6-0.6-1.1-1-1.5
			c-0.4-0.4-0.9-0.7-1.5-1c-0.6-0.2-1.2-0.4-1.9-0.4c-0.6,0-1.2,0.1-1.8,0.4c-0.6,0.2-1,0.6-1.4,1c-0.4,0.4-0.7,0.9-1,1.5
			c-0.2,0.6-0.4,1.2-0.4,1.8c0,0.3,0,0.7,0.1,1c0.1,0.3,0.2,0.6,0.3,0.9h-4c0.3-0.6,0.4-1.2,0.4-1.9c0-0.7-0.1-1.3-0.4-1.8
			c-0.2-0.6-0.6-1.1-1-1.5c-0.4-0.4-0.9-0.7-1.5-1c-0.6-0.2-1.2-0.4-1.9-0.4c-0.6,0-1.2,0.1-1.8,0.4c-0.6,0.2-1,0.6-1.4,1
			c-0.4,0.4-0.7,0.9-1,1.5c-0.2,0.6-0.4,1.2-0.4,1.8c0,0.3,0,0.7,0.1,1c0.1,0.3,0.2,0.6,0.3,0.9h-4.1v-10.2h-1.3v10.2h-4.1v-2
			c0-0.5-0.1-1-0.2-1.4c-0.1-0.4-0.3-0.8-0.6-1.1c-0.3-0.4-0.7-0.7-1.1-0.8c-0.4-0.2-0.9-0.3-1.6-0.3h-5.7l2.4-4.6h-1.4l-2.5,4.6
			c0,0.3,0.1,0.5,0.2,0.7c0.1,0.2,0.2,0.4,0.4,0.6h6.5c0.4,0,0.8,0.1,1,0.2c0.3,0.1,0.5,0.3,0.7,0.5c0.2,0.2,0.3,0.5,0.4,0.7
			c0.1,0.3,0.1,0.6,0.1,0.9v2h-11.9v-7.4h-2c-0.8,0-1.5,0.1-2.2,0.3c-0.7,0.2-1.2,0.5-1.7,0.9c-0.5,0.4-0.8,0.8-1.1,1.4
			c-0.3,0.5-0.4,1.1-0.4,1.7c0,0.8,0.1,1.4,0.4,2c0.3,0.5,0.7,1,1.2,1.3c0.5,0.4,1,0.6,1.7,0.8c0.6,0.2,1.3,0.3,2,0.3H163
			c0.4,0.4,0.9,0.8,1.5,1.1c0.6,0.3,1.2,0.4,1.9,0.4c0.7,0,1.3-0.1,1.9-0.4c0.6-0.3,1.1-0.6,1.5-1.1h5.6c0.4,0.4,0.9,0.8,1.5,1.1
			c0.6,0.3,1.2,0.4,1.9,0.4c0.7,0,1.3-0.1,1.9-0.4c0.6-0.3,1.1-0.6,1.5-1.1h6.5V104.5z M138.4,114.7h-1.3c-0.5,0-0.9-0.1-1.4-0.2
			c-0.4-0.1-0.8-0.3-1.1-0.6c-0.3-0.3-0.6-0.6-0.7-1c-0.2-0.4-0.3-0.8-0.3-1.3c0-0.5,0.1-0.9,0.3-1.3c0.2-0.4,0.5-0.7,0.8-1
			c0.3-0.3,0.7-0.5,1.1-0.6c0.4-0.1,0.8-0.2,1.3-0.2h1.3V114.7z M169.5,114.1c-0.2,0.4-0.4,0.8-0.7,1.1c-0.3,0.3-0.7,0.5-1.1,0.7
			c-0.4,0.2-0.9,0.2-1.3,0.2c-0.5,0-0.9-0.1-1.3-0.3c-0.4-0.2-0.7-0.4-1-0.7c-0.3-0.3-0.5-0.7-0.7-1.1c-0.2-0.4-0.2-0.8-0.2-1.3
			c0-0.5,0.1-0.9,0.2-1.3c0.2-0.4,0.4-0.8,0.7-1.1c0.3-0.3,0.6-0.5,1-0.7c0.4-0.2,0.8-0.3,1.3-0.3c0.5,0,0.9,0.1,1.4,0.3
			c0.4,0.2,0.8,0.4,1.1,0.7c0.3,0.3,0.5,0.7,0.7,1.1c0.2,0.4,0.3,0.9,0.3,1.4C169.8,113.3,169.7,113.7,169.5,114.1z M182,114.1
			c-0.2,0.4-0.4,0.8-0.7,1.1c-0.3,0.3-0.7,0.5-1.1,0.7c-0.4,0.2-0.9,0.2-1.3,0.2c-0.5,0-0.9-0.1-1.3-0.3c-0.4-0.2-0.7-0.4-1-0.7
			c-0.3-0.3-0.5-0.7-0.7-1.1c-0.2-0.4-0.2-0.8-0.2-1.3c0-0.5,0.1-0.9,0.2-1.3c0.2-0.4,0.4-0.8,0.7-1.1c0.3-0.3,0.6-0.5,1-0.7
			c0.4-0.2,0.8-0.3,1.3-0.3c0.5,0,0.9,0.1,1.4,0.3c0.4,0.2,0.8,0.4,1.1,0.7c0.3,0.3,0.5,0.7,0.7,1.1c0.2,0.4,0.3,0.9,0.3,1.4
			C182.2,113.3,182.1,113.7,182,114.1z"/>
		<path class="st0" d="M3.8,115.7c0.6,0.2,1.3,0.3,2,0.3h8.4v-8.7h-1.3v7.4H7.8v-7.4h-2c-0.8,0-1.5,0.1-2.2,0.3
			c-0.7,0.2-1.2,0.5-1.7,0.9c-0.5,0.4-0.8,0.8-1.1,1.4c-0.3,0.5-0.4,1.1-0.4,1.7c0,0.8,0.1,1.4,0.4,2c0.3,0.5,0.7,1,1.2,1.3
			C2.6,115.3,3.1,115.5,3.8,115.7z M1.8,111.6c0-0.5,0.1-0.9,0.3-1.3c0.2-0.4,0.5-0.7,0.8-1c0.3-0.3,0.7-0.5,1.1-0.6
			c0.4-0.1,0.8-0.2,1.3-0.2h1.3v6.1H5.3c-0.5,0-0.9-0.1-1.4-0.2c-0.4-0.1-0.8-0.3-1.1-0.6c-0.3-0.3-0.6-0.6-0.7-1
			C1.9,112.5,1.8,112.1,1.8,111.6z"/>
		<rect x="93.4" y="117.5" class="st0" width="1.3" height="1.3"/>
		<rect x="91.2" y="117.5" class="st0" width="1.3" height="1.3"/>
		<path class="st0" d="M104.4,117.6c0.1-0.4,0.1-0.8,0.1-1.4V116H121v-11.5h-1.3v10.2h-5.4l2.2-5.4c-0.3-0.3-0.7-0.6-1.1-0.8
			c-0.4-0.3-0.8-0.5-1.2-0.7c-0.4-0.2-0.8-0.4-1.2-0.5c-0.4-0.1-0.8-0.2-1.2-0.2c-0.4,0-0.8,0.1-1.3,0.2c-0.4,0.1-0.8,0.3-1.2,0.5
			c-0.4,0.2-0.8,0.4-1.2,0.7c-0.4,0.3-0.7,0.5-1.1,0.8l2.3,5.4h-4.8v-7.4h-1.3v9c0,0.4,0,0.7-0.1,0.9c0,0.2-0.1,0.5-0.2,0.6
			c-0.1,0.2-0.2,0.3-0.4,0.3c-0.2,0.1-0.4,0.1-0.6,0.1c-0.1,0-0.2,0-0.3,0c-0.1,0-0.2,0-0.4-0.1l-0.3,1.2c0.4,0.1,0.7,0.1,1,0.1
			c0.5,0,0.8-0.1,1.2-0.2c0.3-0.1,0.6-0.4,0.8-0.6C104.2,118.3,104.3,118,104.4,117.6z M108.6,109.8c0.5-0.4,1-0.7,1.5-0.9
			c0.5-0.2,1.1-0.3,1.6-0.3c0.6,0,1.1,0.1,1.7,0.3c0.6,0.2,1,0.5,1.4,0.9l-2,4.9h-2.3L108.6,109.8z"/>
		<rect x="4.2" y="104.5" class="st0" width="1.3" height="1.3"/>
		<polygon class="st0" points="9.7,124.4 7.7,124.4 3.4,129 3.4,124.4 1.8,124.4 1.8,133.5 3.4,133.5 3.4,130.9 4.8,129.4 
			7.9,133.5 9.9,133.5 5.9,128.3 		"/>
		<rect x="11.3" y="124.4" class="st0" width="1.6" height="9.1"/>
		<polygon class="st0" points="21.8,130.7 16.9,124.4 15.4,124.4 15.4,133.5 17,133.5 17,127 22,133.5 23.4,133.5 23.4,124.4 
			21.8,124.4 		"/>
		<path class="st0" d="M30,129.8h2.3v1.7c-0.6,0.4-1.3,0.7-2.2,0.7c-1.9,0-3.1-1.4-3.1-3.3v0c0-1.7,1.3-3.2,3-3.2
			c1.2,0,1.9,0.4,2.6,1l1-1.2c-0.9-0.8-1.9-1.2-3.5-1.2c-2.8,0-4.7,2.2-4.7,4.7v0c0,2.7,1.9,4.7,4.7,4.7c1.6,0,2.9-0.7,3.8-1.4v-3.8
			H30V129.8z"/>
		<path class="st0" d="M39.6,124.4h-3.4v9.1h3.4c2.9,0,4.9-2,4.9-4.6v0C44.4,126.3,42.5,124.4,39.6,124.4z M42.8,129
			c0,1.8-1.3,3.1-3.2,3.1h-1.8v-6.2h1.8C41.5,125.8,42.8,127.1,42.8,129L42.8,129z"/>
		<path class="st0" d="M50.7,124.2c-2.8,0-4.8,2.2-4.8,4.7v0c0,2.6,2,4.7,4.8,4.7c2.8,0,4.8-2.2,4.8-4.7v0
			C55.5,126.3,53.6,124.2,50.7,124.2z M53.8,129c0,1.8-1.3,3.2-3.1,3.2c-1.8,0-3.1-1.5-3.1-3.2v0c0-1.8,1.3-3.2,3.1-3.2
			C52.5,125.7,53.8,127.2,53.8,129L53.8,129z"/>
		<polygon class="st0" points="62,128.7 59.2,124.4 57.5,124.4 57.5,133.5 59.1,133.5 59.1,127 62,131.3 62,131.3 64.9,127 
			64.9,133.5 66.5,133.5 66.5,124.4 64.8,124.4 		"/>
		<path class="st0" d="M77.2,124.2c-2.8,0-4.8,2.2-4.8,4.7v0c0,2.6,2,4.7,4.8,4.7c2.8,0,4.8-2.2,4.8-4.7v0
			C82,126.3,80,124.2,77.2,124.2z M80.3,129c0,1.8-1.3,3.2-3.1,3.2c-1.8,0-3.1-1.5-3.1-3.2v0c0-1.8,1.3-3.2,3.1-3.2
			C79,125.7,80.3,127.2,80.3,129L80.3,129z"/>
		<polygon class="st0" points="84,133.5 85.6,133.5 85.6,129.8 90.2,129.8 90.2,128.3 85.6,128.3 85.6,125.8 90.8,125.8 90.8,124.4 
			84,124.4 		"/>
		<path class="st0" d="M100,128.2c-1.8-0.4-2.2-0.7-2.2-1.4v0c0-0.6,0.5-1.1,1.5-1.1c0.8,0,1.7,0.3,2.5,0.9l0.9-1.2
			c-0.9-0.7-2-1.1-3.3-1.1c-1.8,0-3.1,1.1-3.1,2.6v0c0,1.7,1.1,2.3,3,2.7c1.7,0.4,2.1,0.7,2.1,1.4v0c0,0.7-0.6,1.1-1.6,1.1
			c-1.1,0-2-0.4-2.9-1.2l-1,1.1c1.1,1,2.4,1.5,3.8,1.5c1.9,0,3.3-1,3.3-2.7v0C102.9,129.4,101.9,128.7,100,128.2z"/>
		<path class="st0" d="M107.9,124.3l-4,9.2h1.6l0.9-2.2h4.3l0.9,2.2h1.7l-4-9.2H107.9z M107,129.9l1.6-3.7l1.6,3.7H107z"/>
		<path class="st0" d="M120.5,129.6c0,1.7-0.9,2.5-2.3,2.5c-1.4,0-2.3-0.9-2.3-2.6v-5.2h-1.6v5.3c0,2.6,1.5,4,3.9,4
			c2.4,0,3.9-1.4,3.9-4.1v-5.2h-1.6V129.6z"/>
		<path class="st0" d="M127.9,124.4h-3.4v9.1h3.4c2.9,0,4.9-2,4.9-4.6v0C132.8,126.3,130.8,124.4,127.9,124.4z M131.1,129
			c0,1.8-1.3,3.1-3.2,3.1h-1.8v-6.2h1.8C129.8,125.8,131.1,127.1,131.1,129L131.1,129z"/>
		<rect x="134.8" y="124.4" class="st0" width="1.6" height="9.1"/>
		<path class="st0" d="M146,124.3l-4,9.2h1.6l0.9-2.2h4.3l0.9,2.2h1.7l-4-9.2H146z M145.2,129.9l1.6-3.7l1.6,3.7H145.2z"/>
		<path class="st0" d="M160.6,127.3L160.6,127.3c0-0.8-0.3-1.5-0.8-2c-0.6-0.6-1.5-0.9-2.6-0.9h-4.1v9.1h1.6v-3.2h2h0l2.2,3.2h1.9
			l-2.5-3.5C159.6,129.7,160.6,128.8,160.6,127.3z M154.7,128.9v-3.1h2.3c1.2,0,1.9,0.5,1.9,1.5v0c0,0.9-0.7,1.5-1.9,1.5H154.7z"/>
		<path class="st0" d="M166,124.3l-4,9.2h1.6l0.9-2.2h4.3l0.9,2.2h1.7l-4-9.2H166z M165.2,129.9l1.6-3.7l1.6,3.7H165.2z"/>
		<path class="st0" d="M178.9,128.8c0.7-0.4,1.3-0.9,1.3-2v0c0-0.6-0.2-1.1-0.6-1.5c-0.5-0.5-1.3-0.8-2.4-0.8h-4.1v9.1h4.2
			c2,0,3.4-0.9,3.4-2.5v0C180.7,129.7,180,129.1,178.9,128.8z M174.7,125.8h2.3c1,0,1.6,0.4,1.6,1.2v0c0,0.8-0.7,1.2-1.7,1.2h-2.2
			V125.8z M179.1,130.8c0,0.8-0.7,1.3-1.8,1.3h-2.7v-2.5h2.5C178.5,129.6,179.1,130,179.1,130.8L179.1,130.8z"/>
		<rect x="182.7" y="124.4" class="st0" width="1.6" height="9.1"/>
		<path class="st0" d="M191.4,124.3h-1.5l-4,9.2h1.6l0.9-2.2h4.3l0.9,2.2h1.7L191.4,124.3z M189,129.9l1.6-3.7l1.6,3.7H189z"/>
	</g>
</g>
</svg>
